<?xml version="1.0" encoding="utf-8" standalone="no"?>
<!DOCTYPE svg PUBLIC "-//W3C//DTD SVG 1.1//EN"
  "http://www.w3.org/Graphics/SVG/1.1/DTD/svg11.dtd">
<svg xmlns:xlink="http://www.w3.org/1999/xlink" width="864pt" height="576pt" viewBox="0 0 864 576" xmlns="http://www.w3.org/2000/svg" version="1.1">
 <metadata>
  <rdf:RDF xmlns:dc="http://purl.org/dc/elements/1.1/" xmlns:cc="http://creativecommons.org/ns#" xmlns:rdf="http://www.w3.org/1999/02/22-rdf-syntax-ns#">
   <cc:Work>
    <dc:type rdf:resource="http://purl.org/dc/dcmitype/StillImage"/>
    <dc:date>2023-08-13T22:59:50.008818</dc:date>
    <dc:format>image/svg+xml</dc:format>
    <dc:creator>
     <cc:Agent>
      <dc:title>Matplotlib v3.7.1, https://matplotlib.org/</dc:title>
     </cc:Agent>
    </dc:creator>
   </cc:Work>
  </rdf:RDF>
 </metadata>
 <defs>
  <style type="text/css">*{stroke-linejoin: round; stroke-linecap: butt}</style>
 </defs>
 <g id="figure_1">
  <g id="patch_1">
   <path d="M 0 576 
L 864 576 
L 864 0 
L 0 0 
z
" style="fill: #ffffff"/>
  </g>
  <g id="axes_1">
   <g id="patch_2">
    <path d="M 120.96 518.4 
L 777.6 518.4 
L 777.6 57.6 
L 120.96 57.6 
z
" style="fill: #ffffff"/>
   </g>
   <g id="matplotlib.axis_1">
    <g id="xtick_1">
     <g id="line2d_1">
      <path d="M 402.538045 518.4 
L 402.538045 57.6 
" clip-path="url(#p07acf0fe1c)" style="fill: none; stroke: #808080; stroke-width: 0.4; stroke-linecap: square"/>
     </g>
     <g id="line2d_2"/>
     <g id="text_1">
      <!-- 25 -->
      <g transform="translate(395.31367 51.604375) scale(0.12 -0.12)">
       <defs>
        <path id="DejaVuSansMono-32" d="M 1166 531 
L 3309 531 
L 3309 0 
L 475 0 
L 475 531 
Q 1059 1147 1496 1619 
Q 1934 2091 2100 2284 
Q 2413 2666 2522 2902 
Q 2631 3138 2631 3384 
Q 2631 3775 2401 3997 
Q 2172 4219 1772 4219 
Q 1488 4219 1175 4116 
Q 863 4013 513 3803 
L 513 4441 
Q 834 4594 1145 4672 
Q 1456 4750 1759 4750 
Q 2444 4750 2861 4386 
Q 3278 4022 3278 3431 
Q 3278 3131 3139 2831 
Q 3000 2531 2688 2169 
Q 2513 1966 2180 1606 
Q 1847 1247 1166 531 
z
" transform="scale(0.015625)"/>
        <path id="DejaVuSansMono-35" d="M 647 4666 
L 3009 4666 
L 3009 4134 
L 1222 4134 
L 1222 2988 
Q 1356 3038 1492 3061 
Q 1628 3084 1766 3084 
Q 2491 3084 2916 2656 
Q 3341 2228 3341 1497 
Q 3341 759 2895 334 
Q 2450 -91 1678 -91 
Q 1306 -91 998 -41 
Q 691 9 447 109 
L 447 750 
Q 734 594 1025 517 
Q 1316 441 1619 441 
Q 2141 441 2423 716 
Q 2706 991 2706 1497 
Q 2706 1997 2414 2275 
Q 2122 2553 1600 2553 
Q 1347 2553 1106 2495 
Q 866 2438 647 2322 
L 647 4666 
z
" transform="scale(0.015625)"/>
       </defs>
       <use xlink:href="#DejaVuSansMono-32"/>
       <use xlink:href="#DejaVuSansMono-35" x="60.205078"/>
      </g>
     </g>
    </g>
    <g id="xtick_2">
     <g id="line2d_3">
      <path d="M 402.538045 518.4 
L 402.538045 57.6 
" clip-path="url(#p07acf0fe1c)" style="fill: none; stroke: #808080; stroke-width: 0.4; stroke-linecap: square"/>
     </g>
     <g id="line2d_4"/>
     <g id="text_2">
      <!-- 25 -->
      <g transform="translate(395.31367 51.604375) scale(0.12 -0.12)">
       <use xlink:href="#DejaVuSansMono-32"/>
       <use xlink:href="#DejaVuSansMono-35" x="60.205078"/>
      </g>
     </g>
    </g>
    <g id="xtick_3">
     <g id="line2d_5">
      <path d="M 402.538045 518.4 
L 402.538045 57.6 
" clip-path="url(#p07acf0fe1c)" style="fill: none; stroke: #808080; stroke-width: 0.4; stroke-linecap: square"/>
     </g>
     <g id="line2d_6"/>
     <g id="text_3">
      <!-- 25 -->
      <g transform="translate(395.31367 51.604375) scale(0.12 -0.12)">
       <use xlink:href="#DejaVuSansMono-32"/>
       <use xlink:href="#DejaVuSansMono-35" x="60.205078"/>
      </g>
     </g>
    </g>
    <g id="xtick_4">
     <g id="line2d_7">
      <path d="M 515.169262 518.4 
L 515.169262 57.6 
" clip-path="url(#p07acf0fe1c)" style="fill: none; stroke: #808080; stroke-width: 0.4; stroke-linecap: square"/>
     </g>
     <g id="line2d_8"/>
     <g id="text_4">
      <!-- 35 -->
      <g transform="translate(507.944887 51.604375) scale(0.12 -0.12)">
       <defs>
        <path id="DejaVuSansMono-33" d="M 2425 2497 
Q 2884 2375 3128 2064 
Q 3372 1753 3372 1288 
Q 3372 644 2939 276 
Q 2506 -91 1741 -91 
Q 1419 -91 1084 -31 
Q 750 28 428 141 
L 428 769 
Q 747 603 1056 522 
Q 1366 441 1672 441 
Q 2191 441 2469 675 
Q 2747 909 2747 1350 
Q 2747 1756 2469 1995 
Q 2191 2234 1716 2234 
L 1234 2234 
L 1234 2753 
L 1716 2753 
Q 2150 2753 2394 2943 
Q 2638 3134 2638 3475 
Q 2638 3834 2411 4026 
Q 2184 4219 1766 4219 
Q 1488 4219 1191 4156 
Q 894 4094 569 3969 
L 569 4550 
Q 947 4650 1242 4700 
Q 1538 4750 1766 4750 
Q 2447 4750 2855 4408 
Q 3263 4066 3263 3500 
Q 3263 3116 3048 2859 
Q 2834 2603 2425 2497 
z
" transform="scale(0.015625)"/>
       </defs>
       <use xlink:href="#DejaVuSansMono-33"/>
       <use xlink:href="#DejaVuSansMono-35" x="60.205078"/>
      </g>
     </g>
    </g>
    <g id="xtick_5">
     <g id="line2d_9">
      <path d="M 571.484871 518.4 
L 571.484871 57.6 
" clip-path="url(#p07acf0fe1c)" style="fill: none; stroke: #808080; stroke-width: 0.4; stroke-linecap: square"/>
     </g>
     <g id="line2d_10"/>
     <g id="text_5">
      <!-- 40 -->
      <g transform="translate(564.260496 51.604375) scale(0.12 -0.12)">
       <defs>
        <path id="DejaVuSansMono-34" d="M 2297 4091 
L 825 1625 
L 2297 1625 
L 2297 4091 
z
M 2194 4666 
L 2925 4666 
L 2925 1625 
L 3547 1625 
L 3547 1113 
L 2925 1113 
L 2925 0 
L 2297 0 
L 2297 1113 
L 319 1113 
L 319 1709 
L 2194 4666 
z
" transform="scale(0.015625)"/>
        <path id="DejaVuSansMono-30" d="M 1509 2344 
Q 1509 2516 1629 2641 
Q 1750 2766 1919 2766 
Q 2094 2766 2219 2641 
Q 2344 2516 2344 2344 
Q 2344 2169 2220 2047 
Q 2097 1925 1919 1925 
Q 1744 1925 1626 2044 
Q 1509 2163 1509 2344 
z
M 1925 4250 
Q 1484 4250 1267 3775 
Q 1050 3300 1050 2328 
Q 1050 1359 1267 884 
Q 1484 409 1925 409 
Q 2369 409 2586 884 
Q 2803 1359 2803 2328 
Q 2803 3300 2586 3775 
Q 2369 4250 1925 4250 
z
M 1925 4750 
Q 2672 4750 3055 4137 
Q 3438 3525 3438 2328 
Q 3438 1134 3055 521 
Q 2672 -91 1925 -91 
Q 1178 -91 797 521 
Q 416 1134 416 2328 
Q 416 3525 797 4137 
Q 1178 4750 1925 4750 
z
" transform="scale(0.015625)"/>
       </defs>
       <use xlink:href="#DejaVuSansMono-34"/>
       <use xlink:href="#DejaVuSansMono-30" x="60.205078"/>
      </g>
     </g>
    </g>
    <g id="xtick_6">
     <g id="line2d_11">
      <path d="M 571.484871 518.4 
L 571.484871 57.6 
" clip-path="url(#p07acf0fe1c)" style="fill: none; stroke: #808080; stroke-width: 0.4; stroke-linecap: square"/>
     </g>
     <g id="line2d_12"/>
     <g id="text_6">
      <!-- 40 -->
      <g transform="translate(564.260496 51.604375) scale(0.12 -0.12)">
       <use xlink:href="#DejaVuSansMono-34"/>
       <use xlink:href="#DejaVuSansMono-30" x="60.205078"/>
      </g>
     </g>
    </g>
    <g id="xtick_7">
     <g id="line2d_13">
      <path d="M 571.484871 518.4 
L 571.484871 57.6 
" clip-path="url(#p07acf0fe1c)" style="fill: none; stroke: #808080; stroke-width: 0.4; stroke-linecap: square"/>
     </g>
     <g id="line2d_14"/>
     <g id="text_7">
      <!-- 40 -->
      <g transform="translate(564.260496 51.604375) scale(0.12 -0.12)">
       <use xlink:href="#DejaVuSansMono-34"/>
       <use xlink:href="#DejaVuSansMono-30" x="60.205078"/>
      </g>
     </g>
    </g>
    <g id="xtick_8">
     <g id="line2d_15">
      <path d="M 684.116089 518.4 
L 684.116089 57.6 
" clip-path="url(#p07acf0fe1c)" style="fill: none; stroke: #808080; stroke-width: 0.4; stroke-linecap: square"/>
     </g>
     <g id="line2d_16"/>
     <g id="text_8">
      <!-- 50 -->
      <g transform="translate(676.891714 51.604375) scale(0.12 -0.12)">
       <use xlink:href="#DejaVuSansMono-35"/>
       <use xlink:href="#DejaVuSansMono-30" x="60.205078"/>
      </g>
     </g>
    </g>
    <g id="xtick_9">
     <g id="line2d_17">
      <path d="M 740.431698 518.4 
L 740.431698 57.6 
" clip-path="url(#p07acf0fe1c)" style="fill: none; stroke: #808080; stroke-width: 0.4; stroke-linecap: square"/>
     </g>
     <g id="line2d_18"/>
     <g id="text_9">
      <!-- 55 -->
      <g transform="translate(733.207323 51.604375) scale(0.12 -0.12)">
       <use xlink:href="#DejaVuSansMono-35"/>
       <use xlink:href="#DejaVuSansMono-35" x="60.205078"/>
      </g>
     </g>
    </g>
   </g>
   <g id="patch_3">
    <path d="M 120.96 518.4 
L 380.011801 518.4 
L 380.011801 497.334857 
L 120.96 497.334857 
z
" clip-path="url(#p07acf0fe1c)" style="fill: #9a0f0a; opacity: 0.7"/>
   </g>
   <g id="patch_4">
    <path d="M 120.96 471.003429 
L 391.274923 471.003429 
L 391.274923 449.938286 
L 120.96 449.938286 
z
" clip-path="url(#p07acf0fe1c)" style="fill: #9a0f0a; opacity: 0.7"/>
   </g>
   <g id="patch_5">
    <path d="M 120.96 423.606857 
L 391.274923 423.606857 
L 391.274923 402.541714 
L 120.96 402.541714 
z
" clip-path="url(#p07acf0fe1c)" style="fill: #9a0f0a; opacity: 0.7"/>
   </g>
   <g id="patch_6">
    <path d="M 120.96 376.210286 
L 402.538045 376.210286 
L 402.538045 355.145143 
L 120.96 355.145143 
z
" clip-path="url(#p07acf0fe1c)" style="fill: #9a0f0a; opacity: 0.7"/>
   </g>
   <g id="patch_7">
    <path d="M 120.96 328.813714 
L 515.169262 328.813714 
L 515.169262 307.748571 
L 120.96 307.748571 
z
" clip-path="url(#p07acf0fe1c)" style="fill: #9a0f0a; opacity: 0.7"/>
   </g>
   <g id="patch_8">
    <path d="M 120.96 281.417143 
L 560.22175 281.417143 
L 560.22175 260.352 
L 120.96 260.352 
z
" clip-path="url(#p07acf0fe1c)" style="fill: #9a0f0a; opacity: 0.7"/>
   </g>
   <g id="patch_9">
    <path d="M 120.96 234.020571 
L 571.484871 234.020571 
L 571.484871 212.955429 
L 120.96 212.955429 
z
" clip-path="url(#p07acf0fe1c)" style="fill: #9a0f0a; opacity: 0.7"/>
   </g>
   <g id="patch_10">
    <path d="M 120.96 186.624 
L 582.747993 186.624 
L 582.747993 165.558857 
L 120.96 165.558857 
z
" clip-path="url(#p07acf0fe1c)" style="fill: #9a0f0a; opacity: 0.7"/>
   </g>
   <g id="patch_11">
    <path d="M 120.96 139.227429 
L 706.642333 139.227429 
L 706.642333 118.162286 
L 120.96 118.162286 
z
" clip-path="url(#p07acf0fe1c)" style="fill: #9a0f0a; opacity: 0.7"/>
   </g>
   <g id="patch_12">
    <path d="M 120.96 91.830857 
L 717.905455 91.830857 
L 717.905455 70.765714 
L 120.96 70.765714 
z
" clip-path="url(#p07acf0fe1c)" style="fill: #9a0f0a; opacity: 0.7"/>
   </g>
   <g id="patch_13">
    <path d="M 120.96 518.4 
L 120.96 57.6 
" style="fill: none; opacity: 0.9; stroke: #808080; stroke-width: 1.4; stroke-linejoin: miter; stroke-linecap: round"/>
   </g>
   <g id="text_10">
    <path d="M 389.361862 515.718871 
L 389.361862 509.404808 
L 387.004049 509.404808 
L 387.004049 508.561058 
L 392.677487 508.561058 
L 392.677487 509.404808 
L 390.310299 509.404808 
L 390.310299 515.718871 
L 389.361862 515.718871 
z
M 393.679635 515.718871 
L 393.679635 508.561058 
L 394.62651 508.561058 
L 394.62651 511.500121 
L 398.346823 511.500121 
L 398.346823 508.561058 
L 399.293698 508.561058 
L 399.293698 515.718871 
L 398.346823 515.718871 
L 398.346823 512.345433 
L 394.62651 512.345433 
L 394.62651 515.718871 
L 393.679635 515.718871 
z
M 400.890377 515.718871 
L 400.890377 508.561058 
L 406.06694 508.561058 
L 406.06694 509.404808 
L 401.838815 509.404808 
L 401.838815 511.596996 
L 405.79819 511.596996 
L 405.79819 512.437621 
L 401.838815 512.437621 
L 401.838815 514.873558 
L 406.232565 514.873558 
L 406.232565 515.718871 
L 400.890377 515.718871 
z
M 415.744869 514.951683 
Q 416.404244 515.406371 416.960494 515.615746 
L 416.682369 516.275121 
Q 415.910494 515.996996 415.143307 515.396996 
Q 414.347994 515.840746 413.385494 515.840746 
Q 412.413619 515.840746 411.622994 515.371996 
Q 410.832369 514.903246 410.404244 514.054808 
Q 409.977682 513.204808 409.977682 512.139183 
Q 409.977682 511.079808 410.407369 510.211058 
Q 410.837057 509.342308 411.630807 508.887621 
Q 412.424557 508.432933 413.405807 508.432933 
Q 414.396432 508.432933 415.191744 508.904808 
Q 415.988619 509.376683 416.405807 510.223558 
Q 416.822994 511.070433 416.822994 512.134496 
Q 416.822994 513.018871 416.554244 513.725121 
Q 416.287057 514.429808 415.744869 514.951683 
z
M 413.658932 513.740746 
Q 414.479244 513.970433 415.012057 514.425121 
Q 415.846432 513.662621 415.846432 512.134496 
Q 415.846432 511.265746 415.551119 510.617308 
Q 415.255807 509.967308 414.687057 509.607933 
Q 414.118307 509.248558 413.410494 509.248558 
Q 412.351119 509.248558 411.652682 509.973558 
Q 410.954244 510.698558 410.954244 512.139183 
Q 410.954244 513.536058 411.644869 514.282933 
Q 412.335494 515.029808 413.410494 515.029808 
Q 413.918307 515.029808 414.366744 514.839183 
Q 413.922994 514.551683 413.429244 514.429808 
L 413.658932 513.740746 
z
M 422.795065 508.561058 
L 423.74194 508.561058 
L 423.74194 512.696996 
Q 423.74194 513.775121 423.49819 514.411058 
Q 423.25444 515.045433 422.61694 515.443871 
Q 421.97944 515.840746 420.945065 515.840746 
Q 419.938815 515.840746 419.29819 515.493871 
Q 418.659127 515.146996 418.38569 514.490746 
Q 418.112252 513.834496 418.112252 512.696996 
L 418.112252 508.561058 
L 419.059127 508.561058 
L 419.059127 512.690746 
Q 419.059127 513.623558 419.232565 514.065746 
Q 419.406002 514.507933 419.827877 514.746996 
Q 420.251315 514.986058 420.862252 514.986058 
Q 421.906002 514.986058 422.349752 514.512621 
Q 422.795065 514.039183 422.795065 512.690746 
L 422.795065 508.561058 
z
M 425.338619 515.718871 
L 425.338619 508.561058 
L 430.515182 508.561058 
L 430.515182 509.404808 
L 426.287057 509.404808 
L 426.287057 511.596996 
L 430.246432 511.596996 
L 430.246432 512.437621 
L 426.287057 512.437621 
L 426.287057 514.873558 
L 430.680807 514.873558 
L 430.680807 515.718871 
L 425.338619 515.718871 
z
M 432.008541 515.718871 
L 432.008541 508.561058 
L 437.185104 508.561058 
L 437.185104 509.404808 
L 432.956979 509.404808 
L 432.956979 511.596996 
L 436.916354 511.596996 
L 436.916354 512.437621 
L 432.956979 512.437621 
L 432.956979 514.873558 
L 437.350729 514.873558 
L 437.350729 515.718871 
L 432.008541 515.718871 
z
M 438.650338 515.718871 
L 438.650338 508.561058 
L 439.620651 508.561058 
L 443.381588 514.181371 
L 443.381588 508.561058 
L 444.289401 508.561058 
L 444.289401 515.718871 
L 443.317526 515.718871 
L 439.558151 510.093871 
L 439.558151 515.718871 
L 438.650338 515.718871 
z
" style="fill: #9a0f0a; stroke: #ffffff; stroke-width: 2"/>
    <path d="M 389.361862 515.718871 
L 389.361862 509.404808 
L 387.004049 509.404808 
L 387.004049 508.561058 
L 392.677487 508.561058 
L 392.677487 509.404808 
L 390.310299 509.404808 
L 390.310299 515.718871 
L 389.361862 515.718871 
z
M 393.679635 515.718871 
L 393.679635 508.561058 
L 394.62651 508.561058 
L 394.62651 511.500121 
L 398.346823 511.500121 
L 398.346823 508.561058 
L 399.293698 508.561058 
L 399.293698 515.718871 
L 398.346823 515.718871 
L 398.346823 512.345433 
L 394.62651 512.345433 
L 394.62651 515.718871 
L 393.679635 515.718871 
z
M 400.890377 515.718871 
L 400.890377 508.561058 
L 406.06694 508.561058 
L 406.06694 509.404808 
L 401.838815 509.404808 
L 401.838815 511.596996 
L 405.79819 511.596996 
L 405.79819 512.437621 
L 401.838815 512.437621 
L 401.838815 514.873558 
L 406.232565 514.873558 
L 406.232565 515.718871 
L 400.890377 515.718871 
z
M 415.744869 514.951683 
Q 416.404244 515.406371 416.960494 515.615746 
L 416.682369 516.275121 
Q 415.910494 515.996996 415.143307 515.396996 
Q 414.347994 515.840746 413.385494 515.840746 
Q 412.413619 515.840746 411.622994 515.371996 
Q 410.832369 514.903246 410.404244 514.054808 
Q 409.977682 513.204808 409.977682 512.139183 
Q 409.977682 511.079808 410.407369 510.211058 
Q 410.837057 509.342308 411.630807 508.887621 
Q 412.424557 508.432933 413.405807 508.432933 
Q 414.396432 508.432933 415.191744 508.904808 
Q 415.988619 509.376683 416.405807 510.223558 
Q 416.822994 511.070433 416.822994 512.134496 
Q 416.822994 513.018871 416.554244 513.725121 
Q 416.287057 514.429808 415.744869 514.951683 
z
M 413.658932 513.740746 
Q 414.479244 513.970433 415.012057 514.425121 
Q 415.846432 513.662621 415.846432 512.134496 
Q 415.846432 511.265746 415.551119 510.617308 
Q 415.255807 509.967308 414.687057 509.607933 
Q 414.118307 509.248558 413.410494 509.248558 
Q 412.351119 509.248558 411.652682 509.973558 
Q 410.954244 510.698558 410.954244 512.139183 
Q 410.954244 513.536058 411.644869 514.282933 
Q 412.335494 515.029808 413.410494 515.029808 
Q 413.918307 515.029808 414.366744 514.839183 
Q 413.922994 514.551683 413.429244 514.429808 
L 413.658932 513.740746 
z
M 422.795065 508.561058 
L 423.74194 508.561058 
L 423.74194 512.696996 
Q 423.74194 513.775121 423.49819 514.411058 
Q 423.25444 515.045433 422.61694 515.443871 
Q 421.97944 515.840746 420.945065 515.840746 
Q 419.938815 515.840746 419.29819 515.493871 
Q 418.659127 515.146996 418.38569 514.490746 
Q 418.112252 513.834496 418.112252 512.696996 
L 418.112252 508.561058 
L 419.059127 508.561058 
L 419.059127 512.690746 
Q 419.059127 513.623558 419.232565 514.065746 
Q 419.406002 514.507933 419.827877 514.746996 
Q 420.251315 514.986058 420.862252 514.986058 
Q 421.906002 514.986058 422.349752 514.512621 
Q 422.795065 514.039183 422.795065 512.690746 
L 422.795065 508.561058 
z
M 425.338619 515.718871 
L 425.338619 508.561058 
L 430.515182 508.561058 
L 430.515182 509.404808 
L 426.287057 509.404808 
L 426.287057 511.596996 
L 430.246432 511.596996 
L 430.246432 512.437621 
L 426.287057 512.437621 
L 426.287057 514.873558 
L 430.680807 514.873558 
L 430.680807 515.718871 
L 425.338619 515.718871 
z
M 432.008541 515.718871 
L 432.008541 508.561058 
L 437.185104 508.561058 
L 437.185104 509.404808 
L 432.956979 509.404808 
L 432.956979 511.596996 
L 436.916354 511.596996 
L 436.916354 512.437621 
L 432.956979 512.437621 
L 432.956979 514.873558 
L 437.350729 514.873558 
L 437.350729 515.718871 
L 432.008541 515.718871 
z
M 438.650338 515.718871 
L 438.650338 508.561058 
L 439.620651 508.561058 
L 443.381588 514.181371 
L 443.381588 508.561058 
L 444.289401 508.561058 
L 444.289401 515.718871 
L 443.317526 515.718871 
L 439.558151 510.093871 
L 439.558151 515.718871 
L 438.650338 515.718871 
z
" style="fill: #9a0f0a"/>
   </g>
   <g id="text_11">
    <path d="M 400.624983 468.322299 
L 400.624983 462.008237 
L 398.267171 462.008237 
L 398.267171 461.164487 
L 403.940608 461.164487 
L 403.940608 462.008237 
L 401.573421 462.008237 
L 401.573421 468.322299 
L 400.624983 468.322299 
z
M 404.942757 468.322299 
L 404.942757 461.164487 
L 405.889632 461.164487 
L 405.889632 464.103549 
L 409.609944 464.103549 
L 409.609944 461.164487 
L 410.556819 461.164487 
L 410.556819 468.322299 
L 409.609944 468.322299 
L 409.609944 464.948862 
L 405.889632 464.948862 
L 405.889632 468.322299 
L 404.942757 468.322299 
z
M 412.153499 468.322299 
L 412.153499 461.164487 
L 417.330062 461.164487 
L 417.330062 462.008237 
L 413.101937 462.008237 
L 413.101937 464.200424 
L 417.061312 464.200424 
L 417.061312 465.041049 
L 413.101937 465.041049 
L 413.101937 467.476987 
L 417.495687 467.476987 
L 417.495687 468.322299 
L 412.153499 468.322299 
z
M 421.543929 468.322299 
L 421.543929 461.164487 
L 422.490804 461.164487 
L 422.490804 464.714487 
L 426.045491 461.164487 
L 427.329866 461.164487 
L 424.326741 464.064487 
L 427.461116 468.322299 
L 426.211116 468.322299 
L 423.662679 464.698862 
L 422.490804 465.841049 
L 422.490804 468.322299 
L 421.543929 468.322299 
z
M 428.413851 468.322299 
L 428.413851 461.164487 
L 429.360726 461.164487 
L 429.360726 468.322299 
L 428.413851 468.322299 
z
M 431.021858 468.322299 
L 431.021858 461.164487 
L 431.992171 461.164487 
L 435.753108 466.784799 
L 435.753108 461.164487 
L 436.660921 461.164487 
L 436.660921 468.322299 
L 435.689046 468.322299 
L 431.929671 462.697299 
L 431.929671 468.322299 
L 431.021858 468.322299 
z
M 441.602913 465.514487 
L 441.602913 464.675424 
L 444.634163 464.669174 
L 444.634163 467.325424 
Q 443.935726 467.883237 443.193538 468.164487 
Q 442.451351 468.444174 441.670101 468.444174 
Q 440.615413 468.444174 439.752913 467.992612 
Q 438.891976 467.541049 438.452913 466.686362 
Q 438.013851 465.831674 438.013851 464.776987 
Q 438.013851 463.731674 438.449788 462.826987 
Q 438.887288 461.920737 439.707601 461.481674 
Q 440.527913 461.042612 441.596663 461.042612 
Q 442.373226 461.042612 442.999788 461.294174 
Q 443.627913 461.544174 443.984163 461.994174 
Q 444.341976 462.442612 444.526351 463.166049 
L 443.673226 463.400424 
Q 443.510726 462.853549 443.271663 462.541049 
Q 443.032601 462.228549 442.587288 462.041049 
Q 442.143538 461.851987 441.602913 461.851987 
Q 440.952913 461.851987 440.479476 462.050424 
Q 440.006038 462.247299 439.715413 462.570737 
Q 439.424788 462.892612 439.263851 463.278549 
Q 438.990413 463.942612 438.990413 464.719174 
Q 438.990413 465.675424 439.320101 466.320737 
Q 439.649788 466.964487 440.279476 467.276987 
Q 440.909163 467.589487 441.616976 467.589487 
Q 442.232601 467.589487 442.818538 467.353549 
Q 443.404476 467.116049 443.706038 466.847299 
L 443.706038 465.514487 
L 441.602913 465.514487 
z
M 448.520491 464.836362 
Q 448.520491 463.053549 449.476741 462.045737 
Q 450.434554 461.036362 451.948616 461.036362 
Q 452.940804 461.036362 453.736116 461.511362 
Q 454.531429 461.984799 454.948616 462.831674 
Q 455.367366 463.678549 455.367366 464.753549 
Q 455.367366 465.841049 454.926741 466.700424 
Q 454.487679 467.559799 453.681429 468.001987 
Q 452.876741 468.444174 451.943929 468.444174 
Q 450.932991 468.444174 450.136116 467.956674 
Q 449.340804 467.467612 448.929866 466.623862 
Q 448.520491 465.778549 448.520491 464.836362 
z
M 449.497054 464.850424 
Q 449.497054 466.144174 450.192366 466.889487 
Q 450.889241 467.633237 451.939241 467.633237 
Q 453.007991 467.633237 453.698616 466.881674 
Q 454.390804 466.130112 454.390804 464.747299 
Q 454.390804 463.873862 454.095491 463.222299 
Q 453.800179 462.570737 453.229866 462.211362 
Q 452.661116 461.851987 451.953304 461.851987 
Q 450.948616 461.851987 450.222054 462.544174 
Q 449.497054 463.234799 449.497054 464.850424 
z
M 456.636312 468.322299 
L 456.636312 461.164487 
L 461.465999 461.164487 
L 461.465999 462.008237 
L 457.583187 462.008237 
L 457.583187 464.225424 
L 460.942562 464.225424 
L 460.942562 465.070737 
L 457.583187 465.070737 
L 457.583187 468.322299 
L 456.636312 468.322299 
z
M 465.50428 468.322299 
L 465.50428 461.164487 
L 466.451155 461.164487 
L 466.451155 464.103549 
L 470.171468 464.103549 
L 470.171468 461.164487 
L 471.118343 461.164487 
L 471.118343 468.322299 
L 470.171468 468.322299 
L 470.171468 464.948862 
L 466.451155 464.948862 
L 466.451155 468.322299 
L 465.50428 468.322299 
z
M 472.715022 468.322299 
L 472.715022 461.164487 
L 477.891585 461.164487 
L 477.891585 462.008237 
L 473.66346 462.008237 
L 473.66346 464.200424 
L 477.622835 464.200424 
L 477.622835 465.041049 
L 473.66346 465.041049 
L 473.66346 467.476987 
L 478.05721 467.476987 
L 478.05721 468.322299 
L 472.715022 468.322299 
z
M 478.580257 468.322299 
L 481.328694 461.164487 
L 482.349007 461.164487 
L 485.278694 468.322299 
L 484.200569 468.322299 
L 483.364632 466.153549 
L 480.372444 466.153549 
L 479.584944 468.322299 
L 478.580257 468.322299 
z
M 480.645882 465.383237 
L 483.072444 465.383237 
L 482.325569 463.400424 
Q 481.983382 462.497299 481.817757 461.916049 
Q 481.680257 462.605112 481.431819 463.283237 
L 480.645882 465.383237 
z
M 486.050179 468.322299 
L 486.050179 461.164487 
L 489.223616 461.164487 
Q 490.181429 461.164487 490.678304 461.358237 
Q 491.176741 461.550424 491.475179 462.039487 
Q 491.773616 462.526987 491.773616 463.117612 
Q 491.773616 463.878549 491.279866 464.401987 
Q 490.786116 464.923862 489.756429 465.066049 
Q 490.132991 465.245737 490.328304 465.422299 
Q 490.742366 465.801987 491.114241 466.373862 
L 492.359554 468.322299 
L 491.167366 468.322299 
L 490.220491 466.833237 
Q 489.804866 466.187924 489.536116 465.847299 
Q 489.268929 465.505112 489.056429 465.369174 
Q 488.843929 465.231674 488.623616 465.176987 
Q 488.462679 465.144174 488.097054 465.144174 
L 486.997054 465.144174 
L 486.997054 468.322299 
L 486.050179 468.322299 
z
M 486.997054 464.323862 
L 489.034554 464.323862 
Q 489.682991 464.323862 490.048616 464.189487 
Q 490.415804 464.055112 490.606429 463.759799 
Q 490.797054 463.464487 490.797054 463.117612 
Q 490.797054 462.609799 490.428304 462.283237 
Q 490.059554 461.955112 489.262679 461.955112 
L 486.997054 461.955112 
L 486.997054 464.323862 
z
M 494.903108 468.322299 
L 494.903108 462.008237 
L 492.545296 462.008237 
L 492.545296 461.164487 
L 498.218733 461.164487 
L 498.218733 462.008237 
L 495.851546 462.008237 
L 495.851546 468.322299 
L 494.903108 468.322299 
z
M 498.869319 466.022299 
L 499.761507 465.944174 
Q 499.825569 466.481674 500.056819 466.825424 
Q 500.289632 467.169174 500.777132 467.381674 
Q 501.266194 467.594174 501.877132 467.594174 
Q 502.417757 467.594174 502.833382 467.433237 
Q 503.249007 467.272299 503.450569 466.992612 
Q 503.653694 466.711362 503.653694 466.378549 
Q 503.653694 466.042612 503.458382 465.791049 
Q 503.263069 465.539487 502.814632 465.367612 
Q 502.525569 465.255112 501.539632 465.019174 
Q 500.553694 464.781674 500.158382 464.572299 
Q 499.644319 464.303549 499.392757 463.906674 
Q 499.142757 463.508237 499.142757 463.014487 
Q 499.142757 462.472299 499.449007 462.001987 
Q 499.756819 461.530112 500.347444 461.286362 
Q 500.939632 461.042612 501.661507 461.042612 
Q 502.456819 461.042612 503.064632 461.298862 
Q 503.674007 461.555112 504.000569 462.053549 
Q 504.327132 462.550424 504.352132 463.180112 
L 503.444319 463.248862 
Q 503.370882 462.570737 502.947444 462.223862 
Q 502.525569 461.876987 501.700569 461.876987 
Q 500.841194 461.876987 500.447444 462.192612 
Q 500.055257 462.506674 500.055257 462.950424 
Q 500.055257 463.336362 500.333382 463.586362 
Q 500.606819 463.834799 501.761507 464.095737 
Q 502.916194 464.356674 503.345882 464.551987 
Q 503.970882 464.841049 504.267757 465.283237 
Q 504.566194 465.723862 504.566194 466.300424 
Q 504.566194 466.872299 504.239632 467.378549 
Q 503.913069 467.883237 503.299007 468.164487 
Q 502.686507 468.444174 501.920882 468.444174 
Q 500.949007 468.444174 500.291194 468.161362 
Q 499.634944 467.878549 499.261507 467.309799 
Q 498.888069 466.739487 498.869319 466.022299 
z
" style="fill: #9a0f0a; stroke: #ffffff; stroke-width: 2"/>
    <path d="M 400.624983 468.322299 
L 400.624983 462.008237 
L 398.267171 462.008237 
L 398.267171 461.164487 
L 403.940608 461.164487 
L 403.940608 462.008237 
L 401.573421 462.008237 
L 401.573421 468.322299 
L 400.624983 468.322299 
z
M 404.942757 468.322299 
L 404.942757 461.164487 
L 405.889632 461.164487 
L 405.889632 464.103549 
L 409.609944 464.103549 
L 409.609944 461.164487 
L 410.556819 461.164487 
L 410.556819 468.322299 
L 409.609944 468.322299 
L 409.609944 464.948862 
L 405.889632 464.948862 
L 405.889632 468.322299 
L 404.942757 468.322299 
z
M 412.153499 468.322299 
L 412.153499 461.164487 
L 417.330062 461.164487 
L 417.330062 462.008237 
L 413.101937 462.008237 
L 413.101937 464.200424 
L 417.061312 464.200424 
L 417.061312 465.041049 
L 413.101937 465.041049 
L 413.101937 467.476987 
L 417.495687 467.476987 
L 417.495687 468.322299 
L 412.153499 468.322299 
z
M 421.543929 468.322299 
L 421.543929 461.164487 
L 422.490804 461.164487 
L 422.490804 464.714487 
L 426.045491 461.164487 
L 427.329866 461.164487 
L 424.326741 464.064487 
L 427.461116 468.322299 
L 426.211116 468.322299 
L 423.662679 464.698862 
L 422.490804 465.841049 
L 422.490804 468.322299 
L 421.543929 468.322299 
z
M 428.413851 468.322299 
L 428.413851 461.164487 
L 429.360726 461.164487 
L 429.360726 468.322299 
L 428.413851 468.322299 
z
M 431.021858 468.322299 
L 431.021858 461.164487 
L 431.992171 461.164487 
L 435.753108 466.784799 
L 435.753108 461.164487 
L 436.660921 461.164487 
L 436.660921 468.322299 
L 435.689046 468.322299 
L 431.929671 462.697299 
L 431.929671 468.322299 
L 431.021858 468.322299 
z
M 441.602913 465.514487 
L 441.602913 464.675424 
L 444.634163 464.669174 
L 444.634163 467.325424 
Q 443.935726 467.883237 443.193538 468.164487 
Q 442.451351 468.444174 441.670101 468.444174 
Q 440.615413 468.444174 439.752913 467.992612 
Q 438.891976 467.541049 438.452913 466.686362 
Q 438.013851 465.831674 438.013851 464.776987 
Q 438.013851 463.731674 438.449788 462.826987 
Q 438.887288 461.920737 439.707601 461.481674 
Q 440.527913 461.042612 441.596663 461.042612 
Q 442.373226 461.042612 442.999788 461.294174 
Q 443.627913 461.544174 443.984163 461.994174 
Q 444.341976 462.442612 444.526351 463.166049 
L 443.673226 463.400424 
Q 443.510726 462.853549 443.271663 462.541049 
Q 443.032601 462.228549 442.587288 462.041049 
Q 442.143538 461.851987 441.602913 461.851987 
Q 440.952913 461.851987 440.479476 462.050424 
Q 440.006038 462.247299 439.715413 462.570737 
Q 439.424788 462.892612 439.263851 463.278549 
Q 438.990413 463.942612 438.990413 464.719174 
Q 438.990413 465.675424 439.320101 466.320737 
Q 439.649788 466.964487 440.279476 467.276987 
Q 440.909163 467.589487 441.616976 467.589487 
Q 442.232601 467.589487 442.818538 467.353549 
Q 443.404476 467.116049 443.706038 466.847299 
L 443.706038 465.514487 
L 441.602913 465.514487 
z
M 448.520491 464.836362 
Q 448.520491 463.053549 449.476741 462.045737 
Q 450.434554 461.036362 451.948616 461.036362 
Q 452.940804 461.036362 453.736116 461.511362 
Q 454.531429 461.984799 454.948616 462.831674 
Q 455.367366 463.678549 455.367366 464.753549 
Q 455.367366 465.841049 454.926741 466.700424 
Q 454.487679 467.559799 453.681429 468.001987 
Q 452.876741 468.444174 451.943929 468.444174 
Q 450.932991 468.444174 450.136116 467.956674 
Q 449.340804 467.467612 448.929866 466.623862 
Q 448.520491 465.778549 448.520491 464.836362 
z
M 449.497054 464.850424 
Q 449.497054 466.144174 450.192366 466.889487 
Q 450.889241 467.633237 451.939241 467.633237 
Q 453.007991 467.633237 453.698616 466.881674 
Q 454.390804 466.130112 454.390804 464.747299 
Q 454.390804 463.873862 454.095491 463.222299 
Q 453.800179 462.570737 453.229866 462.211362 
Q 452.661116 461.851987 451.953304 461.851987 
Q 450.948616 461.851987 450.222054 462.544174 
Q 449.497054 463.234799 449.497054 464.850424 
z
M 456.636312 468.322299 
L 456.636312 461.164487 
L 461.465999 461.164487 
L 461.465999 462.008237 
L 457.583187 462.008237 
L 457.583187 464.225424 
L 460.942562 464.225424 
L 460.942562 465.070737 
L 457.583187 465.070737 
L 457.583187 468.322299 
L 456.636312 468.322299 
z
M 465.50428 468.322299 
L 465.50428 461.164487 
L 466.451155 461.164487 
L 466.451155 464.103549 
L 470.171468 464.103549 
L 470.171468 461.164487 
L 471.118343 461.164487 
L 471.118343 468.322299 
L 470.171468 468.322299 
L 470.171468 464.948862 
L 466.451155 464.948862 
L 466.451155 468.322299 
L 465.50428 468.322299 
z
M 472.715022 468.322299 
L 472.715022 461.164487 
L 477.891585 461.164487 
L 477.891585 462.008237 
L 473.66346 462.008237 
L 473.66346 464.200424 
L 477.622835 464.200424 
L 477.622835 465.041049 
L 473.66346 465.041049 
L 473.66346 467.476987 
L 478.05721 467.476987 
L 478.05721 468.322299 
L 472.715022 468.322299 
z
M 478.580257 468.322299 
L 481.328694 461.164487 
L 482.349007 461.164487 
L 485.278694 468.322299 
L 484.200569 468.322299 
L 483.364632 466.153549 
L 480.372444 466.153549 
L 479.584944 468.322299 
L 478.580257 468.322299 
z
M 480.645882 465.383237 
L 483.072444 465.383237 
L 482.325569 463.400424 
Q 481.983382 462.497299 481.817757 461.916049 
Q 481.680257 462.605112 481.431819 463.283237 
L 480.645882 465.383237 
z
M 486.050179 468.322299 
L 486.050179 461.164487 
L 489.223616 461.164487 
Q 490.181429 461.164487 490.678304 461.358237 
Q 491.176741 461.550424 491.475179 462.039487 
Q 491.773616 462.526987 491.773616 463.117612 
Q 491.773616 463.878549 491.279866 464.401987 
Q 490.786116 464.923862 489.756429 465.066049 
Q 490.132991 465.245737 490.328304 465.422299 
Q 490.742366 465.801987 491.114241 466.373862 
L 492.359554 468.322299 
L 491.167366 468.322299 
L 490.220491 466.833237 
Q 489.804866 466.187924 489.536116 465.847299 
Q 489.268929 465.505112 489.056429 465.369174 
Q 488.843929 465.231674 488.623616 465.176987 
Q 488.462679 465.144174 488.097054 465.144174 
L 486.997054 465.144174 
L 486.997054 468.322299 
L 486.050179 468.322299 
z
M 486.997054 464.323862 
L 489.034554 464.323862 
Q 489.682991 464.323862 490.048616 464.189487 
Q 490.415804 464.055112 490.606429 463.759799 
Q 490.797054 463.464487 490.797054 463.117612 
Q 490.797054 462.609799 490.428304 462.283237 
Q 490.059554 461.955112 489.262679 461.955112 
L 486.997054 461.955112 
L 486.997054 464.323862 
z
M 494.903108 468.322299 
L 494.903108 462.008237 
L 492.545296 462.008237 
L 492.545296 461.164487 
L 498.218733 461.164487 
L 498.218733 462.008237 
L 495.851546 462.008237 
L 495.851546 468.322299 
L 494.903108 468.322299 
z
M 498.869319 466.022299 
L 499.761507 465.944174 
Q 499.825569 466.481674 500.056819 466.825424 
Q 500.289632 467.169174 500.777132 467.381674 
Q 501.266194 467.594174 501.877132 467.594174 
Q 502.417757 467.594174 502.833382 467.433237 
Q 503.249007 467.272299 503.450569 466.992612 
Q 503.653694 466.711362 503.653694 466.378549 
Q 503.653694 466.042612 503.458382 465.791049 
Q 503.263069 465.539487 502.814632 465.367612 
Q 502.525569 465.255112 501.539632 465.019174 
Q 500.553694 464.781674 500.158382 464.572299 
Q 499.644319 464.303549 499.392757 463.906674 
Q 499.142757 463.508237 499.142757 463.014487 
Q 499.142757 462.472299 499.449007 462.001987 
Q 499.756819 461.530112 500.347444 461.286362 
Q 500.939632 461.042612 501.661507 461.042612 
Q 502.456819 461.042612 503.064632 461.298862 
Q 503.674007 461.555112 504.000569 462.053549 
Q 504.327132 462.550424 504.352132 463.180112 
L 503.444319 463.248862 
Q 503.370882 462.570737 502.947444 462.223862 
Q 502.525569 461.876987 501.700569 461.876987 
Q 500.841194 461.876987 500.447444 462.192612 
Q 500.055257 462.506674 500.055257 462.950424 
Q 500.055257 463.336362 500.333382 463.586362 
Q 500.606819 463.834799 501.761507 464.095737 
Q 502.916194 464.356674 503.345882 464.551987 
Q 503.970882 464.841049 504.267757 465.283237 
Q 504.566194 465.723862 504.566194 466.300424 
Q 504.566194 466.872299 504.239632 467.378549 
Q 503.913069 467.883237 503.299007 468.164487 
Q 502.686507 468.444174 501.920882 468.444174 
Q 500.949007 468.444174 500.291194 468.161362 
Q 499.634944 467.878549 499.261507 467.309799 
Q 498.888069 466.739487 498.869319 466.022299 
z
" style="fill: #9a0f0a"/>
   </g>
   <g id="text_12">
    <path d="M 400.624983 420.925728 
L 400.624983 414.611665 
L 398.267171 414.611665 
L 398.267171 413.767915 
L 403.940608 413.767915 
L 403.940608 414.611665 
L 401.573421 414.611665 
L 401.573421 420.925728 
L 400.624983 420.925728 
z
M 404.942757 420.925728 
L 404.942757 413.767915 
L 405.889632 413.767915 
L 405.889632 416.706978 
L 409.609944 416.706978 
L 409.609944 413.767915 
L 410.556819 413.767915 
L 410.556819 420.925728 
L 409.609944 420.925728 
L 409.609944 417.55229 
L 405.889632 417.55229 
L 405.889632 420.925728 
L 404.942757 420.925728 
z
M 412.153499 420.925728 
L 412.153499 413.767915 
L 417.330062 413.767915 
L 417.330062 414.611665 
L 413.101937 414.611665 
L 413.101937 416.803853 
L 417.061312 416.803853 
L 417.061312 417.644478 
L 413.101937 417.644478 
L 413.101937 420.080415 
L 417.495687 420.080415 
L 417.495687 420.925728 
L 412.153499 420.925728 
z
M 422.832991 420.925728 
L 420.932991 413.767915 
L 421.904866 413.767915 
L 422.993929 418.460103 
Q 423.168929 419.197603 423.297054 419.924165 
Q 423.570491 418.77729 423.618929 418.600728 
L 424.981429 413.767915 
L 426.123616 413.767915 
L 427.148616 417.38979 
Q 427.534554 418.738228 427.706429 419.924165 
Q 427.842366 419.24604 428.062679 418.366353 
L 429.184554 413.767915 
L 430.137679 413.767915 
L 428.175179 420.925728 
L 427.261116 420.925728 
L 425.753304 415.47104 
Q 425.562679 414.788228 425.528304 414.631978 
Q 425.415804 415.124165 425.317366 415.47104 
L 423.800179 420.925728 
L 422.832991 420.925728 
z
M 431.051155 420.925728 
L 431.051155 413.767915 
L 431.99803 413.767915 
L 431.99803 416.706978 
L 435.718343 416.706978 
L 435.718343 413.767915 
L 436.665218 413.767915 
L 436.665218 420.925728 
L 435.718343 420.925728 
L 435.718343 417.55229 
L 431.99803 417.55229 
L 431.99803 420.925728 
L 431.051155 420.925728 
z
M 438.404085 420.925728 
L 438.404085 413.767915 
L 439.35096 413.767915 
L 439.35096 420.925728 
L 438.404085 420.925728 
z
M 442.84178 420.925728 
L 442.84178 414.611665 
L 440.483968 414.611665 
L 440.483968 413.767915 
L 446.157405 413.767915 
L 446.157405 414.611665 
L 443.790218 414.611665 
L 443.790218 420.925728 
L 442.84178 420.925728 
z
M 447.148616 420.925728 
L 447.148616 413.767915 
L 452.325179 413.767915 
L 452.325179 414.611665 
L 448.097054 414.611665 
L 448.097054 416.803853 
L 452.056429 416.803853 
L 452.056429 417.644478 
L 448.097054 417.644478 
L 448.097054 420.080415 
L 452.490804 420.080415 
L 452.490804 420.925728 
L 447.148616 420.925728 
z
M 456.592171 420.925728 
L 456.592171 413.767915 
L 459.765608 413.767915 
Q 460.723421 413.767915 461.220296 413.961665 
Q 461.718733 414.153853 462.017171 414.642915 
Q 462.315608 415.130415 462.315608 415.72104 
Q 462.315608 416.481978 461.821858 417.005415 
Q 461.328108 417.52729 460.298421 417.669478 
Q 460.674983 417.849165 460.870296 418.025728 
Q 461.284358 418.405415 461.656233 418.97729 
L 462.901546 420.925728 
L 461.709358 420.925728 
L 460.762483 419.436665 
Q 460.346858 418.791353 460.078108 418.450728 
Q 459.810921 418.10854 459.598421 417.972603 
Q 459.385921 417.835103 459.165608 417.780415 
Q 459.004671 417.747603 458.639046 417.747603 
L 457.539046 417.747603 
L 457.539046 420.925728 
L 456.592171 420.925728 
z
M 457.539046 416.92729 
L 459.576546 416.92729 
Q 460.224983 416.92729 460.590608 416.792915 
Q 460.957796 416.65854 461.148421 416.363228 
Q 461.339046 416.067915 461.339046 415.72104 
Q 461.339046 415.213228 460.970296 414.886665 
Q 460.601546 414.55854 459.804671 414.55854 
L 457.539046 414.55854 
L 457.539046 416.92729 
z
M 463.013851 420.925728 
L 465.762288 413.767915 
L 466.782601 413.767915 
L 469.712288 420.925728 
L 468.634163 420.925728 
L 467.798226 418.756978 
L 464.806038 418.756978 
L 464.018538 420.925728 
L 463.013851 420.925728 
z
M 465.079476 417.986665 
L 467.506038 417.986665 
L 466.759163 416.003853 
Q 466.416976 415.100728 466.251351 414.519478 
Q 466.113851 415.20854 465.865413 415.886665 
L 465.079476 417.986665 
z
M 470.430647 420.925728 
L 470.430647 413.767915 
L 473.116585 413.767915 
Q 473.936897 413.767915 474.43221 413.985103 
Q 474.927522 414.20229 475.20721 414.653853 
Q 475.48846 415.105415 475.48846 415.599165 
Q 475.48846 416.056978 475.240022 416.463228 
Q 474.991585 416.867915 474.48846 417.116353 
Q 475.136897 417.306978 475.485335 417.766353 
Q 475.835335 418.225728 475.835335 418.850728 
Q 475.835335 419.353853 475.622835 419.786665 
Q 475.410335 420.217915 475.097835 420.45229 
Q 474.785335 420.686665 474.31346 420.806978 
Q 473.843147 420.925728 473.160335 420.925728 
L 470.430647 420.925728 
z
M 471.377522 416.775728 
L 472.92596 416.775728 
Q 473.555647 416.775728 473.829085 416.692915 
Q 474.190022 416.585103 474.372835 416.336665 
Q 474.555647 416.086665 474.555647 415.710103 
Q 474.555647 415.353853 474.385335 415.08354 
Q 474.215022 414.811665 473.896272 414.711665 
Q 473.579085 414.611665 472.808772 414.611665 
L 471.377522 414.611665 
L 471.377522 416.775728 
z
M 471.377522 420.080415 
L 473.160335 420.080415 
Q 473.618147 420.080415 473.804085 420.04604 
Q 474.13221 419.988228 474.35096 419.85229 
Q 474.571272 419.71479 474.711897 419.453853 
Q 474.854085 419.192915 474.854085 418.850728 
Q 474.854085 418.450728 474.649397 418.155415 
Q 474.44471 417.85854 474.080647 417.73979 
Q 473.716585 417.619478 473.03221 417.619478 
L 471.377522 417.619478 
L 471.377522 420.080415 
z
M 477.100569 420.925728 
L 477.100569 413.767915 
L 479.786507 413.767915 
Q 480.606819 413.767915 481.102132 413.985103 
Q 481.597444 414.20229 481.877132 414.653853 
Q 482.158382 415.105415 482.158382 415.599165 
Q 482.158382 416.056978 481.909944 416.463228 
Q 481.661507 416.867915 481.158382 417.116353 
Q 481.806819 417.306978 482.155257 417.766353 
Q 482.505257 418.225728 482.505257 418.850728 
Q 482.505257 419.353853 482.292757 419.786665 
Q 482.080257 420.217915 481.767757 420.45229 
Q 481.455257 420.686665 480.983382 420.806978 
Q 480.513069 420.925728 479.830257 420.925728 
L 477.100569 420.925728 
z
M 478.047444 416.775728 
L 479.595882 416.775728 
Q 480.225569 416.775728 480.499007 416.692915 
Q 480.859944 416.585103 481.042757 416.336665 
Q 481.225569 416.086665 481.225569 415.710103 
Q 481.225569 415.353853 481.055257 415.08354 
Q 480.884944 414.811665 480.566194 414.711665 
Q 480.249007 414.611665 479.478694 414.611665 
L 478.047444 414.611665 
L 478.047444 416.775728 
z
M 478.047444 420.080415 
L 479.830257 420.080415 
Q 480.288069 420.080415 480.474007 420.04604 
Q 480.802132 419.988228 481.020882 419.85229 
Q 481.241194 419.71479 481.381819 419.453853 
Q 481.524007 419.192915 481.524007 418.850728 
Q 481.524007 418.450728 481.319319 418.155415 
Q 481.114632 417.85854 480.750569 417.73979 
Q 480.386507 417.619478 479.702132 417.619478 
L 478.047444 417.619478 
L 478.047444 420.080415 
z
M 483.970491 420.925728 
L 483.970491 413.767915 
L 484.917366 413.767915 
L 484.917366 420.925728 
L 483.970491 420.925728 
z
M 488.408187 420.925728 
L 488.408187 414.611665 
L 486.050374 414.611665 
L 486.050374 413.767915 
L 491.723812 413.767915 
L 491.723812 414.611665 
L 489.356624 414.611665 
L 489.356624 420.925728 
L 488.408187 420.925728 
z
" style="fill: #9a0f0a; stroke: #ffffff; stroke-width: 2"/>
    <path d="M 400.624983 420.925728 
L 400.624983 414.611665 
L 398.267171 414.611665 
L 398.267171 413.767915 
L 403.940608 413.767915 
L 403.940608 414.611665 
L 401.573421 414.611665 
L 401.573421 420.925728 
L 400.624983 420.925728 
z
M 404.942757 420.925728 
L 404.942757 413.767915 
L 405.889632 413.767915 
L 405.889632 416.706978 
L 409.609944 416.706978 
L 409.609944 413.767915 
L 410.556819 413.767915 
L 410.556819 420.925728 
L 409.609944 420.925728 
L 409.609944 417.55229 
L 405.889632 417.55229 
L 405.889632 420.925728 
L 404.942757 420.925728 
z
M 412.153499 420.925728 
L 412.153499 413.767915 
L 417.330062 413.767915 
L 417.330062 414.611665 
L 413.101937 414.611665 
L 413.101937 416.803853 
L 417.061312 416.803853 
L 417.061312 417.644478 
L 413.101937 417.644478 
L 413.101937 420.080415 
L 417.495687 420.080415 
L 417.495687 420.925728 
L 412.153499 420.925728 
z
M 422.832991 420.925728 
L 420.932991 413.767915 
L 421.904866 413.767915 
L 422.993929 418.460103 
Q 423.168929 419.197603 423.297054 419.924165 
Q 423.570491 418.77729 423.618929 418.600728 
L 424.981429 413.767915 
L 426.123616 413.767915 
L 427.148616 417.38979 
Q 427.534554 418.738228 427.706429 419.924165 
Q 427.842366 419.24604 428.062679 418.366353 
L 429.184554 413.767915 
L 430.137679 413.767915 
L 428.175179 420.925728 
L 427.261116 420.925728 
L 425.753304 415.47104 
Q 425.562679 414.788228 425.528304 414.631978 
Q 425.415804 415.124165 425.317366 415.47104 
L 423.800179 420.925728 
L 422.832991 420.925728 
z
M 431.051155 420.925728 
L 431.051155 413.767915 
L 431.99803 413.767915 
L 431.99803 416.706978 
L 435.718343 416.706978 
L 435.718343 413.767915 
L 436.665218 413.767915 
L 436.665218 420.925728 
L 435.718343 420.925728 
L 435.718343 417.55229 
L 431.99803 417.55229 
L 431.99803 420.925728 
L 431.051155 420.925728 
z
M 438.404085 420.925728 
L 438.404085 413.767915 
L 439.35096 413.767915 
L 439.35096 420.925728 
L 438.404085 420.925728 
z
M 442.84178 420.925728 
L 442.84178 414.611665 
L 440.483968 414.611665 
L 440.483968 413.767915 
L 446.157405 413.767915 
L 446.157405 414.611665 
L 443.790218 414.611665 
L 443.790218 420.925728 
L 442.84178 420.925728 
z
M 447.148616 420.925728 
L 447.148616 413.767915 
L 452.325179 413.767915 
L 452.325179 414.611665 
L 448.097054 414.611665 
L 448.097054 416.803853 
L 452.056429 416.803853 
L 452.056429 417.644478 
L 448.097054 417.644478 
L 448.097054 420.080415 
L 452.490804 420.080415 
L 452.490804 420.925728 
L 447.148616 420.925728 
z
M 456.592171 420.925728 
L 456.592171 413.767915 
L 459.765608 413.767915 
Q 460.723421 413.767915 461.220296 413.961665 
Q 461.718733 414.153853 462.017171 414.642915 
Q 462.315608 415.130415 462.315608 415.72104 
Q 462.315608 416.481978 461.821858 417.005415 
Q 461.328108 417.52729 460.298421 417.669478 
Q 460.674983 417.849165 460.870296 418.025728 
Q 461.284358 418.405415 461.656233 418.97729 
L 462.901546 420.925728 
L 461.709358 420.925728 
L 460.762483 419.436665 
Q 460.346858 418.791353 460.078108 418.450728 
Q 459.810921 418.10854 459.598421 417.972603 
Q 459.385921 417.835103 459.165608 417.780415 
Q 459.004671 417.747603 458.639046 417.747603 
L 457.539046 417.747603 
L 457.539046 420.925728 
L 456.592171 420.925728 
z
M 457.539046 416.92729 
L 459.576546 416.92729 
Q 460.224983 416.92729 460.590608 416.792915 
Q 460.957796 416.65854 461.148421 416.363228 
Q 461.339046 416.067915 461.339046 415.72104 
Q 461.339046 415.213228 460.970296 414.886665 
Q 460.601546 414.55854 459.804671 414.55854 
L 457.539046 414.55854 
L 457.539046 416.92729 
z
M 463.013851 420.925728 
L 465.762288 413.767915 
L 466.782601 413.767915 
L 469.712288 420.925728 
L 468.634163 420.925728 
L 467.798226 418.756978 
L 464.806038 418.756978 
L 464.018538 420.925728 
L 463.013851 420.925728 
z
M 465.079476 417.986665 
L 467.506038 417.986665 
L 466.759163 416.003853 
Q 466.416976 415.100728 466.251351 414.519478 
Q 466.113851 415.20854 465.865413 415.886665 
L 465.079476 417.986665 
z
M 470.430647 420.925728 
L 470.430647 413.767915 
L 473.116585 413.767915 
Q 473.936897 413.767915 474.43221 413.985103 
Q 474.927522 414.20229 475.20721 414.653853 
Q 475.48846 415.105415 475.48846 415.599165 
Q 475.48846 416.056978 475.240022 416.463228 
Q 474.991585 416.867915 474.48846 417.116353 
Q 475.136897 417.306978 475.485335 417.766353 
Q 475.835335 418.225728 475.835335 418.850728 
Q 475.835335 419.353853 475.622835 419.786665 
Q 475.410335 420.217915 475.097835 420.45229 
Q 474.785335 420.686665 474.31346 420.806978 
Q 473.843147 420.925728 473.160335 420.925728 
L 470.430647 420.925728 
z
M 471.377522 416.775728 
L 472.92596 416.775728 
Q 473.555647 416.775728 473.829085 416.692915 
Q 474.190022 416.585103 474.372835 416.336665 
Q 474.555647 416.086665 474.555647 415.710103 
Q 474.555647 415.353853 474.385335 415.08354 
Q 474.215022 414.811665 473.896272 414.711665 
Q 473.579085 414.611665 472.808772 414.611665 
L 471.377522 414.611665 
L 471.377522 416.775728 
z
M 471.377522 420.080415 
L 473.160335 420.080415 
Q 473.618147 420.080415 473.804085 420.04604 
Q 474.13221 419.988228 474.35096 419.85229 
Q 474.571272 419.71479 474.711897 419.453853 
Q 474.854085 419.192915 474.854085 418.850728 
Q 474.854085 418.450728 474.649397 418.155415 
Q 474.44471 417.85854 474.080647 417.73979 
Q 473.716585 417.619478 473.03221 417.619478 
L 471.377522 417.619478 
L 471.377522 420.080415 
z
M 477.100569 420.925728 
L 477.100569 413.767915 
L 479.786507 413.767915 
Q 480.606819 413.767915 481.102132 413.985103 
Q 481.597444 414.20229 481.877132 414.653853 
Q 482.158382 415.105415 482.158382 415.599165 
Q 482.158382 416.056978 481.909944 416.463228 
Q 481.661507 416.867915 481.158382 417.116353 
Q 481.806819 417.306978 482.155257 417.766353 
Q 482.505257 418.225728 482.505257 418.850728 
Q 482.505257 419.353853 482.292757 419.786665 
Q 482.080257 420.217915 481.767757 420.45229 
Q 481.455257 420.686665 480.983382 420.806978 
Q 480.513069 420.925728 479.830257 420.925728 
L 477.100569 420.925728 
z
M 478.047444 416.775728 
L 479.595882 416.775728 
Q 480.225569 416.775728 480.499007 416.692915 
Q 480.859944 416.585103 481.042757 416.336665 
Q 481.225569 416.086665 481.225569 415.710103 
Q 481.225569 415.353853 481.055257 415.08354 
Q 480.884944 414.811665 480.566194 414.711665 
Q 480.249007 414.611665 479.478694 414.611665 
L 478.047444 414.611665 
L 478.047444 416.775728 
z
M 478.047444 420.080415 
L 479.830257 420.080415 
Q 480.288069 420.080415 480.474007 420.04604 
Q 480.802132 419.988228 481.020882 419.85229 
Q 481.241194 419.71479 481.381819 419.453853 
Q 481.524007 419.192915 481.524007 418.850728 
Q 481.524007 418.450728 481.319319 418.155415 
Q 481.114632 417.85854 480.750569 417.73979 
Q 480.386507 417.619478 479.702132 417.619478 
L 478.047444 417.619478 
L 478.047444 420.080415 
z
M 483.970491 420.925728 
L 483.970491 413.767915 
L 484.917366 413.767915 
L 484.917366 420.925728 
L 483.970491 420.925728 
z
M 488.408187 420.925728 
L 488.408187 414.611665 
L 486.050374 414.611665 
L 486.050374 413.767915 
L 491.723812 413.767915 
L 491.723812 414.611665 
L 489.356624 414.611665 
L 489.356624 420.925728 
L 488.408187 420.925728 
z
" style="fill: #9a0f0a"/>
   </g>
   <g id="text_13">
    <!-- THE CAT -->
    <g style="fill: #ffffff" transform="translate(127.717873 373.529156) scale(0.1 -0.1)">
     <defs>
      <path id="ArialMT-54" d="M 1659 0 
L 1659 4041 
L 150 4041 
L 150 4581 
L 3781 4581 
L 3781 4041 
L 2266 4041 
L 2266 0 
L 1659 0 
z
" transform="scale(0.015625)"/>
      <path id="ArialMT-48" d="M 513 0 
L 513 4581 
L 1119 4581 
L 1119 2700 
L 3500 2700 
L 3500 4581 
L 4106 4581 
L 4106 0 
L 3500 0 
L 3500 2159 
L 1119 2159 
L 1119 0 
L 513 0 
z
" transform="scale(0.015625)"/>
      <path id="ArialMT-45" d="M 506 0 
L 506 4581 
L 3819 4581 
L 3819 4041 
L 1113 4041 
L 1113 2638 
L 3647 2638 
L 3647 2100 
L 1113 2100 
L 1113 541 
L 3925 541 
L 3925 0 
L 506 0 
z
" transform="scale(0.015625)"/>
      <path id="ArialMT-20" transform="scale(0.015625)"/>
      <path id="ArialMT-43" d="M 3763 1606 
L 4369 1453 
Q 4178 706 3683 314 
Q 3188 -78 2472 -78 
Q 1731 -78 1267 223 
Q 803 525 561 1097 
Q 319 1669 319 2325 
Q 319 3041 592 3573 
Q 866 4106 1370 4382 
Q 1875 4659 2481 4659 
Q 3169 4659 3637 4309 
Q 4106 3959 4291 3325 
L 3694 3184 
Q 3534 3684 3231 3912 
Q 2928 4141 2469 4141 
Q 1941 4141 1586 3887 
Q 1231 3634 1087 3207 
Q 944 2781 944 2328 
Q 944 1744 1114 1308 
Q 1284 872 1643 656 
Q 2003 441 2422 441 
Q 2931 441 3284 734 
Q 3638 1028 3763 1606 
z
" transform="scale(0.015625)"/>
      <path id="ArialMT-41" d="M -9 0 
L 1750 4581 
L 2403 4581 
L 4278 0 
L 3588 0 
L 3053 1388 
L 1138 1388 
L 634 0 
L -9 0 
z
M 1313 1881 
L 2866 1881 
L 2388 3150 
Q 2169 3728 2063 4100 
Q 1975 3659 1816 3225 
L 1313 1881 
z
" transform="scale(0.015625)"/>
     </defs>
     <use xlink:href="#ArialMT-54"/>
     <use xlink:href="#ArialMT-48" x="61.083984"/>
     <use xlink:href="#ArialMT-45" x="133.300781"/>
     <use xlink:href="#ArialMT-20" x="200"/>
     <use xlink:href="#ArialMT-43" x="227.783203"/>
     <use xlink:href="#ArialMT-41" x="300"/>
     <use xlink:href="#ArialMT-54" x="359.324219"/>
    </g>
   </g>
   <g id="text_14">
    <!-- THE MOCK TURTLE -->
    <g style="fill: #ffffff" transform="translate(127.717873 326.132585) scale(0.1 -0.1)">
     <defs>
      <path id="ArialMT-4d" d="M 475 0 
L 475 4581 
L 1388 4581 
L 2472 1338 
Q 2622 884 2691 659 
Q 2769 909 2934 1394 
L 4031 4581 
L 4847 4581 
L 4847 0 
L 4263 0 
L 4263 3834 
L 2931 0 
L 2384 0 
L 1059 3900 
L 1059 0 
L 475 0 
z
" transform="scale(0.015625)"/>
      <path id="ArialMT-4f" d="M 309 2231 
Q 309 3372 921 4017 
Q 1534 4663 2503 4663 
Q 3138 4663 3647 4359 
Q 4156 4056 4423 3514 
Q 4691 2972 4691 2284 
Q 4691 1588 4409 1038 
Q 4128 488 3612 205 
Q 3097 -78 2500 -78 
Q 1853 -78 1343 234 
Q 834 547 571 1087 
Q 309 1628 309 2231 
z
M 934 2222 
Q 934 1394 1379 917 
Q 1825 441 2497 441 
Q 3181 441 3623 922 
Q 4066 1403 4066 2288 
Q 4066 2847 3877 3264 
Q 3688 3681 3323 3911 
Q 2959 4141 2506 4141 
Q 1863 4141 1398 3698 
Q 934 3256 934 2222 
z
" transform="scale(0.015625)"/>
      <path id="ArialMT-4b" d="M 469 0 
L 469 4581 
L 1075 4581 
L 1075 2309 
L 3350 4581 
L 4172 4581 
L 2250 2725 
L 4256 0 
L 3456 0 
L 1825 2319 
L 1075 1588 
L 1075 0 
L 469 0 
z
" transform="scale(0.015625)"/>
      <path id="ArialMT-55" d="M 3500 4581 
L 4106 4581 
L 4106 1934 
Q 4106 1244 3950 837 
Q 3794 431 3386 176 
Q 2978 -78 2316 -78 
Q 1672 -78 1262 144 
Q 853 366 678 786 
Q 503 1206 503 1934 
L 503 4581 
L 1109 4581 
L 1109 1938 
Q 1109 1341 1220 1058 
Q 1331 775 1601 622 
Q 1872 469 2263 469 
Q 2931 469 3215 772 
Q 3500 1075 3500 1938 
L 3500 4581 
z
" transform="scale(0.015625)"/>
      <path id="ArialMT-52" d="M 503 0 
L 503 4581 
L 2534 4581 
Q 3147 4581 3465 4457 
Q 3784 4334 3975 4021 
Q 4166 3709 4166 3331 
Q 4166 2844 3850 2509 
Q 3534 2175 2875 2084 
Q 3116 1969 3241 1856 
Q 3506 1613 3744 1247 
L 4541 0 
L 3778 0 
L 3172 953 
Q 2906 1366 2734 1584 
Q 2563 1803 2427 1890 
Q 2291 1978 2150 2013 
Q 2047 2034 1813 2034 
L 1109 2034 
L 1109 0 
L 503 0 
z
M 1109 2559 
L 2413 2559 
Q 2828 2559 3062 2645 
Q 3297 2731 3419 2920 
Q 3541 3109 3541 3331 
Q 3541 3656 3305 3865 
Q 3069 4075 2559 4075 
L 1109 4075 
L 1109 2559 
z
" transform="scale(0.015625)"/>
      <path id="ArialMT-4c" d="M 469 0 
L 469 4581 
L 1075 4581 
L 1075 541 
L 3331 541 
L 3331 0 
L 469 0 
z
" transform="scale(0.015625)"/>
     </defs>
     <use xlink:href="#ArialMT-54"/>
     <use xlink:href="#ArialMT-48" x="61.083984"/>
     <use xlink:href="#ArialMT-45" x="133.300781"/>
     <use xlink:href="#ArialMT-20" x="200"/>
     <use xlink:href="#ArialMT-4d" x="227.783203"/>
     <use xlink:href="#ArialMT-4f" x="311.083984"/>
     <use xlink:href="#ArialMT-43" x="388.867188"/>
     <use xlink:href="#ArialMT-4b" x="461.083984"/>
     <use xlink:href="#ArialMT-20" x="527.783203"/>
     <use xlink:href="#ArialMT-54" x="553.816406"/>
     <use xlink:href="#ArialMT-55" x="614.900391"/>
     <use xlink:href="#ArialMT-52" x="687.117188"/>
     <use xlink:href="#ArialMT-54" x="757.583984"/>
     <use xlink:href="#ArialMT-4c" x="818.667969"/>
     <use xlink:href="#ArialMT-45" x="874.283203"/>
    </g>
   </g>
   <g id="text_15">
    <!-- THE HATTER -->
    <g style="fill: #ffffff" transform="translate(127.717873 278.736013) scale(0.1 -0.1)">
     <use xlink:href="#ArialMT-54"/>
     <use xlink:href="#ArialMT-48" x="61.083984"/>
     <use xlink:href="#ArialMT-45" x="133.300781"/>
     <use xlink:href="#ArialMT-20" x="200"/>
     <use xlink:href="#ArialMT-48" x="227.783203"/>
     <use xlink:href="#ArialMT-41" x="300"/>
     <use xlink:href="#ArialMT-54" x="359.324219"/>
     <use xlink:href="#ArialMT-54" x="420.408203"/>
     <use xlink:href="#ArialMT-45" x="481.492188"/>
     <use xlink:href="#ArialMT-52" x="548.191406"/>
    </g>
   </g>
   <g id="text_16">
    <!-- ALICE -->
    <g style="fill: #ffffff" transform="translate(127.717873 231.339442) scale(0.1 -0.1)">
     <defs>
      <path id="ArialMT-49" d="M 597 0 
L 597 4581 
L 1203 4581 
L 1203 0 
L 597 0 
z
" transform="scale(0.015625)"/>
     </defs>
     <use xlink:href="#ArialMT-41"/>
     <use xlink:href="#ArialMT-4c" x="66.699219"/>
     <use xlink:href="#ArialMT-49" x="122.314453"/>
     <use xlink:href="#ArialMT-43" x="150.097656"/>
     <use xlink:href="#ArialMT-45" x="222.314453"/>
    </g>
   </g>
   <g id="text_17">
    <!-- THE DORMOUSE -->
    <g style="fill: #ffffff" transform="translate(127.717873 183.942871) scale(0.1 -0.1)">
     <defs>
      <path id="ArialMT-44" d="M 494 0 
L 494 4581 
L 2072 4581 
Q 2606 4581 2888 4516 
Q 3281 4425 3559 4188 
Q 3922 3881 4101 3404 
Q 4281 2928 4281 2316 
Q 4281 1794 4159 1391 
Q 4038 988 3847 723 
Q 3656 459 3429 307 
Q 3203 156 2883 78 
Q 2563 0 2147 0 
L 494 0 
z
M 1100 541 
L 2078 541 
Q 2531 541 2789 625 
Q 3047 709 3200 863 
Q 3416 1078 3536 1442 
Q 3656 1806 3656 2325 
Q 3656 3044 3420 3430 
Q 3184 3816 2847 3947 
Q 2603 4041 2063 4041 
L 1100 4041 
L 1100 541 
z
" transform="scale(0.015625)"/>
      <path id="ArialMT-53" d="M 288 1472 
L 859 1522 
Q 900 1178 1048 958 
Q 1197 738 1509 602 
Q 1822 466 2213 466 
Q 2559 466 2825 569 
Q 3091 672 3220 851 
Q 3350 1031 3350 1244 
Q 3350 1459 3225 1620 
Q 3100 1781 2813 1891 
Q 2628 1963 1997 2114 
Q 1366 2266 1113 2400 
Q 784 2572 623 2826 
Q 463 3081 463 3397 
Q 463 3744 659 4045 
Q 856 4347 1234 4503 
Q 1613 4659 2075 4659 
Q 2584 4659 2973 4495 
Q 3363 4331 3572 4012 
Q 3781 3694 3797 3291 
L 3216 3247 
Q 3169 3681 2898 3903 
Q 2628 4125 2100 4125 
Q 1550 4125 1298 3923 
Q 1047 3722 1047 3438 
Q 1047 3191 1225 3031 
Q 1400 2872 2139 2705 
Q 2878 2538 3153 2413 
Q 3553 2228 3743 1945 
Q 3934 1663 3934 1294 
Q 3934 928 3725 604 
Q 3516 281 3123 101 
Q 2731 -78 2241 -78 
Q 1619 -78 1198 103 
Q 778 284 539 648 
Q 300 1013 288 1472 
z
" transform="scale(0.015625)"/>
     </defs>
     <use xlink:href="#ArialMT-54"/>
     <use xlink:href="#ArialMT-48" x="61.083984"/>
     <use xlink:href="#ArialMT-45" x="133.300781"/>
     <use xlink:href="#ArialMT-20" x="200"/>
     <use xlink:href="#ArialMT-44" x="227.783203"/>
     <use xlink:href="#ArialMT-4f" x="300"/>
     <use xlink:href="#ArialMT-52" x="377.783203"/>
     <use xlink:href="#ArialMT-4d" x="450"/>
     <use xlink:href="#ArialMT-4f" x="533.300781"/>
     <use xlink:href="#ArialMT-55" x="611.083984"/>
     <use xlink:href="#ArialMT-53" x="683.300781"/>
     <use xlink:href="#ArialMT-45" x="750"/>
    </g>
   </g>
   <g id="text_18">
    <!-- HARE -->
    <g style="fill: #ffffff" transform="translate(127.717873 136.546299) scale(0.1 -0.1)">
     <use xlink:href="#ArialMT-48"/>
     <use xlink:href="#ArialMT-41" x="72.216797"/>
     <use xlink:href="#ArialMT-52" x="138.916016"/>
     <use xlink:href="#ArialMT-45" x="211.132812"/>
    </g>
   </g>
   <g id="text_19">
    <!-- THE GRYPHON -->
    <g style="fill: #ffffff" transform="translate(127.717873 89.149728) scale(0.1 -0.1)">
     <defs>
      <path id="ArialMT-47" d="M 2638 1797 
L 2638 2334 
L 4578 2338 
L 4578 638 
Q 4131 281 3656 101 
Q 3181 -78 2681 -78 
Q 2006 -78 1454 211 
Q 903 500 622 1047 
Q 341 1594 341 2269 
Q 341 2938 620 3517 
Q 900 4097 1425 4378 
Q 1950 4659 2634 4659 
Q 3131 4659 3532 4498 
Q 3934 4338 4162 4050 
Q 4391 3763 4509 3300 
L 3963 3150 
Q 3859 3500 3706 3700 
Q 3553 3900 3268 4020 
Q 2984 4141 2638 4141 
Q 2222 4141 1919 4014 
Q 1616 3888 1430 3681 
Q 1244 3475 1141 3228 
Q 966 2803 966 2306 
Q 966 1694 1177 1281 
Q 1388 869 1791 669 
Q 2194 469 2647 469 
Q 3041 469 3416 620 
Q 3791 772 3984 944 
L 3984 1797 
L 2638 1797 
z
" transform="scale(0.015625)"/>
      <path id="ArialMT-59" d="M 1784 0 
L 1784 1941 
L 19 4581 
L 756 4581 
L 1659 3200 
Q 1909 2813 2125 2425 
Q 2331 2784 2625 3234 
L 3513 4581 
L 4219 4581 
L 2391 1941 
L 2391 0 
L 1784 0 
z
" transform="scale(0.015625)"/>
      <path id="ArialMT-50" d="M 494 0 
L 494 4581 
L 2222 4581 
Q 2678 4581 2919 4538 
Q 3256 4481 3484 4323 
Q 3713 4166 3852 3881 
Q 3991 3597 3991 3256 
Q 3991 2672 3619 2267 
Q 3247 1863 2275 1863 
L 1100 1863 
L 1100 0 
L 494 0 
z
M 1100 2403 
L 2284 2403 
Q 2872 2403 3119 2622 
Q 3366 2841 3366 3238 
Q 3366 3525 3220 3729 
Q 3075 3934 2838 4000 
Q 2684 4041 2272 4041 
L 1100 4041 
L 1100 2403 
z
" transform="scale(0.015625)"/>
      <path id="ArialMT-4e" d="M 488 0 
L 488 4581 
L 1109 4581 
L 3516 984 
L 3516 4581 
L 4097 4581 
L 4097 0 
L 3475 0 
L 1069 3600 
L 1069 0 
L 488 0 
z
" transform="scale(0.015625)"/>
     </defs>
     <use xlink:href="#ArialMT-54"/>
     <use xlink:href="#ArialMT-48" x="61.083984"/>
     <use xlink:href="#ArialMT-45" x="133.300781"/>
     <use xlink:href="#ArialMT-20" x="200"/>
     <use xlink:href="#ArialMT-47" x="227.783203"/>
     <use xlink:href="#ArialMT-52" x="305.566406"/>
     <use xlink:href="#ArialMT-59" x="376.033203"/>
     <use xlink:href="#ArialMT-50" x="442.732422"/>
     <use xlink:href="#ArialMT-48" x="509.431641"/>
     <use xlink:href="#ArialMT-4f" x="581.648438"/>
     <use xlink:href="#ArialMT-4e" x="659.431641"/>
    </g>
   </g>
  </g>
  <g id="text_20">
   <!-- Alice in Wonderland -->
   <g transform="translate(86.4 23.04) scale(0.22 -0.22)">
    <defs>
     <path id="DejaVuSansMono-Bold-41" d="M 1925 3822 
L 1491 1913 
L 2363 1913 
L 1925 3822 
z
M 1363 4666 
L 2491 4666 
L 3750 0 
L 2828 0 
L 2541 1153 
L 1306 1153 
L 1025 0 
L 103 0 
L 1363 4666 
z
" transform="scale(0.015625)"/>
     <path id="DejaVuSansMono-Bold-6c" d="M 1209 1459 
L 1209 4159 
L 281 4159 
L 281 4863 
L 2125 4863 
L 2125 1459 
Q 2125 1047 2253 875 
Q 2381 703 2688 703 
L 3419 703 
L 3419 0 
L 2431 0 
Q 1778 0 1493 337 
Q 1209 675 1209 1459 
z
" transform="scale(0.015625)"/>
     <path id="DejaVuSansMono-Bold-69" d="M 691 3500 
L 2503 3500 
L 2503 703 
L 3641 703 
L 3641 0 
L 447 0 
L 447 703 
L 1588 703 
L 1588 2797 
L 691 2797 
L 691 3500 
z
M 1588 5203 
L 2503 5203 
L 2503 4134 
L 1588 4134 
L 1588 5203 
z
" transform="scale(0.015625)"/>
     <path id="DejaVuSansMono-Bold-63" d="M 3316 178 
Q 3084 44 2818 -23 
Q 2553 -91 2247 -91 
Q 1438 -91 981 396 
Q 525 884 525 1747 
Q 525 2613 984 3102 
Q 1444 3591 2253 3591 
Q 2534 3591 2795 3525 
Q 3056 3459 3316 3322 
L 3316 2484 
Q 3116 2656 2877 2748 
Q 2638 2841 2381 2841 
Q 1934 2841 1693 2556 
Q 1453 2272 1453 1747 
Q 1453 1222 1693 940 
Q 1934 659 2381 659 
Q 2647 659 2878 748 
Q 3109 838 3316 1019 
L 3316 178 
z
" transform="scale(0.015625)"/>
     <path id="DejaVuSansMono-Bold-65" d="M 3444 172 
Q 3125 41 2794 -25 
Q 2463 -91 2094 -91 
Q 1216 -91 752 379 
Q 288 850 288 1734 
Q 288 2591 734 3087 
Q 1181 3584 1953 3584 
Q 2731 3584 3161 3123 
Q 3591 2663 3591 1825 
L 3591 1453 
L 1219 1453 
Q 1222 1041 1462 837 
Q 1703 634 2181 634 
Q 2497 634 2803 725 
Q 3109 816 3444 1013 
L 3444 172 
z
M 2669 2141 
Q 2663 2503 2483 2689 
Q 2303 2875 1953 2875 
Q 1638 2875 1450 2683 
Q 1263 2491 1228 2138 
L 2669 2141 
z
" transform="scale(0.015625)"/>
     <path id="DejaVuSansMono-Bold-20" transform="scale(0.015625)"/>
     <path id="DejaVuSansMono-Bold-6e" d="M 3347 2272 
L 3347 0 
L 2438 0 
L 2438 2131 
Q 2438 2513 2330 2677 
Q 2222 2841 1978 2841 
Q 1731 2841 1589 2619 
Q 1447 2397 1447 2003 
L 1447 0 
L 538 0 
L 538 3500 
L 1447 3500 
L 1447 2975 
Q 1544 3266 1778 3425 
Q 2013 3584 2344 3584 
Q 2841 3584 3094 3254 
Q 3347 2925 3347 2272 
z
" transform="scale(0.015625)"/>
     <path id="DejaVuSansMono-Bold-57" d="M 0 4666 
L 806 4666 
L 1141 1241 
L 1544 3456 
L 2309 3456 
L 2778 1241 
L 3041 4666 
L 3853 4666 
L 3316 0 
L 2456 0 
L 1925 2450 
L 1428 0 
L 575 0 
L 0 4666 
z
" transform="scale(0.015625)"/>
     <path id="DejaVuSansMono-Bold-6f" d="M 1925 2841 
Q 1597 2841 1409 2552 
Q 1222 2263 1222 1747 
Q 1222 1231 1409 942 
Q 1597 653 1925 653 
Q 2256 653 2443 942 
Q 2631 1231 2631 1747 
Q 2631 2263 2443 2552 
Q 2256 2841 1925 2841 
z
M 306 1747 
Q 306 2594 745 3089 
Q 1184 3584 1925 3584 
Q 2669 3584 3108 3089 
Q 3547 2594 3547 1747 
Q 3547 900 3108 404 
Q 2669 -91 1925 -91 
Q 1184 -91 745 404 
Q 306 900 306 1747 
z
" transform="scale(0.015625)"/>
     <path id="DejaVuSansMono-Bold-64" d="M 2472 3003 
L 2472 4863 
L 3384 4863 
L 3384 0 
L 2472 0 
L 2472 519 
Q 2325 216 2092 62 
Q 1859 -91 1544 -91 
Q 944 -91 612 390 
Q 281 872 281 1747 
Q 281 2634 617 3109 
Q 953 3584 1575 3584 
Q 1856 3584 2079 3439 
Q 2303 3294 2472 3003 
z
M 1197 1741 
Q 1197 1234 1365 946 
Q 1534 659 1831 659 
Q 2128 659 2300 946 
Q 2472 1234 2472 1741 
Q 2472 2247 2300 2534 
Q 2128 2822 1831 2822 
Q 1534 2822 1365 2534 
Q 1197 2247 1197 1741 
z
" transform="scale(0.015625)"/>
     <path id="DejaVuSansMono-Bold-72" d="M 3597 2534 
Q 3447 2672 3245 2740 
Q 3044 2809 2803 2809 
Q 2513 2809 2295 2707 
Q 2078 2606 1959 2413 
Q 1884 2294 1854 2125 
Q 1825 1956 1825 1613 
L 1825 0 
L 909 0 
L 909 3500 
L 1825 3500 
L 1825 2956 
Q 1959 3256 2237 3420 
Q 2516 3584 2888 3584 
Q 3075 3584 3254 3539 
Q 3434 3494 3597 3406 
L 3597 2534 
z
" transform="scale(0.015625)"/>
     <path id="DejaVuSansMono-Bold-61" d="M 2188 1644 
Q 1675 1644 1472 1512 
Q 1269 1381 1269 1063 
Q 1269 825 1409 684 
Q 1550 544 1791 544 
Q 2153 544 2353 817 
Q 2553 1091 2553 1581 
L 2553 1644 
L 2188 1644 
z
M 3463 1997 
L 3463 0 
L 2553 0 
L 2553 391 
Q 2388 159 2128 34 
Q 1869 -91 1556 -91 
Q 959 -91 626 225 
Q 294 541 294 1106 
Q 294 1719 691 2011 
Q 1088 2303 1919 2303 
L 2553 2303 
L 2553 2456 
Q 2553 2678 2392 2792 
Q 2231 2906 1919 2906 
Q 1591 2906 1283 2823 
Q 975 2741 641 2559 
L 641 3341 
Q 944 3466 1256 3525 
Q 1569 3584 1919 3584 
Q 2772 3584 3117 3237 
Q 3463 2891 3463 1997 
z
" transform="scale(0.015625)"/>
    </defs>
    <use xlink:href="#DejaVuSansMono-Bold-41"/>
    <use xlink:href="#DejaVuSansMono-Bold-6c" x="60.205078"/>
    <use xlink:href="#DejaVuSansMono-Bold-69" x="120.410156"/>
    <use xlink:href="#DejaVuSansMono-Bold-63" x="180.615234"/>
    <use xlink:href="#DejaVuSansMono-Bold-65" x="240.820312"/>
    <use xlink:href="#DejaVuSansMono-Bold-20" x="301.025391"/>
    <use xlink:href="#DejaVuSansMono-Bold-69" x="361.230469"/>
    <use xlink:href="#DejaVuSansMono-Bold-6e" x="421.435547"/>
    <use xlink:href="#DejaVuSansMono-Bold-20" x="481.640625"/>
    <use xlink:href="#DejaVuSansMono-Bold-57" x="541.845703"/>
    <use xlink:href="#DejaVuSansMono-Bold-6f" x="602.050781"/>
    <use xlink:href="#DejaVuSansMono-Bold-6e" x="662.255859"/>
    <use xlink:href="#DejaVuSansMono-Bold-64" x="722.460938"/>
    <use xlink:href="#DejaVuSansMono-Bold-65" x="782.666016"/>
    <use xlink:href="#DejaVuSansMono-Bold-72" x="842.871094"/>
    <use xlink:href="#DejaVuSansMono-Bold-6c" x="903.076172"/>
    <use xlink:href="#DejaVuSansMono-Bold-61" x="963.28125"/>
    <use xlink:href="#DejaVuSansMono-Bold-6e" x="1023.486328"/>
    <use xlink:href="#DejaVuSansMono-Bold-64" x="1083.691406"/>
   </g>
  </g>
  <g id="text_21">
   <!-- Who is Alice talking to ? -->
   <g transform="translate(86.4 37.44) scale(0.16 -0.16)">
    <defs>
     <path id="DejaVuSansMono-57" d="M 0 4666 
L 616 4666 
L 1063 878 
L 1594 3384 
L 2253 3384 
L 2791 872 
L 3238 4666 
L 3853 4666 
L 3156 0 
L 2559 0 
L 1925 2772 
L 1294 0 
L 697 0 
L 0 4666 
z
" transform="scale(0.015625)"/>
     <path id="DejaVuSansMono-68" d="M 3284 2169 
L 3284 0 
L 2706 0 
L 2706 2169 
Q 2706 2641 2540 2862 
Q 2375 3084 2022 3084 
Q 1619 3084 1401 2798 
Q 1184 2513 1184 1978 
L 1184 0 
L 609 0 
L 609 4863 
L 1184 4863 
L 1184 2975 
Q 1338 3275 1600 3429 
Q 1863 3584 2222 3584 
Q 2756 3584 3020 3232 
Q 3284 2881 3284 2169 
z
" transform="scale(0.015625)"/>
     <path id="DejaVuSansMono-6f" d="M 1925 3097 
Q 1488 3097 1263 2756 
Q 1038 2416 1038 1747 
Q 1038 1081 1263 739 
Q 1488 397 1925 397 
Q 2366 397 2591 739 
Q 2816 1081 2816 1747 
Q 2816 2416 2591 2756 
Q 2366 3097 1925 3097 
z
M 1925 3584 
Q 2653 3584 3039 3112 
Q 3425 2641 3425 1747 
Q 3425 850 3040 379 
Q 2656 -91 1925 -91 
Q 1197 -91 812 379 
Q 428 850 428 1747 
Q 428 2641 812 3112 
Q 1197 3584 1925 3584 
z
" transform="scale(0.015625)"/>
     <path id="DejaVuSansMono-20" transform="scale(0.015625)"/>
     <path id="DejaVuSansMono-69" d="M 800 3500 
L 2272 3500 
L 2272 447 
L 3413 447 
L 3413 0 
L 556 0 
L 556 447 
L 1697 447 
L 1697 3053 
L 800 3053 
L 800 3500 
z
M 1697 4863 
L 2272 4863 
L 2272 4134 
L 1697 4134 
L 1697 4863 
z
" transform="scale(0.015625)"/>
     <path id="DejaVuSansMono-73" d="M 3041 3378 
L 3041 2816 
Q 2794 2959 2544 3031 
Q 2294 3103 2034 3103 
Q 1644 3103 1451 2976 
Q 1259 2850 1259 2591 
Q 1259 2356 1403 2240 
Q 1547 2125 2119 2016 
L 2350 1972 
Q 2778 1891 2998 1647 
Q 3219 1403 3219 1013 
Q 3219 494 2850 201 
Q 2481 -91 1825 -91 
Q 1566 -91 1281 -36 
Q 997 19 666 128 
L 666 722 
Q 988 556 1281 473 
Q 1575 391 1838 391 
Q 2219 391 2428 545 
Q 2638 700 2638 978 
Q 2638 1378 1872 1531 
L 1847 1538 
L 1631 1581 
Q 1134 1678 906 1908 
Q 678 2138 678 2534 
Q 678 3038 1018 3311 
Q 1359 3584 1991 3584 
Q 2272 3584 2531 3532 
Q 2791 3481 3041 3378 
z
" transform="scale(0.015625)"/>
     <path id="DejaVuSansMono-41" d="M 1925 4109 
L 1259 1722 
L 2591 1722 
L 1925 4109 
z
M 1544 4666 
L 2309 4666 
L 3738 0 
L 3084 0 
L 2741 1216 
L 1106 1216 
L 769 0 
L 116 0 
L 1544 4666 
z
" transform="scale(0.015625)"/>
     <path id="DejaVuSansMono-6c" d="M 1997 1269 
Q 1997 881 2139 684 
Q 2281 488 2559 488 
L 3231 488 
L 3231 0 
L 2503 0 
Q 1988 0 1705 331 
Q 1422 663 1422 1269 
L 1422 4447 
L 500 4447 
L 500 4897 
L 1997 4897 
L 1997 1269 
z
" transform="scale(0.015625)"/>
     <path id="DejaVuSansMono-63" d="M 3316 178 
Q 3084 44 2839 -23 
Q 2594 -91 2338 -91 
Q 1525 -91 1067 396 
Q 609 884 609 1747 
Q 609 2609 1067 3096 
Q 1525 3584 2338 3584 
Q 2591 3584 2831 3518 
Q 3072 3453 3316 3316 
L 3316 2713 
Q 3088 2916 2858 3006 
Q 2628 3097 2338 3097 
Q 1797 3097 1506 2747 
Q 1216 2397 1216 1747 
Q 1216 1100 1508 748 
Q 1800 397 2338 397 
Q 2638 397 2875 489 
Q 3113 581 3316 775 
L 3316 178 
z
" transform="scale(0.015625)"/>
     <path id="DejaVuSansMono-65" d="M 3475 1894 
L 3475 1613 
L 984 1613 
L 984 1594 
Q 984 1022 1282 709 
Q 1581 397 2125 397 
Q 2400 397 2700 484 
Q 3000 572 3341 750 
L 3341 178 
Q 3013 44 2708 -23 
Q 2403 -91 2119 -91 
Q 1303 -91 843 398 
Q 384 888 384 1747 
Q 384 2584 834 3084 
Q 1284 3584 2034 3584 
Q 2703 3584 3089 3131 
Q 3475 2678 3475 1894 
z
M 2900 2063 
Q 2888 2569 2661 2833 
Q 2434 3097 2009 3097 
Q 1594 3097 1325 2822 
Q 1056 2547 1006 2059 
L 2900 2063 
z
" transform="scale(0.015625)"/>
     <path id="DejaVuSansMono-74" d="M 1919 4494 
L 1919 3500 
L 3225 3500 
L 3225 3053 
L 1919 3053 
L 1919 1153 
Q 1919 766 2066 612 
Q 2213 459 2578 459 
L 3225 459 
L 3225 0 
L 2522 0 
Q 1875 0 1609 259 
Q 1344 519 1344 1153 
L 1344 3053 
L 409 3053 
L 409 3500 
L 1344 3500 
L 1344 4494 
L 1919 4494 
z
" transform="scale(0.015625)"/>
     <path id="DejaVuSansMono-61" d="M 2194 1759 
L 2003 1759 
Q 1500 1759 1245 1582 
Q 991 1406 991 1056 
Q 991 741 1181 566 
Q 1372 391 1709 391 
Q 2184 391 2456 720 
Q 2728 1050 2731 1631 
L 2731 1759 
L 2194 1759 
z
M 3309 1997 
L 3309 0 
L 2731 0 
L 2731 519 
Q 2547 206 2267 57 
Q 1988 -91 1588 -91 
Q 1053 -91 734 211 
Q 416 513 416 1019 
Q 416 1603 808 1906 
Q 1200 2209 1959 2209 
L 2731 2209 
L 2731 2300 
Q 2728 2719 2518 2908 
Q 2309 3097 1850 3097 
Q 1556 3097 1256 3012 
Q 956 2928 672 2766 
L 672 3341 
Q 991 3463 1283 3523 
Q 1575 3584 1850 3584 
Q 2284 3584 2592 3456 
Q 2900 3328 3091 3072 
Q 3209 2916 3259 2686 
Q 3309 2456 3309 1997 
z
" transform="scale(0.015625)"/>
     <path id="DejaVuSansMono-6b" d="M 738 4863 
L 1331 4863 
L 1331 2047 
L 2841 3500 
L 3541 3500 
L 2163 2181 
L 3756 0 
L 3053 0 
L 1759 1806 
L 1331 1403 
L 1331 0 
L 738 0 
L 738 4863 
z
" transform="scale(0.015625)"/>
     <path id="DejaVuSansMono-6e" d="M 3284 2169 
L 3284 0 
L 2706 0 
L 2706 2169 
Q 2706 2641 2540 2862 
Q 2375 3084 2022 3084 
Q 1619 3084 1401 2798 
Q 1184 2513 1184 1978 
L 1184 0 
L 609 0 
L 609 3500 
L 1184 3500 
L 1184 2975 
Q 1338 3275 1600 3429 
Q 1863 3584 2222 3584 
Q 2756 3584 3020 3232 
Q 3284 2881 3284 2169 
z
" transform="scale(0.015625)"/>
     <path id="DejaVuSansMono-67" d="M 2681 1778 
Q 2681 2425 2470 2761 
Q 2259 3097 1856 3097 
Q 1434 3097 1212 2761 
Q 991 2425 991 1778 
Q 991 1131 1214 792 
Q 1438 453 1863 453 
Q 2259 453 2470 793 
Q 2681 1134 2681 1778 
z
M 3256 225 
Q 3256 -563 2884 -969 
Q 2513 -1375 1791 -1375 
Q 1553 -1375 1293 -1331 
Q 1034 -1288 775 -1203 
L 775 -634 
Q 1081 -778 1331 -847 
Q 1581 -916 1791 -916 
Q 2256 -916 2468 -662 
Q 2681 -409 2681 141 
L 2681 166 
L 2681 556 
Q 2544 263 2306 119 
Q 2069 -25 1728 -25 
Q 1116 -25 750 465 
Q 384 956 384 1778 
Q 384 2603 750 3093 
Q 1116 3584 1728 3584 
Q 2066 3584 2300 3450 
Q 2534 3316 2681 3034 
L 2681 3488 
L 3256 3488 
L 3256 225 
z
" transform="scale(0.015625)"/>
     <path id="DejaVuSansMono-3f" d="M 2138 1253 
L 1544 1253 
L 1544 1734 
Q 1544 2041 1639 2255 
Q 1734 2469 1997 2725 
L 2278 3003 
Q 2472 3188 2545 3325 
Q 2619 3463 2619 3616 
Q 2619 3894 2414 4066 
Q 2209 4238 1869 4238 
Q 1625 4238 1347 4130 
Q 1069 4022 763 3809 
L 763 4397 
Q 1056 4575 1354 4662 
Q 1653 4750 1978 4750 
Q 2559 4750 2904 4450 
Q 3250 4150 3250 3647 
Q 3250 3409 3145 3204 
Q 3041 3000 2747 2713 
L 2472 2444 
Q 2256 2238 2197 2106 
Q 2138 1975 2138 1784 
L 2138 1638 
L 2138 1253 
z
M 1522 794 
L 2156 794 
L 2156 0 
L 1522 0 
L 1522 794 
z
" transform="scale(0.015625)"/>
    </defs>
    <use xlink:href="#DejaVuSansMono-57"/>
    <use xlink:href="#DejaVuSansMono-68" x="60.205078"/>
    <use xlink:href="#DejaVuSansMono-6f" x="120.410156"/>
    <use xlink:href="#DejaVuSansMono-20" x="180.615234"/>
    <use xlink:href="#DejaVuSansMono-69" x="240.820312"/>
    <use xlink:href="#DejaVuSansMono-73" x="301.025391"/>
    <use xlink:href="#DejaVuSansMono-20" x="361.230469"/>
    <use xlink:href="#DejaVuSansMono-41" x="421.435547"/>
    <use xlink:href="#DejaVuSansMono-6c" x="481.640625"/>
    <use xlink:href="#DejaVuSansMono-69" x="541.845703"/>
    <use xlink:href="#DejaVuSansMono-63" x="602.050781"/>
    <use xlink:href="#DejaVuSansMono-65" x="662.255859"/>
    <use xlink:href="#DejaVuSansMono-20" x="722.460938"/>
    <use xlink:href="#DejaVuSansMono-74" x="782.666016"/>
    <use xlink:href="#DejaVuSansMono-61" x="842.871094"/>
    <use xlink:href="#DejaVuSansMono-6c" x="903.076172"/>
    <use xlink:href="#DejaVuSansMono-6b" x="963.28125"/>
    <use xlink:href="#DejaVuSansMono-69" x="1023.486328"/>
    <use xlink:href="#DejaVuSansMono-6e" x="1083.691406"/>
    <use xlink:href="#DejaVuSansMono-67" x="1143.896484"/>
    <use xlink:href="#DejaVuSansMono-20" x="1204.101562"/>
    <use xlink:href="#DejaVuSansMono-74" x="1264.306641"/>
    <use xlink:href="#DejaVuSansMono-6f" x="1324.511719"/>
    <use xlink:href="#DejaVuSansMono-20" x="1384.716797"/>
    <use xlink:href="#DejaVuSansMono-3f" x="1444.921875"/>
   </g>
  </g>
  <g id="text_22">
   <!-- Source: Project Dialog,Github -->
   <g style="fill: #808080" transform="translate(86.4 547.2) scale(0.1 -0.1)">
    <defs>
     <path id="DejaVuSansMono-53" d="M 3163 4506 
L 3163 3866 
Q 2875 4050 2586 4144 
Q 2297 4238 2003 4238 
Q 1556 4238 1297 4030 
Q 1038 3822 1038 3469 
Q 1038 3159 1208 2996 
Q 1378 2834 1844 2725 
L 2175 2650 
Q 2831 2497 3131 2169 
Q 3431 1841 3431 1275 
Q 3431 609 3018 259 
Q 2606 -91 1819 -91 
Q 1491 -91 1159 -20 
Q 828 50 494 191 
L 494 863 
Q 853 634 1173 528 
Q 1494 422 1819 422 
Q 2297 422 2562 636 
Q 2828 850 2828 1234 
Q 2828 1584 2645 1768 
Q 2463 1953 2009 2053 
L 1672 2131 
Q 1022 2278 728 2575 
Q 434 2872 434 3372 
Q 434 3997 854 4373 
Q 1275 4750 1972 4750 
Q 2241 4750 2537 4689 
Q 2834 4628 3163 4506 
z
" transform="scale(0.015625)"/>
     <path id="DejaVuSansMono-75" d="M 609 1325 
L 609 3494 
L 1184 3494 
L 1184 1325 
Q 1184 853 1351 631 
Q 1519 409 1869 409 
Q 2275 409 2490 695 
Q 2706 981 2706 1516 
L 2706 3494 
L 3284 3494 
L 3284 0 
L 2706 0 
L 2706 525 
Q 2553 222 2289 65 
Q 2025 -91 1672 -91 
Q 1134 -91 871 261 
Q 609 613 609 1325 
z
" transform="scale(0.015625)"/>
     <path id="DejaVuSansMono-72" d="M 3609 2778 
Q 3425 2922 3234 2987 
Q 3044 3053 2816 3053 
Q 2278 3053 1993 2715 
Q 1709 2378 1709 1741 
L 1709 0 
L 1131 0 
L 1131 3500 
L 1709 3500 
L 1709 2816 
Q 1853 3188 2151 3386 
Q 2450 3584 2859 3584 
Q 3072 3584 3256 3531 
Q 3441 3478 3609 3366 
L 3609 2778 
z
" transform="scale(0.015625)"/>
     <path id="DejaVuSansMono-3a" d="M 1528 3322 
L 2316 3322 
L 2316 2375 
L 1528 2375 
L 1528 3322 
z
M 1528 953 
L 2316 953 
L 2316 0 
L 1528 0 
L 1528 953 
z
" transform="scale(0.015625)"/>
     <path id="DejaVuSansMono-50" d="M 1247 4147 
L 1247 2394 
L 1978 2394 
Q 2416 2394 2661 2625 
Q 2906 2856 2906 3272 
Q 2906 3688 2662 3917 
Q 2419 4147 1978 4147 
L 1247 4147 
z
M 616 4666 
L 1978 4666 
Q 2759 4666 3162 4311 
Q 3566 3956 3566 3272 
Q 3566 2581 3164 2228 
Q 2763 1875 1978 1875 
L 1247 1875 
L 1247 0 
L 616 0 
L 616 4666 
z
" transform="scale(0.015625)"/>
     <path id="DejaVuSansMono-6a" d="M 1875 -63 
L 1875 3053 
L 884 3053 
L 884 3500 
L 2450 3500 
L 2450 -63 
Q 2450 -672 2170 -1001 
Q 1891 -1331 1375 -1331 
L 581 -1331 
L 581 -844 
L 1313 -844 
Q 1594 -844 1734 -648 
Q 1875 -453 1875 -63 
z
M 1875 4863 
L 2450 4863 
L 2450 4134 
L 1875 4134 
L 1875 4863 
z
" transform="scale(0.015625)"/>
     <path id="DejaVuSansMono-44" d="M 1363 519 
Q 2159 519 2475 911 
Q 2791 1303 2791 2328 
Q 2791 3363 2477 3755 
Q 2163 4147 1363 4147 
L 1063 4147 
L 1063 519 
L 1363 519 
z
M 1375 4666 
Q 2444 4666 2950 4097 
Q 3456 3528 3456 2328 
Q 3456 1134 2950 567 
Q 2444 0 1375 0 
L 428 0 
L 428 4666 
L 1375 4666 
z
" transform="scale(0.015625)"/>
     <path id="DejaVuSansMono-2c" d="M 1569 947 
L 2356 947 
L 2356 300 
L 1741 -897 
L 1259 -897 
L 1569 300 
L 1569 947 
z
" transform="scale(0.015625)"/>
     <path id="DejaVuSansMono-47" d="M 3450 384 
Q 3197 150 2880 29 
Q 2563 -91 2194 -91 
Q 1306 -91 812 545 
Q 319 1181 319 2328 
Q 319 3472 819 4111 
Q 1319 4750 2209 4750 
Q 2503 4750 2772 4667 
Q 3041 4584 3291 4416 
L 3291 3769 
Q 3038 4009 2772 4123 
Q 2506 4238 2209 4238 
Q 1594 4238 1286 3761 
Q 978 3284 978 2328 
Q 978 1356 1276 889 
Q 1575 422 2194 422 
Q 2403 422 2561 470 
Q 2719 519 2847 622 
L 2847 1875 
L 2169 1875 
L 2169 2394 
L 3450 2394 
L 3450 384 
z
" transform="scale(0.015625)"/>
     <path id="DejaVuSansMono-62" d="M 2869 1747 
Q 2869 2416 2656 2756 
Q 2444 3097 2028 3097 
Q 1609 3097 1393 2755 
Q 1178 2413 1178 1747 
Q 1178 1084 1393 740 
Q 1609 397 2028 397 
Q 2444 397 2656 737 
Q 2869 1078 2869 1747 
z
M 1178 3053 
Q 1316 3309 1558 3446 
Q 1800 3584 2119 3584 
Q 2750 3584 3112 3098 
Q 3475 2613 3475 1759 
Q 3475 894 3111 401 
Q 2747 -91 2113 -91 
Q 1800 -91 1561 45 
Q 1322 181 1178 441 
L 1178 0 
L 603 0 
L 603 4863 
L 1178 4863 
L 1178 3053 
z
" transform="scale(0.015625)"/>
    </defs>
    <use xlink:href="#DejaVuSansMono-53"/>
    <use xlink:href="#DejaVuSansMono-6f" x="60.205078"/>
    <use xlink:href="#DejaVuSansMono-75" x="120.410156"/>
    <use xlink:href="#DejaVuSansMono-72" x="180.615234"/>
    <use xlink:href="#DejaVuSansMono-63" x="240.820312"/>
    <use xlink:href="#DejaVuSansMono-65" x="301.025391"/>
    <use xlink:href="#DejaVuSansMono-3a" x="361.230469"/>
    <use xlink:href="#DejaVuSansMono-20" x="421.435547"/>
    <use xlink:href="#DejaVuSansMono-50" x="481.640625"/>
    <use xlink:href="#DejaVuSansMono-72" x="541.845703"/>
    <use xlink:href="#DejaVuSansMono-6f" x="602.050781"/>
    <use xlink:href="#DejaVuSansMono-6a" x="662.255859"/>
    <use xlink:href="#DejaVuSansMono-65" x="722.460938"/>
    <use xlink:href="#DejaVuSansMono-63" x="782.666016"/>
    <use xlink:href="#DejaVuSansMono-74" x="842.871094"/>
    <use xlink:href="#DejaVuSansMono-20" x="903.076172"/>
    <use xlink:href="#DejaVuSansMono-44" x="963.28125"/>
    <use xlink:href="#DejaVuSansMono-69" x="1023.486328"/>
    <use xlink:href="#DejaVuSansMono-61" x="1083.691406"/>
    <use xlink:href="#DejaVuSansMono-6c" x="1143.896484"/>
    <use xlink:href="#DejaVuSansMono-6f" x="1204.101562"/>
    <use xlink:href="#DejaVuSansMono-67" x="1264.306641"/>
    <use xlink:href="#DejaVuSansMono-2c" x="1324.511719"/>
    <use xlink:href="#DejaVuSansMono-47" x="1384.716797"/>
    <use xlink:href="#DejaVuSansMono-69" x="1444.921875"/>
    <use xlink:href="#DejaVuSansMono-74" x="1505.126953"/>
    <use xlink:href="#DejaVuSansMono-68" x="1565.332031"/>
    <use xlink:href="#DejaVuSansMono-75" x="1625.537109"/>
    <use xlink:href="#DejaVuSansMono-62" x="1685.742188"/>
   </g>
  </g>
  <g id="text_23">
   <!-- @lagom-QB; 2023 -->
   <g style="fill: #808080" transform="translate(86.4 564.48) scale(0.12 -0.12)">
    <defs>
     <path id="ArialMT-40" d="M 3628 509 
Q 3425 275 3173 133 
Q 2922 -9 2669 -9 
Q 2391 -9 2128 153 
Q 1866 316 1702 653 
Q 1538 991 1538 1394 
Q 1538 1891 1792 2389 
Q 2047 2888 2425 3138 
Q 2803 3388 3159 3388 
Q 3431 3388 3678 3245 
Q 3925 3103 4103 2813 
L 4209 3297 
L 4769 3297 
L 4319 1200 
Q 4225 763 4225 716 
Q 4225 631 4289 570 
Q 4353 509 4444 509 
Q 4609 509 4878 700 
Q 5234 950 5442 1370 
Q 5650 1791 5650 2238 
Q 5650 2759 5383 3212 
Q 5116 3666 4586 3937 
Q 4056 4209 3416 4209 
Q 2684 4209 2079 3867 
Q 1475 3525 1142 2886 
Q 809 2247 809 1516 
Q 809 750 1142 197 
Q 1475 -356 2104 -620 
Q 2734 -884 3500 -884 
Q 4319 -884 4872 -609 
Q 5425 -334 5700 59 
L 6266 59 
Q 6106 -269 5718 -609 
Q 5331 -950 4797 -1148 
Q 4263 -1347 3509 -1347 
Q 2816 -1347 2230 -1169 
Q 1644 -991 1231 -633 
Q 819 -275 609 191 
Q 347 781 347 1466 
Q 347 2228 659 2919 
Q 1041 3766 1742 4216 
Q 2444 4666 3444 4666 
Q 4219 4666 4836 4348 
Q 5453 4031 5809 3403 
Q 6113 2863 6113 2228 
Q 6113 1322 5475 619 
Q 4906 -13 4231 -13 
Q 4016 -13 3883 53 
Q 3750 119 3688 241 
Q 3647 319 3628 509 
z
M 2116 1356 
Q 2116 928 2319 690 
Q 2522 453 2784 453 
Q 2959 453 3153 558 
Q 3347 663 3523 869 
Q 3700 1075 3812 1392 
Q 3925 1709 3925 2028 
Q 3925 2453 3714 2687 
Q 3503 2922 3200 2922 
Q 3000 2922 2823 2820 
Q 2647 2719 2481 2494 
Q 2316 2269 2216 1947 
Q 2116 1625 2116 1356 
z
" transform="scale(0.015625)"/>
     <path id="ArialMT-6c" d="M 409 0 
L 409 4581 
L 972 4581 
L 972 0 
L 409 0 
z
" transform="scale(0.015625)"/>
     <path id="ArialMT-61" d="M 2588 409 
Q 2275 144 1986 34 
Q 1697 -75 1366 -75 
Q 819 -75 525 192 
Q 231 459 231 875 
Q 231 1119 342 1320 
Q 453 1522 633 1644 
Q 813 1766 1038 1828 
Q 1203 1872 1538 1913 
Q 2219 1994 2541 2106 
Q 2544 2222 2544 2253 
Q 2544 2597 2384 2738 
Q 2169 2928 1744 2928 
Q 1347 2928 1158 2789 
Q 969 2650 878 2297 
L 328 2372 
Q 403 2725 575 2942 
Q 747 3159 1072 3276 
Q 1397 3394 1825 3394 
Q 2250 3394 2515 3294 
Q 2781 3194 2906 3042 
Q 3031 2891 3081 2659 
Q 3109 2516 3109 2141 
L 3109 1391 
Q 3109 606 3145 398 
Q 3181 191 3288 0 
L 2700 0 
Q 2613 175 2588 409 
z
M 2541 1666 
Q 2234 1541 1622 1453 
Q 1275 1403 1131 1340 
Q 988 1278 909 1158 
Q 831 1038 831 891 
Q 831 666 1001 516 
Q 1172 366 1500 366 
Q 1825 366 2078 508 
Q 2331 650 2450 897 
Q 2541 1088 2541 1459 
L 2541 1666 
z
" transform="scale(0.015625)"/>
     <path id="ArialMT-67" d="M 319 -275 
L 866 -356 
Q 900 -609 1056 -725 
Q 1266 -881 1628 -881 
Q 2019 -881 2231 -725 
Q 2444 -569 2519 -288 
Q 2563 -116 2559 434 
Q 2191 0 1641 0 
Q 956 0 581 494 
Q 206 988 206 1678 
Q 206 2153 378 2554 
Q 550 2956 876 3175 
Q 1203 3394 1644 3394 
Q 2231 3394 2613 2919 
L 2613 3319 
L 3131 3319 
L 3131 450 
Q 3131 -325 2973 -648 
Q 2816 -972 2473 -1159 
Q 2131 -1347 1631 -1347 
Q 1038 -1347 672 -1080 
Q 306 -813 319 -275 
z
M 784 1719 
Q 784 1066 1043 766 
Q 1303 466 1694 466 
Q 2081 466 2343 764 
Q 2606 1063 2606 1700 
Q 2606 2309 2336 2618 
Q 2066 2928 1684 2928 
Q 1309 2928 1046 2623 
Q 784 2319 784 1719 
z
" transform="scale(0.015625)"/>
     <path id="ArialMT-6f" d="M 213 1659 
Q 213 2581 725 3025 
Q 1153 3394 1769 3394 
Q 2453 3394 2887 2945 
Q 3322 2497 3322 1706 
Q 3322 1066 3130 698 
Q 2938 331 2570 128 
Q 2203 -75 1769 -75 
Q 1072 -75 642 372 
Q 213 819 213 1659 
z
M 791 1659 
Q 791 1022 1069 705 
Q 1347 388 1769 388 
Q 2188 388 2466 706 
Q 2744 1025 2744 1678 
Q 2744 2294 2464 2611 
Q 2184 2928 1769 2928 
Q 1347 2928 1069 2612 
Q 791 2297 791 1659 
z
" transform="scale(0.015625)"/>
     <path id="ArialMT-6d" d="M 422 0 
L 422 3319 
L 925 3319 
L 925 2853 
Q 1081 3097 1340 3245 
Q 1600 3394 1931 3394 
Q 2300 3394 2536 3241 
Q 2772 3088 2869 2813 
Q 3263 3394 3894 3394 
Q 4388 3394 4653 3120 
Q 4919 2847 4919 2278 
L 4919 0 
L 4359 0 
L 4359 2091 
Q 4359 2428 4304 2576 
Q 4250 2725 4106 2815 
Q 3963 2906 3769 2906 
Q 3419 2906 3187 2673 
Q 2956 2441 2956 1928 
L 2956 0 
L 2394 0 
L 2394 2156 
Q 2394 2531 2256 2718 
Q 2119 2906 1806 2906 
Q 1569 2906 1367 2781 
Q 1166 2656 1075 2415 
Q 984 2175 984 1722 
L 984 0 
L 422 0 
z
" transform="scale(0.015625)"/>
     <path id="ArialMT-2d" d="M 203 1375 
L 203 1941 
L 1931 1941 
L 1931 1375 
L 203 1375 
z
" transform="scale(0.015625)"/>
     <path id="ArialMT-51" d="M 3966 491 
Q 4388 200 4744 66 
L 4566 -356 
Q 4072 -178 3581 206 
Q 3072 -78 2456 -78 
Q 1834 -78 1328 222 
Q 822 522 548 1065 
Q 275 1609 275 2291 
Q 275 2969 550 3525 
Q 825 4081 1333 4372 
Q 1841 4663 2469 4663 
Q 3103 4663 3612 4361 
Q 4122 4059 4389 3517 
Q 4656 2975 4656 2294 
Q 4656 1728 4484 1276 
Q 4313 825 3966 491 
z
M 2631 1266 
Q 3156 1119 3497 828 
Q 4031 1316 4031 2294 
Q 4031 2850 3842 3265 
Q 3653 3681 3289 3911 
Q 2925 4141 2472 4141 
Q 1794 4141 1347 3677 
Q 900 3213 900 2291 
Q 900 1397 1342 919 
Q 1784 441 2472 441 
Q 2797 441 3084 563 
Q 2800 747 2484 825 
L 2631 1266 
z
" transform="scale(0.015625)"/>
     <path id="ArialMT-42" d="M 469 0 
L 469 4581 
L 2188 4581 
Q 2713 4581 3030 4442 
Q 3347 4303 3526 4014 
Q 3706 3725 3706 3409 
Q 3706 3116 3547 2856 
Q 3388 2597 3066 2438 
Q 3481 2316 3704 2022 
Q 3928 1728 3928 1328 
Q 3928 1006 3792 729 
Q 3656 453 3456 303 
Q 3256 153 2954 76 
Q 2653 0 2216 0 
L 469 0 
z
M 1075 2656 
L 2066 2656 
Q 2469 2656 2644 2709 
Q 2875 2778 2992 2937 
Q 3109 3097 3109 3338 
Q 3109 3566 3000 3739 
Q 2891 3913 2687 3977 
Q 2484 4041 1991 4041 
L 1075 4041 
L 1075 2656 
z
M 1075 541 
L 2216 541 
Q 2509 541 2628 563 
Q 2838 600 2978 687 
Q 3119 775 3209 942 
Q 3300 1109 3300 1328 
Q 3300 1584 3169 1773 
Q 3038 1963 2805 2039 
Q 2572 2116 2134 2116 
L 1075 2116 
L 1075 541 
z
" transform="scale(0.015625)"/>
     <path id="ArialMT-3b" d="M 569 2678 
L 569 3319 
L 1209 3319 
L 1209 2678 
L 569 2678 
z
M 569 0 
L 569 641 
L 1209 641 
L 1209 0 
Q 1209 -353 1084 -570 
Q 959 -788 688 -906 
L 531 -666 
Q 709 -588 793 -436 
Q 878 -284 888 0 
L 569 0 
z
" transform="scale(0.015625)"/>
     <path id="ArialMT-32" d="M 3222 541 
L 3222 0 
L 194 0 
Q 188 203 259 391 
Q 375 700 629 1000 
Q 884 1300 1366 1694 
Q 2113 2306 2375 2664 
Q 2638 3022 2638 3341 
Q 2638 3675 2398 3904 
Q 2159 4134 1775 4134 
Q 1369 4134 1125 3890 
Q 881 3647 878 3216 
L 300 3275 
Q 359 3922 746 4261 
Q 1134 4600 1788 4600 
Q 2447 4600 2831 4234 
Q 3216 3869 3216 3328 
Q 3216 3053 3103 2787 
Q 2991 2522 2730 2228 
Q 2469 1934 1863 1422 
Q 1356 997 1212 845 
Q 1069 694 975 541 
L 3222 541 
z
" transform="scale(0.015625)"/>
     <path id="ArialMT-30" d="M 266 2259 
Q 266 3072 433 3567 
Q 600 4063 929 4331 
Q 1259 4600 1759 4600 
Q 2128 4600 2406 4451 
Q 2684 4303 2865 4023 
Q 3047 3744 3150 3342 
Q 3253 2941 3253 2259 
Q 3253 1453 3087 958 
Q 2922 463 2592 192 
Q 2263 -78 1759 -78 
Q 1097 -78 719 397 
Q 266 969 266 2259 
z
M 844 2259 
Q 844 1131 1108 757 
Q 1372 384 1759 384 
Q 2147 384 2411 759 
Q 2675 1134 2675 2259 
Q 2675 3391 2411 3762 
Q 2147 4134 1753 4134 
Q 1366 4134 1134 3806 
Q 844 3388 844 2259 
z
" transform="scale(0.015625)"/>
     <path id="ArialMT-33" d="M 269 1209 
L 831 1284 
Q 928 806 1161 595 
Q 1394 384 1728 384 
Q 2125 384 2398 659 
Q 2672 934 2672 1341 
Q 2672 1728 2419 1979 
Q 2166 2231 1775 2231 
Q 1616 2231 1378 2169 
L 1441 2663 
Q 1497 2656 1531 2656 
Q 1891 2656 2178 2843 
Q 2466 3031 2466 3422 
Q 2466 3731 2256 3934 
Q 2047 4138 1716 4138 
Q 1388 4138 1169 3931 
Q 950 3725 888 3313 
L 325 3413 
Q 428 3978 793 4289 
Q 1159 4600 1703 4600 
Q 2078 4600 2393 4439 
Q 2709 4278 2876 4000 
Q 3044 3722 3044 3409 
Q 3044 3113 2884 2869 
Q 2725 2625 2413 2481 
Q 2819 2388 3044 2092 
Q 3269 1797 3269 1353 
Q 3269 753 2831 336 
Q 2394 -81 1725 -81 
Q 1122 -81 723 278 
Q 325 638 269 1209 
z
" transform="scale(0.015625)"/>
    </defs>
    <use xlink:href="#ArialMT-40"/>
    <use xlink:href="#ArialMT-6c" x="101.513672"/>
    <use xlink:href="#ArialMT-61" x="123.730469"/>
    <use xlink:href="#ArialMT-67" x="179.345703"/>
    <use xlink:href="#ArialMT-6f" x="234.960938"/>
    <use xlink:href="#ArialMT-6d" x="290.576172"/>
    <use xlink:href="#ArialMT-2d" x="373.876953"/>
    <use xlink:href="#ArialMT-51" x="407.177734"/>
    <use xlink:href="#ArialMT-42" x="484.960938"/>
    <use xlink:href="#ArialMT-3b" x="551.660156"/>
    <use xlink:href="#ArialMT-20" x="579.443359"/>
    <use xlink:href="#ArialMT-32" x="607.226562"/>
    <use xlink:href="#ArialMT-30" x="662.841797"/>
    <use xlink:href="#ArialMT-32" x="718.457031"/>
    <use xlink:href="#ArialMT-33" x="774.072266"/>
   </g>
  </g>
 </g>
 <defs>
  <clipPath id="p07acf0fe1c">
   <rect x="120.96" y="57.6" width="656.64" height="460.8"/>
  </clipPath>
 </defs>
</svg>
