<?xml version="1.0" encoding="utf-8" standalone="no"?>
<!DOCTYPE svg PUBLIC "-//W3C//DTD SVG 1.1//EN"
  "http://www.w3.org/Graphics/SVG/1.1/DTD/svg11.dtd">
<svg xmlns:xlink="http://www.w3.org/1999/xlink" width="864pt" height="576pt" viewBox="0 0 864 576" xmlns="http://www.w3.org/2000/svg" version="1.1">
 <metadata>
  <rdf:RDF xmlns:dc="http://purl.org/dc/elements/1.1/" xmlns:cc="http://creativecommons.org/ns#" xmlns:rdf="http://www.w3.org/1999/02/22-rdf-syntax-ns#">
   <cc:Work>
    <dc:type rdf:resource="http://purl.org/dc/dcmitype/StillImage"/>
    <dc:date>2023-08-11T18:37:48.798098</dc:date>
    <dc:format>image/svg+xml</dc:format>
    <dc:creator>
     <cc:Agent>
      <dc:title>Matplotlib v3.7.1, https://matplotlib.org/</dc:title>
     </cc:Agent>
    </dc:creator>
   </cc:Work>
  </rdf:RDF>
 </metadata>
 <defs>
  <style type="text/css">*{stroke-linejoin: round; stroke-linecap: butt}</style>
 </defs>
 <g id="figure_1">
  <g id="patch_1">
   <path d="M 0 576 
L 864 576 
L 864 0 
L 0 0 
z
" style="fill: #ffffff"/>
  </g>
  <g id="axes_1">
   <g id="patch_2">
    <path d="M 120.96 518.4 
L 777.6 518.4 
L 777.6 57.6 
L 120.96 57.6 
z
" style="fill: #ffffff"/>
   </g>
   <g id="matplotlib.axis_1">
    <g id="xtick_1">
     <g id="line2d_1">
      <path d="M 169.100762 518.4 
L 169.100762 57.6 
" clip-path="url(#pabfbe3e084)" style="fill: none; stroke: #808080; stroke-width: 0.4; stroke-linecap: square"/>
     </g>
     <g id="line2d_2"/>
     <g id="text_1">
      <!-- 5 -->
      <g transform="translate(165.488575 51.604375) scale(0.12 -0.12)">
       <defs>
        <path id="DejaVuSansMono-35" d="M 647 4666 
L 3009 4666 
L 3009 4134 
L 1222 4134 
L 1222 2988 
Q 1356 3038 1492 3061 
Q 1628 3084 1766 3084 
Q 2491 3084 2916 2656 
Q 3341 2228 3341 1497 
Q 3341 759 2895 334 
Q 2450 -91 1678 -91 
Q 1306 -91 998 -41 
Q 691 9 447 109 
L 447 750 
Q 734 594 1025 517 
Q 1316 441 1619 441 
Q 2141 441 2423 716 
Q 2706 991 2706 1497 
Q 2706 1997 2414 2275 
Q 2122 2553 1600 2553 
Q 1347 2553 1106 2495 
Q 866 2438 647 2322 
L 647 4666 
z
" transform="scale(0.015625)"/>
       </defs>
       <use xlink:href="#DejaVuSansMono-35"/>
      </g>
     </g>
    </g>
    <g id="xtick_2">
     <g id="line2d_3">
      <path d="M 265.382287 518.4 
L 265.382287 57.6 
" clip-path="url(#pabfbe3e084)" style="fill: none; stroke: #808080; stroke-width: 0.4; stroke-linecap: square"/>
     </g>
     <g id="line2d_4"/>
     <g id="text_2">
      <!-- 15 -->
      <g transform="translate(258.157912 51.604375) scale(0.12 -0.12)">
       <defs>
        <path id="DejaVuSansMono-31" d="M 844 531 
L 1825 531 
L 1825 4097 
L 769 3859 
L 769 4434 
L 1819 4666 
L 2450 4666 
L 2450 531 
L 3419 531 
L 3419 0 
L 844 0 
L 844 531 
z
" transform="scale(0.015625)"/>
       </defs>
       <use xlink:href="#DejaVuSansMono-31"/>
       <use xlink:href="#DejaVuSansMono-35" x="60.205078"/>
      </g>
     </g>
    </g>
    <g id="xtick_3">
     <g id="line2d_5">
      <path d="M 265.382287 518.4 
L 265.382287 57.6 
" clip-path="url(#pabfbe3e084)" style="fill: none; stroke: #808080; stroke-width: 0.4; stroke-linecap: square"/>
     </g>
     <g id="line2d_6"/>
     <g id="text_3">
      <!-- 15 -->
      <g transform="translate(258.157912 51.604375) scale(0.12 -0.12)">
       <use xlink:href="#DejaVuSansMono-31"/>
       <use xlink:href="#DejaVuSansMono-35" x="60.205078"/>
      </g>
     </g>
    </g>
    <g id="xtick_4">
     <g id="line2d_7">
      <path d="M 361.663812 518.4 
L 361.663812 57.6 
" clip-path="url(#pabfbe3e084)" style="fill: none; stroke: #808080; stroke-width: 0.4; stroke-linecap: square"/>
     </g>
     <g id="line2d_8"/>
     <g id="text_4">
      <!-- 25 -->
      <g transform="translate(354.439437 51.604375) scale(0.12 -0.12)">
       <defs>
        <path id="DejaVuSansMono-32" d="M 1166 531 
L 3309 531 
L 3309 0 
L 475 0 
L 475 531 
Q 1059 1147 1496 1619 
Q 1934 2091 2100 2284 
Q 2413 2666 2522 2902 
Q 2631 3138 2631 3384 
Q 2631 3775 2401 3997 
Q 2172 4219 1772 4219 
Q 1488 4219 1175 4116 
Q 863 4013 513 3803 
L 513 4441 
Q 834 4594 1145 4672 
Q 1456 4750 1759 4750 
Q 2444 4750 2861 4386 
Q 3278 4022 3278 3431 
Q 3278 3131 3139 2831 
Q 3000 2531 2688 2169 
Q 2513 1966 2180 1606 
Q 1847 1247 1166 531 
z
" transform="scale(0.015625)"/>
       </defs>
       <use xlink:href="#DejaVuSansMono-32"/>
       <use xlink:href="#DejaVuSansMono-35" x="60.205078"/>
      </g>
     </g>
    </g>
    <g id="xtick_5">
     <g id="line2d_9">
      <path d="M 506.0861 518.4 
L 506.0861 57.6 
" clip-path="url(#pabfbe3e084)" style="fill: none; stroke: #808080; stroke-width: 0.4; stroke-linecap: square"/>
     </g>
     <g id="line2d_10"/>
     <g id="text_5">
      <!-- 40 -->
      <g transform="translate(498.861725 51.604375) scale(0.12 -0.12)">
       <defs>
        <path id="DejaVuSansMono-34" d="M 2297 4091 
L 825 1625 
L 2297 1625 
L 2297 4091 
z
M 2194 4666 
L 2925 4666 
L 2925 1625 
L 3547 1625 
L 3547 1113 
L 2925 1113 
L 2925 0 
L 2297 0 
L 2297 1113 
L 319 1113 
L 319 1709 
L 2194 4666 
z
" transform="scale(0.015625)"/>
        <path id="DejaVuSansMono-30" d="M 1509 2344 
Q 1509 2516 1629 2641 
Q 1750 2766 1919 2766 
Q 2094 2766 2219 2641 
Q 2344 2516 2344 2344 
Q 2344 2169 2220 2047 
Q 2097 1925 1919 1925 
Q 1744 1925 1626 2044 
Q 1509 2163 1509 2344 
z
M 1925 4250 
Q 1484 4250 1267 3775 
Q 1050 3300 1050 2328 
Q 1050 1359 1267 884 
Q 1484 409 1925 409 
Q 2369 409 2586 884 
Q 2803 1359 2803 2328 
Q 2803 3300 2586 3775 
Q 2369 4250 1925 4250 
z
M 1925 4750 
Q 2672 4750 3055 4137 
Q 3438 3525 3438 2328 
Q 3438 1134 3055 521 
Q 2672 -91 1925 -91 
Q 1178 -91 797 521 
Q 416 1134 416 2328 
Q 416 3525 797 4137 
Q 1178 4750 1925 4750 
z
" transform="scale(0.015625)"/>
       </defs>
       <use xlink:href="#DejaVuSansMono-34"/>
       <use xlink:href="#DejaVuSansMono-30" x="60.205078"/>
      </g>
     </g>
    </g>
    <g id="xtick_6">
     <g id="line2d_11">
      <path d="M 506.0861 518.4 
L 506.0861 57.6 
" clip-path="url(#pabfbe3e084)" style="fill: none; stroke: #808080; stroke-width: 0.4; stroke-linecap: square"/>
     </g>
     <g id="line2d_12"/>
     <g id="text_6">
      <!-- 40 -->
      <g transform="translate(498.861725 51.604375) scale(0.12 -0.12)">
       <use xlink:href="#DejaVuSansMono-34"/>
       <use xlink:href="#DejaVuSansMono-30" x="60.205078"/>
      </g>
     </g>
    </g>
    <g id="xtick_7">
     <g id="line2d_13">
      <path d="M 698.64915 518.4 
L 698.64915 57.6 
" clip-path="url(#pabfbe3e084)" style="fill: none; stroke: #808080; stroke-width: 0.4; stroke-linecap: square"/>
     </g>
     <g id="line2d_14"/>
     <g id="text_7">
      <!-- 60 -->
      <g transform="translate(691.424775 51.604375) scale(0.12 -0.12)">
       <defs>
        <path id="DejaVuSansMono-36" d="M 3097 4563 
L 3097 3981 
Q 2900 4097 2678 4158 
Q 2456 4219 2216 4219 
Q 1616 4219 1306 3767 
Q 997 3316 997 2438 
Q 1147 2750 1412 2917 
Q 1678 3084 2022 3084 
Q 2697 3084 3067 2670 
Q 3438 2256 3438 1497 
Q 3438 741 3056 325 
Q 2675 -91 1984 -91 
Q 1172 -91 794 492 
Q 416 1075 416 2328 
Q 416 3509 870 4129 
Q 1325 4750 2188 4750 
Q 2419 4750 2650 4701 
Q 2881 4653 3097 4563 
z
M 1972 2591 
Q 1569 2591 1337 2300 
Q 1106 2009 1106 1497 
Q 1106 984 1337 693 
Q 1569 403 1972 403 
Q 2391 403 2603 679 
Q 2816 956 2816 1497 
Q 2816 2041 2603 2316 
Q 2391 2591 1972 2591 
z
" transform="scale(0.015625)"/>
       </defs>
       <use xlink:href="#DejaVuSansMono-36"/>
       <use xlink:href="#DejaVuSansMono-30" x="60.205078"/>
      </g>
     </g>
    </g>
   </g>
   <g id="patch_3">
    <path d="M 120.96 518.4 
L 178.728915 518.4 
L 178.728915 494.919745 
L 120.96 494.919745 
z
" clip-path="url(#pabfbe3e084)" style="fill: #1a1afa; opacity: 0.7"/>
   </g>
   <g id="patch_4">
    <path d="M 120.96 465.569427 
L 178.728915 465.569427 
L 178.728915 442.089172 
L 120.96 442.089172 
z
" clip-path="url(#pabfbe3e084)" style="fill: #1a1afa; opacity: 0.7"/>
   </g>
   <g id="patch_5">
    <path d="M 120.96 412.738854 
L 178.728915 412.738854 
L 178.728915 389.258599 
L 120.96 389.258599 
z
" clip-path="url(#pabfbe3e084)" style="fill: #1a1afa; opacity: 0.7"/>
   </g>
   <g id="patch_6">
    <path d="M 120.96 359.90828 
L 265.382287 359.90828 
L 265.382287 336.428025 
L 120.96 336.428025 
z
" clip-path="url(#pabfbe3e084)" style="fill: #1a1afa; opacity: 0.7"/>
   </g>
   <g id="patch_7">
    <path d="M 120.96 307.077707 
L 275.01044 307.077707 
L 275.01044 283.597452 
L 120.96 283.597452 
z
" clip-path="url(#pabfbe3e084)" style="fill: #1a1afa; opacity: 0.7"/>
   </g>
   <g id="patch_8">
    <path d="M 120.96 254.247134 
L 380.920117 254.247134 
L 380.920117 230.766879 
L 120.96 230.766879 
z
" clip-path="url(#pabfbe3e084)" style="fill: #1a1afa; opacity: 0.7"/>
   </g>
   <g id="patch_9">
    <path d="M 120.96 201.416561 
L 506.0861 201.416561 
L 506.0861 177.936306 
L 120.96 177.936306 
z
" clip-path="url(#pabfbe3e084)" style="fill: #1a1afa; opacity: 0.7"/>
   </g>
   <g id="patch_10">
    <path d="M 120.96 148.585987 
L 525.342405 148.585987 
L 525.342405 125.105732 
L 120.96 125.105732 
z
" clip-path="url(#pabfbe3e084)" style="fill: #1a1afa; opacity: 0.7"/>
   </g>
   <g id="patch_11">
    <path d="M 120.96 95.755414 
L 717.905455 95.755414 
L 717.905455 72.275159 
L 120.96 72.275159 
z
" clip-path="url(#pabfbe3e084)" style="fill: #1a1afa; opacity: 0.7"/>
   </g>
   <g id="patch_12">
    <path d="M 120.96 518.4 
L 120.96 57.6 
" style="fill: none; opacity: 0.9; stroke: #808080; stroke-width: 1.4; stroke-linejoin: miter; stroke-linecap: round"/>
   </g>
   <g id="text_8">
    <path d="M 187.097994 515.115093 
L 187.097994 508.80103 
L 184.740181 508.80103 
L 184.740181 507.95728 
L 190.413619 507.95728 
L 190.413619 508.80103 
L 188.046431 508.80103 
L 188.046431 515.115093 
L 187.097994 515.115093 
z
M 191.415767 515.115093 
L 191.415767 507.95728 
L 192.362642 507.95728 
L 192.362642 510.896343 
L 196.082955 510.896343 
L 196.082955 507.95728 
L 197.02983 507.95728 
L 197.02983 515.115093 
L 196.082955 515.115093 
L 196.082955 511.741655 
L 192.362642 511.741655 
L 192.362642 515.115093 
L 191.415767 515.115093 
z
M 198.62651 515.115093 
L 198.62651 507.95728 
L 203.803072 507.95728 
L 203.803072 508.80103 
L 199.574947 508.80103 
L 199.574947 510.993218 
L 203.534322 510.993218 
L 203.534322 511.833843 
L 199.574947 511.833843 
L 199.574947 514.26978 
L 203.968697 514.26978 
L 203.968697 515.115093 
L 198.62651 515.115093 
z
M 204.988619 511.629155 
Q 204.988619 509.846343 205.944869 508.83853 
Q 206.902681 507.829155 208.416744 507.829155 
Q 209.408931 507.829155 210.204244 508.304155 
Q 210.999556 508.777593 211.416744 509.624468 
Q 211.835494 510.471343 211.835494 511.546343 
Q 211.835494 512.633843 211.394869 513.493218 
Q 210.955806 514.352593 210.149556 514.79478 
Q 209.344869 515.236968 208.412056 515.236968 
Q 207.401119 515.236968 206.604244 514.749468 
Q 205.808931 514.260405 205.397994 513.416655 
Q 204.988619 512.571343 204.988619 511.629155 
z
M 205.965181 511.643218 
Q 205.965181 512.936968 206.660494 513.68228 
Q 207.357369 514.42603 208.407369 514.42603 
Q 209.476119 514.42603 210.166744 513.674468 
Q 210.858931 512.922905 210.858931 511.540093 
Q 210.858931 510.666655 210.563619 510.015093 
Q 210.268306 509.36353 209.697994 509.004155 
Q 209.129244 508.64478 208.421431 508.64478 
Q 207.416744 508.64478 206.690181 509.336968 
Q 205.965181 510.027593 205.965181 511.643218 
z
M 213.016939 515.115093 
L 213.016939 507.95728 
L 213.963814 507.95728 
L 213.963814 514.26978 
L 217.488814 514.26978 
L 217.488814 515.115093 
L 213.016939 515.115093 
z
M 218.328463 511.629155 
Q 218.328463 509.846343 219.284713 508.83853 
Q 220.242525 507.829155 221.756588 507.829155 
Q 222.748775 507.829155 223.544088 508.304155 
Q 224.3394 508.777593 224.756588 509.624468 
Q 225.175338 510.471343 225.175338 511.546343 
Q 225.175338 512.633843 224.734713 513.493218 
Q 224.29565 514.352593 223.4894 514.79478 
Q 222.684713 515.236968 221.7519 515.236968 
Q 220.740963 515.236968 219.944088 514.749468 
Q 219.148775 514.260405 218.737838 513.416655 
Q 218.328463 512.571343 218.328463 511.629155 
z
M 219.305025 511.643218 
Q 219.305025 512.936968 220.000338 513.68228 
Q 220.697213 514.42603 221.747213 514.42603 
Q 222.815963 514.42603 223.506588 513.674468 
Q 224.198775 512.922905 224.198775 511.540093 
Q 224.198775 510.666655 223.903463 510.015093 
Q 223.60815 509.36353 223.037838 509.004155 
Q 222.469088 508.64478 221.761275 508.64478 
Q 220.756588 508.64478 220.030025 509.336968 
Q 219.305025 510.027593 219.305025 511.643218 
z
M 229.745846 512.30728 
L 229.745846 511.468218 
L 232.777096 511.461968 
L 232.777096 514.118218 
Q 232.078658 514.67603 231.336471 514.95728 
Q 230.594283 515.236968 229.813033 515.236968 
Q 228.758346 515.236968 227.895846 514.785405 
Q 227.034908 514.333843 226.595846 513.479155 
Q 226.156783 512.624468 226.156783 511.56978 
Q 226.156783 510.524468 226.592721 509.61978 
Q 227.030221 508.71353 227.850533 508.274468 
Q 228.670846 507.835405 229.739596 507.835405 
Q 230.516158 507.835405 231.142721 508.086968 
Q 231.770846 508.336968 232.127096 508.786968 
Q 232.484908 509.235405 232.669283 509.958843 
L 231.816158 510.193218 
Q 231.653658 509.646343 231.414596 509.333843 
Q 231.175533 509.021343 230.730221 508.833843 
Q 230.286471 508.64478 229.745846 508.64478 
Q 229.095846 508.64478 228.622408 508.843218 
Q 228.148971 509.040093 227.858346 509.36353 
Q 227.567721 509.685405 227.406783 510.071343 
Q 227.133346 510.735405 227.133346 511.511968 
Q 227.133346 512.468218 227.463033 513.11353 
Q 227.792721 513.75728 228.422408 514.06978 
Q 229.052096 514.38228 229.759908 514.38228 
Q 230.375533 514.38228 230.961471 514.146343 
Q 231.547408 513.908843 231.848971 513.640093 
L 231.848971 512.30728 
L 229.745846 512.30728 
z
M 234.335103 515.115093 
L 234.335103 507.95728 
L 235.281978 507.95728 
L 235.281978 515.115093 
L 234.335103 515.115093 
z
M 242.060299 512.605718 
L 243.007174 512.84478 
Q 242.708736 514.011968 241.935299 514.624468 
Q 241.161861 515.236968 240.043111 515.236968 
Q 238.885299 515.236968 238.160299 514.766655 
Q 237.435299 514.29478 237.057174 513.40103 
Q 236.679049 512.50728 236.679049 511.48228 
Q 236.679049 510.36353 237.105611 509.53228 
Q 237.533736 508.699468 238.321236 508.268218 
Q 239.110299 507.835405 240.057174 507.835405 
Q 241.132174 507.835405 241.863424 508.38228 
Q 242.596236 508.929155 242.885299 509.91978 
L 241.952486 510.140093 
Q 241.702486 509.358843 241.229049 509.002593 
Q 240.755611 508.64478 240.038424 508.64478 
Q 239.213424 508.64478 238.658736 509.041655 
Q 238.104049 509.436968 237.879049 510.104155 
Q 237.655611 510.76978 237.655611 511.477593 
Q 237.655611 512.390093 237.921236 513.071343 
Q 238.186861 513.752593 238.747799 514.090093 
Q 239.310299 514.42603 239.964986 514.42603 
Q 240.760299 514.42603 241.311861 513.968218 
Q 241.864986 513.508843 242.060299 512.605718 
z
M 243.388228 515.115093 
L 246.136666 507.95728 
L 247.156978 507.95728 
L 250.086666 515.115093 
L 249.008541 515.115093 
L 248.172603 512.946343 
L 245.180416 512.946343 
L 244.392916 515.115093 
L 243.388228 515.115093 
z
M 245.453853 512.17603 
L 247.880416 512.17603 
L 247.133541 510.193218 
Q 246.791353 509.290093 246.625728 508.708843 
Q 246.488228 509.397905 246.239791 510.07603 
L 245.453853 512.17603 
z
M 250.805025 515.115093 
L 250.805025 507.95728 
L 251.7519 507.95728 
L 251.7519 514.26978 
L 255.2769 514.26978 
L 255.2769 515.115093 
L 250.805025 515.115093 
z
" style="fill: #1a1afa; stroke: #ffffff; stroke-width: 2"/>
    <path d="M 187.097994 515.115093 
L 187.097994 508.80103 
L 184.740181 508.80103 
L 184.740181 507.95728 
L 190.413619 507.95728 
L 190.413619 508.80103 
L 188.046431 508.80103 
L 188.046431 515.115093 
L 187.097994 515.115093 
z
M 191.415767 515.115093 
L 191.415767 507.95728 
L 192.362642 507.95728 
L 192.362642 510.896343 
L 196.082955 510.896343 
L 196.082955 507.95728 
L 197.02983 507.95728 
L 197.02983 515.115093 
L 196.082955 515.115093 
L 196.082955 511.741655 
L 192.362642 511.741655 
L 192.362642 515.115093 
L 191.415767 515.115093 
z
M 198.62651 515.115093 
L 198.62651 507.95728 
L 203.803072 507.95728 
L 203.803072 508.80103 
L 199.574947 508.80103 
L 199.574947 510.993218 
L 203.534322 510.993218 
L 203.534322 511.833843 
L 199.574947 511.833843 
L 199.574947 514.26978 
L 203.968697 514.26978 
L 203.968697 515.115093 
L 198.62651 515.115093 
z
M 204.988619 511.629155 
Q 204.988619 509.846343 205.944869 508.83853 
Q 206.902681 507.829155 208.416744 507.829155 
Q 209.408931 507.829155 210.204244 508.304155 
Q 210.999556 508.777593 211.416744 509.624468 
Q 211.835494 510.471343 211.835494 511.546343 
Q 211.835494 512.633843 211.394869 513.493218 
Q 210.955806 514.352593 210.149556 514.79478 
Q 209.344869 515.236968 208.412056 515.236968 
Q 207.401119 515.236968 206.604244 514.749468 
Q 205.808931 514.260405 205.397994 513.416655 
Q 204.988619 512.571343 204.988619 511.629155 
z
M 205.965181 511.643218 
Q 205.965181 512.936968 206.660494 513.68228 
Q 207.357369 514.42603 208.407369 514.42603 
Q 209.476119 514.42603 210.166744 513.674468 
Q 210.858931 512.922905 210.858931 511.540093 
Q 210.858931 510.666655 210.563619 510.015093 
Q 210.268306 509.36353 209.697994 509.004155 
Q 209.129244 508.64478 208.421431 508.64478 
Q 207.416744 508.64478 206.690181 509.336968 
Q 205.965181 510.027593 205.965181 511.643218 
z
M 213.016939 515.115093 
L 213.016939 507.95728 
L 213.963814 507.95728 
L 213.963814 514.26978 
L 217.488814 514.26978 
L 217.488814 515.115093 
L 213.016939 515.115093 
z
M 218.328463 511.629155 
Q 218.328463 509.846343 219.284713 508.83853 
Q 220.242525 507.829155 221.756588 507.829155 
Q 222.748775 507.829155 223.544088 508.304155 
Q 224.3394 508.777593 224.756588 509.624468 
Q 225.175338 510.471343 225.175338 511.546343 
Q 225.175338 512.633843 224.734713 513.493218 
Q 224.29565 514.352593 223.4894 514.79478 
Q 222.684713 515.236968 221.7519 515.236968 
Q 220.740963 515.236968 219.944088 514.749468 
Q 219.148775 514.260405 218.737838 513.416655 
Q 218.328463 512.571343 218.328463 511.629155 
z
M 219.305025 511.643218 
Q 219.305025 512.936968 220.000338 513.68228 
Q 220.697213 514.42603 221.747213 514.42603 
Q 222.815963 514.42603 223.506588 513.674468 
Q 224.198775 512.922905 224.198775 511.540093 
Q 224.198775 510.666655 223.903463 510.015093 
Q 223.60815 509.36353 223.037838 509.004155 
Q 222.469088 508.64478 221.761275 508.64478 
Q 220.756588 508.64478 220.030025 509.336968 
Q 219.305025 510.027593 219.305025 511.643218 
z
M 229.745846 512.30728 
L 229.745846 511.468218 
L 232.777096 511.461968 
L 232.777096 514.118218 
Q 232.078658 514.67603 231.336471 514.95728 
Q 230.594283 515.236968 229.813033 515.236968 
Q 228.758346 515.236968 227.895846 514.785405 
Q 227.034908 514.333843 226.595846 513.479155 
Q 226.156783 512.624468 226.156783 511.56978 
Q 226.156783 510.524468 226.592721 509.61978 
Q 227.030221 508.71353 227.850533 508.274468 
Q 228.670846 507.835405 229.739596 507.835405 
Q 230.516158 507.835405 231.142721 508.086968 
Q 231.770846 508.336968 232.127096 508.786968 
Q 232.484908 509.235405 232.669283 509.958843 
L 231.816158 510.193218 
Q 231.653658 509.646343 231.414596 509.333843 
Q 231.175533 509.021343 230.730221 508.833843 
Q 230.286471 508.64478 229.745846 508.64478 
Q 229.095846 508.64478 228.622408 508.843218 
Q 228.148971 509.040093 227.858346 509.36353 
Q 227.567721 509.685405 227.406783 510.071343 
Q 227.133346 510.735405 227.133346 511.511968 
Q 227.133346 512.468218 227.463033 513.11353 
Q 227.792721 513.75728 228.422408 514.06978 
Q 229.052096 514.38228 229.759908 514.38228 
Q 230.375533 514.38228 230.961471 514.146343 
Q 231.547408 513.908843 231.848971 513.640093 
L 231.848971 512.30728 
L 229.745846 512.30728 
z
M 234.335103 515.115093 
L 234.335103 507.95728 
L 235.281978 507.95728 
L 235.281978 515.115093 
L 234.335103 515.115093 
z
M 242.060299 512.605718 
L 243.007174 512.84478 
Q 242.708736 514.011968 241.935299 514.624468 
Q 241.161861 515.236968 240.043111 515.236968 
Q 238.885299 515.236968 238.160299 514.766655 
Q 237.435299 514.29478 237.057174 513.40103 
Q 236.679049 512.50728 236.679049 511.48228 
Q 236.679049 510.36353 237.105611 509.53228 
Q 237.533736 508.699468 238.321236 508.268218 
Q 239.110299 507.835405 240.057174 507.835405 
Q 241.132174 507.835405 241.863424 508.38228 
Q 242.596236 508.929155 242.885299 509.91978 
L 241.952486 510.140093 
Q 241.702486 509.358843 241.229049 509.002593 
Q 240.755611 508.64478 240.038424 508.64478 
Q 239.213424 508.64478 238.658736 509.041655 
Q 238.104049 509.436968 237.879049 510.104155 
Q 237.655611 510.76978 237.655611 511.477593 
Q 237.655611 512.390093 237.921236 513.071343 
Q 238.186861 513.752593 238.747799 514.090093 
Q 239.310299 514.42603 239.964986 514.42603 
Q 240.760299 514.42603 241.311861 513.968218 
Q 241.864986 513.508843 242.060299 512.605718 
z
M 243.388228 515.115093 
L 246.136666 507.95728 
L 247.156978 507.95728 
L 250.086666 515.115093 
L 249.008541 515.115093 
L 248.172603 512.946343 
L 245.180416 512.946343 
L 244.392916 515.115093 
L 243.388228 515.115093 
z
M 245.453853 512.17603 
L 247.880416 512.17603 
L 247.133541 510.193218 
Q 246.791353 509.290093 246.625728 508.708843 
Q 246.488228 509.397905 246.239791 510.07603 
L 245.453853 512.17603 
z
M 250.805025 515.115093 
L 250.805025 507.95728 
L 251.7519 507.95728 
L 251.7519 514.26978 
L 255.2769 514.26978 
L 255.2769 515.115093 
L 250.805025 515.115093 
z
" style="fill: #1a1afa"/>
   </g>
   <g id="text_9">
    <path d="M 185.291744 462.284519 
L 185.291744 455.126707 
L 188.465181 455.126707 
Q 189.422994 455.126707 189.919869 455.320457 
Q 190.418306 455.512644 190.716744 456.001707 
Q 191.015181 456.489207 191.015181 457.079832 
Q 191.015181 457.840769 190.521431 458.364207 
Q 190.027681 458.886082 188.997994 459.028269 
Q 189.374556 459.207957 189.569869 459.384519 
Q 189.983931 459.764207 190.355806 460.336082 
L 191.601119 462.284519 
L 190.408931 462.284519 
L 189.462056 460.795457 
Q 189.046431 460.150144 188.777681 459.809519 
Q 188.510494 459.467332 188.297994 459.331394 
Q 188.085494 459.193894 187.865181 459.139207 
Q 187.704244 459.106394 187.338619 459.106394 
L 186.238619 459.106394 
L 186.238619 462.284519 
L 185.291744 462.284519 
z
M 186.238619 458.286082 
L 188.276119 458.286082 
Q 188.924556 458.286082 189.290181 458.151707 
Q 189.657369 458.017332 189.847994 457.722019 
Q 190.038619 457.426707 190.038619 457.079832 
Q 190.038619 456.572019 189.669869 456.245457 
Q 189.301119 455.917332 188.504244 455.917332 
L 186.238619 455.917332 
L 186.238619 458.286082 
z
M 192.518111 462.284519 
L 192.518111 455.126707 
L 197.694674 455.126707 
L 197.694674 455.970457 
L 193.466549 455.970457 
L 193.466549 458.162644 
L 197.425924 458.162644 
L 197.425924 459.003269 
L 193.466549 459.003269 
L 193.466549 461.439207 
L 197.860299 461.439207 
L 197.860299 462.284519 
L 192.518111 462.284519 
z
M 204.277096 459.775144 
L 205.223971 460.014207 
Q 204.925533 461.181394 204.152096 461.793894 
Q 203.378658 462.406394 202.259908 462.406394 
Q 201.102096 462.406394 200.377096 461.936082 
Q 199.652096 461.464207 199.273971 460.570457 
Q 198.895846 459.676707 198.895846 458.651707 
Q 198.895846 457.532957 199.322408 456.701707 
Q 199.750533 455.868894 200.538033 455.437644 
Q 201.327096 455.004832 202.273971 455.004832 
Q 203.348971 455.004832 204.080221 455.551707 
Q 204.813033 456.098582 205.102096 457.089207 
L 204.169283 457.309519 
Q 203.919283 456.528269 203.445846 456.172019 
Q 202.972408 455.814207 202.255221 455.814207 
Q 201.430221 455.814207 200.875533 456.211082 
Q 200.320846 456.606394 200.095846 457.273582 
Q 199.872408 457.939207 199.872408 458.647019 
Q 199.872408 459.559519 200.138033 460.240769 
Q 200.403658 460.922019 200.964596 461.259519 
Q 201.527096 461.595457 202.181783 461.595457 
Q 202.977096 461.595457 203.528658 461.137644 
Q 204.081783 460.678269 204.277096 459.775144 
z
M 206.5519 462.284519 
L 206.5519 455.126707 
L 207.498775 455.126707 
L 207.498775 462.284519 
L 206.5519 462.284519 
z
M 209.169283 462.284519 
L 209.169283 455.126707 
L 211.869283 455.126707 
Q 212.581783 455.126707 212.958346 455.193894 
Q 213.484908 455.282957 213.841158 455.529832 
Q 214.198971 455.775144 214.416158 456.220457 
Q 214.633346 456.664207 214.633346 457.197019 
Q 214.633346 458.109519 214.052096 458.742332 
Q 213.470846 459.373582 211.952096 459.373582 
L 210.116158 459.373582 
L 210.116158 462.284519 
L 209.169283 462.284519 
z
M 210.116158 458.529832 
L 211.966158 458.529832 
Q 212.884908 458.529832 213.270846 458.187644 
Q 213.656783 457.845457 213.656783 457.225144 
Q 213.656783 456.776707 213.428658 456.457957 
Q 213.202096 456.137644 212.831783 456.034519 
Q 212.591158 455.970457 211.947408 455.970457 
L 210.116158 455.970457 
L 210.116158 458.529832 
z
M 215.857955 462.284519 
L 215.857955 455.126707 
L 221.034517 455.126707 
L 221.034517 455.970457 
L 216.806392 455.970457 
L 216.806392 458.162644 
L 220.765767 458.162644 
L 220.765767 459.003269 
L 216.806392 459.003269 
L 216.806392 461.439207 
L 221.200142 461.439207 
L 221.200142 462.284519 
L 215.857955 462.284519 
z
" style="fill: #1a1afa; stroke: #ffffff; stroke-width: 2"/>
    <path d="M 185.291744 462.284519 
L 185.291744 455.126707 
L 188.465181 455.126707 
Q 189.422994 455.126707 189.919869 455.320457 
Q 190.418306 455.512644 190.716744 456.001707 
Q 191.015181 456.489207 191.015181 457.079832 
Q 191.015181 457.840769 190.521431 458.364207 
Q 190.027681 458.886082 188.997994 459.028269 
Q 189.374556 459.207957 189.569869 459.384519 
Q 189.983931 459.764207 190.355806 460.336082 
L 191.601119 462.284519 
L 190.408931 462.284519 
L 189.462056 460.795457 
Q 189.046431 460.150144 188.777681 459.809519 
Q 188.510494 459.467332 188.297994 459.331394 
Q 188.085494 459.193894 187.865181 459.139207 
Q 187.704244 459.106394 187.338619 459.106394 
L 186.238619 459.106394 
L 186.238619 462.284519 
L 185.291744 462.284519 
z
M 186.238619 458.286082 
L 188.276119 458.286082 
Q 188.924556 458.286082 189.290181 458.151707 
Q 189.657369 458.017332 189.847994 457.722019 
Q 190.038619 457.426707 190.038619 457.079832 
Q 190.038619 456.572019 189.669869 456.245457 
Q 189.301119 455.917332 188.504244 455.917332 
L 186.238619 455.917332 
L 186.238619 458.286082 
z
M 192.518111 462.284519 
L 192.518111 455.126707 
L 197.694674 455.126707 
L 197.694674 455.970457 
L 193.466549 455.970457 
L 193.466549 458.162644 
L 197.425924 458.162644 
L 197.425924 459.003269 
L 193.466549 459.003269 
L 193.466549 461.439207 
L 197.860299 461.439207 
L 197.860299 462.284519 
L 192.518111 462.284519 
z
M 204.277096 459.775144 
L 205.223971 460.014207 
Q 204.925533 461.181394 204.152096 461.793894 
Q 203.378658 462.406394 202.259908 462.406394 
Q 201.102096 462.406394 200.377096 461.936082 
Q 199.652096 461.464207 199.273971 460.570457 
Q 198.895846 459.676707 198.895846 458.651707 
Q 198.895846 457.532957 199.322408 456.701707 
Q 199.750533 455.868894 200.538033 455.437644 
Q 201.327096 455.004832 202.273971 455.004832 
Q 203.348971 455.004832 204.080221 455.551707 
Q 204.813033 456.098582 205.102096 457.089207 
L 204.169283 457.309519 
Q 203.919283 456.528269 203.445846 456.172019 
Q 202.972408 455.814207 202.255221 455.814207 
Q 201.430221 455.814207 200.875533 456.211082 
Q 200.320846 456.606394 200.095846 457.273582 
Q 199.872408 457.939207 199.872408 458.647019 
Q 199.872408 459.559519 200.138033 460.240769 
Q 200.403658 460.922019 200.964596 461.259519 
Q 201.527096 461.595457 202.181783 461.595457 
Q 202.977096 461.595457 203.528658 461.137644 
Q 204.081783 460.678269 204.277096 459.775144 
z
M 206.5519 462.284519 
L 206.5519 455.126707 
L 207.498775 455.126707 
L 207.498775 462.284519 
L 206.5519 462.284519 
z
M 209.169283 462.284519 
L 209.169283 455.126707 
L 211.869283 455.126707 
Q 212.581783 455.126707 212.958346 455.193894 
Q 213.484908 455.282957 213.841158 455.529832 
Q 214.198971 455.775144 214.416158 456.220457 
Q 214.633346 456.664207 214.633346 457.197019 
Q 214.633346 458.109519 214.052096 458.742332 
Q 213.470846 459.373582 211.952096 459.373582 
L 210.116158 459.373582 
L 210.116158 462.284519 
L 209.169283 462.284519 
z
M 210.116158 458.529832 
L 211.966158 458.529832 
Q 212.884908 458.529832 213.270846 458.187644 
Q 213.656783 457.845457 213.656783 457.225144 
Q 213.656783 456.776707 213.428658 456.457957 
Q 213.202096 456.137644 212.831783 456.034519 
Q 212.591158 455.970457 211.947408 455.970457 
L 210.116158 455.970457 
L 210.116158 458.529832 
z
M 215.857955 462.284519 
L 215.857955 455.126707 
L 221.034517 455.126707 
L 221.034517 455.970457 
L 216.806392 455.970457 
L 216.806392 458.162644 
L 220.765767 458.162644 
L 220.765767 459.003269 
L 216.806392 459.003269 
L 216.806392 461.439207 
L 221.200142 461.439207 
L 221.200142 462.284519 
L 215.857955 462.284519 
z
" style="fill: #1a1afa"/>
   </g>
   <g id="text_10">
    <path d="M 186.527681 409.453946 
L 184.627681 402.296134 
L 185.599556 402.296134 
L 186.688619 406.988321 
Q 186.863619 407.725821 186.991744 408.452384 
Q 187.265181 407.305509 187.313619 407.128946 
L 188.676119 402.296134 
L 189.818306 402.296134 
L 190.843306 405.918009 
Q 191.229244 407.266446 191.401119 408.452384 
Q 191.537056 407.774259 191.757369 406.894571 
L 192.879244 402.296134 
L 193.832369 402.296134 
L 191.869869 409.453946 
L 190.955806 409.453946 
L 189.447994 403.999259 
Q 189.257369 403.316446 189.222994 403.160196 
Q 189.110494 403.652384 189.012056 403.999259 
L 187.494869 409.453946 
L 186.527681 409.453946 
z
M 194.734908 409.453946 
L 194.734908 402.296134 
L 199.911471 402.296134 
L 199.911471 403.139884 
L 195.683346 403.139884 
L 195.683346 405.332071 
L 199.642721 405.332071 
L 199.642721 406.172696 
L 195.683346 406.172696 
L 195.683346 408.608634 
L 200.077096 408.608634 
L 200.077096 409.453946 
L 194.734908 409.453946 
z
M 201.40483 409.453946 
L 201.40483 402.296134 
L 206.581392 402.296134 
L 206.581392 403.139884 
L 202.353267 403.139884 
L 202.353267 405.332071 
L 206.312642 405.332071 
L 206.312642 406.172696 
L 202.353267 406.172696 
L 202.353267 408.608634 
L 206.747017 408.608634 
L 206.747017 409.453946 
L 201.40483 409.453946 
z
M 208.016939 409.453946 
L 208.016939 402.296134 
L 208.963814 402.296134 
L 208.963814 405.846134 
L 212.518502 402.296134 
L 213.802877 402.296134 
L 210.799752 405.196134 
L 213.934127 409.453946 
L 212.684127 409.453946 
L 210.135689 405.830509 
L 208.963814 406.972696 
L 208.963814 409.453946 
L 208.016939 409.453946 
z
M 214.744674 409.453946 
L 214.744674 402.296134 
L 219.921236 402.296134 
L 219.921236 403.139884 
L 215.693111 403.139884 
L 215.693111 405.332071 
L 219.652486 405.332071 
L 219.652486 406.172696 
L 215.693111 406.172696 
L 215.693111 408.608634 
L 220.086861 408.608634 
L 220.086861 409.453946 
L 214.744674 409.453946 
z
M 221.386471 409.453946 
L 221.386471 402.296134 
L 222.356783 402.296134 
L 226.117721 407.916446 
L 226.117721 402.296134 
L 227.025533 402.296134 
L 227.025533 409.453946 
L 226.053658 409.453946 
L 222.294283 403.828946 
L 222.294283 409.453946 
L 221.386471 409.453946 
z
M 228.617525 409.453946 
L 228.617525 402.296134 
L 231.08315 402.296134 
Q 231.917525 402.296134 232.35815 402.397696 
Q 232.972213 402.539884 233.406588 402.910196 
Q 233.973775 403.389884 234.253463 404.135196 
Q 234.534713 404.878946 234.534713 405.835196 
Q 234.534713 406.650821 234.344088 407.280509 
Q 234.155025 407.910196 233.856588 408.324259 
Q 233.55815 408.736759 233.203463 408.974259 
Q 232.850338 409.210196 232.350338 409.332071 
Q 231.850338 409.453946 231.200338 409.453946 
L 228.617525 409.453946 
z
M 229.5644 408.608634 
L 231.092525 408.608634 
Q 231.800338 408.608634 232.203463 408.477384 
Q 232.606588 408.346134 232.84565 408.105509 
Q 233.18315 407.769571 233.37065 407.200821 
Q 233.55815 406.632071 233.55815 405.821134 
Q 233.55815 404.697696 233.1894 404.094571 
Q 232.82065 403.491446 232.294088 403.286759 
Q 231.912838 403.139884 231.069088 403.139884 
L 229.5644 403.139884 
L 229.5644 408.608634 
z
" style="fill: #1a1afa; stroke: #ffffff; stroke-width: 2"/>
    <path d="M 186.527681 409.453946 
L 184.627681 402.296134 
L 185.599556 402.296134 
L 186.688619 406.988321 
Q 186.863619 407.725821 186.991744 408.452384 
Q 187.265181 407.305509 187.313619 407.128946 
L 188.676119 402.296134 
L 189.818306 402.296134 
L 190.843306 405.918009 
Q 191.229244 407.266446 191.401119 408.452384 
Q 191.537056 407.774259 191.757369 406.894571 
L 192.879244 402.296134 
L 193.832369 402.296134 
L 191.869869 409.453946 
L 190.955806 409.453946 
L 189.447994 403.999259 
Q 189.257369 403.316446 189.222994 403.160196 
Q 189.110494 403.652384 189.012056 403.999259 
L 187.494869 409.453946 
L 186.527681 409.453946 
z
M 194.734908 409.453946 
L 194.734908 402.296134 
L 199.911471 402.296134 
L 199.911471 403.139884 
L 195.683346 403.139884 
L 195.683346 405.332071 
L 199.642721 405.332071 
L 199.642721 406.172696 
L 195.683346 406.172696 
L 195.683346 408.608634 
L 200.077096 408.608634 
L 200.077096 409.453946 
L 194.734908 409.453946 
z
M 201.40483 409.453946 
L 201.40483 402.296134 
L 206.581392 402.296134 
L 206.581392 403.139884 
L 202.353267 403.139884 
L 202.353267 405.332071 
L 206.312642 405.332071 
L 206.312642 406.172696 
L 202.353267 406.172696 
L 202.353267 408.608634 
L 206.747017 408.608634 
L 206.747017 409.453946 
L 201.40483 409.453946 
z
M 208.016939 409.453946 
L 208.016939 402.296134 
L 208.963814 402.296134 
L 208.963814 405.846134 
L 212.518502 402.296134 
L 213.802877 402.296134 
L 210.799752 405.196134 
L 213.934127 409.453946 
L 212.684127 409.453946 
L 210.135689 405.830509 
L 208.963814 406.972696 
L 208.963814 409.453946 
L 208.016939 409.453946 
z
M 214.744674 409.453946 
L 214.744674 402.296134 
L 219.921236 402.296134 
L 219.921236 403.139884 
L 215.693111 403.139884 
L 215.693111 405.332071 
L 219.652486 405.332071 
L 219.652486 406.172696 
L 215.693111 406.172696 
L 215.693111 408.608634 
L 220.086861 408.608634 
L 220.086861 409.453946 
L 214.744674 409.453946 
z
M 221.386471 409.453946 
L 221.386471 402.296134 
L 222.356783 402.296134 
L 226.117721 407.916446 
L 226.117721 402.296134 
L 227.025533 402.296134 
L 227.025533 409.453946 
L 226.053658 409.453946 
L 222.294283 403.828946 
L 222.294283 409.453946 
L 221.386471 409.453946 
z
M 228.617525 409.453946 
L 228.617525 402.296134 
L 231.08315 402.296134 
Q 231.917525 402.296134 232.35815 402.397696 
Q 232.972213 402.539884 233.406588 402.910196 
Q 233.973775 403.389884 234.253463 404.135196 
Q 234.534713 404.878946 234.534713 405.835196 
Q 234.534713 406.650821 234.344088 407.280509 
Q 234.155025 407.910196 233.856588 408.324259 
Q 233.55815 408.736759 233.203463 408.974259 
Q 232.850338 409.210196 232.350338 409.332071 
Q 231.850338 409.453946 231.200338 409.453946 
L 228.617525 409.453946 
z
M 229.5644 408.608634 
L 231.092525 408.608634 
Q 231.800338 408.608634 232.203463 408.477384 
Q 232.606588 408.346134 232.84565 408.105509 
Q 233.18315 407.769571 233.37065 407.200821 
Q 233.55815 406.632071 233.55815 405.821134 
Q 233.55815 404.697696 233.1894 404.094571 
Q 232.82065 403.491446 232.294088 403.286759 
Q 231.912838 403.139884 231.069088 403.139884 
L 229.5644 403.139884 
L 229.5644 408.608634 
z
" style="fill: #1a1afa"/>
   </g>
   <g id="text_11">
    <path d="M 276.627929 349.46556 
L 277.574804 349.46556 
L 277.574804 353.601498 
Q 277.574804 354.679623 277.331054 355.31556 
Q 277.087304 355.949935 276.449804 356.348373 
Q 275.812304 356.745248 274.777929 356.745248 
Q 273.771679 356.745248 273.131054 356.398373 
Q 272.491991 356.051498 272.218554 355.395248 
Q 271.945116 354.738998 271.945116 353.601498 
L 271.945116 349.46556 
L 272.891991 349.46556 
L 272.891991 353.595248 
Q 272.891991 354.52806 273.065429 354.970248 
Q 273.238866 355.412435 273.660741 355.651498 
Q 274.084179 355.89056 274.695116 355.89056 
Q 275.738866 355.89056 276.182616 355.417123 
Q 276.627929 354.943685 276.627929 353.595248 
L 276.627929 349.46556 
z
M 279.143359 356.623373 
L 279.143359 349.46556 
L 280.113671 349.46556 
L 283.874609 355.085873 
L 283.874609 349.46556 
L 284.782421 349.46556 
L 284.782421 356.623373 
L 283.810546 356.623373 
L 280.051171 350.998373 
L 280.051171 356.623373 
L 279.143359 356.623373 
z
M 286.374413 356.623373 
L 286.374413 349.46556 
L 288.840038 349.46556 
Q 289.674413 349.46556 290.115038 349.567123 
Q 290.729101 349.70931 291.163476 350.079623 
Q 291.730663 350.55931 292.010351 351.304623 
Q 292.291601 352.048373 292.291601 353.004623 
Q 292.291601 353.820248 292.100976 354.449935 
Q 291.911913 355.079623 291.613476 355.493685 
Q 291.315038 355.906185 290.960351 356.143685 
Q 290.607226 356.379623 290.107226 356.501498 
Q 289.607226 356.623373 288.957226 356.623373 
L 286.374413 356.623373 
z
M 287.321288 355.77806 
L 288.849413 355.77806 
Q 289.557226 355.77806 289.960351 355.64681 
Q 290.363476 355.51556 290.602538 355.274935 
Q 290.940038 354.938998 291.127538 354.370248 
Q 291.315038 353.801498 291.315038 352.99056 
Q 291.315038 351.867123 290.946288 351.263998 
Q 290.577538 350.660873 290.050976 350.456185 
Q 289.669726 350.30931 288.825976 350.30931 
L 287.321288 350.30931 
L 287.321288 355.77806 
z
M 293.614843 356.623373 
L 293.614843 349.46556 
L 298.791405 349.46556 
L 298.791405 350.30931 
L 294.56328 350.30931 
L 294.56328 352.501498 
L 298.522655 352.501498 
L 298.522655 353.342123 
L 294.56328 353.342123 
L 294.56328 355.77806 
L 298.95703 355.77806 
L 298.95703 356.623373 
L 293.614843 356.623373 
z
M 300.280077 356.623373 
L 300.280077 349.46556 
L 303.453515 349.46556 
Q 304.411327 349.46556 304.908202 349.65931 
Q 305.40664 349.851498 305.705077 350.34056 
Q 306.003515 350.82806 306.003515 351.418685 
Q 306.003515 352.179623 305.509765 352.70306 
Q 305.016015 353.224935 303.986327 353.367123 
Q 304.36289 353.54681 304.558202 353.723373 
Q 304.972265 354.10306 305.34414 354.674935 
L 306.589452 356.623373 
L 305.397265 356.623373 
L 304.45039 355.13431 
Q 304.034765 354.488998 303.766015 354.148373 
Q 303.498827 353.806185 303.286327 353.670248 
Q 303.073827 353.532748 302.853515 353.47806 
Q 302.692577 353.445248 302.326952 353.445248 
L 301.226952 353.445248 
L 301.226952 356.623373 
L 300.280077 356.623373 
z
M 301.226952 352.624935 
L 303.264452 352.624935 
Q 303.91289 352.624935 304.278515 352.49056 
Q 304.645702 352.356185 304.836327 352.060873 
Q 305.026952 351.76556 305.026952 351.418685 
Q 305.026952 350.910873 304.658202 350.58431 
Q 304.289452 350.256185 303.492577 350.256185 
L 301.226952 350.256185 
L 301.226952 352.624935 
z
M 307.16582 354.323373 
L 308.058007 354.245248 
Q 308.12207 354.782748 308.35332 355.126498 
Q 308.586132 355.470248 309.073632 355.682748 
Q 309.562695 355.895248 310.173632 355.895248 
Q 310.714257 355.895248 311.129882 355.73431 
Q 311.545507 355.573373 311.74707 355.293685 
Q 311.950195 355.012435 311.950195 354.679623 
Q 311.950195 354.343685 311.754882 354.092123 
Q 311.55957 353.84056 311.111132 353.668685 
Q 310.82207 353.556185 309.836132 353.320248 
Q 308.850195 353.082748 308.454882 352.873373 
Q 307.94082 352.604623 307.689257 352.207748 
Q 307.439257 351.80931 307.439257 351.31556 
Q 307.439257 350.773373 307.745507 350.30306 
Q 308.05332 349.831185 308.643945 349.587435 
Q 309.236132 349.343685 309.958007 349.343685 
Q 310.75332 349.343685 311.361132 349.599935 
Q 311.970507 349.856185 312.29707 350.354623 
Q 312.623632 350.851498 312.648632 351.481185 
L 311.74082 351.549935 
Q 311.667382 350.87181 311.243945 350.524935 
Q 310.82207 350.17806 309.99707 350.17806 
Q 309.137695 350.17806 308.743945 350.493685 
Q 308.351757 350.807748 308.351757 351.251498 
Q 308.351757 351.637435 308.629882 351.887435 
Q 308.90332 352.135873 310.058007 352.39681 
Q 311.212695 352.657748 311.642382 352.85306 
Q 312.267382 353.142123 312.564257 353.58431 
Q 312.862695 354.024935 312.862695 354.601498 
Q 312.862695 355.173373 312.536132 355.679623 
Q 312.20957 356.18431 311.595507 356.46556 
Q 310.983007 356.745248 310.217382 356.745248 
Q 309.245507 356.745248 308.587695 356.462435 
Q 307.931445 356.179623 307.558007 355.610873 
Q 307.18457 355.04056 307.16582 354.323373 
z
M 315.977929 356.623373 
L 315.977929 350.30931 
L 313.620116 350.30931 
L 313.620116 349.46556 
L 319.293554 349.46556 
L 319.293554 350.30931 
L 316.926366 350.30931 
L 316.926366 356.623373 
L 315.977929 356.623373 
z
M 318.742577 356.623373 
L 321.491015 349.46556 
L 322.511327 349.46556 
L 325.441015 356.623373 
L 324.36289 356.623373 
L 323.526952 354.454623 
L 320.534765 354.454623 
L 319.747265 356.623373 
L 318.742577 356.623373 
z
M 320.808202 353.68431 
L 323.234765 353.68431 
L 322.48789 351.701498 
Q 322.145702 350.798373 321.980077 350.217123 
Q 321.842577 350.906185 321.59414 351.58431 
L 320.808202 353.68431 
z
M 326.189062 356.623373 
L 326.189062 349.46556 
L 327.159374 349.46556 
L 330.920312 355.085873 
L 330.920312 349.46556 
L 331.828124 349.46556 
L 331.828124 356.623373 
L 330.856249 356.623373 
L 327.096874 350.998373 
L 327.096874 356.623373 
L 326.189062 356.623373 
z
M 333.420116 356.623373 
L 333.420116 349.46556 
L 335.885741 349.46556 
Q 336.720116 349.46556 337.160741 349.567123 
Q 337.774804 349.70931 338.209179 350.079623 
Q 338.776366 350.55931 339.056054 351.304623 
Q 339.337304 352.048373 339.337304 353.004623 
Q 339.337304 353.820248 339.146679 354.449935 
Q 338.957616 355.079623 338.659179 355.493685 
Q 338.360741 355.906185 338.006054 356.143685 
Q 337.652929 356.379623 337.152929 356.501498 
Q 336.652929 356.623373 336.002929 356.623373 
L 333.420116 356.623373 
z
M 334.366991 355.77806 
L 335.895116 355.77806 
Q 336.602929 355.77806 337.006054 355.64681 
Q 337.409179 355.51556 337.648241 355.274935 
Q 337.985741 354.938998 338.173241 354.370248 
Q 338.360741 353.801498 338.360741 352.99056 
Q 338.360741 351.867123 337.991991 351.263998 
Q 337.623241 350.660873 337.096679 350.456185 
Q 336.715429 350.30931 335.871679 350.30931 
L 334.366991 350.30931 
L 334.366991 355.77806 
z
M 340.802734 356.623373 
L 340.802734 349.46556 
L 341.749609 349.46556 
L 341.749609 356.623373 
L 340.802734 356.623373 
z
M 343.410741 356.623373 
L 343.410741 349.46556 
L 344.381054 349.46556 
L 348.141991 355.085873 
L 348.141991 349.46556 
L 349.049804 349.46556 
L 349.049804 356.623373 
L 348.077929 356.623373 
L 344.318554 350.998373 
L 344.318554 356.623373 
L 343.410741 356.623373 
z
M 353.991796 353.81556 
L 353.991796 352.976498 
L 357.023046 352.970248 
L 357.023046 355.626498 
Q 356.324609 356.18431 355.582421 356.46556 
Q 354.840234 356.745248 354.058984 356.745248 
Q 353.004296 356.745248 352.141796 356.293685 
Q 351.280859 355.842123 350.841796 354.987435 
Q 350.402734 354.132748 350.402734 353.07806 
Q 350.402734 352.032748 350.838671 351.12806 
Q 351.276171 350.22181 352.096484 349.782748 
Q 352.916796 349.343685 353.985546 349.343685 
Q 354.762109 349.343685 355.388671 349.595248 
Q 356.016796 349.845248 356.373046 350.295248 
Q 356.730859 350.743685 356.915234 351.467123 
L 356.062109 351.701498 
Q 355.899609 351.154623 355.660546 350.842123 
Q 355.421484 350.529623 354.976171 350.342123 
Q 354.532421 350.15306 353.991796 350.15306 
Q 353.341796 350.15306 352.868359 350.351498 
Q 352.394921 350.548373 352.104296 350.87181 
Q 351.813671 351.193685 351.652734 351.579623 
Q 351.379296 352.243685 351.379296 353.020248 
Q 351.379296 353.976498 351.708984 354.62181 
Q 352.038671 355.26556 352.668359 355.57806 
Q 353.298046 355.89056 354.005859 355.89056 
Q 354.621484 355.89056 355.207421 355.654623 
Q 355.793359 355.417123 356.094921 355.148373 
L 356.094921 353.81556 
L 353.991796 353.81556 
z
" style="fill: #1a1afa; stroke: #ffffff; stroke-width: 2"/>
    <path d="M 276.627929 349.46556 
L 277.574804 349.46556 
L 277.574804 353.601498 
Q 277.574804 354.679623 277.331054 355.31556 
Q 277.087304 355.949935 276.449804 356.348373 
Q 275.812304 356.745248 274.777929 356.745248 
Q 273.771679 356.745248 273.131054 356.398373 
Q 272.491991 356.051498 272.218554 355.395248 
Q 271.945116 354.738998 271.945116 353.601498 
L 271.945116 349.46556 
L 272.891991 349.46556 
L 272.891991 353.595248 
Q 272.891991 354.52806 273.065429 354.970248 
Q 273.238866 355.412435 273.660741 355.651498 
Q 274.084179 355.89056 274.695116 355.89056 
Q 275.738866 355.89056 276.182616 355.417123 
Q 276.627929 354.943685 276.627929 353.595248 
L 276.627929 349.46556 
z
M 279.143359 356.623373 
L 279.143359 349.46556 
L 280.113671 349.46556 
L 283.874609 355.085873 
L 283.874609 349.46556 
L 284.782421 349.46556 
L 284.782421 356.623373 
L 283.810546 356.623373 
L 280.051171 350.998373 
L 280.051171 356.623373 
L 279.143359 356.623373 
z
M 286.374413 356.623373 
L 286.374413 349.46556 
L 288.840038 349.46556 
Q 289.674413 349.46556 290.115038 349.567123 
Q 290.729101 349.70931 291.163476 350.079623 
Q 291.730663 350.55931 292.010351 351.304623 
Q 292.291601 352.048373 292.291601 353.004623 
Q 292.291601 353.820248 292.100976 354.449935 
Q 291.911913 355.079623 291.613476 355.493685 
Q 291.315038 355.906185 290.960351 356.143685 
Q 290.607226 356.379623 290.107226 356.501498 
Q 289.607226 356.623373 288.957226 356.623373 
L 286.374413 356.623373 
z
M 287.321288 355.77806 
L 288.849413 355.77806 
Q 289.557226 355.77806 289.960351 355.64681 
Q 290.363476 355.51556 290.602538 355.274935 
Q 290.940038 354.938998 291.127538 354.370248 
Q 291.315038 353.801498 291.315038 352.99056 
Q 291.315038 351.867123 290.946288 351.263998 
Q 290.577538 350.660873 290.050976 350.456185 
Q 289.669726 350.30931 288.825976 350.30931 
L 287.321288 350.30931 
L 287.321288 355.77806 
z
M 293.614843 356.623373 
L 293.614843 349.46556 
L 298.791405 349.46556 
L 298.791405 350.30931 
L 294.56328 350.30931 
L 294.56328 352.501498 
L 298.522655 352.501498 
L 298.522655 353.342123 
L 294.56328 353.342123 
L 294.56328 355.77806 
L 298.95703 355.77806 
L 298.95703 356.623373 
L 293.614843 356.623373 
z
M 300.280077 356.623373 
L 300.280077 349.46556 
L 303.453515 349.46556 
Q 304.411327 349.46556 304.908202 349.65931 
Q 305.40664 349.851498 305.705077 350.34056 
Q 306.003515 350.82806 306.003515 351.418685 
Q 306.003515 352.179623 305.509765 352.70306 
Q 305.016015 353.224935 303.986327 353.367123 
Q 304.36289 353.54681 304.558202 353.723373 
Q 304.972265 354.10306 305.34414 354.674935 
L 306.589452 356.623373 
L 305.397265 356.623373 
L 304.45039 355.13431 
Q 304.034765 354.488998 303.766015 354.148373 
Q 303.498827 353.806185 303.286327 353.670248 
Q 303.073827 353.532748 302.853515 353.47806 
Q 302.692577 353.445248 302.326952 353.445248 
L 301.226952 353.445248 
L 301.226952 356.623373 
L 300.280077 356.623373 
z
M 301.226952 352.624935 
L 303.264452 352.624935 
Q 303.91289 352.624935 304.278515 352.49056 
Q 304.645702 352.356185 304.836327 352.060873 
Q 305.026952 351.76556 305.026952 351.418685 
Q 305.026952 350.910873 304.658202 350.58431 
Q 304.289452 350.256185 303.492577 350.256185 
L 301.226952 350.256185 
L 301.226952 352.624935 
z
M 307.16582 354.323373 
L 308.058007 354.245248 
Q 308.12207 354.782748 308.35332 355.126498 
Q 308.586132 355.470248 309.073632 355.682748 
Q 309.562695 355.895248 310.173632 355.895248 
Q 310.714257 355.895248 311.129882 355.73431 
Q 311.545507 355.573373 311.74707 355.293685 
Q 311.950195 355.012435 311.950195 354.679623 
Q 311.950195 354.343685 311.754882 354.092123 
Q 311.55957 353.84056 311.111132 353.668685 
Q 310.82207 353.556185 309.836132 353.320248 
Q 308.850195 353.082748 308.454882 352.873373 
Q 307.94082 352.604623 307.689257 352.207748 
Q 307.439257 351.80931 307.439257 351.31556 
Q 307.439257 350.773373 307.745507 350.30306 
Q 308.05332 349.831185 308.643945 349.587435 
Q 309.236132 349.343685 309.958007 349.343685 
Q 310.75332 349.343685 311.361132 349.599935 
Q 311.970507 349.856185 312.29707 350.354623 
Q 312.623632 350.851498 312.648632 351.481185 
L 311.74082 351.549935 
Q 311.667382 350.87181 311.243945 350.524935 
Q 310.82207 350.17806 309.99707 350.17806 
Q 309.137695 350.17806 308.743945 350.493685 
Q 308.351757 350.807748 308.351757 351.251498 
Q 308.351757 351.637435 308.629882 351.887435 
Q 308.90332 352.135873 310.058007 352.39681 
Q 311.212695 352.657748 311.642382 352.85306 
Q 312.267382 353.142123 312.564257 353.58431 
Q 312.862695 354.024935 312.862695 354.601498 
Q 312.862695 355.173373 312.536132 355.679623 
Q 312.20957 356.18431 311.595507 356.46556 
Q 310.983007 356.745248 310.217382 356.745248 
Q 309.245507 356.745248 308.587695 356.462435 
Q 307.931445 356.179623 307.558007 355.610873 
Q 307.18457 355.04056 307.16582 354.323373 
z
M 315.977929 356.623373 
L 315.977929 350.30931 
L 313.620116 350.30931 
L 313.620116 349.46556 
L 319.293554 349.46556 
L 319.293554 350.30931 
L 316.926366 350.30931 
L 316.926366 356.623373 
L 315.977929 356.623373 
z
M 318.742577 356.623373 
L 321.491015 349.46556 
L 322.511327 349.46556 
L 325.441015 356.623373 
L 324.36289 356.623373 
L 323.526952 354.454623 
L 320.534765 354.454623 
L 319.747265 356.623373 
L 318.742577 356.623373 
z
M 320.808202 353.68431 
L 323.234765 353.68431 
L 322.48789 351.701498 
Q 322.145702 350.798373 321.980077 350.217123 
Q 321.842577 350.906185 321.59414 351.58431 
L 320.808202 353.68431 
z
M 326.189062 356.623373 
L 326.189062 349.46556 
L 327.159374 349.46556 
L 330.920312 355.085873 
L 330.920312 349.46556 
L 331.828124 349.46556 
L 331.828124 356.623373 
L 330.856249 356.623373 
L 327.096874 350.998373 
L 327.096874 356.623373 
L 326.189062 356.623373 
z
M 333.420116 356.623373 
L 333.420116 349.46556 
L 335.885741 349.46556 
Q 336.720116 349.46556 337.160741 349.567123 
Q 337.774804 349.70931 338.209179 350.079623 
Q 338.776366 350.55931 339.056054 351.304623 
Q 339.337304 352.048373 339.337304 353.004623 
Q 339.337304 353.820248 339.146679 354.449935 
Q 338.957616 355.079623 338.659179 355.493685 
Q 338.360741 355.906185 338.006054 356.143685 
Q 337.652929 356.379623 337.152929 356.501498 
Q 336.652929 356.623373 336.002929 356.623373 
L 333.420116 356.623373 
z
M 334.366991 355.77806 
L 335.895116 355.77806 
Q 336.602929 355.77806 337.006054 355.64681 
Q 337.409179 355.51556 337.648241 355.274935 
Q 337.985741 354.938998 338.173241 354.370248 
Q 338.360741 353.801498 338.360741 352.99056 
Q 338.360741 351.867123 337.991991 351.263998 
Q 337.623241 350.660873 337.096679 350.456185 
Q 336.715429 350.30931 335.871679 350.30931 
L 334.366991 350.30931 
L 334.366991 355.77806 
z
M 340.802734 356.623373 
L 340.802734 349.46556 
L 341.749609 349.46556 
L 341.749609 356.623373 
L 340.802734 356.623373 
z
M 343.410741 356.623373 
L 343.410741 349.46556 
L 344.381054 349.46556 
L 348.141991 355.085873 
L 348.141991 349.46556 
L 349.049804 349.46556 
L 349.049804 356.623373 
L 348.077929 356.623373 
L 344.318554 350.998373 
L 344.318554 356.623373 
L 343.410741 356.623373 
z
M 353.991796 353.81556 
L 353.991796 352.976498 
L 357.023046 352.970248 
L 357.023046 355.626498 
Q 356.324609 356.18431 355.582421 356.46556 
Q 354.840234 356.745248 354.058984 356.745248 
Q 353.004296 356.745248 352.141796 356.293685 
Q 351.280859 355.842123 350.841796 354.987435 
Q 350.402734 354.132748 350.402734 353.07806 
Q 350.402734 352.032748 350.838671 351.12806 
Q 351.276171 350.22181 352.096484 349.782748 
Q 352.916796 349.343685 353.985546 349.343685 
Q 354.762109 349.343685 355.388671 349.595248 
Q 356.016796 349.845248 356.373046 350.295248 
Q 356.730859 350.743685 356.915234 351.467123 
L 356.062109 351.701498 
Q 355.899609 351.154623 355.660546 350.842123 
Q 355.421484 350.529623 354.976171 350.342123 
Q 354.532421 350.15306 353.991796 350.15306 
Q 353.341796 350.15306 352.868359 350.351498 
Q 352.394921 350.548373 352.104296 350.87181 
Q 351.813671 351.193685 351.652734 351.579623 
Q 351.379296 352.243685 351.379296 353.020248 
Q 351.379296 353.976498 351.708984 354.62181 
Q 352.038671 355.26556 352.668359 355.57806 
Q 353.298046 355.89056 354.005859 355.89056 
Q 354.621484 355.89056 355.207421 355.654623 
Q 355.793359 355.417123 356.094921 355.148373 
L 356.094921 353.81556 
L 353.991796 353.81556 
z
" style="fill: #1a1afa"/>
   </g>
   <g id="text_12">
    <path d="M 283.379519 303.7928 
L 283.379519 297.478737 
L 281.021706 297.478737 
L 281.021706 296.634987 
L 286.695144 296.634987 
L 286.695144 297.478737 
L 284.327956 297.478737 
L 284.327956 303.7928 
L 283.379519 303.7928 
z
M 287.681667 303.7928 
L 287.681667 296.634987 
L 290.855105 296.634987 
Q 291.812917 296.634987 292.309792 296.828737 
Q 292.80823 297.020925 293.106667 297.509987 
Q 293.405105 297.997487 293.405105 298.588112 
Q 293.405105 299.34905 292.911355 299.872487 
Q 292.417605 300.394362 291.387917 300.53655 
Q 291.76448 300.716237 291.959792 300.8928 
Q 292.373855 301.272487 292.74573 301.844362 
L 293.991042 303.7928 
L 292.798855 303.7928 
L 291.85198 302.303737 
Q 291.436355 301.658425 291.167605 301.3178 
Q 290.900417 300.975612 290.687917 300.839675 
Q 290.475417 300.702175 290.255105 300.647487 
Q 290.094167 300.614675 289.728542 300.614675 
L 288.628542 300.614675 
L 288.628542 303.7928 
L 287.681667 303.7928 
z
M 288.628542 299.794362 
L 290.666042 299.794362 
Q 291.31448 299.794362 291.680105 299.659987 
Q 292.047292 299.525612 292.237917 299.2303 
Q 292.428542 298.934987 292.428542 298.588112 
Q 292.428542 298.0803 292.059792 297.753737 
Q 291.691042 297.425612 290.894167 297.425612 
L 288.628542 297.425612 
L 288.628542 299.794362 
z
M 294.908035 303.7928 
L 294.908035 296.634987 
L 300.084597 296.634987 
L 300.084597 297.478737 
L 295.856472 297.478737 
L 295.856472 299.670925 
L 299.815847 299.670925 
L 299.815847 300.51155 
L 295.856472 300.51155 
L 295.856472 302.947487 
L 300.250222 302.947487 
L 300.250222 303.7928 
L 294.908035 303.7928 
z
M 300.773269 303.7928 
L 303.521706 296.634987 
L 304.542019 296.634987 
L 307.471706 303.7928 
L 306.393581 303.7928 
L 305.557644 301.62405 
L 302.565456 301.62405 
L 301.777956 303.7928 
L 300.773269 303.7928 
z
M 302.838894 300.853737 
L 305.265456 300.853737 
L 304.518581 298.870925 
Q 304.176394 297.9678 304.010769 297.38655 
Q 303.873269 298.075612 303.624831 298.753737 
L 302.838894 300.853737 
z
M 309.311941 303.7928 
L 309.311941 297.478737 
L 306.954128 297.478737 
L 306.954128 296.634987 
L 312.627566 296.634987 
L 312.627566 297.478737 
L 310.260378 297.478737 
L 310.260378 303.7928 
L 309.311941 303.7928 
z
M 313.278152 301.4928 
L 314.170339 301.414675 
Q 314.234402 301.952175 314.465652 302.295925 
Q 314.698464 302.639675 315.185964 302.852175 
Q 315.675027 303.064675 316.285964 303.064675 
Q 316.826589 303.064675 317.242214 302.903737 
Q 317.657839 302.7428 317.859402 302.463112 
Q 318.062527 302.181862 318.062527 301.84905 
Q 318.062527 301.513112 317.867214 301.26155 
Q 317.671902 301.009987 317.223464 300.838112 
Q 316.934402 300.725612 315.948464 300.489675 
Q 314.962527 300.252175 314.567214 300.0428 
Q 314.053152 299.77405 313.801589 299.377175 
Q 313.551589 298.978737 313.551589 298.484987 
Q 313.551589 297.9428 313.857839 297.472487 
Q 314.165652 297.000612 314.756277 296.756862 
Q 315.348464 296.513112 316.070339 296.513112 
Q 316.865652 296.513112 317.473464 296.769362 
Q 318.082839 297.025612 318.409402 297.52405 
Q 318.735964 298.020925 318.760964 298.650612 
L 317.853152 298.719362 
Q 317.779714 298.041237 317.356277 297.694362 
Q 316.934402 297.347487 316.109402 297.347487 
Q 315.250027 297.347487 314.856277 297.663112 
Q 314.464089 297.977175 314.464089 298.420925 
Q 314.464089 298.806862 314.742214 299.056862 
Q 315.015652 299.3053 316.170339 299.566237 
Q 317.325027 299.827175 317.754714 300.022487 
Q 318.379714 300.31155 318.676589 300.753737 
Q 318.975027 301.194362 318.975027 301.770925 
Q 318.975027 302.3428 318.648464 302.84905 
Q 318.321902 303.353737 317.707839 303.634987 
Q 317.095339 303.914675 316.329714 303.914675 
Q 315.357839 303.914675 314.700027 303.631862 
Q 314.043777 303.34905 313.670339 302.7803 
Q 313.296902 302.209987 313.278152 301.4928 
z
" style="fill: #1a1afa; stroke: #ffffff; stroke-width: 2"/>
    <path d="M 283.379519 303.7928 
L 283.379519 297.478737 
L 281.021706 297.478737 
L 281.021706 296.634987 
L 286.695144 296.634987 
L 286.695144 297.478737 
L 284.327956 297.478737 
L 284.327956 303.7928 
L 283.379519 303.7928 
z
M 287.681667 303.7928 
L 287.681667 296.634987 
L 290.855105 296.634987 
Q 291.812917 296.634987 292.309792 296.828737 
Q 292.80823 297.020925 293.106667 297.509987 
Q 293.405105 297.997487 293.405105 298.588112 
Q 293.405105 299.34905 292.911355 299.872487 
Q 292.417605 300.394362 291.387917 300.53655 
Q 291.76448 300.716237 291.959792 300.8928 
Q 292.373855 301.272487 292.74573 301.844362 
L 293.991042 303.7928 
L 292.798855 303.7928 
L 291.85198 302.303737 
Q 291.436355 301.658425 291.167605 301.3178 
Q 290.900417 300.975612 290.687917 300.839675 
Q 290.475417 300.702175 290.255105 300.647487 
Q 290.094167 300.614675 289.728542 300.614675 
L 288.628542 300.614675 
L 288.628542 303.7928 
L 287.681667 303.7928 
z
M 288.628542 299.794362 
L 290.666042 299.794362 
Q 291.31448 299.794362 291.680105 299.659987 
Q 292.047292 299.525612 292.237917 299.2303 
Q 292.428542 298.934987 292.428542 298.588112 
Q 292.428542 298.0803 292.059792 297.753737 
Q 291.691042 297.425612 290.894167 297.425612 
L 288.628542 297.425612 
L 288.628542 299.794362 
z
M 294.908035 303.7928 
L 294.908035 296.634987 
L 300.084597 296.634987 
L 300.084597 297.478737 
L 295.856472 297.478737 
L 295.856472 299.670925 
L 299.815847 299.670925 
L 299.815847 300.51155 
L 295.856472 300.51155 
L 295.856472 302.947487 
L 300.250222 302.947487 
L 300.250222 303.7928 
L 294.908035 303.7928 
z
M 300.773269 303.7928 
L 303.521706 296.634987 
L 304.542019 296.634987 
L 307.471706 303.7928 
L 306.393581 303.7928 
L 305.557644 301.62405 
L 302.565456 301.62405 
L 301.777956 303.7928 
L 300.773269 303.7928 
z
M 302.838894 300.853737 
L 305.265456 300.853737 
L 304.518581 298.870925 
Q 304.176394 297.9678 304.010769 297.38655 
Q 303.873269 298.075612 303.624831 298.753737 
L 302.838894 300.853737 
z
M 309.311941 303.7928 
L 309.311941 297.478737 
L 306.954128 297.478737 
L 306.954128 296.634987 
L 312.627566 296.634987 
L 312.627566 297.478737 
L 310.260378 297.478737 
L 310.260378 303.7928 
L 309.311941 303.7928 
z
M 313.278152 301.4928 
L 314.170339 301.414675 
Q 314.234402 301.952175 314.465652 302.295925 
Q 314.698464 302.639675 315.185964 302.852175 
Q 315.675027 303.064675 316.285964 303.064675 
Q 316.826589 303.064675 317.242214 302.903737 
Q 317.657839 302.7428 317.859402 302.463112 
Q 318.062527 302.181862 318.062527 301.84905 
Q 318.062527 301.513112 317.867214 301.26155 
Q 317.671902 301.009987 317.223464 300.838112 
Q 316.934402 300.725612 315.948464 300.489675 
Q 314.962527 300.252175 314.567214 300.0428 
Q 314.053152 299.77405 313.801589 299.377175 
Q 313.551589 298.978737 313.551589 298.484987 
Q 313.551589 297.9428 313.857839 297.472487 
Q 314.165652 297.000612 314.756277 296.756862 
Q 315.348464 296.513112 316.070339 296.513112 
Q 316.865652 296.513112 317.473464 296.769362 
Q 318.082839 297.025612 318.409402 297.52405 
Q 318.735964 298.020925 318.760964 298.650612 
L 317.853152 298.719362 
Q 317.779714 298.041237 317.356277 297.694362 
Q 316.934402 297.347487 316.109402 297.347487 
Q 315.250027 297.347487 314.856277 297.663112 
Q 314.464089 297.977175 314.464089 298.420925 
Q 314.464089 298.806862 314.742214 299.056862 
Q 315.015652 299.3053 316.170339 299.566237 
Q 317.325027 299.827175 317.754714 300.022487 
Q 318.379714 300.31155 318.676589 300.753737 
Q 318.975027 301.194362 318.975027 301.770925 
Q 318.975027 302.3428 318.648464 302.84905 
Q 318.321902 303.353737 317.707839 303.634987 
Q 317.095339 303.914675 316.329714 303.914675 
Q 315.357839 303.914675 314.700027 303.631862 
Q 314.043777 303.34905 313.670339 302.7803 
Q 313.296902 302.209987 313.278152 301.4928 
z
" style="fill: #1a1afa"/>
   </g>
   <g id="text_13">
    <!-- STORY -->
    <g style="fill: #ffffff" transform="translate(126.736891 250.962226) scale(0.1 -0.1)">
     <defs>
      <path id="ArialMT-53" d="M 288 1472 
L 859 1522 
Q 900 1178 1048 958 
Q 1197 738 1509 602 
Q 1822 466 2213 466 
Q 2559 466 2825 569 
Q 3091 672 3220 851 
Q 3350 1031 3350 1244 
Q 3350 1459 3225 1620 
Q 3100 1781 2813 1891 
Q 2628 1963 1997 2114 
Q 1366 2266 1113 2400 
Q 784 2572 623 2826 
Q 463 3081 463 3397 
Q 463 3744 659 4045 
Q 856 4347 1234 4503 
Q 1613 4659 2075 4659 
Q 2584 4659 2973 4495 
Q 3363 4331 3572 4012 
Q 3781 3694 3797 3291 
L 3216 3247 
Q 3169 3681 2898 3903 
Q 2628 4125 2100 4125 
Q 1550 4125 1298 3923 
Q 1047 3722 1047 3438 
Q 1047 3191 1225 3031 
Q 1400 2872 2139 2705 
Q 2878 2538 3153 2413 
Q 3553 2228 3743 1945 
Q 3934 1663 3934 1294 
Q 3934 928 3725 604 
Q 3516 281 3123 101 
Q 2731 -78 2241 -78 
Q 1619 -78 1198 103 
Q 778 284 539 648 
Q 300 1013 288 1472 
z
" transform="scale(0.015625)"/>
      <path id="ArialMT-54" d="M 1659 0 
L 1659 4041 
L 150 4041 
L 150 4581 
L 3781 4581 
L 3781 4041 
L 2266 4041 
L 2266 0 
L 1659 0 
z
" transform="scale(0.015625)"/>
      <path id="ArialMT-4f" d="M 309 2231 
Q 309 3372 921 4017 
Q 1534 4663 2503 4663 
Q 3138 4663 3647 4359 
Q 4156 4056 4423 3514 
Q 4691 2972 4691 2284 
Q 4691 1588 4409 1038 
Q 4128 488 3612 205 
Q 3097 -78 2500 -78 
Q 1853 -78 1343 234 
Q 834 547 571 1087 
Q 309 1628 309 2231 
z
M 934 2222 
Q 934 1394 1379 917 
Q 1825 441 2497 441 
Q 3181 441 3623 922 
Q 4066 1403 4066 2288 
Q 4066 2847 3877 3264 
Q 3688 3681 3323 3911 
Q 2959 4141 2506 4141 
Q 1863 4141 1398 3698 
Q 934 3256 934 2222 
z
" transform="scale(0.015625)"/>
      <path id="ArialMT-52" d="M 503 0 
L 503 4581 
L 2534 4581 
Q 3147 4581 3465 4457 
Q 3784 4334 3975 4021 
Q 4166 3709 4166 3331 
Q 4166 2844 3850 2509 
Q 3534 2175 2875 2084 
Q 3116 1969 3241 1856 
Q 3506 1613 3744 1247 
L 4541 0 
L 3778 0 
L 3172 953 
Q 2906 1366 2734 1584 
Q 2563 1803 2427 1890 
Q 2291 1978 2150 2013 
Q 2047 2034 1813 2034 
L 1109 2034 
L 1109 0 
L 503 0 
z
M 1109 2559 
L 2413 2559 
Q 2828 2559 3062 2645 
Q 3297 2731 3419 2920 
Q 3541 3109 3541 3331 
Q 3541 3656 3305 3865 
Q 3069 4075 2559 4075 
L 1109 4075 
L 1109 2559 
z
" transform="scale(0.015625)"/>
      <path id="ArialMT-59" d="M 1784 0 
L 1784 1941 
L 19 4581 
L 756 4581 
L 1659 3200 
Q 1909 2813 2125 2425 
Q 2331 2784 2625 3234 
L 3513 4581 
L 4219 4581 
L 2391 1941 
L 2391 0 
L 1784 0 
z
" transform="scale(0.015625)"/>
     </defs>
     <use xlink:href="#ArialMT-53"/>
     <use xlink:href="#ArialMT-54" x="66.699219"/>
     <use xlink:href="#ArialMT-4f" x="126.033203"/>
     <use xlink:href="#ArialMT-52" x="203.816406"/>
     <use xlink:href="#ArialMT-59" x="274.283203"/>
    </g>
   </g>
   <g id="text_14">
    <!-- YES -->
    <g style="fill: #ffffff" transform="translate(126.736891 198.131653) scale(0.1 -0.1)">
     <defs>
      <path id="ArialMT-45" d="M 506 0 
L 506 4581 
L 3819 4581 
L 3819 4041 
L 1113 4041 
L 1113 2638 
L 3647 2638 
L 3647 2100 
L 1113 2100 
L 1113 541 
L 3925 541 
L 3925 0 
L 506 0 
z
" transform="scale(0.015625)"/>
     </defs>
     <use xlink:href="#ArialMT-59"/>
     <use xlink:href="#ArialMT-45" x="66.699219"/>
     <use xlink:href="#ArialMT-53" x="133.398438"/>
    </g>
   </g>
   <g id="text_15">
    <!-- SINCERELY -->
    <g style="fill: #ffffff" transform="translate(126.736891 145.30108) scale(0.1 -0.1)">
     <defs>
      <path id="ArialMT-49" d="M 597 0 
L 597 4581 
L 1203 4581 
L 1203 0 
L 597 0 
z
" transform="scale(0.015625)"/>
      <path id="ArialMT-4e" d="M 488 0 
L 488 4581 
L 1109 4581 
L 3516 984 
L 3516 4581 
L 4097 4581 
L 4097 0 
L 3475 0 
L 1069 3600 
L 1069 0 
L 488 0 
z
" transform="scale(0.015625)"/>
      <path id="ArialMT-43" d="M 3763 1606 
L 4369 1453 
Q 4178 706 3683 314 
Q 3188 -78 2472 -78 
Q 1731 -78 1267 223 
Q 803 525 561 1097 
Q 319 1669 319 2325 
Q 319 3041 592 3573 
Q 866 4106 1370 4382 
Q 1875 4659 2481 4659 
Q 3169 4659 3637 4309 
Q 4106 3959 4291 3325 
L 3694 3184 
Q 3534 3684 3231 3912 
Q 2928 4141 2469 4141 
Q 1941 4141 1586 3887 
Q 1231 3634 1087 3207 
Q 944 2781 944 2328 
Q 944 1744 1114 1308 
Q 1284 872 1643 656 
Q 2003 441 2422 441 
Q 2931 441 3284 734 
Q 3638 1028 3763 1606 
z
" transform="scale(0.015625)"/>
      <path id="ArialMT-4c" d="M 469 0 
L 469 4581 
L 1075 4581 
L 1075 541 
L 3331 541 
L 3331 0 
L 469 0 
z
" transform="scale(0.015625)"/>
     </defs>
     <use xlink:href="#ArialMT-53"/>
     <use xlink:href="#ArialMT-49" x="66.699219"/>
     <use xlink:href="#ArialMT-4e" x="94.482422"/>
     <use xlink:href="#ArialMT-43" x="166.699219"/>
     <use xlink:href="#ArialMT-45" x="238.916016"/>
     <use xlink:href="#ArialMT-52" x="305.615234"/>
     <use xlink:href="#ArialMT-45" x="377.832031"/>
     <use xlink:href="#ArialMT-4c" x="444.53125"/>
     <use xlink:href="#ArialMT-59" x="492.771484"/>
    </g>
   </g>
   <g id="text_16">
    <!-- SEINFELD -->
    <g style="fill: #ffffff" transform="translate(126.736891 92.470507) scale(0.1 -0.1)">
     <defs>
      <path id="ArialMT-46" d="M 525 0 
L 525 4581 
L 3616 4581 
L 3616 4041 
L 1131 4041 
L 1131 2622 
L 3281 2622 
L 3281 2081 
L 1131 2081 
L 1131 0 
L 525 0 
z
" transform="scale(0.015625)"/>
      <path id="ArialMT-44" d="M 494 0 
L 494 4581 
L 2072 4581 
Q 2606 4581 2888 4516 
Q 3281 4425 3559 4188 
Q 3922 3881 4101 3404 
Q 4281 2928 4281 2316 
Q 4281 1794 4159 1391 
Q 4038 988 3847 723 
Q 3656 459 3429 307 
Q 3203 156 2883 78 
Q 2563 0 2147 0 
L 494 0 
z
M 1100 541 
L 2078 541 
Q 2531 541 2789 625 
Q 3047 709 3200 863 
Q 3416 1078 3536 1442 
Q 3656 1806 3656 2325 
Q 3656 3044 3420 3430 
Q 3184 3816 2847 3947 
Q 2603 4041 2063 4041 
L 1100 4041 
L 1100 541 
z
" transform="scale(0.015625)"/>
     </defs>
     <use xlink:href="#ArialMT-53"/>
     <use xlink:href="#ArialMT-45" x="66.699219"/>
     <use xlink:href="#ArialMT-49" x="133.398438"/>
     <use xlink:href="#ArialMT-4e" x="161.181641"/>
     <use xlink:href="#ArialMT-46" x="233.398438"/>
     <use xlink:href="#ArialMT-45" x="294.482422"/>
     <use xlink:href="#ArialMT-4c" x="361.181641"/>
     <use xlink:href="#ArialMT-44" x="416.796875"/>
    </g>
   </g>
  </g>
  <g id="text_17">
   <!-- Alice in Wonderland -->
   <g transform="translate(86.4 23.04) scale(0.22 -0.22)">
    <defs>
     <path id="DejaVuSansMono-Bold-41" d="M 1925 3822 
L 1491 1913 
L 2363 1913 
L 1925 3822 
z
M 1363 4666 
L 2491 4666 
L 3750 0 
L 2828 0 
L 2541 1153 
L 1306 1153 
L 1025 0 
L 103 0 
L 1363 4666 
z
" transform="scale(0.015625)"/>
     <path id="DejaVuSansMono-Bold-6c" d="M 1209 1459 
L 1209 4159 
L 281 4159 
L 281 4863 
L 2125 4863 
L 2125 1459 
Q 2125 1047 2253 875 
Q 2381 703 2688 703 
L 3419 703 
L 3419 0 
L 2431 0 
Q 1778 0 1493 337 
Q 1209 675 1209 1459 
z
" transform="scale(0.015625)"/>
     <path id="DejaVuSansMono-Bold-69" d="M 691 3500 
L 2503 3500 
L 2503 703 
L 3641 703 
L 3641 0 
L 447 0 
L 447 703 
L 1588 703 
L 1588 2797 
L 691 2797 
L 691 3500 
z
M 1588 5203 
L 2503 5203 
L 2503 4134 
L 1588 4134 
L 1588 5203 
z
" transform="scale(0.015625)"/>
     <path id="DejaVuSansMono-Bold-63" d="M 3316 178 
Q 3084 44 2818 -23 
Q 2553 -91 2247 -91 
Q 1438 -91 981 396 
Q 525 884 525 1747 
Q 525 2613 984 3102 
Q 1444 3591 2253 3591 
Q 2534 3591 2795 3525 
Q 3056 3459 3316 3322 
L 3316 2484 
Q 3116 2656 2877 2748 
Q 2638 2841 2381 2841 
Q 1934 2841 1693 2556 
Q 1453 2272 1453 1747 
Q 1453 1222 1693 940 
Q 1934 659 2381 659 
Q 2647 659 2878 748 
Q 3109 838 3316 1019 
L 3316 178 
z
" transform="scale(0.015625)"/>
     <path id="DejaVuSansMono-Bold-65" d="M 3444 172 
Q 3125 41 2794 -25 
Q 2463 -91 2094 -91 
Q 1216 -91 752 379 
Q 288 850 288 1734 
Q 288 2591 734 3087 
Q 1181 3584 1953 3584 
Q 2731 3584 3161 3123 
Q 3591 2663 3591 1825 
L 3591 1453 
L 1219 1453 
Q 1222 1041 1462 837 
Q 1703 634 2181 634 
Q 2497 634 2803 725 
Q 3109 816 3444 1013 
L 3444 172 
z
M 2669 2141 
Q 2663 2503 2483 2689 
Q 2303 2875 1953 2875 
Q 1638 2875 1450 2683 
Q 1263 2491 1228 2138 
L 2669 2141 
z
" transform="scale(0.015625)"/>
     <path id="DejaVuSansMono-Bold-20" transform="scale(0.015625)"/>
     <path id="DejaVuSansMono-Bold-6e" d="M 3347 2272 
L 3347 0 
L 2438 0 
L 2438 2131 
Q 2438 2513 2330 2677 
Q 2222 2841 1978 2841 
Q 1731 2841 1589 2619 
Q 1447 2397 1447 2003 
L 1447 0 
L 538 0 
L 538 3500 
L 1447 3500 
L 1447 2975 
Q 1544 3266 1778 3425 
Q 2013 3584 2344 3584 
Q 2841 3584 3094 3254 
Q 3347 2925 3347 2272 
z
" transform="scale(0.015625)"/>
     <path id="DejaVuSansMono-Bold-57" d="M 0 4666 
L 806 4666 
L 1141 1241 
L 1544 3456 
L 2309 3456 
L 2778 1241 
L 3041 4666 
L 3853 4666 
L 3316 0 
L 2456 0 
L 1925 2450 
L 1428 0 
L 575 0 
L 0 4666 
z
" transform="scale(0.015625)"/>
     <path id="DejaVuSansMono-Bold-6f" d="M 1925 2841 
Q 1597 2841 1409 2552 
Q 1222 2263 1222 1747 
Q 1222 1231 1409 942 
Q 1597 653 1925 653 
Q 2256 653 2443 942 
Q 2631 1231 2631 1747 
Q 2631 2263 2443 2552 
Q 2256 2841 1925 2841 
z
M 306 1747 
Q 306 2594 745 3089 
Q 1184 3584 1925 3584 
Q 2669 3584 3108 3089 
Q 3547 2594 3547 1747 
Q 3547 900 3108 404 
Q 2669 -91 1925 -91 
Q 1184 -91 745 404 
Q 306 900 306 1747 
z
" transform="scale(0.015625)"/>
     <path id="DejaVuSansMono-Bold-64" d="M 2472 3003 
L 2472 4863 
L 3384 4863 
L 3384 0 
L 2472 0 
L 2472 519 
Q 2325 216 2092 62 
Q 1859 -91 1544 -91 
Q 944 -91 612 390 
Q 281 872 281 1747 
Q 281 2634 617 3109 
Q 953 3584 1575 3584 
Q 1856 3584 2079 3439 
Q 2303 3294 2472 3003 
z
M 1197 1741 
Q 1197 1234 1365 946 
Q 1534 659 1831 659 
Q 2128 659 2300 946 
Q 2472 1234 2472 1741 
Q 2472 2247 2300 2534 
Q 2128 2822 1831 2822 
Q 1534 2822 1365 2534 
Q 1197 2247 1197 1741 
z
" transform="scale(0.015625)"/>
     <path id="DejaVuSansMono-Bold-72" d="M 3597 2534 
Q 3447 2672 3245 2740 
Q 3044 2809 2803 2809 
Q 2513 2809 2295 2707 
Q 2078 2606 1959 2413 
Q 1884 2294 1854 2125 
Q 1825 1956 1825 1613 
L 1825 0 
L 909 0 
L 909 3500 
L 1825 3500 
L 1825 2956 
Q 1959 3256 2237 3420 
Q 2516 3584 2888 3584 
Q 3075 3584 3254 3539 
Q 3434 3494 3597 3406 
L 3597 2534 
z
" transform="scale(0.015625)"/>
     <path id="DejaVuSansMono-Bold-61" d="M 2188 1644 
Q 1675 1644 1472 1512 
Q 1269 1381 1269 1063 
Q 1269 825 1409 684 
Q 1550 544 1791 544 
Q 2153 544 2353 817 
Q 2553 1091 2553 1581 
L 2553 1644 
L 2188 1644 
z
M 3463 1997 
L 3463 0 
L 2553 0 
L 2553 391 
Q 2388 159 2128 34 
Q 1869 -91 1556 -91 
Q 959 -91 626 225 
Q 294 541 294 1106 
Q 294 1719 691 2011 
Q 1088 2303 1919 2303 
L 2553 2303 
L 2553 2456 
Q 2553 2678 2392 2792 
Q 2231 2906 1919 2906 
Q 1591 2906 1283 2823 
Q 975 2741 641 2559 
L 641 3341 
Q 944 3466 1256 3525 
Q 1569 3584 1919 3584 
Q 2772 3584 3117 3237 
Q 3463 2891 3463 1997 
z
" transform="scale(0.015625)"/>
    </defs>
    <use xlink:href="#DejaVuSansMono-Bold-41"/>
    <use xlink:href="#DejaVuSansMono-Bold-6c" x="60.205078"/>
    <use xlink:href="#DejaVuSansMono-Bold-69" x="120.410156"/>
    <use xlink:href="#DejaVuSansMono-Bold-63" x="180.615234"/>
    <use xlink:href="#DejaVuSansMono-Bold-65" x="240.820312"/>
    <use xlink:href="#DejaVuSansMono-Bold-20" x="301.025391"/>
    <use xlink:href="#DejaVuSansMono-Bold-69" x="361.230469"/>
    <use xlink:href="#DejaVuSansMono-Bold-6e" x="421.435547"/>
    <use xlink:href="#DejaVuSansMono-Bold-20" x="481.640625"/>
    <use xlink:href="#DejaVuSansMono-Bold-57" x="541.845703"/>
    <use xlink:href="#DejaVuSansMono-Bold-6f" x="602.050781"/>
    <use xlink:href="#DejaVuSansMono-Bold-6e" x="662.255859"/>
    <use xlink:href="#DejaVuSansMono-Bold-64" x="722.460938"/>
    <use xlink:href="#DejaVuSansMono-Bold-65" x="782.666016"/>
    <use xlink:href="#DejaVuSansMono-Bold-72" x="842.871094"/>
    <use xlink:href="#DejaVuSansMono-Bold-6c" x="903.076172"/>
    <use xlink:href="#DejaVuSansMono-Bold-61" x="963.28125"/>
    <use xlink:href="#DejaVuSansMono-Bold-6e" x="1023.486328"/>
    <use xlink:href="#DejaVuSansMono-Bold-64" x="1083.691406"/>
   </g>
  </g>
  <g id="text_18">
   <!-- What is Alice talking about? -->
   <g transform="translate(86.4 37.44) scale(0.16 -0.16)">
    <defs>
     <path id="DejaVuSansMono-57" d="M 0 4666 
L 616 4666 
L 1063 878 
L 1594 3384 
L 2253 3384 
L 2791 872 
L 3238 4666 
L 3853 4666 
L 3156 0 
L 2559 0 
L 1925 2772 
L 1294 0 
L 697 0 
L 0 4666 
z
" transform="scale(0.015625)"/>
     <path id="DejaVuSansMono-68" d="M 3284 2169 
L 3284 0 
L 2706 0 
L 2706 2169 
Q 2706 2641 2540 2862 
Q 2375 3084 2022 3084 
Q 1619 3084 1401 2798 
Q 1184 2513 1184 1978 
L 1184 0 
L 609 0 
L 609 4863 
L 1184 4863 
L 1184 2975 
Q 1338 3275 1600 3429 
Q 1863 3584 2222 3584 
Q 2756 3584 3020 3232 
Q 3284 2881 3284 2169 
z
" transform="scale(0.015625)"/>
     <path id="DejaVuSansMono-61" d="M 2194 1759 
L 2003 1759 
Q 1500 1759 1245 1582 
Q 991 1406 991 1056 
Q 991 741 1181 566 
Q 1372 391 1709 391 
Q 2184 391 2456 720 
Q 2728 1050 2731 1631 
L 2731 1759 
L 2194 1759 
z
M 3309 1997 
L 3309 0 
L 2731 0 
L 2731 519 
Q 2547 206 2267 57 
Q 1988 -91 1588 -91 
Q 1053 -91 734 211 
Q 416 513 416 1019 
Q 416 1603 808 1906 
Q 1200 2209 1959 2209 
L 2731 2209 
L 2731 2300 
Q 2728 2719 2518 2908 
Q 2309 3097 1850 3097 
Q 1556 3097 1256 3012 
Q 956 2928 672 2766 
L 672 3341 
Q 991 3463 1283 3523 
Q 1575 3584 1850 3584 
Q 2284 3584 2592 3456 
Q 2900 3328 3091 3072 
Q 3209 2916 3259 2686 
Q 3309 2456 3309 1997 
z
" transform="scale(0.015625)"/>
     <path id="DejaVuSansMono-74" d="M 1919 4494 
L 1919 3500 
L 3225 3500 
L 3225 3053 
L 1919 3053 
L 1919 1153 
Q 1919 766 2066 612 
Q 2213 459 2578 459 
L 3225 459 
L 3225 0 
L 2522 0 
Q 1875 0 1609 259 
Q 1344 519 1344 1153 
L 1344 3053 
L 409 3053 
L 409 3500 
L 1344 3500 
L 1344 4494 
L 1919 4494 
z
" transform="scale(0.015625)"/>
     <path id="DejaVuSansMono-20" transform="scale(0.015625)"/>
     <path id="DejaVuSansMono-69" d="M 800 3500 
L 2272 3500 
L 2272 447 
L 3413 447 
L 3413 0 
L 556 0 
L 556 447 
L 1697 447 
L 1697 3053 
L 800 3053 
L 800 3500 
z
M 1697 4863 
L 2272 4863 
L 2272 4134 
L 1697 4134 
L 1697 4863 
z
" transform="scale(0.015625)"/>
     <path id="DejaVuSansMono-73" d="M 3041 3378 
L 3041 2816 
Q 2794 2959 2544 3031 
Q 2294 3103 2034 3103 
Q 1644 3103 1451 2976 
Q 1259 2850 1259 2591 
Q 1259 2356 1403 2240 
Q 1547 2125 2119 2016 
L 2350 1972 
Q 2778 1891 2998 1647 
Q 3219 1403 3219 1013 
Q 3219 494 2850 201 
Q 2481 -91 1825 -91 
Q 1566 -91 1281 -36 
Q 997 19 666 128 
L 666 722 
Q 988 556 1281 473 
Q 1575 391 1838 391 
Q 2219 391 2428 545 
Q 2638 700 2638 978 
Q 2638 1378 1872 1531 
L 1847 1538 
L 1631 1581 
Q 1134 1678 906 1908 
Q 678 2138 678 2534 
Q 678 3038 1018 3311 
Q 1359 3584 1991 3584 
Q 2272 3584 2531 3532 
Q 2791 3481 3041 3378 
z
" transform="scale(0.015625)"/>
     <path id="DejaVuSansMono-41" d="M 1925 4109 
L 1259 1722 
L 2591 1722 
L 1925 4109 
z
M 1544 4666 
L 2309 4666 
L 3738 0 
L 3084 0 
L 2741 1216 
L 1106 1216 
L 769 0 
L 116 0 
L 1544 4666 
z
" transform="scale(0.015625)"/>
     <path id="DejaVuSansMono-6c" d="M 1997 1269 
Q 1997 881 2139 684 
Q 2281 488 2559 488 
L 3231 488 
L 3231 0 
L 2503 0 
Q 1988 0 1705 331 
Q 1422 663 1422 1269 
L 1422 4447 
L 500 4447 
L 500 4897 
L 1997 4897 
L 1997 1269 
z
" transform="scale(0.015625)"/>
     <path id="DejaVuSansMono-63" d="M 3316 178 
Q 3084 44 2839 -23 
Q 2594 -91 2338 -91 
Q 1525 -91 1067 396 
Q 609 884 609 1747 
Q 609 2609 1067 3096 
Q 1525 3584 2338 3584 
Q 2591 3584 2831 3518 
Q 3072 3453 3316 3316 
L 3316 2713 
Q 3088 2916 2858 3006 
Q 2628 3097 2338 3097 
Q 1797 3097 1506 2747 
Q 1216 2397 1216 1747 
Q 1216 1100 1508 748 
Q 1800 397 2338 397 
Q 2638 397 2875 489 
Q 3113 581 3316 775 
L 3316 178 
z
" transform="scale(0.015625)"/>
     <path id="DejaVuSansMono-65" d="M 3475 1894 
L 3475 1613 
L 984 1613 
L 984 1594 
Q 984 1022 1282 709 
Q 1581 397 2125 397 
Q 2400 397 2700 484 
Q 3000 572 3341 750 
L 3341 178 
Q 3013 44 2708 -23 
Q 2403 -91 2119 -91 
Q 1303 -91 843 398 
Q 384 888 384 1747 
Q 384 2584 834 3084 
Q 1284 3584 2034 3584 
Q 2703 3584 3089 3131 
Q 3475 2678 3475 1894 
z
M 2900 2063 
Q 2888 2569 2661 2833 
Q 2434 3097 2009 3097 
Q 1594 3097 1325 2822 
Q 1056 2547 1006 2059 
L 2900 2063 
z
" transform="scale(0.015625)"/>
     <path id="DejaVuSansMono-6b" d="M 738 4863 
L 1331 4863 
L 1331 2047 
L 2841 3500 
L 3541 3500 
L 2163 2181 
L 3756 0 
L 3053 0 
L 1759 1806 
L 1331 1403 
L 1331 0 
L 738 0 
L 738 4863 
z
" transform="scale(0.015625)"/>
     <path id="DejaVuSansMono-6e" d="M 3284 2169 
L 3284 0 
L 2706 0 
L 2706 2169 
Q 2706 2641 2540 2862 
Q 2375 3084 2022 3084 
Q 1619 3084 1401 2798 
Q 1184 2513 1184 1978 
L 1184 0 
L 609 0 
L 609 3500 
L 1184 3500 
L 1184 2975 
Q 1338 3275 1600 3429 
Q 1863 3584 2222 3584 
Q 2756 3584 3020 3232 
Q 3284 2881 3284 2169 
z
" transform="scale(0.015625)"/>
     <path id="DejaVuSansMono-67" d="M 2681 1778 
Q 2681 2425 2470 2761 
Q 2259 3097 1856 3097 
Q 1434 3097 1212 2761 
Q 991 2425 991 1778 
Q 991 1131 1214 792 
Q 1438 453 1863 453 
Q 2259 453 2470 793 
Q 2681 1134 2681 1778 
z
M 3256 225 
Q 3256 -563 2884 -969 
Q 2513 -1375 1791 -1375 
Q 1553 -1375 1293 -1331 
Q 1034 -1288 775 -1203 
L 775 -634 
Q 1081 -778 1331 -847 
Q 1581 -916 1791 -916 
Q 2256 -916 2468 -662 
Q 2681 -409 2681 141 
L 2681 166 
L 2681 556 
Q 2544 263 2306 119 
Q 2069 -25 1728 -25 
Q 1116 -25 750 465 
Q 384 956 384 1778 
Q 384 2603 750 3093 
Q 1116 3584 1728 3584 
Q 2066 3584 2300 3450 
Q 2534 3316 2681 3034 
L 2681 3488 
L 3256 3488 
L 3256 225 
z
" transform="scale(0.015625)"/>
     <path id="DejaVuSansMono-62" d="M 2869 1747 
Q 2869 2416 2656 2756 
Q 2444 3097 2028 3097 
Q 1609 3097 1393 2755 
Q 1178 2413 1178 1747 
Q 1178 1084 1393 740 
Q 1609 397 2028 397 
Q 2444 397 2656 737 
Q 2869 1078 2869 1747 
z
M 1178 3053 
Q 1316 3309 1558 3446 
Q 1800 3584 2119 3584 
Q 2750 3584 3112 3098 
Q 3475 2613 3475 1759 
Q 3475 894 3111 401 
Q 2747 -91 2113 -91 
Q 1800 -91 1561 45 
Q 1322 181 1178 441 
L 1178 0 
L 603 0 
L 603 4863 
L 1178 4863 
L 1178 3053 
z
" transform="scale(0.015625)"/>
     <path id="DejaVuSansMono-6f" d="M 1925 3097 
Q 1488 3097 1263 2756 
Q 1038 2416 1038 1747 
Q 1038 1081 1263 739 
Q 1488 397 1925 397 
Q 2366 397 2591 739 
Q 2816 1081 2816 1747 
Q 2816 2416 2591 2756 
Q 2366 3097 1925 3097 
z
M 1925 3584 
Q 2653 3584 3039 3112 
Q 3425 2641 3425 1747 
Q 3425 850 3040 379 
Q 2656 -91 1925 -91 
Q 1197 -91 812 379 
Q 428 850 428 1747 
Q 428 2641 812 3112 
Q 1197 3584 1925 3584 
z
" transform="scale(0.015625)"/>
     <path id="DejaVuSansMono-75" d="M 609 1325 
L 609 3494 
L 1184 3494 
L 1184 1325 
Q 1184 853 1351 631 
Q 1519 409 1869 409 
Q 2275 409 2490 695 
Q 2706 981 2706 1516 
L 2706 3494 
L 3284 3494 
L 3284 0 
L 2706 0 
L 2706 525 
Q 2553 222 2289 65 
Q 2025 -91 1672 -91 
Q 1134 -91 871 261 
Q 609 613 609 1325 
z
" transform="scale(0.015625)"/>
     <path id="DejaVuSansMono-3f" d="M 2138 1253 
L 1544 1253 
L 1544 1734 
Q 1544 2041 1639 2255 
Q 1734 2469 1997 2725 
L 2278 3003 
Q 2472 3188 2545 3325 
Q 2619 3463 2619 3616 
Q 2619 3894 2414 4066 
Q 2209 4238 1869 4238 
Q 1625 4238 1347 4130 
Q 1069 4022 763 3809 
L 763 4397 
Q 1056 4575 1354 4662 
Q 1653 4750 1978 4750 
Q 2559 4750 2904 4450 
Q 3250 4150 3250 3647 
Q 3250 3409 3145 3204 
Q 3041 3000 2747 2713 
L 2472 2444 
Q 2256 2238 2197 2106 
Q 2138 1975 2138 1784 
L 2138 1638 
L 2138 1253 
z
M 1522 794 
L 2156 794 
L 2156 0 
L 1522 0 
L 1522 794 
z
" transform="scale(0.015625)"/>
    </defs>
    <use xlink:href="#DejaVuSansMono-57"/>
    <use xlink:href="#DejaVuSansMono-68" x="60.205078"/>
    <use xlink:href="#DejaVuSansMono-61" x="120.410156"/>
    <use xlink:href="#DejaVuSansMono-74" x="180.615234"/>
    <use xlink:href="#DejaVuSansMono-20" x="240.820312"/>
    <use xlink:href="#DejaVuSansMono-69" x="301.025391"/>
    <use xlink:href="#DejaVuSansMono-73" x="361.230469"/>
    <use xlink:href="#DejaVuSansMono-20" x="421.435547"/>
    <use xlink:href="#DejaVuSansMono-41" x="481.640625"/>
    <use xlink:href="#DejaVuSansMono-6c" x="541.845703"/>
    <use xlink:href="#DejaVuSansMono-69" x="602.050781"/>
    <use xlink:href="#DejaVuSansMono-63" x="662.255859"/>
    <use xlink:href="#DejaVuSansMono-65" x="722.460938"/>
    <use xlink:href="#DejaVuSansMono-20" x="782.666016"/>
    <use xlink:href="#DejaVuSansMono-74" x="842.871094"/>
    <use xlink:href="#DejaVuSansMono-61" x="903.076172"/>
    <use xlink:href="#DejaVuSansMono-6c" x="963.28125"/>
    <use xlink:href="#DejaVuSansMono-6b" x="1023.486328"/>
    <use xlink:href="#DejaVuSansMono-69" x="1083.691406"/>
    <use xlink:href="#DejaVuSansMono-6e" x="1143.896484"/>
    <use xlink:href="#DejaVuSansMono-67" x="1204.101562"/>
    <use xlink:href="#DejaVuSansMono-20" x="1264.306641"/>
    <use xlink:href="#DejaVuSansMono-61" x="1324.511719"/>
    <use xlink:href="#DejaVuSansMono-62" x="1384.716797"/>
    <use xlink:href="#DejaVuSansMono-6f" x="1444.921875"/>
    <use xlink:href="#DejaVuSansMono-75" x="1505.126953"/>
    <use xlink:href="#DejaVuSansMono-74" x="1565.332031"/>
    <use xlink:href="#DejaVuSansMono-3f" x="1625.537109"/>
   </g>
  </g>
  <g id="text_19">
   <!-- Source: Project Dialog,Github -->
   <g style="fill: #808080" transform="translate(86.4 547.2) scale(0.1 -0.1)">
    <defs>
     <path id="DejaVuSansMono-53" d="M 3163 4506 
L 3163 3866 
Q 2875 4050 2586 4144 
Q 2297 4238 2003 4238 
Q 1556 4238 1297 4030 
Q 1038 3822 1038 3469 
Q 1038 3159 1208 2996 
Q 1378 2834 1844 2725 
L 2175 2650 
Q 2831 2497 3131 2169 
Q 3431 1841 3431 1275 
Q 3431 609 3018 259 
Q 2606 -91 1819 -91 
Q 1491 -91 1159 -20 
Q 828 50 494 191 
L 494 863 
Q 853 634 1173 528 
Q 1494 422 1819 422 
Q 2297 422 2562 636 
Q 2828 850 2828 1234 
Q 2828 1584 2645 1768 
Q 2463 1953 2009 2053 
L 1672 2131 
Q 1022 2278 728 2575 
Q 434 2872 434 3372 
Q 434 3997 854 4373 
Q 1275 4750 1972 4750 
Q 2241 4750 2537 4689 
Q 2834 4628 3163 4506 
z
" transform="scale(0.015625)"/>
     <path id="DejaVuSansMono-72" d="M 3609 2778 
Q 3425 2922 3234 2987 
Q 3044 3053 2816 3053 
Q 2278 3053 1993 2715 
Q 1709 2378 1709 1741 
L 1709 0 
L 1131 0 
L 1131 3500 
L 1709 3500 
L 1709 2816 
Q 1853 3188 2151 3386 
Q 2450 3584 2859 3584 
Q 3072 3584 3256 3531 
Q 3441 3478 3609 3366 
L 3609 2778 
z
" transform="scale(0.015625)"/>
     <path id="DejaVuSansMono-3a" d="M 1528 3322 
L 2316 3322 
L 2316 2375 
L 1528 2375 
L 1528 3322 
z
M 1528 953 
L 2316 953 
L 2316 0 
L 1528 0 
L 1528 953 
z
" transform="scale(0.015625)"/>
     <path id="DejaVuSansMono-50" d="M 1247 4147 
L 1247 2394 
L 1978 2394 
Q 2416 2394 2661 2625 
Q 2906 2856 2906 3272 
Q 2906 3688 2662 3917 
Q 2419 4147 1978 4147 
L 1247 4147 
z
M 616 4666 
L 1978 4666 
Q 2759 4666 3162 4311 
Q 3566 3956 3566 3272 
Q 3566 2581 3164 2228 
Q 2763 1875 1978 1875 
L 1247 1875 
L 1247 0 
L 616 0 
L 616 4666 
z
" transform="scale(0.015625)"/>
     <path id="DejaVuSansMono-6a" d="M 1875 -63 
L 1875 3053 
L 884 3053 
L 884 3500 
L 2450 3500 
L 2450 -63 
Q 2450 -672 2170 -1001 
Q 1891 -1331 1375 -1331 
L 581 -1331 
L 581 -844 
L 1313 -844 
Q 1594 -844 1734 -648 
Q 1875 -453 1875 -63 
z
M 1875 4863 
L 2450 4863 
L 2450 4134 
L 1875 4134 
L 1875 4863 
z
" transform="scale(0.015625)"/>
     <path id="DejaVuSansMono-44" d="M 1363 519 
Q 2159 519 2475 911 
Q 2791 1303 2791 2328 
Q 2791 3363 2477 3755 
Q 2163 4147 1363 4147 
L 1063 4147 
L 1063 519 
L 1363 519 
z
M 1375 4666 
Q 2444 4666 2950 4097 
Q 3456 3528 3456 2328 
Q 3456 1134 2950 567 
Q 2444 0 1375 0 
L 428 0 
L 428 4666 
L 1375 4666 
z
" transform="scale(0.015625)"/>
     <path id="DejaVuSansMono-2c" d="M 1569 947 
L 2356 947 
L 2356 300 
L 1741 -897 
L 1259 -897 
L 1569 300 
L 1569 947 
z
" transform="scale(0.015625)"/>
     <path id="DejaVuSansMono-47" d="M 3450 384 
Q 3197 150 2880 29 
Q 2563 -91 2194 -91 
Q 1306 -91 812 545 
Q 319 1181 319 2328 
Q 319 3472 819 4111 
Q 1319 4750 2209 4750 
Q 2503 4750 2772 4667 
Q 3041 4584 3291 4416 
L 3291 3769 
Q 3038 4009 2772 4123 
Q 2506 4238 2209 4238 
Q 1594 4238 1286 3761 
Q 978 3284 978 2328 
Q 978 1356 1276 889 
Q 1575 422 2194 422 
Q 2403 422 2561 470 
Q 2719 519 2847 622 
L 2847 1875 
L 2169 1875 
L 2169 2394 
L 3450 2394 
L 3450 384 
z
" transform="scale(0.015625)"/>
    </defs>
    <use xlink:href="#DejaVuSansMono-53"/>
    <use xlink:href="#DejaVuSansMono-6f" x="60.205078"/>
    <use xlink:href="#DejaVuSansMono-75" x="120.410156"/>
    <use xlink:href="#DejaVuSansMono-72" x="180.615234"/>
    <use xlink:href="#DejaVuSansMono-63" x="240.820312"/>
    <use xlink:href="#DejaVuSansMono-65" x="301.025391"/>
    <use xlink:href="#DejaVuSansMono-3a" x="361.230469"/>
    <use xlink:href="#DejaVuSansMono-20" x="421.435547"/>
    <use xlink:href="#DejaVuSansMono-50" x="481.640625"/>
    <use xlink:href="#DejaVuSansMono-72" x="541.845703"/>
    <use xlink:href="#DejaVuSansMono-6f" x="602.050781"/>
    <use xlink:href="#DejaVuSansMono-6a" x="662.255859"/>
    <use xlink:href="#DejaVuSansMono-65" x="722.460938"/>
    <use xlink:href="#DejaVuSansMono-63" x="782.666016"/>
    <use xlink:href="#DejaVuSansMono-74" x="842.871094"/>
    <use xlink:href="#DejaVuSansMono-20" x="903.076172"/>
    <use xlink:href="#DejaVuSansMono-44" x="963.28125"/>
    <use xlink:href="#DejaVuSansMono-69" x="1023.486328"/>
    <use xlink:href="#DejaVuSansMono-61" x="1083.691406"/>
    <use xlink:href="#DejaVuSansMono-6c" x="1143.896484"/>
    <use xlink:href="#DejaVuSansMono-6f" x="1204.101562"/>
    <use xlink:href="#DejaVuSansMono-67" x="1264.306641"/>
    <use xlink:href="#DejaVuSansMono-2c" x="1324.511719"/>
    <use xlink:href="#DejaVuSansMono-47" x="1384.716797"/>
    <use xlink:href="#DejaVuSansMono-69" x="1444.921875"/>
    <use xlink:href="#DejaVuSansMono-74" x="1505.126953"/>
    <use xlink:href="#DejaVuSansMono-68" x="1565.332031"/>
    <use xlink:href="#DejaVuSansMono-75" x="1625.537109"/>
    <use xlink:href="#DejaVuSansMono-62" x="1685.742188"/>
   </g>
  </g>
  <g id="text_20">
   <!-- @lagom-QB; 2023 -->
   <g style="fill: #808080" transform="translate(86.4 564.48) scale(0.12 -0.12)">
    <defs>
     <path id="ArialMT-40" d="M 3628 509 
Q 3425 275 3173 133 
Q 2922 -9 2669 -9 
Q 2391 -9 2128 153 
Q 1866 316 1702 653 
Q 1538 991 1538 1394 
Q 1538 1891 1792 2389 
Q 2047 2888 2425 3138 
Q 2803 3388 3159 3388 
Q 3431 3388 3678 3245 
Q 3925 3103 4103 2813 
L 4209 3297 
L 4769 3297 
L 4319 1200 
Q 4225 763 4225 716 
Q 4225 631 4289 570 
Q 4353 509 4444 509 
Q 4609 509 4878 700 
Q 5234 950 5442 1370 
Q 5650 1791 5650 2238 
Q 5650 2759 5383 3212 
Q 5116 3666 4586 3937 
Q 4056 4209 3416 4209 
Q 2684 4209 2079 3867 
Q 1475 3525 1142 2886 
Q 809 2247 809 1516 
Q 809 750 1142 197 
Q 1475 -356 2104 -620 
Q 2734 -884 3500 -884 
Q 4319 -884 4872 -609 
Q 5425 -334 5700 59 
L 6266 59 
Q 6106 -269 5718 -609 
Q 5331 -950 4797 -1148 
Q 4263 -1347 3509 -1347 
Q 2816 -1347 2230 -1169 
Q 1644 -991 1231 -633 
Q 819 -275 609 191 
Q 347 781 347 1466 
Q 347 2228 659 2919 
Q 1041 3766 1742 4216 
Q 2444 4666 3444 4666 
Q 4219 4666 4836 4348 
Q 5453 4031 5809 3403 
Q 6113 2863 6113 2228 
Q 6113 1322 5475 619 
Q 4906 -13 4231 -13 
Q 4016 -13 3883 53 
Q 3750 119 3688 241 
Q 3647 319 3628 509 
z
M 2116 1356 
Q 2116 928 2319 690 
Q 2522 453 2784 453 
Q 2959 453 3153 558 
Q 3347 663 3523 869 
Q 3700 1075 3812 1392 
Q 3925 1709 3925 2028 
Q 3925 2453 3714 2687 
Q 3503 2922 3200 2922 
Q 3000 2922 2823 2820 
Q 2647 2719 2481 2494 
Q 2316 2269 2216 1947 
Q 2116 1625 2116 1356 
z
" transform="scale(0.015625)"/>
     <path id="ArialMT-6c" d="M 409 0 
L 409 4581 
L 972 4581 
L 972 0 
L 409 0 
z
" transform="scale(0.015625)"/>
     <path id="ArialMT-61" d="M 2588 409 
Q 2275 144 1986 34 
Q 1697 -75 1366 -75 
Q 819 -75 525 192 
Q 231 459 231 875 
Q 231 1119 342 1320 
Q 453 1522 633 1644 
Q 813 1766 1038 1828 
Q 1203 1872 1538 1913 
Q 2219 1994 2541 2106 
Q 2544 2222 2544 2253 
Q 2544 2597 2384 2738 
Q 2169 2928 1744 2928 
Q 1347 2928 1158 2789 
Q 969 2650 878 2297 
L 328 2372 
Q 403 2725 575 2942 
Q 747 3159 1072 3276 
Q 1397 3394 1825 3394 
Q 2250 3394 2515 3294 
Q 2781 3194 2906 3042 
Q 3031 2891 3081 2659 
Q 3109 2516 3109 2141 
L 3109 1391 
Q 3109 606 3145 398 
Q 3181 191 3288 0 
L 2700 0 
Q 2613 175 2588 409 
z
M 2541 1666 
Q 2234 1541 1622 1453 
Q 1275 1403 1131 1340 
Q 988 1278 909 1158 
Q 831 1038 831 891 
Q 831 666 1001 516 
Q 1172 366 1500 366 
Q 1825 366 2078 508 
Q 2331 650 2450 897 
Q 2541 1088 2541 1459 
L 2541 1666 
z
" transform="scale(0.015625)"/>
     <path id="ArialMT-67" d="M 319 -275 
L 866 -356 
Q 900 -609 1056 -725 
Q 1266 -881 1628 -881 
Q 2019 -881 2231 -725 
Q 2444 -569 2519 -288 
Q 2563 -116 2559 434 
Q 2191 0 1641 0 
Q 956 0 581 494 
Q 206 988 206 1678 
Q 206 2153 378 2554 
Q 550 2956 876 3175 
Q 1203 3394 1644 3394 
Q 2231 3394 2613 2919 
L 2613 3319 
L 3131 3319 
L 3131 450 
Q 3131 -325 2973 -648 
Q 2816 -972 2473 -1159 
Q 2131 -1347 1631 -1347 
Q 1038 -1347 672 -1080 
Q 306 -813 319 -275 
z
M 784 1719 
Q 784 1066 1043 766 
Q 1303 466 1694 466 
Q 2081 466 2343 764 
Q 2606 1063 2606 1700 
Q 2606 2309 2336 2618 
Q 2066 2928 1684 2928 
Q 1309 2928 1046 2623 
Q 784 2319 784 1719 
z
" transform="scale(0.015625)"/>
     <path id="ArialMT-6f" d="M 213 1659 
Q 213 2581 725 3025 
Q 1153 3394 1769 3394 
Q 2453 3394 2887 2945 
Q 3322 2497 3322 1706 
Q 3322 1066 3130 698 
Q 2938 331 2570 128 
Q 2203 -75 1769 -75 
Q 1072 -75 642 372 
Q 213 819 213 1659 
z
M 791 1659 
Q 791 1022 1069 705 
Q 1347 388 1769 388 
Q 2188 388 2466 706 
Q 2744 1025 2744 1678 
Q 2744 2294 2464 2611 
Q 2184 2928 1769 2928 
Q 1347 2928 1069 2612 
Q 791 2297 791 1659 
z
" transform="scale(0.015625)"/>
     <path id="ArialMT-6d" d="M 422 0 
L 422 3319 
L 925 3319 
L 925 2853 
Q 1081 3097 1340 3245 
Q 1600 3394 1931 3394 
Q 2300 3394 2536 3241 
Q 2772 3088 2869 2813 
Q 3263 3394 3894 3394 
Q 4388 3394 4653 3120 
Q 4919 2847 4919 2278 
L 4919 0 
L 4359 0 
L 4359 2091 
Q 4359 2428 4304 2576 
Q 4250 2725 4106 2815 
Q 3963 2906 3769 2906 
Q 3419 2906 3187 2673 
Q 2956 2441 2956 1928 
L 2956 0 
L 2394 0 
L 2394 2156 
Q 2394 2531 2256 2718 
Q 2119 2906 1806 2906 
Q 1569 2906 1367 2781 
Q 1166 2656 1075 2415 
Q 984 2175 984 1722 
L 984 0 
L 422 0 
z
" transform="scale(0.015625)"/>
     <path id="ArialMT-2d" d="M 203 1375 
L 203 1941 
L 1931 1941 
L 1931 1375 
L 203 1375 
z
" transform="scale(0.015625)"/>
     <path id="ArialMT-51" d="M 3966 491 
Q 4388 200 4744 66 
L 4566 -356 
Q 4072 -178 3581 206 
Q 3072 -78 2456 -78 
Q 1834 -78 1328 222 
Q 822 522 548 1065 
Q 275 1609 275 2291 
Q 275 2969 550 3525 
Q 825 4081 1333 4372 
Q 1841 4663 2469 4663 
Q 3103 4663 3612 4361 
Q 4122 4059 4389 3517 
Q 4656 2975 4656 2294 
Q 4656 1728 4484 1276 
Q 4313 825 3966 491 
z
M 2631 1266 
Q 3156 1119 3497 828 
Q 4031 1316 4031 2294 
Q 4031 2850 3842 3265 
Q 3653 3681 3289 3911 
Q 2925 4141 2472 4141 
Q 1794 4141 1347 3677 
Q 900 3213 900 2291 
Q 900 1397 1342 919 
Q 1784 441 2472 441 
Q 2797 441 3084 563 
Q 2800 747 2484 825 
L 2631 1266 
z
" transform="scale(0.015625)"/>
     <path id="ArialMT-42" d="M 469 0 
L 469 4581 
L 2188 4581 
Q 2713 4581 3030 4442 
Q 3347 4303 3526 4014 
Q 3706 3725 3706 3409 
Q 3706 3116 3547 2856 
Q 3388 2597 3066 2438 
Q 3481 2316 3704 2022 
Q 3928 1728 3928 1328 
Q 3928 1006 3792 729 
Q 3656 453 3456 303 
Q 3256 153 2954 76 
Q 2653 0 2216 0 
L 469 0 
z
M 1075 2656 
L 2066 2656 
Q 2469 2656 2644 2709 
Q 2875 2778 2992 2937 
Q 3109 3097 3109 3338 
Q 3109 3566 3000 3739 
Q 2891 3913 2687 3977 
Q 2484 4041 1991 4041 
L 1075 4041 
L 1075 2656 
z
M 1075 541 
L 2216 541 
Q 2509 541 2628 563 
Q 2838 600 2978 687 
Q 3119 775 3209 942 
Q 3300 1109 3300 1328 
Q 3300 1584 3169 1773 
Q 3038 1963 2805 2039 
Q 2572 2116 2134 2116 
L 1075 2116 
L 1075 541 
z
" transform="scale(0.015625)"/>
     <path id="ArialMT-3b" d="M 569 2678 
L 569 3319 
L 1209 3319 
L 1209 2678 
L 569 2678 
z
M 569 0 
L 569 641 
L 1209 641 
L 1209 0 
Q 1209 -353 1084 -570 
Q 959 -788 688 -906 
L 531 -666 
Q 709 -588 793 -436 
Q 878 -284 888 0 
L 569 0 
z
" transform="scale(0.015625)"/>
     <path id="ArialMT-20" transform="scale(0.015625)"/>
     <path id="ArialMT-32" d="M 3222 541 
L 3222 0 
L 194 0 
Q 188 203 259 391 
Q 375 700 629 1000 
Q 884 1300 1366 1694 
Q 2113 2306 2375 2664 
Q 2638 3022 2638 3341 
Q 2638 3675 2398 3904 
Q 2159 4134 1775 4134 
Q 1369 4134 1125 3890 
Q 881 3647 878 3216 
L 300 3275 
Q 359 3922 746 4261 
Q 1134 4600 1788 4600 
Q 2447 4600 2831 4234 
Q 3216 3869 3216 3328 
Q 3216 3053 3103 2787 
Q 2991 2522 2730 2228 
Q 2469 1934 1863 1422 
Q 1356 997 1212 845 
Q 1069 694 975 541 
L 3222 541 
z
" transform="scale(0.015625)"/>
     <path id="ArialMT-30" d="M 266 2259 
Q 266 3072 433 3567 
Q 600 4063 929 4331 
Q 1259 4600 1759 4600 
Q 2128 4600 2406 4451 
Q 2684 4303 2865 4023 
Q 3047 3744 3150 3342 
Q 3253 2941 3253 2259 
Q 3253 1453 3087 958 
Q 2922 463 2592 192 
Q 2263 -78 1759 -78 
Q 1097 -78 719 397 
Q 266 969 266 2259 
z
M 844 2259 
Q 844 1131 1108 757 
Q 1372 384 1759 384 
Q 2147 384 2411 759 
Q 2675 1134 2675 2259 
Q 2675 3391 2411 3762 
Q 2147 4134 1753 4134 
Q 1366 4134 1134 3806 
Q 844 3388 844 2259 
z
" transform="scale(0.015625)"/>
     <path id="ArialMT-33" d="M 269 1209 
L 831 1284 
Q 928 806 1161 595 
Q 1394 384 1728 384 
Q 2125 384 2398 659 
Q 2672 934 2672 1341 
Q 2672 1728 2419 1979 
Q 2166 2231 1775 2231 
Q 1616 2231 1378 2169 
L 1441 2663 
Q 1497 2656 1531 2656 
Q 1891 2656 2178 2843 
Q 2466 3031 2466 3422 
Q 2466 3731 2256 3934 
Q 2047 4138 1716 4138 
Q 1388 4138 1169 3931 
Q 950 3725 888 3313 
L 325 3413 
Q 428 3978 793 4289 
Q 1159 4600 1703 4600 
Q 2078 4600 2393 4439 
Q 2709 4278 2876 4000 
Q 3044 3722 3044 3409 
Q 3044 3113 2884 2869 
Q 2725 2625 2413 2481 
Q 2819 2388 3044 2092 
Q 3269 1797 3269 1353 
Q 3269 753 2831 336 
Q 2394 -81 1725 -81 
Q 1122 -81 723 278 
Q 325 638 269 1209 
z
" transform="scale(0.015625)"/>
    </defs>
    <use xlink:href="#ArialMT-40"/>
    <use xlink:href="#ArialMT-6c" x="101.513672"/>
    <use xlink:href="#ArialMT-61" x="123.730469"/>
    <use xlink:href="#ArialMT-67" x="179.345703"/>
    <use xlink:href="#ArialMT-6f" x="234.960938"/>
    <use xlink:href="#ArialMT-6d" x="290.576172"/>
    <use xlink:href="#ArialMT-2d" x="373.876953"/>
    <use xlink:href="#ArialMT-51" x="407.177734"/>
    <use xlink:href="#ArialMT-42" x="484.960938"/>
    <use xlink:href="#ArialMT-3b" x="551.660156"/>
    <use xlink:href="#ArialMT-20" x="579.443359"/>
    <use xlink:href="#ArialMT-32" x="607.226562"/>
    <use xlink:href="#ArialMT-30" x="662.841797"/>
    <use xlink:href="#ArialMT-32" x="718.457031"/>
    <use xlink:href="#ArialMT-33" x="774.072266"/>
   </g>
  </g>
 </g>
 <defs>
  <clipPath id="pabfbe3e084">
   <rect x="120.96" y="57.6" width="656.64" height="460.8"/>
  </clipPath>
 </defs>
</svg>
