<?xml version="1.0" encoding="utf-8" standalone="no"?>
<!DOCTYPE svg PUBLIC "-//W3C//DTD SVG 1.1//EN"
  "http://www.w3.org/Graphics/SVG/1.1/DTD/svg11.dtd">
<svg xmlns:xlink="http://www.w3.org/1999/xlink" width="864pt" height="576pt" viewBox="0 0 864 576" xmlns="http://www.w3.org/2000/svg" version="1.1">
 <metadata>
  <rdf:RDF xmlns:dc="http://purl.org/dc/elements/1.1/" xmlns:cc="http://creativecommons.org/ns#" xmlns:rdf="http://www.w3.org/1999/02/22-rdf-syntax-ns#">
   <cc:Work>
    <dc:type rdf:resource="http://purl.org/dc/dcmitype/StillImage"/>
    <dc:date>2023-08-13T22:22:28.611378</dc:date>
    <dc:format>image/svg+xml</dc:format>
    <dc:creator>
     <cc:Agent>
      <dc:title>Matplotlib v3.7.1, https://matplotlib.org/</dc:title>
     </cc:Agent>
    </dc:creator>
   </cc:Work>
  </rdf:RDF>
 </metadata>
 <defs>
  <style type="text/css">*{stroke-linejoin: round; stroke-linecap: butt}</style>
 </defs>
 <g id="figure_1">
  <g id="patch_1">
   <path d="M 0 576 
L 864 576 
L 864 0 
L 0 0 
z
" style="fill: #ffffff"/>
  </g>
  <g id="axes_1">
   <g id="patch_2">
    <path d="M 120.96 518.4 
L 777.6 518.4 
L 777.6 57.6 
L 120.96 57.6 
z
" style="fill: #ffffff"/>
   </g>
   <g id="matplotlib.axis_1">
    <g id="xtick_1">
     <g id="line2d_1">
      <path d="M 334.154805 518.4 
L 334.154805 57.6 
" clip-path="url(#pa5b2bbfd98)" style="fill: none; stroke: #808080; stroke-width: 0.4; stroke-linecap: square"/>
     </g>
     <g id="line2d_2"/>
     <g id="text_1">
      <!-- 15 -->
      <g transform="translate(326.93043 51.604375) scale(0.12 -0.12)">
       <defs>
        <path id="DejaVuSansMono-31" d="M 844 531 
L 1825 531 
L 1825 4097 
L 769 3859 
L 769 4434 
L 1819 4666 
L 2450 4666 
L 2450 531 
L 3419 531 
L 3419 0 
L 844 0 
L 844 531 
z
" transform="scale(0.015625)"/>
        <path id="DejaVuSansMono-35" d="M 647 4666 
L 3009 4666 
L 3009 4134 
L 1222 4134 
L 1222 2988 
Q 1356 3038 1492 3061 
Q 1628 3084 1766 3084 
Q 2491 3084 2916 2656 
Q 3341 2228 3341 1497 
Q 3341 759 2895 334 
Q 2450 -91 1678 -91 
Q 1306 -91 998 -41 
Q 691 9 447 109 
L 447 750 
Q 734 594 1025 517 
Q 1316 441 1619 441 
Q 2141 441 2423 716 
Q 2706 991 2706 1497 
Q 2706 1997 2414 2275 
Q 2122 2553 1600 2553 
Q 1347 2553 1106 2495 
Q 866 2438 647 2322 
L 647 4666 
z
" transform="scale(0.015625)"/>
       </defs>
       <use xlink:href="#DejaVuSansMono-31"/>
       <use xlink:href="#DejaVuSansMono-35" x="60.205078"/>
      </g>
     </g>
    </g>
    <g id="xtick_2">
     <g id="line2d_3">
      <path d="M 689.479481 518.4 
L 689.479481 57.6 
" clip-path="url(#pa5b2bbfd98)" style="fill: none; stroke: #808080; stroke-width: 0.4; stroke-linecap: square"/>
     </g>
     <g id="line2d_4"/>
     <g id="text_2">
      <!-- 40 -->
      <g transform="translate(682.255106 51.604375) scale(0.12 -0.12)">
       <defs>
        <path id="DejaVuSansMono-34" d="M 2297 4091 
L 825 1625 
L 2297 1625 
L 2297 4091 
z
M 2194 4666 
L 2925 4666 
L 2925 1625 
L 3547 1625 
L 3547 1113 
L 2925 1113 
L 2925 0 
L 2297 0 
L 2297 1113 
L 319 1113 
L 319 1709 
L 2194 4666 
z
" transform="scale(0.015625)"/>
        <path id="DejaVuSansMono-30" d="M 1509 2344 
Q 1509 2516 1629 2641 
Q 1750 2766 1919 2766 
Q 2094 2766 2219 2641 
Q 2344 2516 2344 2344 
Q 2344 2169 2220 2047 
Q 2097 1925 1919 1925 
Q 1744 1925 1626 2044 
Q 1509 2163 1509 2344 
z
M 1925 4250 
Q 1484 4250 1267 3775 
Q 1050 3300 1050 2328 
Q 1050 1359 1267 884 
Q 1484 409 1925 409 
Q 2369 409 2586 884 
Q 2803 1359 2803 2328 
Q 2803 3300 2586 3775 
Q 2369 4250 1925 4250 
z
M 1925 4750 
Q 2672 4750 3055 4137 
Q 3438 3525 3438 2328 
Q 3438 1134 3055 521 
Q 2672 -91 1925 -91 
Q 1178 -91 797 521 
Q 416 1134 416 2328 
Q 416 3525 797 4137 
Q 1178 4750 1925 4750 
z
" transform="scale(0.015625)"/>
       </defs>
       <use xlink:href="#DejaVuSansMono-34"/>
       <use xlink:href="#DejaVuSansMono-30" x="60.205078"/>
      </g>
     </g>
    </g>
    <g id="xtick_3">
     <g id="line2d_5">
      <path d="M 689.479481 518.4 
L 689.479481 57.6 
" clip-path="url(#pa5b2bbfd98)" style="fill: none; stroke: #808080; stroke-width: 0.4; stroke-linecap: square"/>
     </g>
     <g id="line2d_6"/>
     <g id="text_3">
      <!-- 40 -->
      <g transform="translate(682.255106 51.604375) scale(0.12 -0.12)">
       <use xlink:href="#DejaVuSansMono-34"/>
       <use xlink:href="#DejaVuSansMono-30" x="60.205078"/>
      </g>
     </g>
    </g>
   </g>
   <g id="patch_3">
    <path d="M 120.96 518.4 
L 319.941818 518.4 
L 319.941818 497.334857 
L 120.96 497.334857 
z
" clip-path="url(#pa5b2bbfd98)" style="fill: #9a0f0a; opacity: 0.7"/>
   </g>
   <g id="patch_4">
    <path d="M 120.96 471.003429 
L 319.941818 471.003429 
L 319.941818 449.938286 
L 120.96 449.938286 
z
" clip-path="url(#pa5b2bbfd98)" style="fill: #9a0f0a; opacity: 0.7"/>
   </g>
   <g id="patch_5">
    <path d="M 120.96 423.606857 
L 319.941818 423.606857 
L 319.941818 402.541714 
L 120.96 402.541714 
z
" clip-path="url(#pa5b2bbfd98)" style="fill: #9a0f0a; opacity: 0.7"/>
   </g>
   <g id="patch_6">
    <path d="M 120.96 376.210286 
L 319.941818 376.210286 
L 319.941818 355.145143 
L 120.96 355.145143 
z
" clip-path="url(#pa5b2bbfd98)" style="fill: #9a0f0a; opacity: 0.7"/>
   </g>
   <g id="patch_7">
    <path d="M 120.96 328.813714 
L 319.941818 328.813714 
L 319.941818 307.748571 
L 120.96 307.748571 
z
" clip-path="url(#pa5b2bbfd98)" style="fill: #9a0f0a; opacity: 0.7"/>
   </g>
   <g id="patch_8">
    <path d="M 120.96 281.417143 
L 319.941818 281.417143 
L 319.941818 260.352 
L 120.96 260.352 
z
" clip-path="url(#pa5b2bbfd98)" style="fill: #9a0f0a; opacity: 0.7"/>
   </g>
   <g id="patch_9">
    <path d="M 120.96 234.020571 
L 319.941818 234.020571 
L 319.941818 212.955429 
L 120.96 212.955429 
z
" clip-path="url(#pa5b2bbfd98)" style="fill: #9a0f0a; opacity: 0.7"/>
   </g>
   <g id="patch_10">
    <path d="M 120.96 186.624 
L 703.692468 186.624 
L 703.692468 165.558857 
L 120.96 165.558857 
z
" clip-path="url(#pa5b2bbfd98)" style="fill: #9a0f0a; opacity: 0.7"/>
   </g>
   <g id="patch_11">
    <path d="M 120.96 139.227429 
L 717.905455 139.227429 
L 717.905455 118.162286 
L 120.96 118.162286 
z
" clip-path="url(#pa5b2bbfd98)" style="fill: #9a0f0a; opacity: 0.7"/>
   </g>
   <g id="patch_12">
    <path d="M 120.96 91.830857 
L 717.905455 91.830857 
L 717.905455 70.765714 
L 120.96 70.765714 
z
" clip-path="url(#pa5b2bbfd98)" style="fill: #9a0f0a; opacity: 0.7"/>
   </g>
   <g id="patch_13">
    <path d="M 120.96 518.4 
L 120.96 57.6 
" style="fill: none; opacity: 0.9; stroke: #808080; stroke-width: 1.4; stroke-linejoin: miter; stroke-linecap: round"/>
   </g>
   <g id="text_4">
    <path d="M 331.061798 515.718871 
L 331.061798 509.404808 
L 328.703985 509.404808 
L 328.703985 508.561058 
L 334.377423 508.561058 
L 334.377423 509.404808 
L 332.010235 509.404808 
L 332.010235 515.718871 
L 331.061798 515.718871 
z
M 335.379571 515.718871 
L 335.379571 508.561058 
L 336.326446 508.561058 
L 336.326446 511.500121 
L 340.046759 511.500121 
L 340.046759 508.561058 
L 340.993634 508.561058 
L 340.993634 515.718871 
L 340.046759 515.718871 
L 340.046759 512.345433 
L 336.326446 512.345433 
L 336.326446 515.718871 
L 335.379571 515.718871 
z
M 342.590314 515.718871 
L 342.590314 508.561058 
L 347.766876 508.561058 
L 347.766876 509.404808 
L 343.538751 509.404808 
L 343.538751 511.596996 
L 347.498126 511.596996 
L 347.498126 512.437621 
L 343.538751 512.437621 
L 343.538751 514.873558 
L 347.932501 514.873558 
L 347.932501 515.718871 
L 342.590314 515.718871 
z
M 351.980743 515.718871 
L 351.980743 508.561058 
L 352.927618 508.561058 
L 352.927618 514.873558 
L 356.452618 514.873558 
L 356.452618 515.718871 
L 351.980743 515.718871 
z
M 357.742267 515.718871 
L 357.742267 508.561058 
L 358.689142 508.561058 
L 358.689142 515.718871 
L 357.742267 515.718871 
z
M 359.787774 515.718871 
L 359.787774 514.839183 
L 363.454962 510.254808 
Q 363.845587 509.767308 364.197149 509.404808 
L 360.203399 509.404808 
L 360.203399 508.561058 
L 365.329962 508.561058 
L 365.329962 509.404808 
L 361.311212 514.370433 
L 360.876837 514.873558 
L 365.447149 514.873558 
L 365.447149 515.718871 
L 359.787774 515.718871 
z
M 365.68211 515.718871 
L 368.430548 508.561058 
L 369.45086 508.561058 
L 372.380548 515.718871 
L 371.302423 515.718871 
L 370.466485 513.550121 
L 367.474298 513.550121 
L 366.686798 515.718871 
L 365.68211 515.718871 
z
M 367.747735 512.779808 
L 370.174298 512.779808 
L 369.427423 510.796996 
Q 369.085235 509.893871 368.91961 509.312621 
Q 368.78211 510.001683 368.533673 510.679808 
L 367.747735 512.779808 
z
M 373.152032 515.718871 
L 373.152032 508.561058 
L 376.32547 508.561058 
Q 377.283282 508.561058 377.780157 508.754808 
Q 378.278595 508.946996 378.577032 509.436058 
Q 378.87547 509.923558 378.87547 510.514183 
Q 378.87547 511.275121 378.38172 511.798558 
Q 377.88797 512.320433 376.858282 512.462621 
Q 377.234845 512.642308 377.430157 512.818871 
Q 377.84422 513.198558 378.216095 513.770433 
L 379.461407 515.718871 
L 378.26922 515.718871 
L 377.322345 514.229808 
Q 376.90672 513.584496 376.63797 513.243871 
Q 376.370782 512.901683 376.158282 512.765746 
Q 375.945782 512.628246 375.72547 512.573558 
Q 375.564532 512.540746 375.198907 512.540746 
L 374.098907 512.540746 
L 374.098907 515.718871 
L 373.152032 515.718871 
z
M 374.098907 511.720433 
L 376.136407 511.720433 
Q 376.784845 511.720433 377.15047 511.586058 
Q 377.517657 511.451683 377.708282 511.156371 
Q 377.898907 510.861058 377.898907 510.514183 
Q 377.898907 510.006371 377.530157 509.679808 
Q 377.161407 509.351683 376.364532 509.351683 
L 374.098907 509.351683 
L 374.098907 511.720433 
z
M 380.359649 515.718871 
L 380.359649 508.561058 
L 382.825274 508.561058 
Q 383.659649 508.561058 384.100274 508.662621 
Q 384.714337 508.804808 385.148712 509.175121 
Q 385.715899 509.654808 385.995587 510.400121 
Q 386.276837 511.143871 386.276837 512.100121 
Q 386.276837 512.915746 386.086212 513.545433 
Q 385.897149 514.175121 385.598712 514.589183 
Q 385.300274 515.001683 384.945587 515.239183 
Q 384.592462 515.475121 384.092462 515.596996 
Q 383.592462 515.718871 382.942462 515.718871 
L 380.359649 515.718871 
z
M 381.306524 514.873558 
L 382.834649 514.873558 
Q 383.542462 514.873558 383.945587 514.742308 
Q 384.348712 514.611058 384.587774 514.370433 
Q 384.925274 514.034496 385.112774 513.465746 
Q 385.300274 512.896996 385.300274 512.086058 
Q 385.300274 510.962621 384.931524 510.359496 
Q 384.562774 509.756371 384.036212 509.551683 
Q 383.654962 509.404808 382.811212 509.404808 
L 381.306524 509.404808 
L 381.306524 514.873558 
z
" style="fill: #9a0f0a; stroke: #ffffff; stroke-width: 2"/>
    <path d="M 331.061798 515.718871 
L 331.061798 509.404808 
L 328.703985 509.404808 
L 328.703985 508.561058 
L 334.377423 508.561058 
L 334.377423 509.404808 
L 332.010235 509.404808 
L 332.010235 515.718871 
L 331.061798 515.718871 
z
M 335.379571 515.718871 
L 335.379571 508.561058 
L 336.326446 508.561058 
L 336.326446 511.500121 
L 340.046759 511.500121 
L 340.046759 508.561058 
L 340.993634 508.561058 
L 340.993634 515.718871 
L 340.046759 515.718871 
L 340.046759 512.345433 
L 336.326446 512.345433 
L 336.326446 515.718871 
L 335.379571 515.718871 
z
M 342.590314 515.718871 
L 342.590314 508.561058 
L 347.766876 508.561058 
L 347.766876 509.404808 
L 343.538751 509.404808 
L 343.538751 511.596996 
L 347.498126 511.596996 
L 347.498126 512.437621 
L 343.538751 512.437621 
L 343.538751 514.873558 
L 347.932501 514.873558 
L 347.932501 515.718871 
L 342.590314 515.718871 
z
M 351.980743 515.718871 
L 351.980743 508.561058 
L 352.927618 508.561058 
L 352.927618 514.873558 
L 356.452618 514.873558 
L 356.452618 515.718871 
L 351.980743 515.718871 
z
M 357.742267 515.718871 
L 357.742267 508.561058 
L 358.689142 508.561058 
L 358.689142 515.718871 
L 357.742267 515.718871 
z
M 359.787774 515.718871 
L 359.787774 514.839183 
L 363.454962 510.254808 
Q 363.845587 509.767308 364.197149 509.404808 
L 360.203399 509.404808 
L 360.203399 508.561058 
L 365.329962 508.561058 
L 365.329962 509.404808 
L 361.311212 514.370433 
L 360.876837 514.873558 
L 365.447149 514.873558 
L 365.447149 515.718871 
L 359.787774 515.718871 
z
M 365.68211 515.718871 
L 368.430548 508.561058 
L 369.45086 508.561058 
L 372.380548 515.718871 
L 371.302423 515.718871 
L 370.466485 513.550121 
L 367.474298 513.550121 
L 366.686798 515.718871 
L 365.68211 515.718871 
z
M 367.747735 512.779808 
L 370.174298 512.779808 
L 369.427423 510.796996 
Q 369.085235 509.893871 368.91961 509.312621 
Q 368.78211 510.001683 368.533673 510.679808 
L 367.747735 512.779808 
z
M 373.152032 515.718871 
L 373.152032 508.561058 
L 376.32547 508.561058 
Q 377.283282 508.561058 377.780157 508.754808 
Q 378.278595 508.946996 378.577032 509.436058 
Q 378.87547 509.923558 378.87547 510.514183 
Q 378.87547 511.275121 378.38172 511.798558 
Q 377.88797 512.320433 376.858282 512.462621 
Q 377.234845 512.642308 377.430157 512.818871 
Q 377.84422 513.198558 378.216095 513.770433 
L 379.461407 515.718871 
L 378.26922 515.718871 
L 377.322345 514.229808 
Q 376.90672 513.584496 376.63797 513.243871 
Q 376.370782 512.901683 376.158282 512.765746 
Q 375.945782 512.628246 375.72547 512.573558 
Q 375.564532 512.540746 375.198907 512.540746 
L 374.098907 512.540746 
L 374.098907 515.718871 
L 373.152032 515.718871 
z
M 374.098907 511.720433 
L 376.136407 511.720433 
Q 376.784845 511.720433 377.15047 511.586058 
Q 377.517657 511.451683 377.708282 511.156371 
Q 377.898907 510.861058 377.898907 510.514183 
Q 377.898907 510.006371 377.530157 509.679808 
Q 377.161407 509.351683 376.364532 509.351683 
L 374.098907 509.351683 
L 374.098907 511.720433 
z
M 380.359649 515.718871 
L 380.359649 508.561058 
L 382.825274 508.561058 
Q 383.659649 508.561058 384.100274 508.662621 
Q 384.714337 508.804808 385.148712 509.175121 
Q 385.715899 509.654808 385.995587 510.400121 
Q 386.276837 511.143871 386.276837 512.100121 
Q 386.276837 512.915746 386.086212 513.545433 
Q 385.897149 514.175121 385.598712 514.589183 
Q 385.300274 515.001683 384.945587 515.239183 
Q 384.592462 515.475121 384.092462 515.596996 
Q 383.592462 515.718871 382.942462 515.718871 
L 380.359649 515.718871 
z
M 381.306524 514.873558 
L 382.834649 514.873558 
Q 383.542462 514.873558 383.945587 514.742308 
Q 384.348712 514.611058 384.587774 514.370433 
Q 384.925274 514.034496 385.112774 513.465746 
Q 385.300274 512.896996 385.300274 512.086058 
Q 385.300274 510.962621 384.931524 510.359496 
Q 384.562774 509.756371 384.036212 509.551683 
Q 383.654962 509.404808 382.811212 509.404808 
L 381.306524 509.404808 
L 381.306524 514.873558 
z
" style="fill: #9a0f0a"/>
   </g>
   <g id="text_5">
    <path d="M 331.061798 468.322299 
L 331.061798 462.008237 
L 328.703985 462.008237 
L 328.703985 461.164487 
L 334.377423 461.164487 
L 334.377423 462.008237 
L 332.010235 462.008237 
L 332.010235 468.322299 
L 331.061798 468.322299 
z
M 335.379571 468.322299 
L 335.379571 461.164487 
L 336.326446 461.164487 
L 336.326446 464.103549 
L 340.046759 464.103549 
L 340.046759 461.164487 
L 340.993634 461.164487 
L 340.993634 468.322299 
L 340.046759 468.322299 
L 340.046759 464.948862 
L 336.326446 464.948862 
L 336.326446 468.322299 
L 335.379571 468.322299 
z
M 342.590314 468.322299 
L 342.590314 461.164487 
L 347.766876 461.164487 
L 347.766876 462.008237 
L 343.538751 462.008237 
L 343.538751 464.200424 
L 347.498126 464.200424 
L 347.498126 465.041049 
L 343.538751 465.041049 
L 343.538751 467.476987 
L 347.932501 467.476987 
L 347.932501 468.322299 
L 342.590314 468.322299 
z
M 351.980743 468.322299 
L 351.980743 461.164487 
L 352.927618 461.164487 
L 352.927618 464.714487 
L 356.482306 461.164487 
L 357.766681 461.164487 
L 354.763556 464.064487 
L 357.897931 468.322299 
L 356.647931 468.322299 
L 354.099493 464.698862 
L 352.927618 465.841049 
L 352.927618 468.322299 
L 351.980743 468.322299 
z
M 358.680353 468.322299 
L 358.680353 461.164487 
L 359.650665 461.164487 
L 363.411603 466.784799 
L 363.411603 461.164487 
L 364.319415 461.164487 
L 364.319415 468.322299 
L 363.34754 468.322299 
L 359.588165 462.697299 
L 359.588165 468.322299 
L 358.680353 468.322299 
z
M 365.12547 468.322299 
L 367.873907 461.164487 
L 368.89422 461.164487 
L 371.823907 468.322299 
L 370.745782 468.322299 
L 369.909845 466.153549 
L 366.917657 466.153549 
L 366.130157 468.322299 
L 365.12547 468.322299 
z
M 367.191095 465.383237 
L 369.617657 465.383237 
L 368.870782 463.400424 
Q 368.528595 462.497299 368.36297 461.916049 
Q 368.22547 462.605112 367.977032 463.283237 
L 367.191095 465.383237 
z
M 373.889142 468.322299 
L 371.115704 461.164487 
L 372.140704 461.164487 
L 374.001642 466.364487 
Q 374.226642 466.989487 374.378204 467.536362 
Q 374.543829 466.950424 374.764142 466.364487 
L 376.696954 461.164487 
L 377.664142 461.164487 
L 374.861017 468.322299 
L 373.889142 468.322299 
z
M 378.532501 468.322299 
L 378.532501 461.164487 
L 383.709064 461.164487 
L 383.709064 462.008237 
L 379.480939 462.008237 
L 379.480939 464.200424 
L 383.440314 464.200424 
L 383.440314 465.041049 
L 379.480939 465.041049 
L 379.480939 467.476987 
L 383.874689 467.476987 
L 383.874689 468.322299 
L 378.532501 468.322299 
z
M 387.672931 464.836362 
Q 387.672931 463.053549 388.629181 462.045737 
Q 389.586993 461.036362 391.101056 461.036362 
Q 392.093243 461.036362 392.888556 461.511362 
Q 393.683868 461.984799 394.101056 462.831674 
Q 394.519806 463.678549 394.519806 464.753549 
Q 394.519806 465.841049 394.079181 466.700424 
Q 393.640118 467.559799 392.833868 468.001987 
Q 392.029181 468.444174 391.096368 468.444174 
Q 390.085431 468.444174 389.288556 467.956674 
Q 388.493243 467.467612 388.082306 466.623862 
Q 387.672931 465.778549 387.672931 464.836362 
z
M 388.649493 464.850424 
Q 388.649493 466.144174 389.344806 466.889487 
Q 390.041681 467.633237 391.091681 467.633237 
Q 392.160431 467.633237 392.851056 466.881674 
Q 393.543243 466.130112 393.543243 464.747299 
Q 393.543243 463.873862 393.247931 463.222299 
Q 392.952618 462.570737 392.382306 462.211362 
Q 391.813556 461.851987 391.105743 461.851987 
Q 390.101056 461.851987 389.374493 462.544174 
Q 388.649493 463.234799 388.649493 464.850424 
z
M 395.788751 468.322299 
L 395.788751 461.164487 
L 400.618439 461.164487 
L 400.618439 462.008237 
L 396.735626 462.008237 
L 396.735626 464.225424 
L 400.095001 464.225424 
L 400.095001 465.070737 
L 396.735626 465.070737 
L 396.735626 468.322299 
L 395.788751 468.322299 
z
M 404.65672 468.322299 
L 404.65672 461.164487 
L 405.603595 461.164487 
L 405.603595 464.103549 
L 409.323907 464.103549 
L 409.323907 461.164487 
L 410.270782 461.164487 
L 410.270782 468.322299 
L 409.323907 468.322299 
L 409.323907 464.948862 
L 405.603595 464.948862 
L 405.603595 468.322299 
L 404.65672 468.322299 
z
M 411.867462 468.322299 
L 411.867462 461.164487 
L 417.044024 461.164487 
L 417.044024 462.008237 
L 412.815899 462.008237 
L 412.815899 464.200424 
L 416.775274 464.200424 
L 416.775274 465.041049 
L 412.815899 465.041049 
L 412.815899 467.476987 
L 417.209649 467.476987 
L 417.209649 468.322299 
L 411.867462 468.322299 
z
M 417.732696 468.322299 
L 420.481134 461.164487 
L 421.501446 461.164487 
L 424.431134 468.322299 
L 423.353009 468.322299 
L 422.517071 466.153549 
L 419.524884 466.153549 
L 418.737384 468.322299 
L 417.732696 468.322299 
z
M 419.798321 465.383237 
L 422.224884 465.383237 
L 421.478009 463.400424 
Q 421.135821 462.497299 420.970196 461.916049 
Q 420.832696 462.605112 420.584259 463.283237 
L 419.798321 465.383237 
z
M 425.202618 468.322299 
L 425.202618 461.164487 
L 428.376056 461.164487 
Q 429.333868 461.164487 429.830743 461.358237 
Q 430.329181 461.550424 430.627618 462.039487 
Q 430.926056 462.526987 430.926056 463.117612 
Q 430.926056 463.878549 430.432306 464.401987 
Q 429.938556 464.923862 428.908868 465.066049 
Q 429.285431 465.245737 429.480743 465.422299 
Q 429.894806 465.801987 430.266681 466.373862 
L 431.511993 468.322299 
L 430.319806 468.322299 
L 429.372931 466.833237 
Q 428.957306 466.187924 428.688556 465.847299 
Q 428.421368 465.505112 428.208868 465.369174 
Q 427.996368 465.231674 427.776056 465.176987 
Q 427.615118 465.144174 427.249493 465.144174 
L 426.149493 465.144174 
L 426.149493 468.322299 
L 425.202618 468.322299 
z
M 426.149493 464.323862 
L 428.186993 464.323862 
Q 428.835431 464.323862 429.201056 464.189487 
Q 429.568243 464.055112 429.758868 463.759799 
Q 429.949493 463.464487 429.949493 463.117612 
Q 429.949493 462.609799 429.580743 462.283237 
Q 429.211993 461.955112 428.415118 461.955112 
L 426.149493 461.955112 
L 426.149493 464.323862 
z
M 434.055548 468.322299 
L 434.055548 462.008237 
L 431.697735 462.008237 
L 431.697735 461.164487 
L 437.371173 461.164487 
L 437.371173 462.008237 
L 435.003985 462.008237 
L 435.003985 468.322299 
L 434.055548 468.322299 
z
M 438.021759 466.022299 
L 438.913946 465.944174 
Q 438.978009 466.481674 439.209259 466.825424 
Q 439.442071 467.169174 439.929571 467.381674 
Q 440.418634 467.594174 441.029571 467.594174 
Q 441.570196 467.594174 441.985821 467.433237 
Q 442.401446 467.272299 442.603009 466.992612 
Q 442.806134 466.711362 442.806134 466.378549 
Q 442.806134 466.042612 442.610821 465.791049 
Q 442.415509 465.539487 441.967071 465.367612 
Q 441.678009 465.255112 440.692071 465.019174 
Q 439.706134 464.781674 439.310821 464.572299 
Q 438.796759 464.303549 438.545196 463.906674 
Q 438.295196 463.508237 438.295196 463.014487 
Q 438.295196 462.472299 438.601446 462.001987 
Q 438.909259 461.530112 439.499884 461.286362 
Q 440.092071 461.042612 440.813946 461.042612 
Q 441.609259 461.042612 442.217071 461.298862 
Q 442.826446 461.555112 443.153009 462.053549 
Q 443.479571 462.550424 443.504571 463.180112 
L 442.596759 463.248862 
Q 442.523321 462.570737 442.099884 462.223862 
Q 441.678009 461.876987 440.853009 461.876987 
Q 439.993634 461.876987 439.599884 462.192612 
Q 439.207696 462.506674 439.207696 462.950424 
Q 439.207696 463.336362 439.485821 463.586362 
Q 439.759259 463.834799 440.913946 464.095737 
Q 442.068634 464.356674 442.498321 464.551987 
Q 443.123321 464.841049 443.420196 465.283237 
Q 443.718634 465.723862 443.718634 466.300424 
Q 443.718634 466.872299 443.392071 467.378549 
Q 443.065509 467.883237 442.451446 468.164487 
Q 441.838946 468.444174 441.073321 468.444174 
Q 440.101446 468.444174 439.443634 468.161362 
Q 438.787384 467.878549 438.413946 467.309799 
Q 438.040509 466.739487 438.021759 466.022299 
z
" style="fill: #9a0f0a; stroke: #ffffff; stroke-width: 2"/>
    <path d="M 331.061798 468.322299 
L 331.061798 462.008237 
L 328.703985 462.008237 
L 328.703985 461.164487 
L 334.377423 461.164487 
L 334.377423 462.008237 
L 332.010235 462.008237 
L 332.010235 468.322299 
L 331.061798 468.322299 
z
M 335.379571 468.322299 
L 335.379571 461.164487 
L 336.326446 461.164487 
L 336.326446 464.103549 
L 340.046759 464.103549 
L 340.046759 461.164487 
L 340.993634 461.164487 
L 340.993634 468.322299 
L 340.046759 468.322299 
L 340.046759 464.948862 
L 336.326446 464.948862 
L 336.326446 468.322299 
L 335.379571 468.322299 
z
M 342.590314 468.322299 
L 342.590314 461.164487 
L 347.766876 461.164487 
L 347.766876 462.008237 
L 343.538751 462.008237 
L 343.538751 464.200424 
L 347.498126 464.200424 
L 347.498126 465.041049 
L 343.538751 465.041049 
L 343.538751 467.476987 
L 347.932501 467.476987 
L 347.932501 468.322299 
L 342.590314 468.322299 
z
M 351.980743 468.322299 
L 351.980743 461.164487 
L 352.927618 461.164487 
L 352.927618 464.714487 
L 356.482306 461.164487 
L 357.766681 461.164487 
L 354.763556 464.064487 
L 357.897931 468.322299 
L 356.647931 468.322299 
L 354.099493 464.698862 
L 352.927618 465.841049 
L 352.927618 468.322299 
L 351.980743 468.322299 
z
M 358.680353 468.322299 
L 358.680353 461.164487 
L 359.650665 461.164487 
L 363.411603 466.784799 
L 363.411603 461.164487 
L 364.319415 461.164487 
L 364.319415 468.322299 
L 363.34754 468.322299 
L 359.588165 462.697299 
L 359.588165 468.322299 
L 358.680353 468.322299 
z
M 365.12547 468.322299 
L 367.873907 461.164487 
L 368.89422 461.164487 
L 371.823907 468.322299 
L 370.745782 468.322299 
L 369.909845 466.153549 
L 366.917657 466.153549 
L 366.130157 468.322299 
L 365.12547 468.322299 
z
M 367.191095 465.383237 
L 369.617657 465.383237 
L 368.870782 463.400424 
Q 368.528595 462.497299 368.36297 461.916049 
Q 368.22547 462.605112 367.977032 463.283237 
L 367.191095 465.383237 
z
M 373.889142 468.322299 
L 371.115704 461.164487 
L 372.140704 461.164487 
L 374.001642 466.364487 
Q 374.226642 466.989487 374.378204 467.536362 
Q 374.543829 466.950424 374.764142 466.364487 
L 376.696954 461.164487 
L 377.664142 461.164487 
L 374.861017 468.322299 
L 373.889142 468.322299 
z
M 378.532501 468.322299 
L 378.532501 461.164487 
L 383.709064 461.164487 
L 383.709064 462.008237 
L 379.480939 462.008237 
L 379.480939 464.200424 
L 383.440314 464.200424 
L 383.440314 465.041049 
L 379.480939 465.041049 
L 379.480939 467.476987 
L 383.874689 467.476987 
L 383.874689 468.322299 
L 378.532501 468.322299 
z
M 387.672931 464.836362 
Q 387.672931 463.053549 388.629181 462.045737 
Q 389.586993 461.036362 391.101056 461.036362 
Q 392.093243 461.036362 392.888556 461.511362 
Q 393.683868 461.984799 394.101056 462.831674 
Q 394.519806 463.678549 394.519806 464.753549 
Q 394.519806 465.841049 394.079181 466.700424 
Q 393.640118 467.559799 392.833868 468.001987 
Q 392.029181 468.444174 391.096368 468.444174 
Q 390.085431 468.444174 389.288556 467.956674 
Q 388.493243 467.467612 388.082306 466.623862 
Q 387.672931 465.778549 387.672931 464.836362 
z
M 388.649493 464.850424 
Q 388.649493 466.144174 389.344806 466.889487 
Q 390.041681 467.633237 391.091681 467.633237 
Q 392.160431 467.633237 392.851056 466.881674 
Q 393.543243 466.130112 393.543243 464.747299 
Q 393.543243 463.873862 393.247931 463.222299 
Q 392.952618 462.570737 392.382306 462.211362 
Q 391.813556 461.851987 391.105743 461.851987 
Q 390.101056 461.851987 389.374493 462.544174 
Q 388.649493 463.234799 388.649493 464.850424 
z
M 395.788751 468.322299 
L 395.788751 461.164487 
L 400.618439 461.164487 
L 400.618439 462.008237 
L 396.735626 462.008237 
L 396.735626 464.225424 
L 400.095001 464.225424 
L 400.095001 465.070737 
L 396.735626 465.070737 
L 396.735626 468.322299 
L 395.788751 468.322299 
z
M 404.65672 468.322299 
L 404.65672 461.164487 
L 405.603595 461.164487 
L 405.603595 464.103549 
L 409.323907 464.103549 
L 409.323907 461.164487 
L 410.270782 461.164487 
L 410.270782 468.322299 
L 409.323907 468.322299 
L 409.323907 464.948862 
L 405.603595 464.948862 
L 405.603595 468.322299 
L 404.65672 468.322299 
z
M 411.867462 468.322299 
L 411.867462 461.164487 
L 417.044024 461.164487 
L 417.044024 462.008237 
L 412.815899 462.008237 
L 412.815899 464.200424 
L 416.775274 464.200424 
L 416.775274 465.041049 
L 412.815899 465.041049 
L 412.815899 467.476987 
L 417.209649 467.476987 
L 417.209649 468.322299 
L 411.867462 468.322299 
z
M 417.732696 468.322299 
L 420.481134 461.164487 
L 421.501446 461.164487 
L 424.431134 468.322299 
L 423.353009 468.322299 
L 422.517071 466.153549 
L 419.524884 466.153549 
L 418.737384 468.322299 
L 417.732696 468.322299 
z
M 419.798321 465.383237 
L 422.224884 465.383237 
L 421.478009 463.400424 
Q 421.135821 462.497299 420.970196 461.916049 
Q 420.832696 462.605112 420.584259 463.283237 
L 419.798321 465.383237 
z
M 425.202618 468.322299 
L 425.202618 461.164487 
L 428.376056 461.164487 
Q 429.333868 461.164487 429.830743 461.358237 
Q 430.329181 461.550424 430.627618 462.039487 
Q 430.926056 462.526987 430.926056 463.117612 
Q 430.926056 463.878549 430.432306 464.401987 
Q 429.938556 464.923862 428.908868 465.066049 
Q 429.285431 465.245737 429.480743 465.422299 
Q 429.894806 465.801987 430.266681 466.373862 
L 431.511993 468.322299 
L 430.319806 468.322299 
L 429.372931 466.833237 
Q 428.957306 466.187924 428.688556 465.847299 
Q 428.421368 465.505112 428.208868 465.369174 
Q 427.996368 465.231674 427.776056 465.176987 
Q 427.615118 465.144174 427.249493 465.144174 
L 426.149493 465.144174 
L 426.149493 468.322299 
L 425.202618 468.322299 
z
M 426.149493 464.323862 
L 428.186993 464.323862 
Q 428.835431 464.323862 429.201056 464.189487 
Q 429.568243 464.055112 429.758868 463.759799 
Q 429.949493 463.464487 429.949493 463.117612 
Q 429.949493 462.609799 429.580743 462.283237 
Q 429.211993 461.955112 428.415118 461.955112 
L 426.149493 461.955112 
L 426.149493 464.323862 
z
M 434.055548 468.322299 
L 434.055548 462.008237 
L 431.697735 462.008237 
L 431.697735 461.164487 
L 437.371173 461.164487 
L 437.371173 462.008237 
L 435.003985 462.008237 
L 435.003985 468.322299 
L 434.055548 468.322299 
z
M 438.021759 466.022299 
L 438.913946 465.944174 
Q 438.978009 466.481674 439.209259 466.825424 
Q 439.442071 467.169174 439.929571 467.381674 
Q 440.418634 467.594174 441.029571 467.594174 
Q 441.570196 467.594174 441.985821 467.433237 
Q 442.401446 467.272299 442.603009 466.992612 
Q 442.806134 466.711362 442.806134 466.378549 
Q 442.806134 466.042612 442.610821 465.791049 
Q 442.415509 465.539487 441.967071 465.367612 
Q 441.678009 465.255112 440.692071 465.019174 
Q 439.706134 464.781674 439.310821 464.572299 
Q 438.796759 464.303549 438.545196 463.906674 
Q 438.295196 463.508237 438.295196 463.014487 
Q 438.295196 462.472299 438.601446 462.001987 
Q 438.909259 461.530112 439.499884 461.286362 
Q 440.092071 461.042612 440.813946 461.042612 
Q 441.609259 461.042612 442.217071 461.298862 
Q 442.826446 461.555112 443.153009 462.053549 
Q 443.479571 462.550424 443.504571 463.180112 
L 442.596759 463.248862 
Q 442.523321 462.570737 442.099884 462.223862 
Q 441.678009 461.876987 440.853009 461.876987 
Q 439.993634 461.876987 439.599884 462.192612 
Q 439.207696 462.506674 439.207696 462.950424 
Q 439.207696 463.336362 439.485821 463.586362 
Q 439.759259 463.834799 440.913946 464.095737 
Q 442.068634 464.356674 442.498321 464.551987 
Q 443.123321 464.841049 443.420196 465.283237 
Q 443.718634 465.723862 443.718634 466.300424 
Q 443.718634 466.872299 443.392071 467.378549 
Q 443.065509 467.883237 442.451446 468.164487 
Q 441.838946 468.444174 441.073321 468.444174 
Q 440.101446 468.444174 439.443634 468.161362 
Q 438.787384 467.878549 438.413946 467.309799 
Q 438.040509 466.739487 438.021759 466.022299 
z
" style="fill: #9a0f0a"/>
   </g>
   <g id="text_6">
    <path d="M 328.91961 418.625728 
L 329.811798 418.547603 
Q 329.87586 419.085103 330.10711 419.428853 
Q 330.339923 419.772603 330.827423 419.985103 
Q 331.316485 420.197603 331.927423 420.197603 
Q 332.468048 420.197603 332.883673 420.036665 
Q 333.299298 419.875728 333.50086 419.59604 
Q 333.703985 419.31479 333.703985 418.981978 
Q 333.703985 418.64604 333.508673 418.394478 
Q 333.31336 418.142915 332.864923 417.97104 
Q 332.57586 417.85854 331.589923 417.622603 
Q 330.603985 417.385103 330.208673 417.175728 
Q 329.69461 416.906978 329.443048 416.510103 
Q 329.193048 416.111665 329.193048 415.617915 
Q 329.193048 415.075728 329.499298 414.605415 
Q 329.80711 414.13354 330.397735 413.88979 
Q 330.989923 413.64604 331.711798 413.64604 
Q 332.50711 413.64604 333.114923 413.90229 
Q 333.724298 414.15854 334.05086 414.656978 
Q 334.377423 415.153853 334.402423 415.78354 
L 333.49461 415.85229 
Q 333.421173 415.174165 332.997735 414.82729 
Q 332.57586 414.480415 331.75086 414.480415 
Q 330.891485 414.480415 330.497735 414.79604 
Q 330.105548 415.110103 330.105548 415.553853 
Q 330.105548 415.93979 330.383673 416.18979 
Q 330.65711 416.438228 331.811798 416.699165 
Q 332.966485 416.960103 333.396173 417.155415 
Q 334.021173 417.444478 334.318048 417.886665 
Q 334.616485 418.32729 334.616485 418.903853 
Q 334.616485 419.475728 334.289923 419.981978 
Q 333.96336 420.486665 333.349298 420.767915 
Q 332.736798 421.047603 331.971173 421.047603 
Q 330.999298 421.047603 330.341485 420.76479 
Q 329.685235 420.481978 329.311798 419.913228 
Q 328.93836 419.342915 328.91961 418.625728 
z
M 335.930157 420.925728 
L 335.930157 413.767915 
L 341.10672 413.767915 
L 341.10672 414.611665 
L 336.878595 414.611665 
L 336.878595 416.803853 
L 340.83797 416.803853 
L 340.83797 417.644478 
L 336.878595 417.644478 
L 336.878595 420.080415 
L 341.272345 420.080415 
L 341.272345 420.925728 
L 335.930157 420.925728 
z
M 344.626642 420.925728 
L 341.853204 413.767915 
L 342.878204 413.767915 
L 344.739142 418.967915 
Q 344.964142 419.592915 345.115704 420.13979 
Q 345.281329 419.553853 345.501642 418.967915 
L 347.434454 413.767915 
L 348.401642 413.767915 
L 345.598517 420.925728 
L 344.626642 420.925728 
z
M 349.270001 420.925728 
L 349.270001 413.767915 
L 354.446564 413.767915 
L 354.446564 414.611665 
L 350.218439 414.611665 
L 350.218439 416.803853 
L 354.177814 416.803853 
L 354.177814 417.644478 
L 350.218439 417.644478 
L 350.218439 420.080415 
L 354.612189 420.080415 
L 354.612189 420.925728 
L 349.270001 420.925728 
z
M 355.911798 420.925728 
L 355.911798 413.767915 
L 356.88211 413.767915 
L 360.643048 419.388228 
L 360.643048 413.767915 
L 361.55086 413.767915 
L 361.55086 420.925728 
L 360.578985 420.925728 
L 356.81961 415.300728 
L 356.81961 420.925728 
L 355.911798 420.925728 
z
" style="fill: #9a0f0a; stroke: #ffffff; stroke-width: 2"/>
    <path d="M 328.91961 418.625728 
L 329.811798 418.547603 
Q 329.87586 419.085103 330.10711 419.428853 
Q 330.339923 419.772603 330.827423 419.985103 
Q 331.316485 420.197603 331.927423 420.197603 
Q 332.468048 420.197603 332.883673 420.036665 
Q 333.299298 419.875728 333.50086 419.59604 
Q 333.703985 419.31479 333.703985 418.981978 
Q 333.703985 418.64604 333.508673 418.394478 
Q 333.31336 418.142915 332.864923 417.97104 
Q 332.57586 417.85854 331.589923 417.622603 
Q 330.603985 417.385103 330.208673 417.175728 
Q 329.69461 416.906978 329.443048 416.510103 
Q 329.193048 416.111665 329.193048 415.617915 
Q 329.193048 415.075728 329.499298 414.605415 
Q 329.80711 414.13354 330.397735 413.88979 
Q 330.989923 413.64604 331.711798 413.64604 
Q 332.50711 413.64604 333.114923 413.90229 
Q 333.724298 414.15854 334.05086 414.656978 
Q 334.377423 415.153853 334.402423 415.78354 
L 333.49461 415.85229 
Q 333.421173 415.174165 332.997735 414.82729 
Q 332.57586 414.480415 331.75086 414.480415 
Q 330.891485 414.480415 330.497735 414.79604 
Q 330.105548 415.110103 330.105548 415.553853 
Q 330.105548 415.93979 330.383673 416.18979 
Q 330.65711 416.438228 331.811798 416.699165 
Q 332.966485 416.960103 333.396173 417.155415 
Q 334.021173 417.444478 334.318048 417.886665 
Q 334.616485 418.32729 334.616485 418.903853 
Q 334.616485 419.475728 334.289923 419.981978 
Q 333.96336 420.486665 333.349298 420.767915 
Q 332.736798 421.047603 331.971173 421.047603 
Q 330.999298 421.047603 330.341485 420.76479 
Q 329.685235 420.481978 329.311798 419.913228 
Q 328.93836 419.342915 328.91961 418.625728 
z
M 335.930157 420.925728 
L 335.930157 413.767915 
L 341.10672 413.767915 
L 341.10672 414.611665 
L 336.878595 414.611665 
L 336.878595 416.803853 
L 340.83797 416.803853 
L 340.83797 417.644478 
L 336.878595 417.644478 
L 336.878595 420.080415 
L 341.272345 420.080415 
L 341.272345 420.925728 
L 335.930157 420.925728 
z
M 344.626642 420.925728 
L 341.853204 413.767915 
L 342.878204 413.767915 
L 344.739142 418.967915 
Q 344.964142 419.592915 345.115704 420.13979 
Q 345.281329 419.553853 345.501642 418.967915 
L 347.434454 413.767915 
L 348.401642 413.767915 
L 345.598517 420.925728 
L 344.626642 420.925728 
z
M 349.270001 420.925728 
L 349.270001 413.767915 
L 354.446564 413.767915 
L 354.446564 414.611665 
L 350.218439 414.611665 
L 350.218439 416.803853 
L 354.177814 416.803853 
L 354.177814 417.644478 
L 350.218439 417.644478 
L 350.218439 420.080415 
L 354.612189 420.080415 
L 354.612189 420.925728 
L 349.270001 420.925728 
z
M 355.911798 420.925728 
L 355.911798 413.767915 
L 356.88211 413.767915 
L 360.643048 419.388228 
L 360.643048 413.767915 
L 361.55086 413.767915 
L 361.55086 420.925728 
L 360.578985 420.925728 
L 356.81961 415.300728 
L 356.81961 420.925728 
L 355.911798 420.925728 
z
" style="fill: #9a0f0a"/>
   </g>
   <g id="text_7">
    <path d="M 331.061798 373.529156 
L 331.061798 367.215094 
L 328.703985 367.215094 
L 328.703985 366.371344 
L 334.377423 366.371344 
L 334.377423 367.215094 
L 332.010235 367.215094 
L 332.010235 373.529156 
L 331.061798 373.529156 
z
M 335.379571 373.529156 
L 335.379571 366.371344 
L 336.326446 366.371344 
L 336.326446 369.310406 
L 340.046759 369.310406 
L 340.046759 366.371344 
L 340.993634 366.371344 
L 340.993634 373.529156 
L 340.046759 373.529156 
L 340.046759 370.155719 
L 336.326446 370.155719 
L 336.326446 373.529156 
L 335.379571 373.529156 
z
M 342.590314 373.529156 
L 342.590314 366.371344 
L 347.766876 366.371344 
L 347.766876 367.215094 
L 343.538751 367.215094 
L 343.538751 369.407281 
L 347.498126 369.407281 
L 347.498126 370.247906 
L 343.538751 370.247906 
L 343.538751 372.683844 
L 347.932501 372.683844 
L 347.932501 373.529156 
L 342.590314 373.529156 
z
M 355.369806 370.721344 
L 355.369806 369.882281 
L 358.401056 369.876031 
L 358.401056 372.532281 
Q 357.702618 373.090094 356.960431 373.371344 
Q 356.218243 373.651031 355.436993 373.651031 
Q 354.382306 373.651031 353.519806 373.199469 
Q 352.658868 372.747906 352.219806 371.893219 
Q 351.780743 371.038531 351.780743 369.983844 
Q 351.780743 368.938531 352.216681 368.033844 
Q 352.654181 367.127594 353.474493 366.688531 
Q 354.294806 366.249469 355.363556 366.249469 
Q 356.140118 366.249469 356.766681 366.501031 
Q 357.394806 366.751031 357.751056 367.201031 
Q 358.108868 367.649469 358.293243 368.372906 
L 357.440118 368.607281 
Q 357.277618 368.060406 357.038556 367.747906 
Q 356.799493 367.435406 356.354181 367.247906 
Q 355.910431 367.058844 355.369806 367.058844 
Q 354.719806 367.058844 354.246368 367.257281 
Q 353.772931 367.454156 353.482306 367.777594 
Q 353.191681 368.099469 353.030743 368.485406 
Q 352.757306 369.149469 352.757306 369.926031 
Q 352.757306 370.882281 353.086993 371.527594 
Q 353.416681 372.171344 354.046368 372.483844 
Q 354.676056 372.796344 355.383868 372.796344 
Q 355.999493 372.796344 356.585431 372.560406 
Q 357.171368 372.322906 357.472931 372.054156 
L 357.472931 370.721344 
L 355.369806 370.721344 
z
M 359.812189 373.529156 
L 359.812189 366.371344 
L 362.985626 366.371344 
Q 363.943439 366.371344 364.440314 366.565094 
Q 364.938751 366.757281 365.237189 367.246344 
Q 365.535626 367.733844 365.535626 368.324469 
Q 365.535626 369.085406 365.041876 369.608844 
Q 364.548126 370.130719 363.518439 370.272906 
Q 363.895001 370.452594 364.090314 370.629156 
Q 364.504376 371.008844 364.876251 371.580719 
L 366.121564 373.529156 
L 364.929376 373.529156 
L 363.982501 372.040094 
Q 363.566876 371.394781 363.298126 371.054156 
Q 363.030939 370.711969 362.818439 370.576031 
Q 362.605939 370.438531 362.385626 370.383844 
Q 362.224689 370.351031 361.859064 370.351031 
L 360.759064 370.351031 
L 360.759064 373.529156 
L 359.812189 373.529156 
z
M 360.759064 369.530719 
L 362.796564 369.530719 
Q 363.445001 369.530719 363.810626 369.396344 
Q 364.177814 369.261969 364.368439 368.966656 
Q 364.559064 368.671344 364.559064 368.324469 
Q 364.559064 367.816656 364.190314 367.490094 
Q 363.821564 367.161969 363.024689 367.161969 
L 360.759064 367.161969 
L 360.759064 369.530719 
z
M 368.860431 373.529156 
L 368.860431 370.496344 
L 366.102618 366.371344 
L 367.254181 366.371344 
L 368.665118 368.529156 
Q 369.055743 369.133844 369.393243 369.740094 
Q 369.715118 369.179156 370.174493 368.476031 
L 371.561993 366.371344 
L 372.665118 366.371344 
L 369.808868 370.496344 
L 369.808868 373.529156 
L 368.860431 373.529156 
z
M 373.514728 373.529156 
L 373.514728 366.371344 
L 376.214728 366.371344 
Q 376.927228 366.371344 377.30379 366.438531 
Q 377.830353 366.527594 378.186603 366.774469 
Q 378.544415 367.019781 378.761603 367.465094 
Q 378.97879 367.908844 378.97879 368.441656 
Q 378.97879 369.354156 378.39754 369.986969 
Q 377.81629 370.618219 376.29754 370.618219 
L 374.461603 370.618219 
L 374.461603 373.529156 
L 373.514728 373.529156 
z
M 374.461603 369.774469 
L 376.311603 369.774469 
Q 377.230353 369.774469 377.61629 369.432281 
Q 378.002228 369.090094 378.002228 368.469781 
Q 378.002228 368.021344 377.774103 367.702594 
Q 377.54754 367.382281 377.177228 367.279156 
Q 376.936603 367.215094 376.292853 367.215094 
L 374.461603 367.215094 
L 374.461603 369.774469 
z
M 380.214337 373.529156 
L 380.214337 366.371344 
L 381.161212 366.371344 
L 381.161212 369.310406 
L 384.881524 369.310406 
L 384.881524 366.371344 
L 385.828399 366.371344 
L 385.828399 373.529156 
L 384.881524 373.529156 
L 384.881524 370.155719 
L 381.161212 370.155719 
L 381.161212 373.529156 
L 380.214337 373.529156 
z
M 387.117267 370.043219 
Q 387.117267 368.260406 388.073517 367.252594 
Q 389.031329 366.243219 390.545392 366.243219 
Q 391.537579 366.243219 392.332892 366.718219 
Q 393.128204 367.191656 393.545392 368.038531 
Q 393.964142 368.885406 393.964142 369.960406 
Q 393.964142 371.047906 393.523517 371.907281 
Q 393.084454 372.766656 392.278204 373.208844 
Q 391.473517 373.651031 390.540704 373.651031 
Q 389.529767 373.651031 388.732892 373.163531 
Q 387.937579 372.674469 387.526642 371.830719 
Q 387.117267 370.985406 387.117267 370.043219 
z
M 388.093829 370.057281 
Q 388.093829 371.351031 388.789142 372.096344 
Q 389.486017 372.840094 390.536017 372.840094 
Q 391.604767 372.840094 392.295392 372.088531 
Q 392.987579 371.336969 392.987579 369.954156 
Q 392.987579 369.080719 392.692267 368.429156 
Q 392.396954 367.777594 391.826642 367.418219 
Q 391.257892 367.058844 390.550079 367.058844 
Q 389.545392 367.058844 388.818829 367.751031 
Q 388.093829 368.441656 388.093829 370.057281 
z
M 395.175274 373.529156 
L 395.175274 366.371344 
L 396.145587 366.371344 
L 399.906524 371.991656 
L 399.906524 366.371344 
L 400.814337 366.371344 
L 400.814337 373.529156 
L 399.842462 373.529156 
L 396.083087 367.904156 
L 396.083087 373.529156 
L 395.175274 373.529156 
z
" style="fill: #9a0f0a; stroke: #ffffff; stroke-width: 2"/>
    <path d="M 331.061798 373.529156 
L 331.061798 367.215094 
L 328.703985 367.215094 
L 328.703985 366.371344 
L 334.377423 366.371344 
L 334.377423 367.215094 
L 332.010235 367.215094 
L 332.010235 373.529156 
L 331.061798 373.529156 
z
M 335.379571 373.529156 
L 335.379571 366.371344 
L 336.326446 366.371344 
L 336.326446 369.310406 
L 340.046759 369.310406 
L 340.046759 366.371344 
L 340.993634 366.371344 
L 340.993634 373.529156 
L 340.046759 373.529156 
L 340.046759 370.155719 
L 336.326446 370.155719 
L 336.326446 373.529156 
L 335.379571 373.529156 
z
M 342.590314 373.529156 
L 342.590314 366.371344 
L 347.766876 366.371344 
L 347.766876 367.215094 
L 343.538751 367.215094 
L 343.538751 369.407281 
L 347.498126 369.407281 
L 347.498126 370.247906 
L 343.538751 370.247906 
L 343.538751 372.683844 
L 347.932501 372.683844 
L 347.932501 373.529156 
L 342.590314 373.529156 
z
M 355.369806 370.721344 
L 355.369806 369.882281 
L 358.401056 369.876031 
L 358.401056 372.532281 
Q 357.702618 373.090094 356.960431 373.371344 
Q 356.218243 373.651031 355.436993 373.651031 
Q 354.382306 373.651031 353.519806 373.199469 
Q 352.658868 372.747906 352.219806 371.893219 
Q 351.780743 371.038531 351.780743 369.983844 
Q 351.780743 368.938531 352.216681 368.033844 
Q 352.654181 367.127594 353.474493 366.688531 
Q 354.294806 366.249469 355.363556 366.249469 
Q 356.140118 366.249469 356.766681 366.501031 
Q 357.394806 366.751031 357.751056 367.201031 
Q 358.108868 367.649469 358.293243 368.372906 
L 357.440118 368.607281 
Q 357.277618 368.060406 357.038556 367.747906 
Q 356.799493 367.435406 356.354181 367.247906 
Q 355.910431 367.058844 355.369806 367.058844 
Q 354.719806 367.058844 354.246368 367.257281 
Q 353.772931 367.454156 353.482306 367.777594 
Q 353.191681 368.099469 353.030743 368.485406 
Q 352.757306 369.149469 352.757306 369.926031 
Q 352.757306 370.882281 353.086993 371.527594 
Q 353.416681 372.171344 354.046368 372.483844 
Q 354.676056 372.796344 355.383868 372.796344 
Q 355.999493 372.796344 356.585431 372.560406 
Q 357.171368 372.322906 357.472931 372.054156 
L 357.472931 370.721344 
L 355.369806 370.721344 
z
M 359.812189 373.529156 
L 359.812189 366.371344 
L 362.985626 366.371344 
Q 363.943439 366.371344 364.440314 366.565094 
Q 364.938751 366.757281 365.237189 367.246344 
Q 365.535626 367.733844 365.535626 368.324469 
Q 365.535626 369.085406 365.041876 369.608844 
Q 364.548126 370.130719 363.518439 370.272906 
Q 363.895001 370.452594 364.090314 370.629156 
Q 364.504376 371.008844 364.876251 371.580719 
L 366.121564 373.529156 
L 364.929376 373.529156 
L 363.982501 372.040094 
Q 363.566876 371.394781 363.298126 371.054156 
Q 363.030939 370.711969 362.818439 370.576031 
Q 362.605939 370.438531 362.385626 370.383844 
Q 362.224689 370.351031 361.859064 370.351031 
L 360.759064 370.351031 
L 360.759064 373.529156 
L 359.812189 373.529156 
z
M 360.759064 369.530719 
L 362.796564 369.530719 
Q 363.445001 369.530719 363.810626 369.396344 
Q 364.177814 369.261969 364.368439 368.966656 
Q 364.559064 368.671344 364.559064 368.324469 
Q 364.559064 367.816656 364.190314 367.490094 
Q 363.821564 367.161969 363.024689 367.161969 
L 360.759064 367.161969 
L 360.759064 369.530719 
z
M 368.860431 373.529156 
L 368.860431 370.496344 
L 366.102618 366.371344 
L 367.254181 366.371344 
L 368.665118 368.529156 
Q 369.055743 369.133844 369.393243 369.740094 
Q 369.715118 369.179156 370.174493 368.476031 
L 371.561993 366.371344 
L 372.665118 366.371344 
L 369.808868 370.496344 
L 369.808868 373.529156 
L 368.860431 373.529156 
z
M 373.514728 373.529156 
L 373.514728 366.371344 
L 376.214728 366.371344 
Q 376.927228 366.371344 377.30379 366.438531 
Q 377.830353 366.527594 378.186603 366.774469 
Q 378.544415 367.019781 378.761603 367.465094 
Q 378.97879 367.908844 378.97879 368.441656 
Q 378.97879 369.354156 378.39754 369.986969 
Q 377.81629 370.618219 376.29754 370.618219 
L 374.461603 370.618219 
L 374.461603 373.529156 
L 373.514728 373.529156 
z
M 374.461603 369.774469 
L 376.311603 369.774469 
Q 377.230353 369.774469 377.61629 369.432281 
Q 378.002228 369.090094 378.002228 368.469781 
Q 378.002228 368.021344 377.774103 367.702594 
Q 377.54754 367.382281 377.177228 367.279156 
Q 376.936603 367.215094 376.292853 367.215094 
L 374.461603 367.215094 
L 374.461603 369.774469 
z
M 380.214337 373.529156 
L 380.214337 366.371344 
L 381.161212 366.371344 
L 381.161212 369.310406 
L 384.881524 369.310406 
L 384.881524 366.371344 
L 385.828399 366.371344 
L 385.828399 373.529156 
L 384.881524 373.529156 
L 384.881524 370.155719 
L 381.161212 370.155719 
L 381.161212 373.529156 
L 380.214337 373.529156 
z
M 387.117267 370.043219 
Q 387.117267 368.260406 388.073517 367.252594 
Q 389.031329 366.243219 390.545392 366.243219 
Q 391.537579 366.243219 392.332892 366.718219 
Q 393.128204 367.191656 393.545392 368.038531 
Q 393.964142 368.885406 393.964142 369.960406 
Q 393.964142 371.047906 393.523517 371.907281 
Q 393.084454 372.766656 392.278204 373.208844 
Q 391.473517 373.651031 390.540704 373.651031 
Q 389.529767 373.651031 388.732892 373.163531 
Q 387.937579 372.674469 387.526642 371.830719 
Q 387.117267 370.985406 387.117267 370.043219 
z
M 388.093829 370.057281 
Q 388.093829 371.351031 388.789142 372.096344 
Q 389.486017 372.840094 390.536017 372.840094 
Q 391.604767 372.840094 392.295392 372.088531 
Q 392.987579 371.336969 392.987579 369.954156 
Q 392.987579 369.080719 392.692267 368.429156 
Q 392.396954 367.777594 391.826642 367.418219 
Q 391.257892 367.058844 390.550079 367.058844 
Q 389.545392 367.058844 388.818829 367.751031 
Q 388.093829 368.441656 388.093829 370.057281 
z
M 395.175274 373.529156 
L 395.175274 366.371344 
L 396.145587 366.371344 
L 399.906524 371.991656 
L 399.906524 366.371344 
L 400.814337 366.371344 
L 400.814337 373.529156 
L 399.842462 373.529156 
L 396.083087 367.904156 
L 396.083087 373.529156 
L 395.175274 373.529156 
z
" style="fill: #9a0f0a"/>
   </g>
   <g id="text_8">
    <path d="M 331.061798 326.132585 
L 331.061798 319.818522 
L 328.703985 319.818522 
L 328.703985 318.974772 
L 334.377423 318.974772 
L 334.377423 319.818522 
L 332.010235 319.818522 
L 332.010235 326.132585 
L 331.061798 326.132585 
z
M 336.599884 326.132585 
L 334.699884 318.974772 
L 335.671759 318.974772 
L 336.760821 323.66696 
Q 336.935821 324.40446 337.063946 325.131022 
Q 337.337384 323.984147 337.385821 323.807585 
L 338.748321 318.974772 
L 339.890509 318.974772 
L 340.915509 322.596647 
Q 341.301446 323.945085 341.473321 325.131022 
Q 341.609259 324.452897 341.829571 323.57321 
L 342.951446 318.974772 
L 343.904571 318.974772 
L 341.942071 326.132585 
L 341.028009 326.132585 
L 339.520196 320.677897 
Q 339.329571 319.995085 339.295196 319.838835 
Q 339.182696 320.331022 339.084259 320.677897 
L 337.567071 326.132585 
L 336.599884 326.132585 
z
M 344.499298 322.646647 
Q 344.499298 320.863835 345.455548 319.856022 
Q 346.41336 318.846647 347.927423 318.846647 
Q 348.91961 318.846647 349.714923 319.321647 
Q 350.510235 319.795085 350.927423 320.64196 
Q 351.346173 321.488835 351.346173 322.563835 
Q 351.346173 323.651335 350.905548 324.51071 
Q 350.466485 325.370085 349.660235 325.812272 
Q 348.855548 326.25446 347.922735 326.25446 
Q 346.911798 326.25446 346.114923 325.76696 
Q 345.31961 325.277897 344.908673 324.434147 
Q 344.499298 323.588835 344.499298 322.646647 
z
M 345.47586 322.66071 
Q 345.47586 323.95446 346.171173 324.699772 
Q 346.868048 325.443522 347.918048 325.443522 
Q 348.986798 325.443522 349.677423 324.69196 
Q 350.36961 323.940397 350.36961 322.557585 
Q 350.36961 321.684147 350.074298 321.032585 
Q 349.778985 320.381022 349.208673 320.021647 
Q 348.639923 319.662272 347.93211 319.662272 
Q 346.927423 319.662272 346.20086 320.35446 
Q 345.47586 321.045085 345.47586 322.66071 
z
" style="fill: #9a0f0a; stroke: #ffffff; stroke-width: 2"/>
    <path d="M 331.061798 326.132585 
L 331.061798 319.818522 
L 328.703985 319.818522 
L 328.703985 318.974772 
L 334.377423 318.974772 
L 334.377423 319.818522 
L 332.010235 319.818522 
L 332.010235 326.132585 
L 331.061798 326.132585 
z
M 336.599884 326.132585 
L 334.699884 318.974772 
L 335.671759 318.974772 
L 336.760821 323.66696 
Q 336.935821 324.40446 337.063946 325.131022 
Q 337.337384 323.984147 337.385821 323.807585 
L 338.748321 318.974772 
L 339.890509 318.974772 
L 340.915509 322.596647 
Q 341.301446 323.945085 341.473321 325.131022 
Q 341.609259 324.452897 341.829571 323.57321 
L 342.951446 318.974772 
L 343.904571 318.974772 
L 341.942071 326.132585 
L 341.028009 326.132585 
L 339.520196 320.677897 
Q 339.329571 319.995085 339.295196 319.838835 
Q 339.182696 320.331022 339.084259 320.677897 
L 337.567071 326.132585 
L 336.599884 326.132585 
z
M 344.499298 322.646647 
Q 344.499298 320.863835 345.455548 319.856022 
Q 346.41336 318.846647 347.927423 318.846647 
Q 348.91961 318.846647 349.714923 319.321647 
Q 350.510235 319.795085 350.927423 320.64196 
Q 351.346173 321.488835 351.346173 322.563835 
Q 351.346173 323.651335 350.905548 324.51071 
Q 350.466485 325.370085 349.660235 325.812272 
Q 348.855548 326.25446 347.922735 326.25446 
Q 346.911798 326.25446 346.114923 325.76696 
Q 345.31961 325.277897 344.908673 324.434147 
Q 344.499298 323.588835 344.499298 322.646647 
z
M 345.47586 322.66071 
Q 345.47586 323.95446 346.171173 324.699772 
Q 346.868048 325.443522 347.918048 325.443522 
Q 348.986798 325.443522 349.677423 324.69196 
Q 350.36961 323.940397 350.36961 322.557585 
Q 350.36961 321.684147 350.074298 321.032585 
Q 349.778985 320.381022 349.208673 320.021647 
Q 348.639923 319.662272 347.93211 319.662272 
Q 346.927423 319.662272 346.20086 320.35446 
Q 345.47586 321.045085 345.47586 322.66071 
z
" style="fill: #9a0f0a"/>
   </g>
   <g id="text_9">
    <path d="M 329.289923 278.736013 
L 329.289923 271.578201 
L 334.11961 271.578201 
L 334.11961 272.421951 
L 330.236798 272.421951 
L 330.236798 274.639138 
L 333.596173 274.639138 
L 333.596173 275.484451 
L 330.236798 275.484451 
L 330.236798 278.736013 
L 329.289923 278.736013 
z
M 335.510821 278.736013 
L 335.510821 271.578201 
L 336.457696 271.578201 
L 336.457696 278.736013 
L 335.510821 278.736013 
z
M 340.173517 278.736013 
L 337.400079 271.578201 
L 338.425079 271.578201 
L 340.286017 276.778201 
Q 340.511017 277.403201 340.662579 277.950076 
Q 340.828204 277.364138 341.048517 276.778201 
L 342.981329 271.578201 
L 343.948517 271.578201 
L 341.145392 278.736013 
L 340.173517 278.736013 
z
M 344.816876 278.736013 
L 344.816876 271.578201 
L 349.993439 271.578201 
L 349.993439 272.421951 
L 345.765314 272.421951 
L 345.765314 274.614138 
L 349.724689 274.614138 
L 349.724689 275.454763 
L 345.765314 275.454763 
L 345.765314 277.890701 
L 350.159064 277.890701 
L 350.159064 278.736013 
L 344.816876 278.736013 
z
" style="fill: #9a0f0a; stroke: #ffffff; stroke-width: 2"/>
    <path d="M 329.289923 278.736013 
L 329.289923 271.578201 
L 334.11961 271.578201 
L 334.11961 272.421951 
L 330.236798 272.421951 
L 330.236798 274.639138 
L 333.596173 274.639138 
L 333.596173 275.484451 
L 330.236798 275.484451 
L 330.236798 278.736013 
L 329.289923 278.736013 
z
M 335.510821 278.736013 
L 335.510821 271.578201 
L 336.457696 271.578201 
L 336.457696 278.736013 
L 335.510821 278.736013 
z
M 340.173517 278.736013 
L 337.400079 271.578201 
L 338.425079 271.578201 
L 340.286017 276.778201 
Q 340.511017 277.403201 340.662579 277.950076 
Q 340.828204 277.364138 341.048517 276.778201 
L 342.981329 271.578201 
L 343.948517 271.578201 
L 341.145392 278.736013 
L 340.173517 278.736013 
z
M 344.816876 278.736013 
L 344.816876 271.578201 
L 349.993439 271.578201 
L 349.993439 272.421951 
L 345.765314 272.421951 
L 345.765314 274.614138 
L 349.724689 274.614138 
L 349.724689 275.454763 
L 345.765314 275.454763 
L 345.765314 277.890701 
L 350.159064 277.890701 
L 350.159064 278.736013 
L 344.816876 278.736013 
z
" style="fill: #9a0f0a"/>
   </g>
   <g id="text_10">
    <path d="M 331.061798 231.339442 
L 331.061798 225.025379 
L 328.703985 225.025379 
L 328.703985 224.181629 
L 334.377423 224.181629 
L 334.377423 225.025379 
L 332.010235 225.025379 
L 332.010235 231.339442 
L 331.061798 231.339442 
z
M 335.379571 231.339442 
L 335.379571 224.181629 
L 336.326446 224.181629 
L 336.326446 227.120692 
L 340.046759 227.120692 
L 340.046759 224.181629 
L 340.993634 224.181629 
L 340.993634 231.339442 
L 340.046759 231.339442 
L 340.046759 227.966004 
L 336.326446 227.966004 
L 336.326446 231.339442 
L 335.379571 231.339442 
z
M 342.590314 231.339442 
L 342.590314 224.181629 
L 347.766876 224.181629 
L 347.766876 225.025379 
L 343.538751 225.025379 
L 343.538751 227.217567 
L 347.498126 227.217567 
L 347.498126 228.058192 
L 343.538751 228.058192 
L 343.538751 230.494129 
L 347.932501 230.494129 
L 347.932501 231.339442 
L 342.590314 231.339442 
z
M 357.444806 230.572254 
Q 358.104181 231.026942 358.660431 231.236317 
L 358.382306 231.895692 
Q 357.610431 231.617567 356.843243 231.017567 
Q 356.047931 231.461317 355.085431 231.461317 
Q 354.113556 231.461317 353.322931 230.992567 
Q 352.532306 230.523817 352.104181 229.675379 
Q 351.677618 228.825379 351.677618 227.759754 
Q 351.677618 226.700379 352.107306 225.831629 
Q 352.536993 224.962879 353.330743 224.508192 
Q 354.124493 224.053504 355.105743 224.053504 
Q 356.096368 224.053504 356.891681 224.525379 
Q 357.688556 224.997254 358.105743 225.844129 
Q 358.522931 226.691004 358.522931 227.755067 
Q 358.522931 228.639442 358.254181 229.345692 
Q 357.986993 230.050379 357.444806 230.572254 
z
M 355.358868 229.361317 
Q 356.179181 229.591004 356.711993 230.045692 
Q 357.546368 229.283192 357.546368 227.755067 
Q 357.546368 226.886317 357.251056 226.237879 
Q 356.955743 225.587879 356.386993 225.228504 
Q 355.818243 224.869129 355.110431 224.869129 
Q 354.051056 224.869129 353.352618 225.594129 
Q 352.654181 226.319129 352.654181 227.759754 
Q 352.654181 229.156629 353.344806 229.903504 
Q 354.035431 230.650379 355.110431 230.650379 
Q 355.618243 230.650379 356.066681 230.459754 
Q 355.622931 230.172254 355.129181 230.050379 
L 355.358868 229.361317 
z
M 364.495001 224.181629 
L 365.441876 224.181629 
L 365.441876 228.317567 
Q 365.441876 229.395692 365.198126 230.031629 
Q 364.954376 230.666004 364.316876 231.064442 
Q 363.679376 231.461317 362.645001 231.461317 
Q 361.638751 231.461317 360.998126 231.114442 
Q 360.359064 230.767567 360.085626 230.111317 
Q 359.812189 229.455067 359.812189 228.317567 
L 359.812189 224.181629 
L 360.759064 224.181629 
L 360.759064 228.311317 
Q 360.759064 229.244129 360.932501 229.686317 
Q 361.105939 230.128504 361.527814 230.367567 
Q 361.951251 230.606629 362.562189 230.606629 
Q 363.605939 230.606629 364.049689 230.133192 
Q 364.495001 229.659754 364.495001 228.311317 
L 364.495001 224.181629 
z
M 367.038556 231.339442 
L 367.038556 224.181629 
L 372.215118 224.181629 
L 372.215118 225.025379 
L 367.986993 225.025379 
L 367.986993 227.217567 
L 371.946368 227.217567 
L 371.946368 228.058192 
L 367.986993 228.058192 
L 367.986993 230.494129 
L 372.380743 230.494129 
L 372.380743 231.339442 
L 367.038556 231.339442 
z
M 373.708478 231.339442 
L 373.708478 224.181629 
L 378.88504 224.181629 
L 378.88504 225.025379 
L 374.656915 225.025379 
L 374.656915 227.217567 
L 378.61629 227.217567 
L 378.61629 228.058192 
L 374.656915 228.058192 
L 374.656915 230.494129 
L 379.050665 230.494129 
L 379.050665 231.339442 
L 373.708478 231.339442 
z
M 380.350274 231.339442 
L 380.350274 224.181629 
L 381.320587 224.181629 
L 385.081524 229.801942 
L 385.081524 224.181629 
L 385.989337 224.181629 
L 385.989337 231.339442 
L 385.017462 231.339442 
L 381.258087 225.714442 
L 381.258087 231.339442 
L 380.350274 231.339442 
z
" style="fill: #9a0f0a; stroke: #ffffff; stroke-width: 2"/>
    <path d="M 331.061798 231.339442 
L 331.061798 225.025379 
L 328.703985 225.025379 
L 328.703985 224.181629 
L 334.377423 224.181629 
L 334.377423 225.025379 
L 332.010235 225.025379 
L 332.010235 231.339442 
L 331.061798 231.339442 
z
M 335.379571 231.339442 
L 335.379571 224.181629 
L 336.326446 224.181629 
L 336.326446 227.120692 
L 340.046759 227.120692 
L 340.046759 224.181629 
L 340.993634 224.181629 
L 340.993634 231.339442 
L 340.046759 231.339442 
L 340.046759 227.966004 
L 336.326446 227.966004 
L 336.326446 231.339442 
L 335.379571 231.339442 
z
M 342.590314 231.339442 
L 342.590314 224.181629 
L 347.766876 224.181629 
L 347.766876 225.025379 
L 343.538751 225.025379 
L 343.538751 227.217567 
L 347.498126 227.217567 
L 347.498126 228.058192 
L 343.538751 228.058192 
L 343.538751 230.494129 
L 347.932501 230.494129 
L 347.932501 231.339442 
L 342.590314 231.339442 
z
M 357.444806 230.572254 
Q 358.104181 231.026942 358.660431 231.236317 
L 358.382306 231.895692 
Q 357.610431 231.617567 356.843243 231.017567 
Q 356.047931 231.461317 355.085431 231.461317 
Q 354.113556 231.461317 353.322931 230.992567 
Q 352.532306 230.523817 352.104181 229.675379 
Q 351.677618 228.825379 351.677618 227.759754 
Q 351.677618 226.700379 352.107306 225.831629 
Q 352.536993 224.962879 353.330743 224.508192 
Q 354.124493 224.053504 355.105743 224.053504 
Q 356.096368 224.053504 356.891681 224.525379 
Q 357.688556 224.997254 358.105743 225.844129 
Q 358.522931 226.691004 358.522931 227.755067 
Q 358.522931 228.639442 358.254181 229.345692 
Q 357.986993 230.050379 357.444806 230.572254 
z
M 355.358868 229.361317 
Q 356.179181 229.591004 356.711993 230.045692 
Q 357.546368 229.283192 357.546368 227.755067 
Q 357.546368 226.886317 357.251056 226.237879 
Q 356.955743 225.587879 356.386993 225.228504 
Q 355.818243 224.869129 355.110431 224.869129 
Q 354.051056 224.869129 353.352618 225.594129 
Q 352.654181 226.319129 352.654181 227.759754 
Q 352.654181 229.156629 353.344806 229.903504 
Q 354.035431 230.650379 355.110431 230.650379 
Q 355.618243 230.650379 356.066681 230.459754 
Q 355.622931 230.172254 355.129181 230.050379 
L 355.358868 229.361317 
z
M 364.495001 224.181629 
L 365.441876 224.181629 
L 365.441876 228.317567 
Q 365.441876 229.395692 365.198126 230.031629 
Q 364.954376 230.666004 364.316876 231.064442 
Q 363.679376 231.461317 362.645001 231.461317 
Q 361.638751 231.461317 360.998126 231.114442 
Q 360.359064 230.767567 360.085626 230.111317 
Q 359.812189 229.455067 359.812189 228.317567 
L 359.812189 224.181629 
L 360.759064 224.181629 
L 360.759064 228.311317 
Q 360.759064 229.244129 360.932501 229.686317 
Q 361.105939 230.128504 361.527814 230.367567 
Q 361.951251 230.606629 362.562189 230.606629 
Q 363.605939 230.606629 364.049689 230.133192 
Q 364.495001 229.659754 364.495001 228.311317 
L 364.495001 224.181629 
z
M 367.038556 231.339442 
L 367.038556 224.181629 
L 372.215118 224.181629 
L 372.215118 225.025379 
L 367.986993 225.025379 
L 367.986993 227.217567 
L 371.946368 227.217567 
L 371.946368 228.058192 
L 367.986993 228.058192 
L 367.986993 230.494129 
L 372.380743 230.494129 
L 372.380743 231.339442 
L 367.038556 231.339442 
z
M 373.708478 231.339442 
L 373.708478 224.181629 
L 378.88504 224.181629 
L 378.88504 225.025379 
L 374.656915 225.025379 
L 374.656915 227.217567 
L 378.61629 227.217567 
L 378.61629 228.058192 
L 374.656915 228.058192 
L 374.656915 230.494129 
L 379.050665 230.494129 
L 379.050665 231.339442 
L 373.708478 231.339442 
z
M 380.350274 231.339442 
L 380.350274 224.181629 
L 381.320587 224.181629 
L 385.081524 229.801942 
L 385.081524 224.181629 
L 385.989337 224.181629 
L 385.989337 231.339442 
L 385.017462 231.339442 
L 381.258087 225.714442 
L 381.258087 231.339442 
L 380.350274 231.339442 
z
" style="fill: #9a0f0a"/>
   </g>
   <g id="text_11">
    <!-- THE DORMOUSE -->
    <g style="fill: #ffffff" transform="translate(129.487792 183.942871) scale(0.1 -0.1)">
     <defs>
      <path id="ArialMT-54" d="M 1659 0 
L 1659 4041 
L 150 4041 
L 150 4581 
L 3781 4581 
L 3781 4041 
L 2266 4041 
L 2266 0 
L 1659 0 
z
" transform="scale(0.015625)"/>
      <path id="ArialMT-48" d="M 513 0 
L 513 4581 
L 1119 4581 
L 1119 2700 
L 3500 2700 
L 3500 4581 
L 4106 4581 
L 4106 0 
L 3500 0 
L 3500 2159 
L 1119 2159 
L 1119 0 
L 513 0 
z
" transform="scale(0.015625)"/>
      <path id="ArialMT-45" d="M 506 0 
L 506 4581 
L 3819 4581 
L 3819 4041 
L 1113 4041 
L 1113 2638 
L 3647 2638 
L 3647 2100 
L 1113 2100 
L 1113 541 
L 3925 541 
L 3925 0 
L 506 0 
z
" transform="scale(0.015625)"/>
      <path id="ArialMT-20" transform="scale(0.015625)"/>
      <path id="ArialMT-44" d="M 494 0 
L 494 4581 
L 2072 4581 
Q 2606 4581 2888 4516 
Q 3281 4425 3559 4188 
Q 3922 3881 4101 3404 
Q 4281 2928 4281 2316 
Q 4281 1794 4159 1391 
Q 4038 988 3847 723 
Q 3656 459 3429 307 
Q 3203 156 2883 78 
Q 2563 0 2147 0 
L 494 0 
z
M 1100 541 
L 2078 541 
Q 2531 541 2789 625 
Q 3047 709 3200 863 
Q 3416 1078 3536 1442 
Q 3656 1806 3656 2325 
Q 3656 3044 3420 3430 
Q 3184 3816 2847 3947 
Q 2603 4041 2063 4041 
L 1100 4041 
L 1100 541 
z
" transform="scale(0.015625)"/>
      <path id="ArialMT-4f" d="M 309 2231 
Q 309 3372 921 4017 
Q 1534 4663 2503 4663 
Q 3138 4663 3647 4359 
Q 4156 4056 4423 3514 
Q 4691 2972 4691 2284 
Q 4691 1588 4409 1038 
Q 4128 488 3612 205 
Q 3097 -78 2500 -78 
Q 1853 -78 1343 234 
Q 834 547 571 1087 
Q 309 1628 309 2231 
z
M 934 2222 
Q 934 1394 1379 917 
Q 1825 441 2497 441 
Q 3181 441 3623 922 
Q 4066 1403 4066 2288 
Q 4066 2847 3877 3264 
Q 3688 3681 3323 3911 
Q 2959 4141 2506 4141 
Q 1863 4141 1398 3698 
Q 934 3256 934 2222 
z
" transform="scale(0.015625)"/>
      <path id="ArialMT-52" d="M 503 0 
L 503 4581 
L 2534 4581 
Q 3147 4581 3465 4457 
Q 3784 4334 3975 4021 
Q 4166 3709 4166 3331 
Q 4166 2844 3850 2509 
Q 3534 2175 2875 2084 
Q 3116 1969 3241 1856 
Q 3506 1613 3744 1247 
L 4541 0 
L 3778 0 
L 3172 953 
Q 2906 1366 2734 1584 
Q 2563 1803 2427 1890 
Q 2291 1978 2150 2013 
Q 2047 2034 1813 2034 
L 1109 2034 
L 1109 0 
L 503 0 
z
M 1109 2559 
L 2413 2559 
Q 2828 2559 3062 2645 
Q 3297 2731 3419 2920 
Q 3541 3109 3541 3331 
Q 3541 3656 3305 3865 
Q 3069 4075 2559 4075 
L 1109 4075 
L 1109 2559 
z
" transform="scale(0.015625)"/>
      <path id="ArialMT-4d" d="M 475 0 
L 475 4581 
L 1388 4581 
L 2472 1338 
Q 2622 884 2691 659 
Q 2769 909 2934 1394 
L 4031 4581 
L 4847 4581 
L 4847 0 
L 4263 0 
L 4263 3834 
L 2931 0 
L 2384 0 
L 1059 3900 
L 1059 0 
L 475 0 
z
" transform="scale(0.015625)"/>
      <path id="ArialMT-55" d="M 3500 4581 
L 4106 4581 
L 4106 1934 
Q 4106 1244 3950 837 
Q 3794 431 3386 176 
Q 2978 -78 2316 -78 
Q 1672 -78 1262 144 
Q 853 366 678 786 
Q 503 1206 503 1934 
L 503 4581 
L 1109 4581 
L 1109 1938 
Q 1109 1341 1220 1058 
Q 1331 775 1601 622 
Q 1872 469 2263 469 
Q 2931 469 3215 772 
Q 3500 1075 3500 1938 
L 3500 4581 
z
" transform="scale(0.015625)"/>
      <path id="ArialMT-53" d="M 288 1472 
L 859 1522 
Q 900 1178 1048 958 
Q 1197 738 1509 602 
Q 1822 466 2213 466 
Q 2559 466 2825 569 
Q 3091 672 3220 851 
Q 3350 1031 3350 1244 
Q 3350 1459 3225 1620 
Q 3100 1781 2813 1891 
Q 2628 1963 1997 2114 
Q 1366 2266 1113 2400 
Q 784 2572 623 2826 
Q 463 3081 463 3397 
Q 463 3744 659 4045 
Q 856 4347 1234 4503 
Q 1613 4659 2075 4659 
Q 2584 4659 2973 4495 
Q 3363 4331 3572 4012 
Q 3781 3694 3797 3291 
L 3216 3247 
Q 3169 3681 2898 3903 
Q 2628 4125 2100 4125 
Q 1550 4125 1298 3923 
Q 1047 3722 1047 3438 
Q 1047 3191 1225 3031 
Q 1400 2872 2139 2705 
Q 2878 2538 3153 2413 
Q 3553 2228 3743 1945 
Q 3934 1663 3934 1294 
Q 3934 928 3725 604 
Q 3516 281 3123 101 
Q 2731 -78 2241 -78 
Q 1619 -78 1198 103 
Q 778 284 539 648 
Q 300 1013 288 1472 
z
" transform="scale(0.015625)"/>
     </defs>
     <use xlink:href="#ArialMT-54"/>
     <use xlink:href="#ArialMT-48" x="61.083984"/>
     <use xlink:href="#ArialMT-45" x="133.300781"/>
     <use xlink:href="#ArialMT-20" x="200"/>
     <use xlink:href="#ArialMT-44" x="227.783203"/>
     <use xlink:href="#ArialMT-4f" x="300"/>
     <use xlink:href="#ArialMT-52" x="377.783203"/>
     <use xlink:href="#ArialMT-4d" x="450"/>
     <use xlink:href="#ArialMT-4f" x="533.300781"/>
     <use xlink:href="#ArialMT-55" x="611.083984"/>
     <use xlink:href="#ArialMT-53" x="683.300781"/>
     <use xlink:href="#ArialMT-45" x="750"/>
    </g>
   </g>
   <g id="text_12">
    <!-- HARE -->
    <g style="fill: #ffffff" transform="translate(129.487792 136.546299) scale(0.1 -0.1)">
     <defs>
      <path id="ArialMT-41" d="M -9 0 
L 1750 4581 
L 2403 4581 
L 4278 0 
L 3588 0 
L 3053 1388 
L 1138 1388 
L 634 0 
L -9 0 
z
M 1313 1881 
L 2866 1881 
L 2388 3150 
Q 2169 3728 2063 4100 
Q 1975 3659 1816 3225 
L 1313 1881 
z
" transform="scale(0.015625)"/>
     </defs>
     <use xlink:href="#ArialMT-48"/>
     <use xlink:href="#ArialMT-41" x="72.216797"/>
     <use xlink:href="#ArialMT-52" x="138.916016"/>
     <use xlink:href="#ArialMT-45" x="211.132812"/>
    </g>
   </g>
   <g id="text_13">
    <!-- ALICE -->
    <g style="fill: #ffffff" transform="translate(129.487792 89.149728) scale(0.1 -0.1)">
     <defs>
      <path id="ArialMT-4c" d="M 469 0 
L 469 4581 
L 1075 4581 
L 1075 541 
L 3331 541 
L 3331 0 
L 469 0 
z
" transform="scale(0.015625)"/>
      <path id="ArialMT-49" d="M 597 0 
L 597 4581 
L 1203 4581 
L 1203 0 
L 597 0 
z
" transform="scale(0.015625)"/>
      <path id="ArialMT-43" d="M 3763 1606 
L 4369 1453 
Q 4178 706 3683 314 
Q 3188 -78 2472 -78 
Q 1731 -78 1267 223 
Q 803 525 561 1097 
Q 319 1669 319 2325 
Q 319 3041 592 3573 
Q 866 4106 1370 4382 
Q 1875 4659 2481 4659 
Q 3169 4659 3637 4309 
Q 4106 3959 4291 3325 
L 3694 3184 
Q 3534 3684 3231 3912 
Q 2928 4141 2469 4141 
Q 1941 4141 1586 3887 
Q 1231 3634 1087 3207 
Q 944 2781 944 2328 
Q 944 1744 1114 1308 
Q 1284 872 1643 656 
Q 2003 441 2422 441 
Q 2931 441 3284 734 
Q 3638 1028 3763 1606 
z
" transform="scale(0.015625)"/>
     </defs>
     <use xlink:href="#ArialMT-41"/>
     <use xlink:href="#ArialMT-4c" x="66.699219"/>
     <use xlink:href="#ArialMT-49" x="122.314453"/>
     <use xlink:href="#ArialMT-43" x="150.097656"/>
     <use xlink:href="#ArialMT-45" x="222.314453"/>
    </g>
   </g>
  </g>
  <g id="text_14">
   <!-- Alice in Wonderland -->
   <g transform="translate(86.4 23.04) scale(0.22 -0.22)">
    <defs>
     <path id="DejaVuSansMono-Bold-41" d="M 1925 3822 
L 1491 1913 
L 2363 1913 
L 1925 3822 
z
M 1363 4666 
L 2491 4666 
L 3750 0 
L 2828 0 
L 2541 1153 
L 1306 1153 
L 1025 0 
L 103 0 
L 1363 4666 
z
" transform="scale(0.015625)"/>
     <path id="DejaVuSansMono-Bold-6c" d="M 1209 1459 
L 1209 4159 
L 281 4159 
L 281 4863 
L 2125 4863 
L 2125 1459 
Q 2125 1047 2253 875 
Q 2381 703 2688 703 
L 3419 703 
L 3419 0 
L 2431 0 
Q 1778 0 1493 337 
Q 1209 675 1209 1459 
z
" transform="scale(0.015625)"/>
     <path id="DejaVuSansMono-Bold-69" d="M 691 3500 
L 2503 3500 
L 2503 703 
L 3641 703 
L 3641 0 
L 447 0 
L 447 703 
L 1588 703 
L 1588 2797 
L 691 2797 
L 691 3500 
z
M 1588 5203 
L 2503 5203 
L 2503 4134 
L 1588 4134 
L 1588 5203 
z
" transform="scale(0.015625)"/>
     <path id="DejaVuSansMono-Bold-63" d="M 3316 178 
Q 3084 44 2818 -23 
Q 2553 -91 2247 -91 
Q 1438 -91 981 396 
Q 525 884 525 1747 
Q 525 2613 984 3102 
Q 1444 3591 2253 3591 
Q 2534 3591 2795 3525 
Q 3056 3459 3316 3322 
L 3316 2484 
Q 3116 2656 2877 2748 
Q 2638 2841 2381 2841 
Q 1934 2841 1693 2556 
Q 1453 2272 1453 1747 
Q 1453 1222 1693 940 
Q 1934 659 2381 659 
Q 2647 659 2878 748 
Q 3109 838 3316 1019 
L 3316 178 
z
" transform="scale(0.015625)"/>
     <path id="DejaVuSansMono-Bold-65" d="M 3444 172 
Q 3125 41 2794 -25 
Q 2463 -91 2094 -91 
Q 1216 -91 752 379 
Q 288 850 288 1734 
Q 288 2591 734 3087 
Q 1181 3584 1953 3584 
Q 2731 3584 3161 3123 
Q 3591 2663 3591 1825 
L 3591 1453 
L 1219 1453 
Q 1222 1041 1462 837 
Q 1703 634 2181 634 
Q 2497 634 2803 725 
Q 3109 816 3444 1013 
L 3444 172 
z
M 2669 2141 
Q 2663 2503 2483 2689 
Q 2303 2875 1953 2875 
Q 1638 2875 1450 2683 
Q 1263 2491 1228 2138 
L 2669 2141 
z
" transform="scale(0.015625)"/>
     <path id="DejaVuSansMono-Bold-20" transform="scale(0.015625)"/>
     <path id="DejaVuSansMono-Bold-6e" d="M 3347 2272 
L 3347 0 
L 2438 0 
L 2438 2131 
Q 2438 2513 2330 2677 
Q 2222 2841 1978 2841 
Q 1731 2841 1589 2619 
Q 1447 2397 1447 2003 
L 1447 0 
L 538 0 
L 538 3500 
L 1447 3500 
L 1447 2975 
Q 1544 3266 1778 3425 
Q 2013 3584 2344 3584 
Q 2841 3584 3094 3254 
Q 3347 2925 3347 2272 
z
" transform="scale(0.015625)"/>
     <path id="DejaVuSansMono-Bold-57" d="M 0 4666 
L 806 4666 
L 1141 1241 
L 1544 3456 
L 2309 3456 
L 2778 1241 
L 3041 4666 
L 3853 4666 
L 3316 0 
L 2456 0 
L 1925 2450 
L 1428 0 
L 575 0 
L 0 4666 
z
" transform="scale(0.015625)"/>
     <path id="DejaVuSansMono-Bold-6f" d="M 1925 2841 
Q 1597 2841 1409 2552 
Q 1222 2263 1222 1747 
Q 1222 1231 1409 942 
Q 1597 653 1925 653 
Q 2256 653 2443 942 
Q 2631 1231 2631 1747 
Q 2631 2263 2443 2552 
Q 2256 2841 1925 2841 
z
M 306 1747 
Q 306 2594 745 3089 
Q 1184 3584 1925 3584 
Q 2669 3584 3108 3089 
Q 3547 2594 3547 1747 
Q 3547 900 3108 404 
Q 2669 -91 1925 -91 
Q 1184 -91 745 404 
Q 306 900 306 1747 
z
" transform="scale(0.015625)"/>
     <path id="DejaVuSansMono-Bold-64" d="M 2472 3003 
L 2472 4863 
L 3384 4863 
L 3384 0 
L 2472 0 
L 2472 519 
Q 2325 216 2092 62 
Q 1859 -91 1544 -91 
Q 944 -91 612 390 
Q 281 872 281 1747 
Q 281 2634 617 3109 
Q 953 3584 1575 3584 
Q 1856 3584 2079 3439 
Q 2303 3294 2472 3003 
z
M 1197 1741 
Q 1197 1234 1365 946 
Q 1534 659 1831 659 
Q 2128 659 2300 946 
Q 2472 1234 2472 1741 
Q 2472 2247 2300 2534 
Q 2128 2822 1831 2822 
Q 1534 2822 1365 2534 
Q 1197 2247 1197 1741 
z
" transform="scale(0.015625)"/>
     <path id="DejaVuSansMono-Bold-72" d="M 3597 2534 
Q 3447 2672 3245 2740 
Q 3044 2809 2803 2809 
Q 2513 2809 2295 2707 
Q 2078 2606 1959 2413 
Q 1884 2294 1854 2125 
Q 1825 1956 1825 1613 
L 1825 0 
L 909 0 
L 909 3500 
L 1825 3500 
L 1825 2956 
Q 1959 3256 2237 3420 
Q 2516 3584 2888 3584 
Q 3075 3584 3254 3539 
Q 3434 3494 3597 3406 
L 3597 2534 
z
" transform="scale(0.015625)"/>
     <path id="DejaVuSansMono-Bold-61" d="M 2188 1644 
Q 1675 1644 1472 1512 
Q 1269 1381 1269 1063 
Q 1269 825 1409 684 
Q 1550 544 1791 544 
Q 2153 544 2353 817 
Q 2553 1091 2553 1581 
L 2553 1644 
L 2188 1644 
z
M 3463 1997 
L 3463 0 
L 2553 0 
L 2553 391 
Q 2388 159 2128 34 
Q 1869 -91 1556 -91 
Q 959 -91 626 225 
Q 294 541 294 1106 
Q 294 1719 691 2011 
Q 1088 2303 1919 2303 
L 2553 2303 
L 2553 2456 
Q 2553 2678 2392 2792 
Q 2231 2906 1919 2906 
Q 1591 2906 1283 2823 
Q 975 2741 641 2559 
L 641 3341 
Q 944 3466 1256 3525 
Q 1569 3584 1919 3584 
Q 2772 3584 3117 3237 
Q 3463 2891 3463 1997 
z
" transform="scale(0.015625)"/>
    </defs>
    <use xlink:href="#DejaVuSansMono-Bold-41"/>
    <use xlink:href="#DejaVuSansMono-Bold-6c" x="60.205078"/>
    <use xlink:href="#DejaVuSansMono-Bold-69" x="120.410156"/>
    <use xlink:href="#DejaVuSansMono-Bold-63" x="180.615234"/>
    <use xlink:href="#DejaVuSansMono-Bold-65" x="240.820312"/>
    <use xlink:href="#DejaVuSansMono-Bold-20" x="301.025391"/>
    <use xlink:href="#DejaVuSansMono-Bold-69" x="361.230469"/>
    <use xlink:href="#DejaVuSansMono-Bold-6e" x="421.435547"/>
    <use xlink:href="#DejaVuSansMono-Bold-20" x="481.640625"/>
    <use xlink:href="#DejaVuSansMono-Bold-57" x="541.845703"/>
    <use xlink:href="#DejaVuSansMono-Bold-6f" x="602.050781"/>
    <use xlink:href="#DejaVuSansMono-Bold-6e" x="662.255859"/>
    <use xlink:href="#DejaVuSansMono-Bold-64" x="722.460938"/>
    <use xlink:href="#DejaVuSansMono-Bold-65" x="782.666016"/>
    <use xlink:href="#DejaVuSansMono-Bold-72" x="842.871094"/>
    <use xlink:href="#DejaVuSansMono-Bold-6c" x="903.076172"/>
    <use xlink:href="#DejaVuSansMono-Bold-61" x="963.28125"/>
    <use xlink:href="#DejaVuSansMono-Bold-6e" x="1023.486328"/>
    <use xlink:href="#DejaVuSansMono-Bold-64" x="1083.691406"/>
   </g>
  </g>
  <g id="text_15">
   <!-- Who is The Hatter talking to ? -->
   <g transform="translate(86.4 37.44) scale(0.16 -0.16)">
    <defs>
     <path id="DejaVuSansMono-57" d="M 0 4666 
L 616 4666 
L 1063 878 
L 1594 3384 
L 2253 3384 
L 2791 872 
L 3238 4666 
L 3853 4666 
L 3156 0 
L 2559 0 
L 1925 2772 
L 1294 0 
L 697 0 
L 0 4666 
z
" transform="scale(0.015625)"/>
     <path id="DejaVuSansMono-68" d="M 3284 2169 
L 3284 0 
L 2706 0 
L 2706 2169 
Q 2706 2641 2540 2862 
Q 2375 3084 2022 3084 
Q 1619 3084 1401 2798 
Q 1184 2513 1184 1978 
L 1184 0 
L 609 0 
L 609 4863 
L 1184 4863 
L 1184 2975 
Q 1338 3275 1600 3429 
Q 1863 3584 2222 3584 
Q 2756 3584 3020 3232 
Q 3284 2881 3284 2169 
z
" transform="scale(0.015625)"/>
     <path id="DejaVuSansMono-6f" d="M 1925 3097 
Q 1488 3097 1263 2756 
Q 1038 2416 1038 1747 
Q 1038 1081 1263 739 
Q 1488 397 1925 397 
Q 2366 397 2591 739 
Q 2816 1081 2816 1747 
Q 2816 2416 2591 2756 
Q 2366 3097 1925 3097 
z
M 1925 3584 
Q 2653 3584 3039 3112 
Q 3425 2641 3425 1747 
Q 3425 850 3040 379 
Q 2656 -91 1925 -91 
Q 1197 -91 812 379 
Q 428 850 428 1747 
Q 428 2641 812 3112 
Q 1197 3584 1925 3584 
z
" transform="scale(0.015625)"/>
     <path id="DejaVuSansMono-20" transform="scale(0.015625)"/>
     <path id="DejaVuSansMono-69" d="M 800 3500 
L 2272 3500 
L 2272 447 
L 3413 447 
L 3413 0 
L 556 0 
L 556 447 
L 1697 447 
L 1697 3053 
L 800 3053 
L 800 3500 
z
M 1697 4863 
L 2272 4863 
L 2272 4134 
L 1697 4134 
L 1697 4863 
z
" transform="scale(0.015625)"/>
     <path id="DejaVuSansMono-73" d="M 3041 3378 
L 3041 2816 
Q 2794 2959 2544 3031 
Q 2294 3103 2034 3103 
Q 1644 3103 1451 2976 
Q 1259 2850 1259 2591 
Q 1259 2356 1403 2240 
Q 1547 2125 2119 2016 
L 2350 1972 
Q 2778 1891 2998 1647 
Q 3219 1403 3219 1013 
Q 3219 494 2850 201 
Q 2481 -91 1825 -91 
Q 1566 -91 1281 -36 
Q 997 19 666 128 
L 666 722 
Q 988 556 1281 473 
Q 1575 391 1838 391 
Q 2219 391 2428 545 
Q 2638 700 2638 978 
Q 2638 1378 1872 1531 
L 1847 1538 
L 1631 1581 
Q 1134 1678 906 1908 
Q 678 2138 678 2534 
Q 678 3038 1018 3311 
Q 1359 3584 1991 3584 
Q 2272 3584 2531 3532 
Q 2791 3481 3041 3378 
z
" transform="scale(0.015625)"/>
     <path id="DejaVuSansMono-54" d="M 147 4666 
L 3706 4666 
L 3706 4134 
L 2247 4134 
L 2247 0 
L 1613 0 
L 1613 4134 
L 147 4134 
L 147 4666 
z
" transform="scale(0.015625)"/>
     <path id="DejaVuSansMono-65" d="M 3475 1894 
L 3475 1613 
L 984 1613 
L 984 1594 
Q 984 1022 1282 709 
Q 1581 397 2125 397 
Q 2400 397 2700 484 
Q 3000 572 3341 750 
L 3341 178 
Q 3013 44 2708 -23 
Q 2403 -91 2119 -91 
Q 1303 -91 843 398 
Q 384 888 384 1747 
Q 384 2584 834 3084 
Q 1284 3584 2034 3584 
Q 2703 3584 3089 3131 
Q 3475 2678 3475 1894 
z
M 2900 2063 
Q 2888 2569 2661 2833 
Q 2434 3097 2009 3097 
Q 1594 3097 1325 2822 
Q 1056 2547 1006 2059 
L 2900 2063 
z
" transform="scale(0.015625)"/>
     <path id="DejaVuSansMono-48" d="M 428 4666 
L 1063 4666 
L 1063 2753 
L 2791 2753 
L 2791 4666 
L 3425 4666 
L 3425 0 
L 2791 0 
L 2791 2222 
L 1063 2222 
L 1063 0 
L 428 0 
L 428 4666 
z
" transform="scale(0.015625)"/>
     <path id="DejaVuSansMono-61" d="M 2194 1759 
L 2003 1759 
Q 1500 1759 1245 1582 
Q 991 1406 991 1056 
Q 991 741 1181 566 
Q 1372 391 1709 391 
Q 2184 391 2456 720 
Q 2728 1050 2731 1631 
L 2731 1759 
L 2194 1759 
z
M 3309 1997 
L 3309 0 
L 2731 0 
L 2731 519 
Q 2547 206 2267 57 
Q 1988 -91 1588 -91 
Q 1053 -91 734 211 
Q 416 513 416 1019 
Q 416 1603 808 1906 
Q 1200 2209 1959 2209 
L 2731 2209 
L 2731 2300 
Q 2728 2719 2518 2908 
Q 2309 3097 1850 3097 
Q 1556 3097 1256 3012 
Q 956 2928 672 2766 
L 672 3341 
Q 991 3463 1283 3523 
Q 1575 3584 1850 3584 
Q 2284 3584 2592 3456 
Q 2900 3328 3091 3072 
Q 3209 2916 3259 2686 
Q 3309 2456 3309 1997 
z
" transform="scale(0.015625)"/>
     <path id="DejaVuSansMono-74" d="M 1919 4494 
L 1919 3500 
L 3225 3500 
L 3225 3053 
L 1919 3053 
L 1919 1153 
Q 1919 766 2066 612 
Q 2213 459 2578 459 
L 3225 459 
L 3225 0 
L 2522 0 
Q 1875 0 1609 259 
Q 1344 519 1344 1153 
L 1344 3053 
L 409 3053 
L 409 3500 
L 1344 3500 
L 1344 4494 
L 1919 4494 
z
" transform="scale(0.015625)"/>
     <path id="DejaVuSansMono-72" d="M 3609 2778 
Q 3425 2922 3234 2987 
Q 3044 3053 2816 3053 
Q 2278 3053 1993 2715 
Q 1709 2378 1709 1741 
L 1709 0 
L 1131 0 
L 1131 3500 
L 1709 3500 
L 1709 2816 
Q 1853 3188 2151 3386 
Q 2450 3584 2859 3584 
Q 3072 3584 3256 3531 
Q 3441 3478 3609 3366 
L 3609 2778 
z
" transform="scale(0.015625)"/>
     <path id="DejaVuSansMono-6c" d="M 1997 1269 
Q 1997 881 2139 684 
Q 2281 488 2559 488 
L 3231 488 
L 3231 0 
L 2503 0 
Q 1988 0 1705 331 
Q 1422 663 1422 1269 
L 1422 4447 
L 500 4447 
L 500 4897 
L 1997 4897 
L 1997 1269 
z
" transform="scale(0.015625)"/>
     <path id="DejaVuSansMono-6b" d="M 738 4863 
L 1331 4863 
L 1331 2047 
L 2841 3500 
L 3541 3500 
L 2163 2181 
L 3756 0 
L 3053 0 
L 1759 1806 
L 1331 1403 
L 1331 0 
L 738 0 
L 738 4863 
z
" transform="scale(0.015625)"/>
     <path id="DejaVuSansMono-6e" d="M 3284 2169 
L 3284 0 
L 2706 0 
L 2706 2169 
Q 2706 2641 2540 2862 
Q 2375 3084 2022 3084 
Q 1619 3084 1401 2798 
Q 1184 2513 1184 1978 
L 1184 0 
L 609 0 
L 609 3500 
L 1184 3500 
L 1184 2975 
Q 1338 3275 1600 3429 
Q 1863 3584 2222 3584 
Q 2756 3584 3020 3232 
Q 3284 2881 3284 2169 
z
" transform="scale(0.015625)"/>
     <path id="DejaVuSansMono-67" d="M 2681 1778 
Q 2681 2425 2470 2761 
Q 2259 3097 1856 3097 
Q 1434 3097 1212 2761 
Q 991 2425 991 1778 
Q 991 1131 1214 792 
Q 1438 453 1863 453 
Q 2259 453 2470 793 
Q 2681 1134 2681 1778 
z
M 3256 225 
Q 3256 -563 2884 -969 
Q 2513 -1375 1791 -1375 
Q 1553 -1375 1293 -1331 
Q 1034 -1288 775 -1203 
L 775 -634 
Q 1081 -778 1331 -847 
Q 1581 -916 1791 -916 
Q 2256 -916 2468 -662 
Q 2681 -409 2681 141 
L 2681 166 
L 2681 556 
Q 2544 263 2306 119 
Q 2069 -25 1728 -25 
Q 1116 -25 750 465 
Q 384 956 384 1778 
Q 384 2603 750 3093 
Q 1116 3584 1728 3584 
Q 2066 3584 2300 3450 
Q 2534 3316 2681 3034 
L 2681 3488 
L 3256 3488 
L 3256 225 
z
" transform="scale(0.015625)"/>
     <path id="DejaVuSansMono-3f" d="M 2138 1253 
L 1544 1253 
L 1544 1734 
Q 1544 2041 1639 2255 
Q 1734 2469 1997 2725 
L 2278 3003 
Q 2472 3188 2545 3325 
Q 2619 3463 2619 3616 
Q 2619 3894 2414 4066 
Q 2209 4238 1869 4238 
Q 1625 4238 1347 4130 
Q 1069 4022 763 3809 
L 763 4397 
Q 1056 4575 1354 4662 
Q 1653 4750 1978 4750 
Q 2559 4750 2904 4450 
Q 3250 4150 3250 3647 
Q 3250 3409 3145 3204 
Q 3041 3000 2747 2713 
L 2472 2444 
Q 2256 2238 2197 2106 
Q 2138 1975 2138 1784 
L 2138 1638 
L 2138 1253 
z
M 1522 794 
L 2156 794 
L 2156 0 
L 1522 0 
L 1522 794 
z
" transform="scale(0.015625)"/>
    </defs>
    <use xlink:href="#DejaVuSansMono-57"/>
    <use xlink:href="#DejaVuSansMono-68" x="60.205078"/>
    <use xlink:href="#DejaVuSansMono-6f" x="120.410156"/>
    <use xlink:href="#DejaVuSansMono-20" x="180.615234"/>
    <use xlink:href="#DejaVuSansMono-69" x="240.820312"/>
    <use xlink:href="#DejaVuSansMono-73" x="301.025391"/>
    <use xlink:href="#DejaVuSansMono-20" x="361.230469"/>
    <use xlink:href="#DejaVuSansMono-54" x="421.435547"/>
    <use xlink:href="#DejaVuSansMono-68" x="481.640625"/>
    <use xlink:href="#DejaVuSansMono-65" x="541.845703"/>
    <use xlink:href="#DejaVuSansMono-20" x="602.050781"/>
    <use xlink:href="#DejaVuSansMono-48" x="662.255859"/>
    <use xlink:href="#DejaVuSansMono-61" x="722.460938"/>
    <use xlink:href="#DejaVuSansMono-74" x="782.666016"/>
    <use xlink:href="#DejaVuSansMono-74" x="842.871094"/>
    <use xlink:href="#DejaVuSansMono-65" x="903.076172"/>
    <use xlink:href="#DejaVuSansMono-72" x="963.28125"/>
    <use xlink:href="#DejaVuSansMono-20" x="1023.486328"/>
    <use xlink:href="#DejaVuSansMono-74" x="1083.691406"/>
    <use xlink:href="#DejaVuSansMono-61" x="1143.896484"/>
    <use xlink:href="#DejaVuSansMono-6c" x="1204.101562"/>
    <use xlink:href="#DejaVuSansMono-6b" x="1264.306641"/>
    <use xlink:href="#DejaVuSansMono-69" x="1324.511719"/>
    <use xlink:href="#DejaVuSansMono-6e" x="1384.716797"/>
    <use xlink:href="#DejaVuSansMono-67" x="1444.921875"/>
    <use xlink:href="#DejaVuSansMono-20" x="1505.126953"/>
    <use xlink:href="#DejaVuSansMono-74" x="1565.332031"/>
    <use xlink:href="#DejaVuSansMono-6f" x="1625.537109"/>
    <use xlink:href="#DejaVuSansMono-20" x="1685.742188"/>
    <use xlink:href="#DejaVuSansMono-3f" x="1745.947266"/>
   </g>
  </g>
  <g id="text_16">
   <!-- Source: Project Dialog,Github -->
   <g style="fill: #808080" transform="translate(86.4 547.2) scale(0.1 -0.1)">
    <defs>
     <path id="DejaVuSansMono-53" d="M 3163 4506 
L 3163 3866 
Q 2875 4050 2586 4144 
Q 2297 4238 2003 4238 
Q 1556 4238 1297 4030 
Q 1038 3822 1038 3469 
Q 1038 3159 1208 2996 
Q 1378 2834 1844 2725 
L 2175 2650 
Q 2831 2497 3131 2169 
Q 3431 1841 3431 1275 
Q 3431 609 3018 259 
Q 2606 -91 1819 -91 
Q 1491 -91 1159 -20 
Q 828 50 494 191 
L 494 863 
Q 853 634 1173 528 
Q 1494 422 1819 422 
Q 2297 422 2562 636 
Q 2828 850 2828 1234 
Q 2828 1584 2645 1768 
Q 2463 1953 2009 2053 
L 1672 2131 
Q 1022 2278 728 2575 
Q 434 2872 434 3372 
Q 434 3997 854 4373 
Q 1275 4750 1972 4750 
Q 2241 4750 2537 4689 
Q 2834 4628 3163 4506 
z
" transform="scale(0.015625)"/>
     <path id="DejaVuSansMono-75" d="M 609 1325 
L 609 3494 
L 1184 3494 
L 1184 1325 
Q 1184 853 1351 631 
Q 1519 409 1869 409 
Q 2275 409 2490 695 
Q 2706 981 2706 1516 
L 2706 3494 
L 3284 3494 
L 3284 0 
L 2706 0 
L 2706 525 
Q 2553 222 2289 65 
Q 2025 -91 1672 -91 
Q 1134 -91 871 261 
Q 609 613 609 1325 
z
" transform="scale(0.015625)"/>
     <path id="DejaVuSansMono-63" d="M 3316 178 
Q 3084 44 2839 -23 
Q 2594 -91 2338 -91 
Q 1525 -91 1067 396 
Q 609 884 609 1747 
Q 609 2609 1067 3096 
Q 1525 3584 2338 3584 
Q 2591 3584 2831 3518 
Q 3072 3453 3316 3316 
L 3316 2713 
Q 3088 2916 2858 3006 
Q 2628 3097 2338 3097 
Q 1797 3097 1506 2747 
Q 1216 2397 1216 1747 
Q 1216 1100 1508 748 
Q 1800 397 2338 397 
Q 2638 397 2875 489 
Q 3113 581 3316 775 
L 3316 178 
z
" transform="scale(0.015625)"/>
     <path id="DejaVuSansMono-3a" d="M 1528 3322 
L 2316 3322 
L 2316 2375 
L 1528 2375 
L 1528 3322 
z
M 1528 953 
L 2316 953 
L 2316 0 
L 1528 0 
L 1528 953 
z
" transform="scale(0.015625)"/>
     <path id="DejaVuSansMono-50" d="M 1247 4147 
L 1247 2394 
L 1978 2394 
Q 2416 2394 2661 2625 
Q 2906 2856 2906 3272 
Q 2906 3688 2662 3917 
Q 2419 4147 1978 4147 
L 1247 4147 
z
M 616 4666 
L 1978 4666 
Q 2759 4666 3162 4311 
Q 3566 3956 3566 3272 
Q 3566 2581 3164 2228 
Q 2763 1875 1978 1875 
L 1247 1875 
L 1247 0 
L 616 0 
L 616 4666 
z
" transform="scale(0.015625)"/>
     <path id="DejaVuSansMono-6a" d="M 1875 -63 
L 1875 3053 
L 884 3053 
L 884 3500 
L 2450 3500 
L 2450 -63 
Q 2450 -672 2170 -1001 
Q 1891 -1331 1375 -1331 
L 581 -1331 
L 581 -844 
L 1313 -844 
Q 1594 -844 1734 -648 
Q 1875 -453 1875 -63 
z
M 1875 4863 
L 2450 4863 
L 2450 4134 
L 1875 4134 
L 1875 4863 
z
" transform="scale(0.015625)"/>
     <path id="DejaVuSansMono-44" d="M 1363 519 
Q 2159 519 2475 911 
Q 2791 1303 2791 2328 
Q 2791 3363 2477 3755 
Q 2163 4147 1363 4147 
L 1063 4147 
L 1063 519 
L 1363 519 
z
M 1375 4666 
Q 2444 4666 2950 4097 
Q 3456 3528 3456 2328 
Q 3456 1134 2950 567 
Q 2444 0 1375 0 
L 428 0 
L 428 4666 
L 1375 4666 
z
" transform="scale(0.015625)"/>
     <path id="DejaVuSansMono-2c" d="M 1569 947 
L 2356 947 
L 2356 300 
L 1741 -897 
L 1259 -897 
L 1569 300 
L 1569 947 
z
" transform="scale(0.015625)"/>
     <path id="DejaVuSansMono-47" d="M 3450 384 
Q 3197 150 2880 29 
Q 2563 -91 2194 -91 
Q 1306 -91 812 545 
Q 319 1181 319 2328 
Q 319 3472 819 4111 
Q 1319 4750 2209 4750 
Q 2503 4750 2772 4667 
Q 3041 4584 3291 4416 
L 3291 3769 
Q 3038 4009 2772 4123 
Q 2506 4238 2209 4238 
Q 1594 4238 1286 3761 
Q 978 3284 978 2328 
Q 978 1356 1276 889 
Q 1575 422 2194 422 
Q 2403 422 2561 470 
Q 2719 519 2847 622 
L 2847 1875 
L 2169 1875 
L 2169 2394 
L 3450 2394 
L 3450 384 
z
" transform="scale(0.015625)"/>
     <path id="DejaVuSansMono-62" d="M 2869 1747 
Q 2869 2416 2656 2756 
Q 2444 3097 2028 3097 
Q 1609 3097 1393 2755 
Q 1178 2413 1178 1747 
Q 1178 1084 1393 740 
Q 1609 397 2028 397 
Q 2444 397 2656 737 
Q 2869 1078 2869 1747 
z
M 1178 3053 
Q 1316 3309 1558 3446 
Q 1800 3584 2119 3584 
Q 2750 3584 3112 3098 
Q 3475 2613 3475 1759 
Q 3475 894 3111 401 
Q 2747 -91 2113 -91 
Q 1800 -91 1561 45 
Q 1322 181 1178 441 
L 1178 0 
L 603 0 
L 603 4863 
L 1178 4863 
L 1178 3053 
z
" transform="scale(0.015625)"/>
    </defs>
    <use xlink:href="#DejaVuSansMono-53"/>
    <use xlink:href="#DejaVuSansMono-6f" x="60.205078"/>
    <use xlink:href="#DejaVuSansMono-75" x="120.410156"/>
    <use xlink:href="#DejaVuSansMono-72" x="180.615234"/>
    <use xlink:href="#DejaVuSansMono-63" x="240.820312"/>
    <use xlink:href="#DejaVuSansMono-65" x="301.025391"/>
    <use xlink:href="#DejaVuSansMono-3a" x="361.230469"/>
    <use xlink:href="#DejaVuSansMono-20" x="421.435547"/>
    <use xlink:href="#DejaVuSansMono-50" x="481.640625"/>
    <use xlink:href="#DejaVuSansMono-72" x="541.845703"/>
    <use xlink:href="#DejaVuSansMono-6f" x="602.050781"/>
    <use xlink:href="#DejaVuSansMono-6a" x="662.255859"/>
    <use xlink:href="#DejaVuSansMono-65" x="722.460938"/>
    <use xlink:href="#DejaVuSansMono-63" x="782.666016"/>
    <use xlink:href="#DejaVuSansMono-74" x="842.871094"/>
    <use xlink:href="#DejaVuSansMono-20" x="903.076172"/>
    <use xlink:href="#DejaVuSansMono-44" x="963.28125"/>
    <use xlink:href="#DejaVuSansMono-69" x="1023.486328"/>
    <use xlink:href="#DejaVuSansMono-61" x="1083.691406"/>
    <use xlink:href="#DejaVuSansMono-6c" x="1143.896484"/>
    <use xlink:href="#DejaVuSansMono-6f" x="1204.101562"/>
    <use xlink:href="#DejaVuSansMono-67" x="1264.306641"/>
    <use xlink:href="#DejaVuSansMono-2c" x="1324.511719"/>
    <use xlink:href="#DejaVuSansMono-47" x="1384.716797"/>
    <use xlink:href="#DejaVuSansMono-69" x="1444.921875"/>
    <use xlink:href="#DejaVuSansMono-74" x="1505.126953"/>
    <use xlink:href="#DejaVuSansMono-68" x="1565.332031"/>
    <use xlink:href="#DejaVuSansMono-75" x="1625.537109"/>
    <use xlink:href="#DejaVuSansMono-62" x="1685.742188"/>
   </g>
  </g>
  <g id="text_17">
   <!-- @lagom-QB; 2023 -->
   <g style="fill: #808080" transform="translate(86.4 564.48) scale(0.12 -0.12)">
    <defs>
     <path id="ArialMT-40" d="M 3628 509 
Q 3425 275 3173 133 
Q 2922 -9 2669 -9 
Q 2391 -9 2128 153 
Q 1866 316 1702 653 
Q 1538 991 1538 1394 
Q 1538 1891 1792 2389 
Q 2047 2888 2425 3138 
Q 2803 3388 3159 3388 
Q 3431 3388 3678 3245 
Q 3925 3103 4103 2813 
L 4209 3297 
L 4769 3297 
L 4319 1200 
Q 4225 763 4225 716 
Q 4225 631 4289 570 
Q 4353 509 4444 509 
Q 4609 509 4878 700 
Q 5234 950 5442 1370 
Q 5650 1791 5650 2238 
Q 5650 2759 5383 3212 
Q 5116 3666 4586 3937 
Q 4056 4209 3416 4209 
Q 2684 4209 2079 3867 
Q 1475 3525 1142 2886 
Q 809 2247 809 1516 
Q 809 750 1142 197 
Q 1475 -356 2104 -620 
Q 2734 -884 3500 -884 
Q 4319 -884 4872 -609 
Q 5425 -334 5700 59 
L 6266 59 
Q 6106 -269 5718 -609 
Q 5331 -950 4797 -1148 
Q 4263 -1347 3509 -1347 
Q 2816 -1347 2230 -1169 
Q 1644 -991 1231 -633 
Q 819 -275 609 191 
Q 347 781 347 1466 
Q 347 2228 659 2919 
Q 1041 3766 1742 4216 
Q 2444 4666 3444 4666 
Q 4219 4666 4836 4348 
Q 5453 4031 5809 3403 
Q 6113 2863 6113 2228 
Q 6113 1322 5475 619 
Q 4906 -13 4231 -13 
Q 4016 -13 3883 53 
Q 3750 119 3688 241 
Q 3647 319 3628 509 
z
M 2116 1356 
Q 2116 928 2319 690 
Q 2522 453 2784 453 
Q 2959 453 3153 558 
Q 3347 663 3523 869 
Q 3700 1075 3812 1392 
Q 3925 1709 3925 2028 
Q 3925 2453 3714 2687 
Q 3503 2922 3200 2922 
Q 3000 2922 2823 2820 
Q 2647 2719 2481 2494 
Q 2316 2269 2216 1947 
Q 2116 1625 2116 1356 
z
" transform="scale(0.015625)"/>
     <path id="ArialMT-6c" d="M 409 0 
L 409 4581 
L 972 4581 
L 972 0 
L 409 0 
z
" transform="scale(0.015625)"/>
     <path id="ArialMT-61" d="M 2588 409 
Q 2275 144 1986 34 
Q 1697 -75 1366 -75 
Q 819 -75 525 192 
Q 231 459 231 875 
Q 231 1119 342 1320 
Q 453 1522 633 1644 
Q 813 1766 1038 1828 
Q 1203 1872 1538 1913 
Q 2219 1994 2541 2106 
Q 2544 2222 2544 2253 
Q 2544 2597 2384 2738 
Q 2169 2928 1744 2928 
Q 1347 2928 1158 2789 
Q 969 2650 878 2297 
L 328 2372 
Q 403 2725 575 2942 
Q 747 3159 1072 3276 
Q 1397 3394 1825 3394 
Q 2250 3394 2515 3294 
Q 2781 3194 2906 3042 
Q 3031 2891 3081 2659 
Q 3109 2516 3109 2141 
L 3109 1391 
Q 3109 606 3145 398 
Q 3181 191 3288 0 
L 2700 0 
Q 2613 175 2588 409 
z
M 2541 1666 
Q 2234 1541 1622 1453 
Q 1275 1403 1131 1340 
Q 988 1278 909 1158 
Q 831 1038 831 891 
Q 831 666 1001 516 
Q 1172 366 1500 366 
Q 1825 366 2078 508 
Q 2331 650 2450 897 
Q 2541 1088 2541 1459 
L 2541 1666 
z
" transform="scale(0.015625)"/>
     <path id="ArialMT-67" d="M 319 -275 
L 866 -356 
Q 900 -609 1056 -725 
Q 1266 -881 1628 -881 
Q 2019 -881 2231 -725 
Q 2444 -569 2519 -288 
Q 2563 -116 2559 434 
Q 2191 0 1641 0 
Q 956 0 581 494 
Q 206 988 206 1678 
Q 206 2153 378 2554 
Q 550 2956 876 3175 
Q 1203 3394 1644 3394 
Q 2231 3394 2613 2919 
L 2613 3319 
L 3131 3319 
L 3131 450 
Q 3131 -325 2973 -648 
Q 2816 -972 2473 -1159 
Q 2131 -1347 1631 -1347 
Q 1038 -1347 672 -1080 
Q 306 -813 319 -275 
z
M 784 1719 
Q 784 1066 1043 766 
Q 1303 466 1694 466 
Q 2081 466 2343 764 
Q 2606 1063 2606 1700 
Q 2606 2309 2336 2618 
Q 2066 2928 1684 2928 
Q 1309 2928 1046 2623 
Q 784 2319 784 1719 
z
" transform="scale(0.015625)"/>
     <path id="ArialMT-6f" d="M 213 1659 
Q 213 2581 725 3025 
Q 1153 3394 1769 3394 
Q 2453 3394 2887 2945 
Q 3322 2497 3322 1706 
Q 3322 1066 3130 698 
Q 2938 331 2570 128 
Q 2203 -75 1769 -75 
Q 1072 -75 642 372 
Q 213 819 213 1659 
z
M 791 1659 
Q 791 1022 1069 705 
Q 1347 388 1769 388 
Q 2188 388 2466 706 
Q 2744 1025 2744 1678 
Q 2744 2294 2464 2611 
Q 2184 2928 1769 2928 
Q 1347 2928 1069 2612 
Q 791 2297 791 1659 
z
" transform="scale(0.015625)"/>
     <path id="ArialMT-6d" d="M 422 0 
L 422 3319 
L 925 3319 
L 925 2853 
Q 1081 3097 1340 3245 
Q 1600 3394 1931 3394 
Q 2300 3394 2536 3241 
Q 2772 3088 2869 2813 
Q 3263 3394 3894 3394 
Q 4388 3394 4653 3120 
Q 4919 2847 4919 2278 
L 4919 0 
L 4359 0 
L 4359 2091 
Q 4359 2428 4304 2576 
Q 4250 2725 4106 2815 
Q 3963 2906 3769 2906 
Q 3419 2906 3187 2673 
Q 2956 2441 2956 1928 
L 2956 0 
L 2394 0 
L 2394 2156 
Q 2394 2531 2256 2718 
Q 2119 2906 1806 2906 
Q 1569 2906 1367 2781 
Q 1166 2656 1075 2415 
Q 984 2175 984 1722 
L 984 0 
L 422 0 
z
" transform="scale(0.015625)"/>
     <path id="ArialMT-2d" d="M 203 1375 
L 203 1941 
L 1931 1941 
L 1931 1375 
L 203 1375 
z
" transform="scale(0.015625)"/>
     <path id="ArialMT-51" d="M 3966 491 
Q 4388 200 4744 66 
L 4566 -356 
Q 4072 -178 3581 206 
Q 3072 -78 2456 -78 
Q 1834 -78 1328 222 
Q 822 522 548 1065 
Q 275 1609 275 2291 
Q 275 2969 550 3525 
Q 825 4081 1333 4372 
Q 1841 4663 2469 4663 
Q 3103 4663 3612 4361 
Q 4122 4059 4389 3517 
Q 4656 2975 4656 2294 
Q 4656 1728 4484 1276 
Q 4313 825 3966 491 
z
M 2631 1266 
Q 3156 1119 3497 828 
Q 4031 1316 4031 2294 
Q 4031 2850 3842 3265 
Q 3653 3681 3289 3911 
Q 2925 4141 2472 4141 
Q 1794 4141 1347 3677 
Q 900 3213 900 2291 
Q 900 1397 1342 919 
Q 1784 441 2472 441 
Q 2797 441 3084 563 
Q 2800 747 2484 825 
L 2631 1266 
z
" transform="scale(0.015625)"/>
     <path id="ArialMT-42" d="M 469 0 
L 469 4581 
L 2188 4581 
Q 2713 4581 3030 4442 
Q 3347 4303 3526 4014 
Q 3706 3725 3706 3409 
Q 3706 3116 3547 2856 
Q 3388 2597 3066 2438 
Q 3481 2316 3704 2022 
Q 3928 1728 3928 1328 
Q 3928 1006 3792 729 
Q 3656 453 3456 303 
Q 3256 153 2954 76 
Q 2653 0 2216 0 
L 469 0 
z
M 1075 2656 
L 2066 2656 
Q 2469 2656 2644 2709 
Q 2875 2778 2992 2937 
Q 3109 3097 3109 3338 
Q 3109 3566 3000 3739 
Q 2891 3913 2687 3977 
Q 2484 4041 1991 4041 
L 1075 4041 
L 1075 2656 
z
M 1075 541 
L 2216 541 
Q 2509 541 2628 563 
Q 2838 600 2978 687 
Q 3119 775 3209 942 
Q 3300 1109 3300 1328 
Q 3300 1584 3169 1773 
Q 3038 1963 2805 2039 
Q 2572 2116 2134 2116 
L 1075 2116 
L 1075 541 
z
" transform="scale(0.015625)"/>
     <path id="ArialMT-3b" d="M 569 2678 
L 569 3319 
L 1209 3319 
L 1209 2678 
L 569 2678 
z
M 569 0 
L 569 641 
L 1209 641 
L 1209 0 
Q 1209 -353 1084 -570 
Q 959 -788 688 -906 
L 531 -666 
Q 709 -588 793 -436 
Q 878 -284 888 0 
L 569 0 
z
" transform="scale(0.015625)"/>
     <path id="ArialMT-32" d="M 3222 541 
L 3222 0 
L 194 0 
Q 188 203 259 391 
Q 375 700 629 1000 
Q 884 1300 1366 1694 
Q 2113 2306 2375 2664 
Q 2638 3022 2638 3341 
Q 2638 3675 2398 3904 
Q 2159 4134 1775 4134 
Q 1369 4134 1125 3890 
Q 881 3647 878 3216 
L 300 3275 
Q 359 3922 746 4261 
Q 1134 4600 1788 4600 
Q 2447 4600 2831 4234 
Q 3216 3869 3216 3328 
Q 3216 3053 3103 2787 
Q 2991 2522 2730 2228 
Q 2469 1934 1863 1422 
Q 1356 997 1212 845 
Q 1069 694 975 541 
L 3222 541 
z
" transform="scale(0.015625)"/>
     <path id="ArialMT-30" d="M 266 2259 
Q 266 3072 433 3567 
Q 600 4063 929 4331 
Q 1259 4600 1759 4600 
Q 2128 4600 2406 4451 
Q 2684 4303 2865 4023 
Q 3047 3744 3150 3342 
Q 3253 2941 3253 2259 
Q 3253 1453 3087 958 
Q 2922 463 2592 192 
Q 2263 -78 1759 -78 
Q 1097 -78 719 397 
Q 266 969 266 2259 
z
M 844 2259 
Q 844 1131 1108 757 
Q 1372 384 1759 384 
Q 2147 384 2411 759 
Q 2675 1134 2675 2259 
Q 2675 3391 2411 3762 
Q 2147 4134 1753 4134 
Q 1366 4134 1134 3806 
Q 844 3388 844 2259 
z
" transform="scale(0.015625)"/>
     <path id="ArialMT-33" d="M 269 1209 
L 831 1284 
Q 928 806 1161 595 
Q 1394 384 1728 384 
Q 2125 384 2398 659 
Q 2672 934 2672 1341 
Q 2672 1728 2419 1979 
Q 2166 2231 1775 2231 
Q 1616 2231 1378 2169 
L 1441 2663 
Q 1497 2656 1531 2656 
Q 1891 2656 2178 2843 
Q 2466 3031 2466 3422 
Q 2466 3731 2256 3934 
Q 2047 4138 1716 4138 
Q 1388 4138 1169 3931 
Q 950 3725 888 3313 
L 325 3413 
Q 428 3978 793 4289 
Q 1159 4600 1703 4600 
Q 2078 4600 2393 4439 
Q 2709 4278 2876 4000 
Q 3044 3722 3044 3409 
Q 3044 3113 2884 2869 
Q 2725 2625 2413 2481 
Q 2819 2388 3044 2092 
Q 3269 1797 3269 1353 
Q 3269 753 2831 336 
Q 2394 -81 1725 -81 
Q 1122 -81 723 278 
Q 325 638 269 1209 
z
" transform="scale(0.015625)"/>
    </defs>
    <use xlink:href="#ArialMT-40"/>
    <use xlink:href="#ArialMT-6c" x="101.513672"/>
    <use xlink:href="#ArialMT-61" x="123.730469"/>
    <use xlink:href="#ArialMT-67" x="179.345703"/>
    <use xlink:href="#ArialMT-6f" x="234.960938"/>
    <use xlink:href="#ArialMT-6d" x="290.576172"/>
    <use xlink:href="#ArialMT-2d" x="373.876953"/>
    <use xlink:href="#ArialMT-51" x="407.177734"/>
    <use xlink:href="#ArialMT-42" x="484.960938"/>
    <use xlink:href="#ArialMT-3b" x="551.660156"/>
    <use xlink:href="#ArialMT-20" x="579.443359"/>
    <use xlink:href="#ArialMT-32" x="607.226562"/>
    <use xlink:href="#ArialMT-30" x="662.841797"/>
    <use xlink:href="#ArialMT-32" x="718.457031"/>
    <use xlink:href="#ArialMT-33" x="774.072266"/>
   </g>
  </g>
 </g>
 <defs>
  <clipPath id="pa5b2bbfd98">
   <rect x="120.96" y="57.6" width="656.64" height="460.8"/>
  </clipPath>
 </defs>
</svg>
