<?xml version="1.0" encoding="utf-8" standalone="no"?>
<!DOCTYPE svg PUBLIC "-//W3C//DTD SVG 1.1//EN"
  "http://www.w3.org/Graphics/SVG/1.1/DTD/svg11.dtd">
<svg xmlns:xlink="http://www.w3.org/1999/xlink" width="864pt" height="576pt" viewBox="0 0 864 576" xmlns="http://www.w3.org/2000/svg" version="1.1">
 <metadata>
  <rdf:RDF xmlns:dc="http://purl.org/dc/elements/1.1/" xmlns:cc="http://creativecommons.org/ns#" xmlns:rdf="http://www.w3.org/1999/02/22-rdf-syntax-ns#">
   <cc:Work>
    <dc:type rdf:resource="http://purl.org/dc/dcmitype/StillImage"/>
    <dc:date>2023-08-13T22:11:10.454095</dc:date>
    <dc:format>image/svg+xml</dc:format>
    <dc:creator>
     <cc:Agent>
      <dc:title>Matplotlib v3.7.1, https://matplotlib.org/</dc:title>
     </cc:Agent>
    </dc:creator>
   </cc:Work>
  </rdf:RDF>
 </metadata>
 <defs>
  <style type="text/css">*{stroke-linejoin: round; stroke-linecap: butt}</style>
 </defs>
 <g id="figure_1">
  <g id="patch_1">
   <path d="M 0 576 
L 864 576 
L 864 0 
L 0 0 
z
" style="fill: #ffffff"/>
  </g>
  <g id="axes_1">
   <g id="patch_2">
    <path d="M 120.96 518.4 
L 777.6 518.4 
L 777.6 57.6 
L 120.96 57.6 
z
" style="fill: #ffffff"/>
   </g>
   <g id="matplotlib.axis_1">
    <g id="xtick_1">
     <g id="line2d_1">
      <path d="M 262.416269 518.4 
L 262.416269 57.6 
" clip-path="url(#p6845b9c149)" style="fill: none; stroke: #808080; stroke-width: 0.4; stroke-linecap: square"/>
     </g>
     <g id="line2d_2"/>
     <g id="text_1">
      <!-- 100 -->
      <g transform="translate(251.579706 51.604375) scale(0.12 -0.12)">
       <defs>
        <path id="DejaVuSansMono-31" d="M 844 531 
L 1825 531 
L 1825 4097 
L 769 3859 
L 769 4434 
L 1819 4666 
L 2450 4666 
L 2450 531 
L 3419 531 
L 3419 0 
L 844 0 
L 844 531 
z
" transform="scale(0.015625)"/>
        <path id="DejaVuSansMono-30" d="M 1509 2344 
Q 1509 2516 1629 2641 
Q 1750 2766 1919 2766 
Q 2094 2766 2219 2641 
Q 2344 2516 2344 2344 
Q 2344 2169 2220 2047 
Q 2097 1925 1919 1925 
Q 1744 1925 1626 2044 
Q 1509 2163 1509 2344 
z
M 1925 4250 
Q 1484 4250 1267 3775 
Q 1050 3300 1050 2328 
Q 1050 1359 1267 884 
Q 1484 409 1925 409 
Q 2369 409 2586 884 
Q 2803 1359 2803 2328 
Q 2803 3300 2586 3775 
Q 2369 4250 1925 4250 
z
M 1925 4750 
Q 2672 4750 3055 4137 
Q 3438 3525 3438 2328 
Q 3438 1134 3055 521 
Q 2672 -91 1925 -91 
Q 1178 -91 797 521 
Q 416 1134 416 2328 
Q 416 3525 797 4137 
Q 1178 4750 1925 4750 
z
" transform="scale(0.015625)"/>
       </defs>
       <use xlink:href="#DejaVuSansMono-31"/>
       <use xlink:href="#DejaVuSansMono-30" x="60.205078"/>
       <use xlink:href="#DejaVuSansMono-30" x="120.410156"/>
      </g>
     </g>
    </g>
    <g id="xtick_2">
     <g id="line2d_3">
      <path d="M 262.416269 518.4 
L 262.416269 57.6 
" clip-path="url(#p6845b9c149)" style="fill: none; stroke: #808080; stroke-width: 0.4; stroke-linecap: square"/>
     </g>
     <g id="line2d_4"/>
     <g id="text_2">
      <!-- 100 -->
      <g transform="translate(251.579706 51.604375) scale(0.12 -0.12)">
       <use xlink:href="#DejaVuSansMono-31"/>
       <use xlink:href="#DejaVuSansMono-30" x="60.205078"/>
       <use xlink:href="#DejaVuSansMono-30" x="120.410156"/>
      </g>
     </g>
    </g>
    <g id="xtick_3">
     <g id="line2d_5">
      <path d="M 262.416269 518.4 
L 262.416269 57.6 
" clip-path="url(#p6845b9c149)" style="fill: none; stroke: #808080; stroke-width: 0.4; stroke-linecap: square"/>
     </g>
     <g id="line2d_6"/>
     <g id="text_3">
      <!-- 100 -->
      <g transform="translate(251.579706 51.604375) scale(0.12 -0.12)">
       <use xlink:href="#DejaVuSansMono-31"/>
       <use xlink:href="#DejaVuSansMono-30" x="60.205078"/>
       <use xlink:href="#DejaVuSansMono-30" x="120.410156"/>
      </g>
     </g>
    </g>
    <g id="xtick_4">
     <g id="line2d_7">
      <path d="M 262.416269 518.4 
L 262.416269 57.6 
" clip-path="url(#p6845b9c149)" style="fill: none; stroke: #808080; stroke-width: 0.4; stroke-linecap: square"/>
     </g>
     <g id="line2d_8"/>
     <g id="text_4">
      <!-- 100 -->
      <g transform="translate(251.579706 51.604375) scale(0.12 -0.12)">
       <use xlink:href="#DejaVuSansMono-31"/>
       <use xlink:href="#DejaVuSansMono-30" x="60.205078"/>
       <use xlink:href="#DejaVuSansMono-30" x="120.410156"/>
      </g>
     </g>
    </g>
    <g id="xtick_5">
     <g id="line2d_9">
      <path d="M 333.144403 518.4 
L 333.144403 57.6 
" clip-path="url(#p6845b9c149)" style="fill: none; stroke: #808080; stroke-width: 0.4; stroke-linecap: square"/>
     </g>
     <g id="line2d_10"/>
     <g id="text_5">
      <!-- 150 -->
      <g transform="translate(322.307841 51.604375) scale(0.12 -0.12)">
       <defs>
        <path id="DejaVuSansMono-35" d="M 647 4666 
L 3009 4666 
L 3009 4134 
L 1222 4134 
L 1222 2988 
Q 1356 3038 1492 3061 
Q 1628 3084 1766 3084 
Q 2491 3084 2916 2656 
Q 3341 2228 3341 1497 
Q 3341 759 2895 334 
Q 2450 -91 1678 -91 
Q 1306 -91 998 -41 
Q 691 9 447 109 
L 447 750 
Q 734 594 1025 517 
Q 1316 441 1619 441 
Q 2141 441 2423 716 
Q 2706 991 2706 1497 
Q 2706 1997 2414 2275 
Q 2122 2553 1600 2553 
Q 1347 2553 1106 2495 
Q 866 2438 647 2322 
L 647 4666 
z
" transform="scale(0.015625)"/>
       </defs>
       <use xlink:href="#DejaVuSansMono-31"/>
       <use xlink:href="#DejaVuSansMono-35" x="60.205078"/>
       <use xlink:href="#DejaVuSansMono-30" x="120.410156"/>
      </g>
     </g>
    </g>
    <g id="xtick_6">
     <g id="line2d_11">
      <path d="M 403.872538 518.4 
L 403.872538 57.6 
" clip-path="url(#p6845b9c149)" style="fill: none; stroke: #808080; stroke-width: 0.4; stroke-linecap: square"/>
     </g>
     <g id="line2d_12"/>
     <g id="text_6">
      <!-- 200 -->
      <g transform="translate(393.035975 51.604375) scale(0.12 -0.12)">
       <defs>
        <path id="DejaVuSansMono-32" d="M 1166 531 
L 3309 531 
L 3309 0 
L 475 0 
L 475 531 
Q 1059 1147 1496 1619 
Q 1934 2091 2100 2284 
Q 2413 2666 2522 2902 
Q 2631 3138 2631 3384 
Q 2631 3775 2401 3997 
Q 2172 4219 1772 4219 
Q 1488 4219 1175 4116 
Q 863 4013 513 3803 
L 513 4441 
Q 834 4594 1145 4672 
Q 1456 4750 1759 4750 
Q 2444 4750 2861 4386 
Q 3278 4022 3278 3431 
Q 3278 3131 3139 2831 
Q 3000 2531 2688 2169 
Q 2513 1966 2180 1606 
Q 1847 1247 1166 531 
z
" transform="scale(0.015625)"/>
       </defs>
       <use xlink:href="#DejaVuSansMono-32"/>
       <use xlink:href="#DejaVuSansMono-30" x="60.205078"/>
       <use xlink:href="#DejaVuSansMono-30" x="120.410156"/>
      </g>
     </g>
    </g>
    <g id="xtick_7">
     <g id="line2d_13">
      <path d="M 403.872538 518.4 
L 403.872538 57.6 
" clip-path="url(#p6845b9c149)" style="fill: none; stroke: #808080; stroke-width: 0.4; stroke-linecap: square"/>
     </g>
     <g id="line2d_14"/>
     <g id="text_7">
      <!-- 200 -->
      <g transform="translate(393.035975 51.604375) scale(0.12 -0.12)">
       <use xlink:href="#DejaVuSansMono-32"/>
       <use xlink:href="#DejaVuSansMono-30" x="60.205078"/>
       <use xlink:href="#DejaVuSansMono-30" x="120.410156"/>
      </g>
     </g>
    </g>
    <g id="xtick_8">
     <g id="line2d_15">
      <path d="M 686.785075 518.4 
L 686.785075 57.6 
" clip-path="url(#p6845b9c149)" style="fill: none; stroke: #808080; stroke-width: 0.4; stroke-linecap: square"/>
     </g>
     <g id="line2d_16"/>
     <g id="text_8">
      <!-- 400 -->
      <g transform="translate(675.948513 51.604375) scale(0.12 -0.12)">
       <defs>
        <path id="DejaVuSansMono-34" d="M 2297 4091 
L 825 1625 
L 2297 1625 
L 2297 4091 
z
M 2194 4666 
L 2925 4666 
L 2925 1625 
L 3547 1625 
L 3547 1113 
L 2925 1113 
L 2925 0 
L 2297 0 
L 2297 1113 
L 319 1113 
L 319 1709 
L 2194 4666 
z
" transform="scale(0.015625)"/>
       </defs>
       <use xlink:href="#DejaVuSansMono-34"/>
       <use xlink:href="#DejaVuSansMono-30" x="60.205078"/>
       <use xlink:href="#DejaVuSansMono-30" x="120.410156"/>
      </g>
     </g>
    </g>
   </g>
   <g id="patch_3">
    <path d="M 120.96 518.4 
L 266.659957 518.4 
L 266.659957 492.068571 
L 120.96 492.068571 
z
" clip-path="url(#p6845b9c149)" style="fill: #ff0a0a; opacity: 0.7"/>
   </g>
   <g id="patch_4">
    <path d="M 120.96 471.003429 
L 283.634709 471.003429 
L 283.634709 444.672 
L 120.96 444.672 
z
" clip-path="url(#p6845b9c149)" style="fill: #ff0a0a; opacity: 0.7"/>
   </g>
   <g id="patch_5">
    <path d="M 120.96 423.606857 
L 290.707523 423.606857 
L 290.707523 397.275429 
L 120.96 397.275429 
z
" clip-path="url(#p6845b9c149)" style="fill: #ff0a0a; opacity: 0.7"/>
   </g>
   <g id="patch_6">
    <path d="M 120.96 376.210286 
L 290.707523 376.210286 
L 290.707523 349.878857 
L 120.96 349.878857 
z
" clip-path="url(#p6845b9c149)" style="fill: #ff0a0a; opacity: 0.7"/>
   </g>
   <g id="patch_7">
    <path d="M 120.96 328.813714 
L 290.707523 328.813714 
L 290.707523 302.482286 
L 120.96 302.482286 
z
" clip-path="url(#p6845b9c149)" style="fill: #ff0a0a; opacity: 0.7"/>
   </g>
   <g id="patch_8">
    <path d="M 120.96 281.417143 
L 292.122085 281.417143 
L 292.122085 255.085714 
L 120.96 255.085714 
z
" clip-path="url(#p6845b9c149)" style="fill: #ff0a0a; opacity: 0.7"/>
   </g>
   <g id="patch_9">
    <path d="M 120.96 234.020571 
L 300.609461 234.020571 
L 300.609461 207.689143 
L 120.96 207.689143 
z
" clip-path="url(#p6845b9c149)" style="fill: #ff0a0a; opacity: 0.7"/>
   </g>
   <g id="patch_10">
    <path d="M 120.96 186.624 
L 369.923033 186.624 
L 369.923033 160.292571 
L 120.96 160.292571 
z
" clip-path="url(#p6845b9c149)" style="fill: #ff0a0a; opacity: 0.7"/>
   </g>
   <g id="patch_11">
    <path d="M 120.96 139.227429 
L 371.337596 139.227429 
L 371.337596 112.896 
L 120.96 112.896 
z
" clip-path="url(#p6845b9c149)" style="fill: #ff0a0a; opacity: 0.7"/>
   </g>
   <g id="patch_12">
    <path d="M 120.96 91.830857 
L 717.905455 91.830857 
L 717.905455 65.499429 
L 120.96 65.499429 
z
" clip-path="url(#p6845b9c149)" style="fill: #ff0a0a; opacity: 0.7"/>
   </g>
   <g id="patch_13">
    <path d="M 120.96 518.4 
L 120.96 57.6 
" style="fill: none; opacity: 0.9; stroke: #808080; stroke-width: 1.4; stroke-linejoin: miter; stroke-linecap: round"/>
   </g>
   <g id="text_9">
    <path d="M 272.08127 507.819442 
L 272.08127 501.505379 
L 269.723457 501.505379 
L 269.723457 500.661629 
L 275.396895 500.661629 
L 275.396895 501.505379 
L 273.029707 501.505379 
L 273.029707 507.819442 
L 272.08127 507.819442 
z
M 276.399043 507.819442 
L 276.399043 500.661629 
L 277.345918 500.661629 
L 277.345918 503.600692 
L 281.066231 503.600692 
L 281.066231 500.661629 
L 282.013106 500.661629 
L 282.013106 507.819442 
L 281.066231 507.819442 
L 281.066231 504.446004 
L 277.345918 504.446004 
L 277.345918 507.819442 
L 276.399043 507.819442 
z
M 283.609785 507.819442 
L 283.609785 500.661629 
L 288.786348 500.661629 
L 288.786348 501.505379 
L 284.558223 501.505379 
L 284.558223 503.697567 
L 288.517598 503.697567 
L 288.517598 504.538192 
L 284.558223 504.538192 
L 284.558223 506.974129 
L 288.951973 506.974129 
L 288.951973 507.819442 
L 283.609785 507.819442 
z
M 298.464278 507.052254 
Q 299.123653 507.506942 299.679903 507.716317 
L 299.401778 508.375692 
Q 298.629903 508.097567 297.862715 507.497567 
Q 297.067403 507.941317 296.104903 507.941317 
Q 295.133028 507.941317 294.342403 507.472567 
Q 293.551778 507.003817 293.123653 506.155379 
Q 292.69709 505.305379 292.69709 504.239754 
Q 292.69709 503.180379 293.126778 502.311629 
Q 293.556465 501.442879 294.350215 500.988192 
Q 295.143965 500.533504 296.125215 500.533504 
Q 297.11584 500.533504 297.911153 501.005379 
Q 298.708028 501.477254 299.125215 502.324129 
Q 299.542403 503.171004 299.542403 504.235067 
Q 299.542403 505.119442 299.273653 505.825692 
Q 299.006465 506.530379 298.464278 507.052254 
z
M 296.37834 505.841317 
Q 297.198653 506.071004 297.731465 506.525692 
Q 298.56584 505.763192 298.56584 504.235067 
Q 298.56584 503.366317 298.270528 502.717879 
Q 297.975215 502.067879 297.406465 501.708504 
Q 296.837715 501.349129 296.129903 501.349129 
Q 295.070528 501.349129 294.37209 502.074129 
Q 293.673653 502.799129 293.673653 504.239754 
Q 293.673653 505.636629 294.364278 506.383504 
Q 295.054903 507.130379 296.129903 507.130379 
Q 296.637715 507.130379 297.086153 506.939754 
Q 296.642403 506.652254 296.148653 506.530379 
L 296.37834 505.841317 
z
M 305.514473 500.661629 
L 306.461348 500.661629 
L 306.461348 504.797567 
Q 306.461348 505.875692 306.217598 506.511629 
Q 305.973848 507.146004 305.336348 507.544442 
Q 304.698848 507.941317 303.664473 507.941317 
Q 302.658223 507.941317 302.017598 507.594442 
Q 301.378535 507.247567 301.105098 506.591317 
Q 300.83166 505.935067 300.83166 504.797567 
L 300.83166 500.661629 
L 301.778535 500.661629 
L 301.778535 504.791317 
Q 301.778535 505.724129 301.951973 506.166317 
Q 302.12541 506.608504 302.547285 506.847567 
Q 302.970723 507.086629 303.58166 507.086629 
Q 304.62541 507.086629 305.06916 506.613192 
Q 305.514473 506.139754 305.514473 504.791317 
L 305.514473 500.661629 
z
M 308.058028 507.819442 
L 308.058028 500.661629 
L 313.23459 500.661629 
L 313.23459 501.505379 
L 309.006465 501.505379 
L 309.006465 503.697567 
L 312.96584 503.697567 
L 312.96584 504.538192 
L 309.006465 504.538192 
L 309.006465 506.974129 
L 313.400215 506.974129 
L 313.400215 507.819442 
L 308.058028 507.819442 
z
M 314.727949 507.819442 
L 314.727949 500.661629 
L 319.904512 500.661629 
L 319.904512 501.505379 
L 315.676387 501.505379 
L 315.676387 503.697567 
L 319.635762 503.697567 
L 319.635762 504.538192 
L 315.676387 504.538192 
L 315.676387 506.974129 
L 320.070137 506.974129 
L 320.070137 507.819442 
L 314.727949 507.819442 
z
M 321.369746 507.819442 
L 321.369746 500.661629 
L 322.340059 500.661629 
L 326.100996 506.281942 
L 326.100996 500.661629 
L 327.008809 500.661629 
L 327.008809 507.819442 
L 326.036934 507.819442 
L 322.277559 502.194442 
L 322.277559 507.819442 
L 321.369746 507.819442 
z
" style="fill: #ff0a0a; stroke: #ffffff; stroke-width: 2"/>
    <path d="M 272.08127 507.819442 
L 272.08127 501.505379 
L 269.723457 501.505379 
L 269.723457 500.661629 
L 275.396895 500.661629 
L 275.396895 501.505379 
L 273.029707 501.505379 
L 273.029707 507.819442 
L 272.08127 507.819442 
z
M 276.399043 507.819442 
L 276.399043 500.661629 
L 277.345918 500.661629 
L 277.345918 503.600692 
L 281.066231 503.600692 
L 281.066231 500.661629 
L 282.013106 500.661629 
L 282.013106 507.819442 
L 281.066231 507.819442 
L 281.066231 504.446004 
L 277.345918 504.446004 
L 277.345918 507.819442 
L 276.399043 507.819442 
z
M 283.609785 507.819442 
L 283.609785 500.661629 
L 288.786348 500.661629 
L 288.786348 501.505379 
L 284.558223 501.505379 
L 284.558223 503.697567 
L 288.517598 503.697567 
L 288.517598 504.538192 
L 284.558223 504.538192 
L 284.558223 506.974129 
L 288.951973 506.974129 
L 288.951973 507.819442 
L 283.609785 507.819442 
z
M 298.464278 507.052254 
Q 299.123653 507.506942 299.679903 507.716317 
L 299.401778 508.375692 
Q 298.629903 508.097567 297.862715 507.497567 
Q 297.067403 507.941317 296.104903 507.941317 
Q 295.133028 507.941317 294.342403 507.472567 
Q 293.551778 507.003817 293.123653 506.155379 
Q 292.69709 505.305379 292.69709 504.239754 
Q 292.69709 503.180379 293.126778 502.311629 
Q 293.556465 501.442879 294.350215 500.988192 
Q 295.143965 500.533504 296.125215 500.533504 
Q 297.11584 500.533504 297.911153 501.005379 
Q 298.708028 501.477254 299.125215 502.324129 
Q 299.542403 503.171004 299.542403 504.235067 
Q 299.542403 505.119442 299.273653 505.825692 
Q 299.006465 506.530379 298.464278 507.052254 
z
M 296.37834 505.841317 
Q 297.198653 506.071004 297.731465 506.525692 
Q 298.56584 505.763192 298.56584 504.235067 
Q 298.56584 503.366317 298.270528 502.717879 
Q 297.975215 502.067879 297.406465 501.708504 
Q 296.837715 501.349129 296.129903 501.349129 
Q 295.070528 501.349129 294.37209 502.074129 
Q 293.673653 502.799129 293.673653 504.239754 
Q 293.673653 505.636629 294.364278 506.383504 
Q 295.054903 507.130379 296.129903 507.130379 
Q 296.637715 507.130379 297.086153 506.939754 
Q 296.642403 506.652254 296.148653 506.530379 
L 296.37834 505.841317 
z
M 305.514473 500.661629 
L 306.461348 500.661629 
L 306.461348 504.797567 
Q 306.461348 505.875692 306.217598 506.511629 
Q 305.973848 507.146004 305.336348 507.544442 
Q 304.698848 507.941317 303.664473 507.941317 
Q 302.658223 507.941317 302.017598 507.594442 
Q 301.378535 507.247567 301.105098 506.591317 
Q 300.83166 505.935067 300.83166 504.797567 
L 300.83166 500.661629 
L 301.778535 500.661629 
L 301.778535 504.791317 
Q 301.778535 505.724129 301.951973 506.166317 
Q 302.12541 506.608504 302.547285 506.847567 
Q 302.970723 507.086629 303.58166 507.086629 
Q 304.62541 507.086629 305.06916 506.613192 
Q 305.514473 506.139754 305.514473 504.791317 
L 305.514473 500.661629 
z
M 308.058028 507.819442 
L 308.058028 500.661629 
L 313.23459 500.661629 
L 313.23459 501.505379 
L 309.006465 501.505379 
L 309.006465 503.697567 
L 312.96584 503.697567 
L 312.96584 504.538192 
L 309.006465 504.538192 
L 309.006465 506.974129 
L 313.400215 506.974129 
L 313.400215 507.819442 
L 308.058028 507.819442 
z
M 314.727949 507.819442 
L 314.727949 500.661629 
L 319.904512 500.661629 
L 319.904512 501.505379 
L 315.676387 501.505379 
L 315.676387 503.697567 
L 319.635762 503.697567 
L 319.635762 504.538192 
L 315.676387 504.538192 
L 315.676387 506.974129 
L 320.070137 506.974129 
L 320.070137 507.819442 
L 314.727949 507.819442 
z
M 321.369746 507.819442 
L 321.369746 500.661629 
L 322.340059 500.661629 
L 326.100996 506.281942 
L 326.100996 500.661629 
L 327.008809 500.661629 
L 327.008809 507.819442 
L 326.036934 507.819442 
L 322.277559 502.194442 
L 322.277559 507.819442 
L 321.369746 507.819442 
z
" style="fill: #ff0a0a"/>
   </g>
   <g id="text_10">
    <path d="M 289.056022 460.422871 
L 289.056022 454.108808 
L 286.69821 454.108808 
L 286.69821 453.265058 
L 292.371647 453.265058 
L 292.371647 454.108808 
L 290.00446 454.108808 
L 290.00446 460.422871 
L 289.056022 460.422871 
z
M 293.373795 460.422871 
L 293.373795 453.265058 
L 294.32067 453.265058 
L 294.32067 456.204121 
L 298.040983 456.204121 
L 298.040983 453.265058 
L 298.987858 453.265058 
L 298.987858 460.422871 
L 298.040983 460.422871 
L 298.040983 457.049433 
L 294.32067 457.049433 
L 294.32067 460.422871 
L 293.373795 460.422871 
z
M 300.584538 460.422871 
L 300.584538 453.265058 
L 305.7611 453.265058 
L 305.7611 454.108808 
L 301.532975 454.108808 
L 301.532975 456.300996 
L 305.49235 456.300996 
L 305.49235 457.141621 
L 301.532975 457.141621 
L 301.532975 459.577558 
L 305.926725 459.577558 
L 305.926725 460.422871 
L 300.584538 460.422871 
z
M 309.974967 460.422871 
L 309.974967 453.265058 
L 310.921842 453.265058 
L 310.921842 456.815058 
L 314.47653 453.265058 
L 315.760905 453.265058 
L 312.75778 456.165058 
L 315.892155 460.422871 
L 314.642155 460.422871 
L 312.093717 456.799433 
L 310.921842 457.941621 
L 310.921842 460.422871 
L 309.974967 460.422871 
z
M 316.674577 460.422871 
L 316.674577 453.265058 
L 317.644889 453.265058 
L 321.405827 458.885371 
L 321.405827 453.265058 
L 322.313639 453.265058 
L 322.313639 460.422871 
L 321.341764 460.422871 
L 317.582389 454.797871 
L 317.582389 460.422871 
L 316.674577 460.422871 
z
M 323.119694 460.422871 
L 325.868131 453.265058 
L 326.888444 453.265058 
L 329.818131 460.422871 
L 328.740006 460.422871 
L 327.904069 458.254121 
L 324.911881 458.254121 
L 324.124381 460.422871 
L 323.119694 460.422871 
z
M 325.185319 457.483808 
L 327.611881 457.483808 
L 326.865006 455.500996 
Q 326.522819 454.597871 326.357194 454.016621 
Q 326.219694 454.705683 325.971256 455.383808 
L 325.185319 457.483808 
z
M 331.883366 460.422871 
L 329.109928 453.265058 
L 330.134928 453.265058 
L 331.995866 458.465058 
Q 332.220866 459.090058 332.372428 459.636933 
Q 332.538053 459.050996 332.758366 458.465058 
L 334.691178 453.265058 
L 335.658366 453.265058 
L 332.855241 460.422871 
L 331.883366 460.422871 
z
M 336.526725 460.422871 
L 336.526725 453.265058 
L 341.703288 453.265058 
L 341.703288 454.108808 
L 337.475163 454.108808 
L 337.475163 456.300996 
L 341.434538 456.300996 
L 341.434538 457.141621 
L 337.475163 457.141621 
L 337.475163 459.577558 
L 341.868913 459.577558 
L 341.868913 460.422871 
L 336.526725 460.422871 
z
M 345.667155 456.936933 
Q 345.667155 455.154121 346.623405 454.146308 
Q 347.581217 453.136933 349.09528 453.136933 
Q 350.087467 453.136933 350.88278 453.611933 
Q 351.678092 454.085371 352.09528 454.932246 
Q 352.51403 455.779121 352.51403 456.854121 
Q 352.51403 457.941621 352.073405 458.800996 
Q 351.634342 459.660371 350.828092 460.102558 
Q 350.023405 460.544746 349.090592 460.544746 
Q 348.079655 460.544746 347.28278 460.057246 
Q 346.487467 459.568183 346.07653 458.724433 
Q 345.667155 457.879121 345.667155 456.936933 
z
M 346.643717 456.950996 
Q 346.643717 458.244746 347.33903 458.990058 
Q 348.035905 459.733808 349.085905 459.733808 
Q 350.154655 459.733808 350.84528 458.982246 
Q 351.537467 458.230683 351.537467 456.847871 
Q 351.537467 455.974433 351.242155 455.322871 
Q 350.946842 454.671308 350.37653 454.311933 
Q 349.80778 453.952558 349.099967 453.952558 
Q 348.09528 453.952558 347.368717 454.644746 
Q 346.643717 455.335371 346.643717 456.950996 
z
M 353.782975 460.422871 
L 353.782975 453.265058 
L 358.612663 453.265058 
L 358.612663 454.108808 
L 354.72985 454.108808 
L 354.72985 456.325996 
L 358.089225 456.325996 
L 358.089225 457.171308 
L 354.72985 457.171308 
L 354.72985 460.422871 
L 353.782975 460.422871 
z
M 362.650944 460.422871 
L 362.650944 453.265058 
L 363.597819 453.265058 
L 363.597819 456.204121 
L 367.318131 456.204121 
L 367.318131 453.265058 
L 368.265006 453.265058 
L 368.265006 460.422871 
L 367.318131 460.422871 
L 367.318131 457.049433 
L 363.597819 457.049433 
L 363.597819 460.422871 
L 362.650944 460.422871 
z
M 369.861686 460.422871 
L 369.861686 453.265058 
L 375.038249 453.265058 
L 375.038249 454.108808 
L 370.810124 454.108808 
L 370.810124 456.300996 
L 374.769499 456.300996 
L 374.769499 457.141621 
L 370.810124 457.141621 
L 370.810124 459.577558 
L 375.203874 459.577558 
L 375.203874 460.422871 
L 369.861686 460.422871 
z
M 375.72692 460.422871 
L 378.475358 453.265058 
L 379.49567 453.265058 
L 382.425358 460.422871 
L 381.347233 460.422871 
L 380.511295 458.254121 
L 377.519108 458.254121 
L 376.731608 460.422871 
L 375.72692 460.422871 
z
M 377.792545 457.483808 
L 380.219108 457.483808 
L 379.472233 455.500996 
Q 379.130045 454.597871 378.96442 454.016621 
Q 378.82692 454.705683 378.578483 455.383808 
L 377.792545 457.483808 
z
M 383.196842 460.422871 
L 383.196842 453.265058 
L 386.37028 453.265058 
Q 387.328092 453.265058 387.824967 453.458808 
Q 388.323405 453.650996 388.621842 454.140058 
Q 388.92028 454.627558 388.92028 455.218183 
Q 388.92028 455.979121 388.42653 456.502558 
Q 387.93278 457.024433 386.903092 457.166621 
Q 387.279655 457.346308 387.474967 457.522871 
Q 387.88903 457.902558 388.260905 458.474433 
L 389.506217 460.422871 
L 388.31403 460.422871 
L 387.367155 458.933808 
Q 386.95153 458.288496 386.68278 457.947871 
Q 386.415592 457.605683 386.203092 457.469746 
Q 385.990592 457.332246 385.77028 457.277558 
Q 385.609342 457.244746 385.243717 457.244746 
L 384.143717 457.244746 
L 384.143717 460.422871 
L 383.196842 460.422871 
z
M 384.143717 456.424433 
L 386.181217 456.424433 
Q 386.829655 456.424433 387.19528 456.290058 
Q 387.562467 456.155683 387.753092 455.860371 
Q 387.943717 455.565058 387.943717 455.218183 
Q 387.943717 454.710371 387.574967 454.383808 
Q 387.206217 454.055683 386.409342 454.055683 
L 384.143717 454.055683 
L 384.143717 456.424433 
z
M 392.049772 460.422871 
L 392.049772 454.108808 
L 389.69196 454.108808 
L 389.69196 453.265058 
L 395.365397 453.265058 
L 395.365397 454.108808 
L 392.99821 454.108808 
L 392.99821 460.422871 
L 392.049772 460.422871 
z
M 396.015983 458.122871 
L 396.90817 458.044746 
Q 396.972233 458.582246 397.203483 458.925996 
Q 397.436295 459.269746 397.923795 459.482246 
Q 398.412858 459.694746 399.023795 459.694746 
Q 399.56442 459.694746 399.980045 459.533808 
Q 400.39567 459.372871 400.597233 459.093183 
Q 400.800358 458.811933 400.800358 458.479121 
Q 400.800358 458.143183 400.605045 457.891621 
Q 400.409733 457.640058 399.961295 457.468183 
Q 399.672233 457.355683 398.686295 457.119746 
Q 397.700358 456.882246 397.305045 456.672871 
Q 396.790983 456.404121 396.53942 456.007246 
Q 396.28942 455.608808 396.28942 455.115058 
Q 396.28942 454.572871 396.59567 454.102558 
Q 396.903483 453.630683 397.494108 453.386933 
Q 398.086295 453.143183 398.80817 453.143183 
Q 399.603483 453.143183 400.211295 453.399433 
Q 400.82067 453.655683 401.147233 454.154121 
Q 401.473795 454.650996 401.498795 455.280683 
L 400.590983 455.349433 
Q 400.517545 454.671308 400.094108 454.324433 
Q 399.672233 453.977558 398.847233 453.977558 
Q 397.987858 453.977558 397.594108 454.293183 
Q 397.20192 454.607246 397.20192 455.050996 
Q 397.20192 455.436933 397.480045 455.686933 
Q 397.753483 455.935371 398.90817 456.196308 
Q 400.062858 456.457246 400.492545 456.652558 
Q 401.117545 456.941621 401.41442 457.383808 
Q 401.712858 457.824433 401.712858 458.400996 
Q 401.712858 458.972871 401.386295 459.479121 
Q 401.059733 459.983808 400.44567 460.265058 
Q 399.83317 460.544746 399.067545 460.544746 
Q 398.09567 460.544746 397.437858 460.261933 
Q 396.781608 459.979121 396.40817 459.410371 
Q 396.034733 458.840058 396.015983 458.122871 
z
" style="fill: #ff0a0a; stroke: #ffffff; stroke-width: 2"/>
    <path d="M 289.056022 460.422871 
L 289.056022 454.108808 
L 286.69821 454.108808 
L 286.69821 453.265058 
L 292.371647 453.265058 
L 292.371647 454.108808 
L 290.00446 454.108808 
L 290.00446 460.422871 
L 289.056022 460.422871 
z
M 293.373795 460.422871 
L 293.373795 453.265058 
L 294.32067 453.265058 
L 294.32067 456.204121 
L 298.040983 456.204121 
L 298.040983 453.265058 
L 298.987858 453.265058 
L 298.987858 460.422871 
L 298.040983 460.422871 
L 298.040983 457.049433 
L 294.32067 457.049433 
L 294.32067 460.422871 
L 293.373795 460.422871 
z
M 300.584538 460.422871 
L 300.584538 453.265058 
L 305.7611 453.265058 
L 305.7611 454.108808 
L 301.532975 454.108808 
L 301.532975 456.300996 
L 305.49235 456.300996 
L 305.49235 457.141621 
L 301.532975 457.141621 
L 301.532975 459.577558 
L 305.926725 459.577558 
L 305.926725 460.422871 
L 300.584538 460.422871 
z
M 309.974967 460.422871 
L 309.974967 453.265058 
L 310.921842 453.265058 
L 310.921842 456.815058 
L 314.47653 453.265058 
L 315.760905 453.265058 
L 312.75778 456.165058 
L 315.892155 460.422871 
L 314.642155 460.422871 
L 312.093717 456.799433 
L 310.921842 457.941621 
L 310.921842 460.422871 
L 309.974967 460.422871 
z
M 316.674577 460.422871 
L 316.674577 453.265058 
L 317.644889 453.265058 
L 321.405827 458.885371 
L 321.405827 453.265058 
L 322.313639 453.265058 
L 322.313639 460.422871 
L 321.341764 460.422871 
L 317.582389 454.797871 
L 317.582389 460.422871 
L 316.674577 460.422871 
z
M 323.119694 460.422871 
L 325.868131 453.265058 
L 326.888444 453.265058 
L 329.818131 460.422871 
L 328.740006 460.422871 
L 327.904069 458.254121 
L 324.911881 458.254121 
L 324.124381 460.422871 
L 323.119694 460.422871 
z
M 325.185319 457.483808 
L 327.611881 457.483808 
L 326.865006 455.500996 
Q 326.522819 454.597871 326.357194 454.016621 
Q 326.219694 454.705683 325.971256 455.383808 
L 325.185319 457.483808 
z
M 331.883366 460.422871 
L 329.109928 453.265058 
L 330.134928 453.265058 
L 331.995866 458.465058 
Q 332.220866 459.090058 332.372428 459.636933 
Q 332.538053 459.050996 332.758366 458.465058 
L 334.691178 453.265058 
L 335.658366 453.265058 
L 332.855241 460.422871 
L 331.883366 460.422871 
z
M 336.526725 460.422871 
L 336.526725 453.265058 
L 341.703288 453.265058 
L 341.703288 454.108808 
L 337.475163 454.108808 
L 337.475163 456.300996 
L 341.434538 456.300996 
L 341.434538 457.141621 
L 337.475163 457.141621 
L 337.475163 459.577558 
L 341.868913 459.577558 
L 341.868913 460.422871 
L 336.526725 460.422871 
z
M 345.667155 456.936933 
Q 345.667155 455.154121 346.623405 454.146308 
Q 347.581217 453.136933 349.09528 453.136933 
Q 350.087467 453.136933 350.88278 453.611933 
Q 351.678092 454.085371 352.09528 454.932246 
Q 352.51403 455.779121 352.51403 456.854121 
Q 352.51403 457.941621 352.073405 458.800996 
Q 351.634342 459.660371 350.828092 460.102558 
Q 350.023405 460.544746 349.090592 460.544746 
Q 348.079655 460.544746 347.28278 460.057246 
Q 346.487467 459.568183 346.07653 458.724433 
Q 345.667155 457.879121 345.667155 456.936933 
z
M 346.643717 456.950996 
Q 346.643717 458.244746 347.33903 458.990058 
Q 348.035905 459.733808 349.085905 459.733808 
Q 350.154655 459.733808 350.84528 458.982246 
Q 351.537467 458.230683 351.537467 456.847871 
Q 351.537467 455.974433 351.242155 455.322871 
Q 350.946842 454.671308 350.37653 454.311933 
Q 349.80778 453.952558 349.099967 453.952558 
Q 348.09528 453.952558 347.368717 454.644746 
Q 346.643717 455.335371 346.643717 456.950996 
z
M 353.782975 460.422871 
L 353.782975 453.265058 
L 358.612663 453.265058 
L 358.612663 454.108808 
L 354.72985 454.108808 
L 354.72985 456.325996 
L 358.089225 456.325996 
L 358.089225 457.171308 
L 354.72985 457.171308 
L 354.72985 460.422871 
L 353.782975 460.422871 
z
M 362.650944 460.422871 
L 362.650944 453.265058 
L 363.597819 453.265058 
L 363.597819 456.204121 
L 367.318131 456.204121 
L 367.318131 453.265058 
L 368.265006 453.265058 
L 368.265006 460.422871 
L 367.318131 460.422871 
L 367.318131 457.049433 
L 363.597819 457.049433 
L 363.597819 460.422871 
L 362.650944 460.422871 
z
M 369.861686 460.422871 
L 369.861686 453.265058 
L 375.038249 453.265058 
L 375.038249 454.108808 
L 370.810124 454.108808 
L 370.810124 456.300996 
L 374.769499 456.300996 
L 374.769499 457.141621 
L 370.810124 457.141621 
L 370.810124 459.577558 
L 375.203874 459.577558 
L 375.203874 460.422871 
L 369.861686 460.422871 
z
M 375.72692 460.422871 
L 378.475358 453.265058 
L 379.49567 453.265058 
L 382.425358 460.422871 
L 381.347233 460.422871 
L 380.511295 458.254121 
L 377.519108 458.254121 
L 376.731608 460.422871 
L 375.72692 460.422871 
z
M 377.792545 457.483808 
L 380.219108 457.483808 
L 379.472233 455.500996 
Q 379.130045 454.597871 378.96442 454.016621 
Q 378.82692 454.705683 378.578483 455.383808 
L 377.792545 457.483808 
z
M 383.196842 460.422871 
L 383.196842 453.265058 
L 386.37028 453.265058 
Q 387.328092 453.265058 387.824967 453.458808 
Q 388.323405 453.650996 388.621842 454.140058 
Q 388.92028 454.627558 388.92028 455.218183 
Q 388.92028 455.979121 388.42653 456.502558 
Q 387.93278 457.024433 386.903092 457.166621 
Q 387.279655 457.346308 387.474967 457.522871 
Q 387.88903 457.902558 388.260905 458.474433 
L 389.506217 460.422871 
L 388.31403 460.422871 
L 387.367155 458.933808 
Q 386.95153 458.288496 386.68278 457.947871 
Q 386.415592 457.605683 386.203092 457.469746 
Q 385.990592 457.332246 385.77028 457.277558 
Q 385.609342 457.244746 385.243717 457.244746 
L 384.143717 457.244746 
L 384.143717 460.422871 
L 383.196842 460.422871 
z
M 384.143717 456.424433 
L 386.181217 456.424433 
Q 386.829655 456.424433 387.19528 456.290058 
Q 387.562467 456.155683 387.753092 455.860371 
Q 387.943717 455.565058 387.943717 455.218183 
Q 387.943717 454.710371 387.574967 454.383808 
Q 387.206217 454.055683 386.409342 454.055683 
L 384.143717 454.055683 
L 384.143717 456.424433 
z
M 392.049772 460.422871 
L 392.049772 454.108808 
L 389.69196 454.108808 
L 389.69196 453.265058 
L 395.365397 453.265058 
L 395.365397 454.108808 
L 392.99821 454.108808 
L 392.99821 460.422871 
L 392.049772 460.422871 
z
M 396.015983 458.122871 
L 396.90817 458.044746 
Q 396.972233 458.582246 397.203483 458.925996 
Q 397.436295 459.269746 397.923795 459.482246 
Q 398.412858 459.694746 399.023795 459.694746 
Q 399.56442 459.694746 399.980045 459.533808 
Q 400.39567 459.372871 400.597233 459.093183 
Q 400.800358 458.811933 400.800358 458.479121 
Q 400.800358 458.143183 400.605045 457.891621 
Q 400.409733 457.640058 399.961295 457.468183 
Q 399.672233 457.355683 398.686295 457.119746 
Q 397.700358 456.882246 397.305045 456.672871 
Q 396.790983 456.404121 396.53942 456.007246 
Q 396.28942 455.608808 396.28942 455.115058 
Q 396.28942 454.572871 396.59567 454.102558 
Q 396.903483 453.630683 397.494108 453.386933 
Q 398.086295 453.143183 398.80817 453.143183 
Q 399.603483 453.143183 400.211295 453.399433 
Q 400.82067 453.655683 401.147233 454.154121 
Q 401.473795 454.650996 401.498795 455.280683 
L 400.590983 455.349433 
Q 400.517545 454.671308 400.094108 454.324433 
Q 399.672233 453.977558 398.847233 453.977558 
Q 397.987858 453.977558 397.594108 454.293183 
Q 397.20192 454.607246 397.20192 455.050996 
Q 397.20192 455.436933 397.480045 455.686933 
Q 397.753483 455.935371 398.90817 456.196308 
Q 400.062858 456.457246 400.492545 456.652558 
Q 401.117545 456.941621 401.41442 457.383808 
Q 401.712858 457.824433 401.712858 458.400996 
Q 401.712858 458.972871 401.386295 459.479121 
Q 401.059733 459.983808 400.44567 460.265058 
Q 399.83317 460.544746 399.067545 460.544746 
Q 398.09567 460.544746 397.437858 460.261933 
Q 396.781608 459.979121 396.40817 459.410371 
Q 396.034733 458.840058 396.015983 458.122871 
z
" style="fill: #ff0a0a"/>
   </g>
   <g id="text_11">
    <!-- THE WHITE RABBIT -->
    <g style="fill: #ffffff" transform="translate(123.789125 413.026299) scale(0.1 -0.1)">
     <defs>
      <path id="ArialMT-54" d="M 1659 0 
L 1659 4041 
L 150 4041 
L 150 4581 
L 3781 4581 
L 3781 4041 
L 2266 4041 
L 2266 0 
L 1659 0 
z
" transform="scale(0.015625)"/>
      <path id="ArialMT-48" d="M 513 0 
L 513 4581 
L 1119 4581 
L 1119 2700 
L 3500 2700 
L 3500 4581 
L 4106 4581 
L 4106 0 
L 3500 0 
L 3500 2159 
L 1119 2159 
L 1119 0 
L 513 0 
z
" transform="scale(0.015625)"/>
      <path id="ArialMT-45" d="M 506 0 
L 506 4581 
L 3819 4581 
L 3819 4041 
L 1113 4041 
L 1113 2638 
L 3647 2638 
L 3647 2100 
L 1113 2100 
L 1113 541 
L 3925 541 
L 3925 0 
L 506 0 
z
" transform="scale(0.015625)"/>
      <path id="ArialMT-20" transform="scale(0.015625)"/>
      <path id="ArialMT-57" d="M 1294 0 
L 78 4581 
L 700 4581 
L 1397 1578 
Q 1509 1106 1591 641 
Q 1766 1375 1797 1488 
L 2669 4581 
L 3400 4581 
L 4056 2263 
Q 4303 1400 4413 641 
Q 4500 1075 4641 1638 
L 5359 4581 
L 5969 4581 
L 4713 0 
L 4128 0 
L 3163 3491 
Q 3041 3928 3019 4028 
Q 2947 3713 2884 3491 
L 1913 0 
L 1294 0 
z
" transform="scale(0.015625)"/>
      <path id="ArialMT-49" d="M 597 0 
L 597 4581 
L 1203 4581 
L 1203 0 
L 597 0 
z
" transform="scale(0.015625)"/>
      <path id="ArialMT-52" d="M 503 0 
L 503 4581 
L 2534 4581 
Q 3147 4581 3465 4457 
Q 3784 4334 3975 4021 
Q 4166 3709 4166 3331 
Q 4166 2844 3850 2509 
Q 3534 2175 2875 2084 
Q 3116 1969 3241 1856 
Q 3506 1613 3744 1247 
L 4541 0 
L 3778 0 
L 3172 953 
Q 2906 1366 2734 1584 
Q 2563 1803 2427 1890 
Q 2291 1978 2150 2013 
Q 2047 2034 1813 2034 
L 1109 2034 
L 1109 0 
L 503 0 
z
M 1109 2559 
L 2413 2559 
Q 2828 2559 3062 2645 
Q 3297 2731 3419 2920 
Q 3541 3109 3541 3331 
Q 3541 3656 3305 3865 
Q 3069 4075 2559 4075 
L 1109 4075 
L 1109 2559 
z
" transform="scale(0.015625)"/>
      <path id="ArialMT-41" d="M -9 0 
L 1750 4581 
L 2403 4581 
L 4278 0 
L 3588 0 
L 3053 1388 
L 1138 1388 
L 634 0 
L -9 0 
z
M 1313 1881 
L 2866 1881 
L 2388 3150 
Q 2169 3728 2063 4100 
Q 1975 3659 1816 3225 
L 1313 1881 
z
" transform="scale(0.015625)"/>
      <path id="ArialMT-42" d="M 469 0 
L 469 4581 
L 2188 4581 
Q 2713 4581 3030 4442 
Q 3347 4303 3526 4014 
Q 3706 3725 3706 3409 
Q 3706 3116 3547 2856 
Q 3388 2597 3066 2438 
Q 3481 2316 3704 2022 
Q 3928 1728 3928 1328 
Q 3928 1006 3792 729 
Q 3656 453 3456 303 
Q 3256 153 2954 76 
Q 2653 0 2216 0 
L 469 0 
z
M 1075 2656 
L 2066 2656 
Q 2469 2656 2644 2709 
Q 2875 2778 2992 2937 
Q 3109 3097 3109 3338 
Q 3109 3566 3000 3739 
Q 2891 3913 2687 3977 
Q 2484 4041 1991 4041 
L 1075 4041 
L 1075 2656 
z
M 1075 541 
L 2216 541 
Q 2509 541 2628 563 
Q 2838 600 2978 687 
Q 3119 775 3209 942 
Q 3300 1109 3300 1328 
Q 3300 1584 3169 1773 
Q 3038 1963 2805 2039 
Q 2572 2116 2134 2116 
L 1075 2116 
L 1075 541 
z
" transform="scale(0.015625)"/>
     </defs>
     <use xlink:href="#ArialMT-54"/>
     <use xlink:href="#ArialMT-48" x="61.083984"/>
     <use xlink:href="#ArialMT-45" x="133.300781"/>
     <use xlink:href="#ArialMT-20" x="200"/>
     <use xlink:href="#ArialMT-57" x="227.783203"/>
     <use xlink:href="#ArialMT-48" x="322.167969"/>
     <use xlink:href="#ArialMT-49" x="394.384766"/>
     <use xlink:href="#ArialMT-54" x="422.167969"/>
     <use xlink:href="#ArialMT-45" x="483.251953"/>
     <use xlink:href="#ArialMT-20" x="549.951172"/>
     <use xlink:href="#ArialMT-52" x="577.734375"/>
     <use xlink:href="#ArialMT-41" x="649.951172"/>
     <use xlink:href="#ArialMT-42" x="716.650391"/>
     <use xlink:href="#ArialMT-42" x="783.349609"/>
     <use xlink:href="#ArialMT-49" x="850.048828"/>
     <use xlink:href="#ArialMT-54" x="877.832031"/>
    </g>
   </g>
   <g id="text_12">
    <!-- FIVE -->
    <g style="fill: #ffffff" transform="translate(123.789125 365.629728) scale(0.1 -0.1)">
     <defs>
      <path id="ArialMT-46" d="M 525 0 
L 525 4581 
L 3616 4581 
L 3616 4041 
L 1131 4041 
L 1131 2622 
L 3281 2622 
L 3281 2081 
L 1131 2081 
L 1131 0 
L 525 0 
z
" transform="scale(0.015625)"/>
      <path id="ArialMT-56" d="M 1803 0 
L 28 4581 
L 684 4581 
L 1875 1253 
Q 2019 853 2116 503 
Q 2222 878 2363 1253 
L 3600 4581 
L 4219 4581 
L 2425 0 
L 1803 0 
z
" transform="scale(0.015625)"/>
     </defs>
     <use xlink:href="#ArialMT-46"/>
     <use xlink:href="#ArialMT-49" x="61.083984"/>
     <use xlink:href="#ArialMT-56" x="88.867188"/>
     <use xlink:href="#ArialMT-45" x="155.566406"/>
    </g>
   </g>
   <g id="text_13">
    <!-- TWO -->
    <g style="fill: #ffffff" transform="translate(123.789125 318.233156) scale(0.1 -0.1)">
     <defs>
      <path id="ArialMT-4f" d="M 309 2231 
Q 309 3372 921 4017 
Q 1534 4663 2503 4663 
Q 3138 4663 3647 4359 
Q 4156 4056 4423 3514 
Q 4691 2972 4691 2284 
Q 4691 1588 4409 1038 
Q 4128 488 3612 205 
Q 3097 -78 2500 -78 
Q 1853 -78 1343 234 
Q 834 547 571 1087 
Q 309 1628 309 2231 
z
M 934 2222 
Q 934 1394 1379 917 
Q 1825 441 2497 441 
Q 3181 441 3623 922 
Q 4066 1403 4066 2288 
Q 4066 2847 3877 3264 
Q 3688 3681 3323 3911 
Q 2959 4141 2506 4141 
Q 1863 4141 1398 3698 
Q 934 3256 934 2222 
z
" transform="scale(0.015625)"/>
     </defs>
     <use xlink:href="#ArialMT-54"/>
     <use xlink:href="#ArialMT-57" x="61.083984"/>
     <use xlink:href="#ArialMT-4f" x="155.46875"/>
    </g>
   </g>
   <g id="text_14">
    <!-- SEVEN -->
    <g style="fill: #ffffff" transform="translate(123.789125 270.836585) scale(0.1 -0.1)">
     <defs>
      <path id="ArialMT-53" d="M 288 1472 
L 859 1522 
Q 900 1178 1048 958 
Q 1197 738 1509 602 
Q 1822 466 2213 466 
Q 2559 466 2825 569 
Q 3091 672 3220 851 
Q 3350 1031 3350 1244 
Q 3350 1459 3225 1620 
Q 3100 1781 2813 1891 
Q 2628 1963 1997 2114 
Q 1366 2266 1113 2400 
Q 784 2572 623 2826 
Q 463 3081 463 3397 
Q 463 3744 659 4045 
Q 856 4347 1234 4503 
Q 1613 4659 2075 4659 
Q 2584 4659 2973 4495 
Q 3363 4331 3572 4012 
Q 3781 3694 3797 3291 
L 3216 3247 
Q 3169 3681 2898 3903 
Q 2628 4125 2100 4125 
Q 1550 4125 1298 3923 
Q 1047 3722 1047 3438 
Q 1047 3191 1225 3031 
Q 1400 2872 2139 2705 
Q 2878 2538 3153 2413 
Q 3553 2228 3743 1945 
Q 3934 1663 3934 1294 
Q 3934 928 3725 604 
Q 3516 281 3123 101 
Q 2731 -78 2241 -78 
Q 1619 -78 1198 103 
Q 778 284 539 648 
Q 300 1013 288 1472 
z
" transform="scale(0.015625)"/>
      <path id="ArialMT-4e" d="M 488 0 
L 488 4581 
L 1109 4581 
L 3516 984 
L 3516 4581 
L 4097 4581 
L 4097 0 
L 3475 0 
L 1069 3600 
L 1069 0 
L 488 0 
z
" transform="scale(0.015625)"/>
     </defs>
     <use xlink:href="#ArialMT-53"/>
     <use xlink:href="#ArialMT-45" x="66.699219"/>
     <use xlink:href="#ArialMT-56" x="133.398438"/>
     <use xlink:href="#ArialMT-45" x="200.097656"/>
     <use xlink:href="#ArialMT-4e" x="266.796875"/>
    </g>
   </g>
   <g id="text_15">
    <!-- THE DORMOUSE -->
    <g style="fill: #ffffff" transform="translate(123.789125 223.440013) scale(0.1 -0.1)">
     <defs>
      <path id="ArialMT-44" d="M 494 0 
L 494 4581 
L 2072 4581 
Q 2606 4581 2888 4516 
Q 3281 4425 3559 4188 
Q 3922 3881 4101 3404 
Q 4281 2928 4281 2316 
Q 4281 1794 4159 1391 
Q 4038 988 3847 723 
Q 3656 459 3429 307 
Q 3203 156 2883 78 
Q 2563 0 2147 0 
L 494 0 
z
M 1100 541 
L 2078 541 
Q 2531 541 2789 625 
Q 3047 709 3200 863 
Q 3416 1078 3536 1442 
Q 3656 1806 3656 2325 
Q 3656 3044 3420 3430 
Q 3184 3816 2847 3947 
Q 2603 4041 2063 4041 
L 1100 4041 
L 1100 541 
z
" transform="scale(0.015625)"/>
      <path id="ArialMT-4d" d="M 475 0 
L 475 4581 
L 1388 4581 
L 2472 1338 
Q 2622 884 2691 659 
Q 2769 909 2934 1394 
L 4031 4581 
L 4847 4581 
L 4847 0 
L 4263 0 
L 4263 3834 
L 2931 0 
L 2384 0 
L 1059 3900 
L 1059 0 
L 475 0 
z
" transform="scale(0.015625)"/>
      <path id="ArialMT-55" d="M 3500 4581 
L 4106 4581 
L 4106 1934 
Q 4106 1244 3950 837 
Q 3794 431 3386 176 
Q 2978 -78 2316 -78 
Q 1672 -78 1262 144 
Q 853 366 678 786 
Q 503 1206 503 1934 
L 503 4581 
L 1109 4581 
L 1109 1938 
Q 1109 1341 1220 1058 
Q 1331 775 1601 622 
Q 1872 469 2263 469 
Q 2931 469 3215 772 
Q 3500 1075 3500 1938 
L 3500 4581 
z
" transform="scale(0.015625)"/>
     </defs>
     <use xlink:href="#ArialMT-54"/>
     <use xlink:href="#ArialMT-48" x="61.083984"/>
     <use xlink:href="#ArialMT-45" x="133.300781"/>
     <use xlink:href="#ArialMT-20" x="200"/>
     <use xlink:href="#ArialMT-44" x="227.783203"/>
     <use xlink:href="#ArialMT-4f" x="300"/>
     <use xlink:href="#ArialMT-52" x="377.783203"/>
     <use xlink:href="#ArialMT-4d" x="450"/>
     <use xlink:href="#ArialMT-4f" x="533.300781"/>
     <use xlink:href="#ArialMT-55" x="611.083984"/>
     <use xlink:href="#ArialMT-53" x="683.300781"/>
     <use xlink:href="#ArialMT-45" x="750"/>
    </g>
   </g>
   <g id="text_16">
    <!-- THE GRYPHON -->
    <g style="fill: #ffffff" transform="translate(123.789125 176.043442) scale(0.1 -0.1)">
     <defs>
      <path id="ArialMT-47" d="M 2638 1797 
L 2638 2334 
L 4578 2338 
L 4578 638 
Q 4131 281 3656 101 
Q 3181 -78 2681 -78 
Q 2006 -78 1454 211 
Q 903 500 622 1047 
Q 341 1594 341 2269 
Q 341 2938 620 3517 
Q 900 4097 1425 4378 
Q 1950 4659 2634 4659 
Q 3131 4659 3532 4498 
Q 3934 4338 4162 4050 
Q 4391 3763 4509 3300 
L 3963 3150 
Q 3859 3500 3706 3700 
Q 3553 3900 3268 4020 
Q 2984 4141 2638 4141 
Q 2222 4141 1919 4014 
Q 1616 3888 1430 3681 
Q 1244 3475 1141 3228 
Q 966 2803 966 2306 
Q 966 1694 1177 1281 
Q 1388 869 1791 669 
Q 2194 469 2647 469 
Q 3041 469 3416 620 
Q 3791 772 3984 944 
L 3984 1797 
L 2638 1797 
z
" transform="scale(0.015625)"/>
      <path id="ArialMT-59" d="M 1784 0 
L 1784 1941 
L 19 4581 
L 756 4581 
L 1659 3200 
Q 1909 2813 2125 2425 
Q 2331 2784 2625 3234 
L 3513 4581 
L 4219 4581 
L 2391 1941 
L 2391 0 
L 1784 0 
z
" transform="scale(0.015625)"/>
      <path id="ArialMT-50" d="M 494 0 
L 494 4581 
L 2222 4581 
Q 2678 4581 2919 4538 
Q 3256 4481 3484 4323 
Q 3713 4166 3852 3881 
Q 3991 3597 3991 3256 
Q 3991 2672 3619 2267 
Q 3247 1863 2275 1863 
L 1100 1863 
L 1100 0 
L 494 0 
z
M 1100 2403 
L 2284 2403 
Q 2872 2403 3119 2622 
Q 3366 2841 3366 3238 
Q 3366 3525 3220 3729 
Q 3075 3934 2838 4000 
Q 2684 4041 2272 4041 
L 1100 4041 
L 1100 2403 
z
" transform="scale(0.015625)"/>
     </defs>
     <use xlink:href="#ArialMT-54"/>
     <use xlink:href="#ArialMT-48" x="61.083984"/>
     <use xlink:href="#ArialMT-45" x="133.300781"/>
     <use xlink:href="#ArialMT-20" x="200"/>
     <use xlink:href="#ArialMT-47" x="227.783203"/>
     <use xlink:href="#ArialMT-52" x="305.566406"/>
     <use xlink:href="#ArialMT-59" x="376.033203"/>
     <use xlink:href="#ArialMT-50" x="442.732422"/>
     <use xlink:href="#ArialMT-48" x="509.431641"/>
     <use xlink:href="#ArialMT-4f" x="581.648438"/>
     <use xlink:href="#ArialMT-4e" x="659.431641"/>
    </g>
   </g>
   <g id="text_17">
    <!-- HARE -->
    <g style="fill: #ffffff" transform="translate(123.789125 128.646871) scale(0.1 -0.1)">
     <use xlink:href="#ArialMT-48"/>
     <use xlink:href="#ArialMT-41" x="72.216797"/>
     <use xlink:href="#ArialMT-52" x="138.916016"/>
     <use xlink:href="#ArialMT-45" x="211.132812"/>
    </g>
   </g>
   <g id="text_18">
    <!-- ALICE -->
    <g style="fill: #ffffff" transform="translate(123.789125 81.250299) scale(0.1 -0.1)">
     <defs>
      <path id="ArialMT-4c" d="M 469 0 
L 469 4581 
L 1075 4581 
L 1075 541 
L 3331 541 
L 3331 0 
L 469 0 
z
" transform="scale(0.015625)"/>
      <path id="ArialMT-43" d="M 3763 1606 
L 4369 1453 
Q 4178 706 3683 314 
Q 3188 -78 2472 -78 
Q 1731 -78 1267 223 
Q 803 525 561 1097 
Q 319 1669 319 2325 
Q 319 3041 592 3573 
Q 866 4106 1370 4382 
Q 1875 4659 2481 4659 
Q 3169 4659 3637 4309 
Q 4106 3959 4291 3325 
L 3694 3184 
Q 3534 3684 3231 3912 
Q 2928 4141 2469 4141 
Q 1941 4141 1586 3887 
Q 1231 3634 1087 3207 
Q 944 2781 944 2328 
Q 944 1744 1114 1308 
Q 1284 872 1643 656 
Q 2003 441 2422 441 
Q 2931 441 3284 734 
Q 3638 1028 3763 1606 
z
" transform="scale(0.015625)"/>
     </defs>
     <use xlink:href="#ArialMT-41"/>
     <use xlink:href="#ArialMT-4c" x="66.699219"/>
     <use xlink:href="#ArialMT-49" x="122.314453"/>
     <use xlink:href="#ArialMT-43" x="150.097656"/>
     <use xlink:href="#ArialMT-45" x="222.314453"/>
    </g>
   </g>
  </g>
  <g id="text_19">
   <!-- Alice in Wonderland -->
   <g transform="translate(86.4 23.04) scale(0.22 -0.22)">
    <defs>
     <path id="DejaVuSansMono-Bold-41" d="M 1925 3822 
L 1491 1913 
L 2363 1913 
L 1925 3822 
z
M 1363 4666 
L 2491 4666 
L 3750 0 
L 2828 0 
L 2541 1153 
L 1306 1153 
L 1025 0 
L 103 0 
L 1363 4666 
z
" transform="scale(0.015625)"/>
     <path id="DejaVuSansMono-Bold-6c" d="M 1209 1459 
L 1209 4159 
L 281 4159 
L 281 4863 
L 2125 4863 
L 2125 1459 
Q 2125 1047 2253 875 
Q 2381 703 2688 703 
L 3419 703 
L 3419 0 
L 2431 0 
Q 1778 0 1493 337 
Q 1209 675 1209 1459 
z
" transform="scale(0.015625)"/>
     <path id="DejaVuSansMono-Bold-69" d="M 691 3500 
L 2503 3500 
L 2503 703 
L 3641 703 
L 3641 0 
L 447 0 
L 447 703 
L 1588 703 
L 1588 2797 
L 691 2797 
L 691 3500 
z
M 1588 5203 
L 2503 5203 
L 2503 4134 
L 1588 4134 
L 1588 5203 
z
" transform="scale(0.015625)"/>
     <path id="DejaVuSansMono-Bold-63" d="M 3316 178 
Q 3084 44 2818 -23 
Q 2553 -91 2247 -91 
Q 1438 -91 981 396 
Q 525 884 525 1747 
Q 525 2613 984 3102 
Q 1444 3591 2253 3591 
Q 2534 3591 2795 3525 
Q 3056 3459 3316 3322 
L 3316 2484 
Q 3116 2656 2877 2748 
Q 2638 2841 2381 2841 
Q 1934 2841 1693 2556 
Q 1453 2272 1453 1747 
Q 1453 1222 1693 940 
Q 1934 659 2381 659 
Q 2647 659 2878 748 
Q 3109 838 3316 1019 
L 3316 178 
z
" transform="scale(0.015625)"/>
     <path id="DejaVuSansMono-Bold-65" d="M 3444 172 
Q 3125 41 2794 -25 
Q 2463 -91 2094 -91 
Q 1216 -91 752 379 
Q 288 850 288 1734 
Q 288 2591 734 3087 
Q 1181 3584 1953 3584 
Q 2731 3584 3161 3123 
Q 3591 2663 3591 1825 
L 3591 1453 
L 1219 1453 
Q 1222 1041 1462 837 
Q 1703 634 2181 634 
Q 2497 634 2803 725 
Q 3109 816 3444 1013 
L 3444 172 
z
M 2669 2141 
Q 2663 2503 2483 2689 
Q 2303 2875 1953 2875 
Q 1638 2875 1450 2683 
Q 1263 2491 1228 2138 
L 2669 2141 
z
" transform="scale(0.015625)"/>
     <path id="DejaVuSansMono-Bold-20" transform="scale(0.015625)"/>
     <path id="DejaVuSansMono-Bold-6e" d="M 3347 2272 
L 3347 0 
L 2438 0 
L 2438 2131 
Q 2438 2513 2330 2677 
Q 2222 2841 1978 2841 
Q 1731 2841 1589 2619 
Q 1447 2397 1447 2003 
L 1447 0 
L 538 0 
L 538 3500 
L 1447 3500 
L 1447 2975 
Q 1544 3266 1778 3425 
Q 2013 3584 2344 3584 
Q 2841 3584 3094 3254 
Q 3347 2925 3347 2272 
z
" transform="scale(0.015625)"/>
     <path id="DejaVuSansMono-Bold-57" d="M 0 4666 
L 806 4666 
L 1141 1241 
L 1544 3456 
L 2309 3456 
L 2778 1241 
L 3041 4666 
L 3853 4666 
L 3316 0 
L 2456 0 
L 1925 2450 
L 1428 0 
L 575 0 
L 0 4666 
z
" transform="scale(0.015625)"/>
     <path id="DejaVuSansMono-Bold-6f" d="M 1925 2841 
Q 1597 2841 1409 2552 
Q 1222 2263 1222 1747 
Q 1222 1231 1409 942 
Q 1597 653 1925 653 
Q 2256 653 2443 942 
Q 2631 1231 2631 1747 
Q 2631 2263 2443 2552 
Q 2256 2841 1925 2841 
z
M 306 1747 
Q 306 2594 745 3089 
Q 1184 3584 1925 3584 
Q 2669 3584 3108 3089 
Q 3547 2594 3547 1747 
Q 3547 900 3108 404 
Q 2669 -91 1925 -91 
Q 1184 -91 745 404 
Q 306 900 306 1747 
z
" transform="scale(0.015625)"/>
     <path id="DejaVuSansMono-Bold-64" d="M 2472 3003 
L 2472 4863 
L 3384 4863 
L 3384 0 
L 2472 0 
L 2472 519 
Q 2325 216 2092 62 
Q 1859 -91 1544 -91 
Q 944 -91 612 390 
Q 281 872 281 1747 
Q 281 2634 617 3109 
Q 953 3584 1575 3584 
Q 1856 3584 2079 3439 
Q 2303 3294 2472 3003 
z
M 1197 1741 
Q 1197 1234 1365 946 
Q 1534 659 1831 659 
Q 2128 659 2300 946 
Q 2472 1234 2472 1741 
Q 2472 2247 2300 2534 
Q 2128 2822 1831 2822 
Q 1534 2822 1365 2534 
Q 1197 2247 1197 1741 
z
" transform="scale(0.015625)"/>
     <path id="DejaVuSansMono-Bold-72" d="M 3597 2534 
Q 3447 2672 3245 2740 
Q 3044 2809 2803 2809 
Q 2513 2809 2295 2707 
Q 2078 2606 1959 2413 
Q 1884 2294 1854 2125 
Q 1825 1956 1825 1613 
L 1825 0 
L 909 0 
L 909 3500 
L 1825 3500 
L 1825 2956 
Q 1959 3256 2237 3420 
Q 2516 3584 2888 3584 
Q 3075 3584 3254 3539 
Q 3434 3494 3597 3406 
L 3597 2534 
z
" transform="scale(0.015625)"/>
     <path id="DejaVuSansMono-Bold-61" d="M 2188 1644 
Q 1675 1644 1472 1512 
Q 1269 1381 1269 1063 
Q 1269 825 1409 684 
Q 1550 544 1791 544 
Q 2153 544 2353 817 
Q 2553 1091 2553 1581 
L 2553 1644 
L 2188 1644 
z
M 3463 1997 
L 3463 0 
L 2553 0 
L 2553 391 
Q 2388 159 2128 34 
Q 1869 -91 1556 -91 
Q 959 -91 626 225 
Q 294 541 294 1106 
Q 294 1719 691 2011 
Q 1088 2303 1919 2303 
L 2553 2303 
L 2553 2456 
Q 2553 2678 2392 2792 
Q 2231 2906 1919 2906 
Q 1591 2906 1283 2823 
Q 975 2741 641 2559 
L 641 3341 
Q 944 3466 1256 3525 
Q 1569 3584 1919 3584 
Q 2772 3584 3117 3237 
Q 3463 2891 3463 1997 
z
" transform="scale(0.015625)"/>
    </defs>
    <use xlink:href="#DejaVuSansMono-Bold-41"/>
    <use xlink:href="#DejaVuSansMono-Bold-6c" x="60.205078"/>
    <use xlink:href="#DejaVuSansMono-Bold-69" x="120.410156"/>
    <use xlink:href="#DejaVuSansMono-Bold-63" x="180.615234"/>
    <use xlink:href="#DejaVuSansMono-Bold-65" x="240.820312"/>
    <use xlink:href="#DejaVuSansMono-Bold-20" x="301.025391"/>
    <use xlink:href="#DejaVuSansMono-Bold-69" x="361.230469"/>
    <use xlink:href="#DejaVuSansMono-Bold-6e" x="421.435547"/>
    <use xlink:href="#DejaVuSansMono-Bold-20" x="481.640625"/>
    <use xlink:href="#DejaVuSansMono-Bold-57" x="541.845703"/>
    <use xlink:href="#DejaVuSansMono-Bold-6f" x="602.050781"/>
    <use xlink:href="#DejaVuSansMono-Bold-6e" x="662.255859"/>
    <use xlink:href="#DejaVuSansMono-Bold-64" x="722.460938"/>
    <use xlink:href="#DejaVuSansMono-Bold-65" x="782.666016"/>
    <use xlink:href="#DejaVuSansMono-Bold-72" x="842.871094"/>
    <use xlink:href="#DejaVuSansMono-Bold-6c" x="903.076172"/>
    <use xlink:href="#DejaVuSansMono-Bold-61" x="963.28125"/>
    <use xlink:href="#DejaVuSansMono-Bold-6e" x="1023.486328"/>
    <use xlink:href="#DejaVuSansMono-Bold-64" x="1083.691406"/>
   </g>
  </g>
  <g id="text_20">
   <!-- Top 10 addressees in Alice in Wonderland -->
   <g transform="translate(86.4 37.44) scale(0.16 -0.16)">
    <defs>
     <path id="DejaVuSansMono-54" d="M 147 4666 
L 3706 4666 
L 3706 4134 
L 2247 4134 
L 2247 0 
L 1613 0 
L 1613 4134 
L 147 4134 
L 147 4666 
z
" transform="scale(0.015625)"/>
     <path id="DejaVuSansMono-6f" d="M 1925 3097 
Q 1488 3097 1263 2756 
Q 1038 2416 1038 1747 
Q 1038 1081 1263 739 
Q 1488 397 1925 397 
Q 2366 397 2591 739 
Q 2816 1081 2816 1747 
Q 2816 2416 2591 2756 
Q 2366 3097 1925 3097 
z
M 1925 3584 
Q 2653 3584 3039 3112 
Q 3425 2641 3425 1747 
Q 3425 850 3040 379 
Q 2656 -91 1925 -91 
Q 1197 -91 812 379 
Q 428 850 428 1747 
Q 428 2641 812 3112 
Q 1197 3584 1925 3584 
z
" transform="scale(0.015625)"/>
     <path id="DejaVuSansMono-70" d="M 1172 441 
L 1172 -1331 
L 594 -1331 
L 594 3500 
L 1172 3500 
L 1172 3053 
Q 1316 3313 1555 3448 
Q 1794 3584 2106 3584 
Q 2741 3584 3102 3093 
Q 3463 2603 3463 1734 
Q 3463 881 3100 395 
Q 2738 -91 2106 -91 
Q 1788 -91 1548 45 
Q 1309 181 1172 441 
z
M 2859 1747 
Q 2859 2416 2648 2756 
Q 2438 3097 2022 3097 
Q 1603 3097 1387 2755 
Q 1172 2413 1172 1747 
Q 1172 1084 1387 740 
Q 1603 397 2022 397 
Q 2438 397 2648 737 
Q 2859 1078 2859 1747 
z
" transform="scale(0.015625)"/>
     <path id="DejaVuSansMono-20" transform="scale(0.015625)"/>
     <path id="DejaVuSansMono-61" d="M 2194 1759 
L 2003 1759 
Q 1500 1759 1245 1582 
Q 991 1406 991 1056 
Q 991 741 1181 566 
Q 1372 391 1709 391 
Q 2184 391 2456 720 
Q 2728 1050 2731 1631 
L 2731 1759 
L 2194 1759 
z
M 3309 1997 
L 3309 0 
L 2731 0 
L 2731 519 
Q 2547 206 2267 57 
Q 1988 -91 1588 -91 
Q 1053 -91 734 211 
Q 416 513 416 1019 
Q 416 1603 808 1906 
Q 1200 2209 1959 2209 
L 2731 2209 
L 2731 2300 
Q 2728 2719 2518 2908 
Q 2309 3097 1850 3097 
Q 1556 3097 1256 3012 
Q 956 2928 672 2766 
L 672 3341 
Q 991 3463 1283 3523 
Q 1575 3584 1850 3584 
Q 2284 3584 2592 3456 
Q 2900 3328 3091 3072 
Q 3209 2916 3259 2686 
Q 3309 2456 3309 1997 
z
" transform="scale(0.015625)"/>
     <path id="DejaVuSansMono-64" d="M 2681 3053 
L 2681 4863 
L 3256 4863 
L 3256 0 
L 2681 0 
L 2681 441 
Q 2538 181 2298 45 
Q 2059 -91 1747 -91 
Q 1113 -91 748 401 
Q 384 894 384 1759 
Q 384 2613 750 3098 
Q 1116 3584 1747 3584 
Q 2063 3584 2303 3448 
Q 2544 3313 2681 3053 
z
M 991 1747 
Q 991 1078 1203 737 
Q 1416 397 1831 397 
Q 2247 397 2464 740 
Q 2681 1084 2681 1747 
Q 2681 2413 2464 2755 
Q 2247 3097 1831 3097 
Q 1416 3097 1203 2756 
Q 991 2416 991 1747 
z
" transform="scale(0.015625)"/>
     <path id="DejaVuSansMono-72" d="M 3609 2778 
Q 3425 2922 3234 2987 
Q 3044 3053 2816 3053 
Q 2278 3053 1993 2715 
Q 1709 2378 1709 1741 
L 1709 0 
L 1131 0 
L 1131 3500 
L 1709 3500 
L 1709 2816 
Q 1853 3188 2151 3386 
Q 2450 3584 2859 3584 
Q 3072 3584 3256 3531 
Q 3441 3478 3609 3366 
L 3609 2778 
z
" transform="scale(0.015625)"/>
     <path id="DejaVuSansMono-65" d="M 3475 1894 
L 3475 1613 
L 984 1613 
L 984 1594 
Q 984 1022 1282 709 
Q 1581 397 2125 397 
Q 2400 397 2700 484 
Q 3000 572 3341 750 
L 3341 178 
Q 3013 44 2708 -23 
Q 2403 -91 2119 -91 
Q 1303 -91 843 398 
Q 384 888 384 1747 
Q 384 2584 834 3084 
Q 1284 3584 2034 3584 
Q 2703 3584 3089 3131 
Q 3475 2678 3475 1894 
z
M 2900 2063 
Q 2888 2569 2661 2833 
Q 2434 3097 2009 3097 
Q 1594 3097 1325 2822 
Q 1056 2547 1006 2059 
L 2900 2063 
z
" transform="scale(0.015625)"/>
     <path id="DejaVuSansMono-73" d="M 3041 3378 
L 3041 2816 
Q 2794 2959 2544 3031 
Q 2294 3103 2034 3103 
Q 1644 3103 1451 2976 
Q 1259 2850 1259 2591 
Q 1259 2356 1403 2240 
Q 1547 2125 2119 2016 
L 2350 1972 
Q 2778 1891 2998 1647 
Q 3219 1403 3219 1013 
Q 3219 494 2850 201 
Q 2481 -91 1825 -91 
Q 1566 -91 1281 -36 
Q 997 19 666 128 
L 666 722 
Q 988 556 1281 473 
Q 1575 391 1838 391 
Q 2219 391 2428 545 
Q 2638 700 2638 978 
Q 2638 1378 1872 1531 
L 1847 1538 
L 1631 1581 
Q 1134 1678 906 1908 
Q 678 2138 678 2534 
Q 678 3038 1018 3311 
Q 1359 3584 1991 3584 
Q 2272 3584 2531 3532 
Q 2791 3481 3041 3378 
z
" transform="scale(0.015625)"/>
     <path id="DejaVuSansMono-69" d="M 800 3500 
L 2272 3500 
L 2272 447 
L 3413 447 
L 3413 0 
L 556 0 
L 556 447 
L 1697 447 
L 1697 3053 
L 800 3053 
L 800 3500 
z
M 1697 4863 
L 2272 4863 
L 2272 4134 
L 1697 4134 
L 1697 4863 
z
" transform="scale(0.015625)"/>
     <path id="DejaVuSansMono-6e" d="M 3284 2169 
L 3284 0 
L 2706 0 
L 2706 2169 
Q 2706 2641 2540 2862 
Q 2375 3084 2022 3084 
Q 1619 3084 1401 2798 
Q 1184 2513 1184 1978 
L 1184 0 
L 609 0 
L 609 3500 
L 1184 3500 
L 1184 2975 
Q 1338 3275 1600 3429 
Q 1863 3584 2222 3584 
Q 2756 3584 3020 3232 
Q 3284 2881 3284 2169 
z
" transform="scale(0.015625)"/>
     <path id="DejaVuSansMono-41" d="M 1925 4109 
L 1259 1722 
L 2591 1722 
L 1925 4109 
z
M 1544 4666 
L 2309 4666 
L 3738 0 
L 3084 0 
L 2741 1216 
L 1106 1216 
L 769 0 
L 116 0 
L 1544 4666 
z
" transform="scale(0.015625)"/>
     <path id="DejaVuSansMono-6c" d="M 1997 1269 
Q 1997 881 2139 684 
Q 2281 488 2559 488 
L 3231 488 
L 3231 0 
L 2503 0 
Q 1988 0 1705 331 
Q 1422 663 1422 1269 
L 1422 4447 
L 500 4447 
L 500 4897 
L 1997 4897 
L 1997 1269 
z
" transform="scale(0.015625)"/>
     <path id="DejaVuSansMono-63" d="M 3316 178 
Q 3084 44 2839 -23 
Q 2594 -91 2338 -91 
Q 1525 -91 1067 396 
Q 609 884 609 1747 
Q 609 2609 1067 3096 
Q 1525 3584 2338 3584 
Q 2591 3584 2831 3518 
Q 3072 3453 3316 3316 
L 3316 2713 
Q 3088 2916 2858 3006 
Q 2628 3097 2338 3097 
Q 1797 3097 1506 2747 
Q 1216 2397 1216 1747 
Q 1216 1100 1508 748 
Q 1800 397 2338 397 
Q 2638 397 2875 489 
Q 3113 581 3316 775 
L 3316 178 
z
" transform="scale(0.015625)"/>
     <path id="DejaVuSansMono-57" d="M 0 4666 
L 616 4666 
L 1063 878 
L 1594 3384 
L 2253 3384 
L 2791 872 
L 3238 4666 
L 3853 4666 
L 3156 0 
L 2559 0 
L 1925 2772 
L 1294 0 
L 697 0 
L 0 4666 
z
" transform="scale(0.015625)"/>
    </defs>
    <use xlink:href="#DejaVuSansMono-54"/>
    <use xlink:href="#DejaVuSansMono-6f" x="60.205078"/>
    <use xlink:href="#DejaVuSansMono-70" x="120.410156"/>
    <use xlink:href="#DejaVuSansMono-20" x="180.615234"/>
    <use xlink:href="#DejaVuSansMono-31" x="240.820312"/>
    <use xlink:href="#DejaVuSansMono-30" x="301.025391"/>
    <use xlink:href="#DejaVuSansMono-20" x="361.230469"/>
    <use xlink:href="#DejaVuSansMono-61" x="421.435547"/>
    <use xlink:href="#DejaVuSansMono-64" x="481.640625"/>
    <use xlink:href="#DejaVuSansMono-64" x="541.845703"/>
    <use xlink:href="#DejaVuSansMono-72" x="602.050781"/>
    <use xlink:href="#DejaVuSansMono-65" x="662.255859"/>
    <use xlink:href="#DejaVuSansMono-73" x="722.460938"/>
    <use xlink:href="#DejaVuSansMono-73" x="782.666016"/>
    <use xlink:href="#DejaVuSansMono-65" x="842.871094"/>
    <use xlink:href="#DejaVuSansMono-65" x="903.076172"/>
    <use xlink:href="#DejaVuSansMono-73" x="963.28125"/>
    <use xlink:href="#DejaVuSansMono-20" x="1023.486328"/>
    <use xlink:href="#DejaVuSansMono-69" x="1083.691406"/>
    <use xlink:href="#DejaVuSansMono-6e" x="1143.896484"/>
    <use xlink:href="#DejaVuSansMono-20" x="1204.101562"/>
    <use xlink:href="#DejaVuSansMono-41" x="1264.306641"/>
    <use xlink:href="#DejaVuSansMono-6c" x="1324.511719"/>
    <use xlink:href="#DejaVuSansMono-69" x="1384.716797"/>
    <use xlink:href="#DejaVuSansMono-63" x="1444.921875"/>
    <use xlink:href="#DejaVuSansMono-65" x="1505.126953"/>
    <use xlink:href="#DejaVuSansMono-20" x="1565.332031"/>
    <use xlink:href="#DejaVuSansMono-69" x="1625.537109"/>
    <use xlink:href="#DejaVuSansMono-6e" x="1685.742188"/>
    <use xlink:href="#DejaVuSansMono-20" x="1745.947266"/>
    <use xlink:href="#DejaVuSansMono-57" x="1806.152344"/>
    <use xlink:href="#DejaVuSansMono-6f" x="1866.357422"/>
    <use xlink:href="#DejaVuSansMono-6e" x="1926.5625"/>
    <use xlink:href="#DejaVuSansMono-64" x="1986.767578"/>
    <use xlink:href="#DejaVuSansMono-65" x="2046.972656"/>
    <use xlink:href="#DejaVuSansMono-72" x="2107.177734"/>
    <use xlink:href="#DejaVuSansMono-6c" x="2167.382812"/>
    <use xlink:href="#DejaVuSansMono-61" x="2227.587891"/>
    <use xlink:href="#DejaVuSansMono-6e" x="2287.792969"/>
    <use xlink:href="#DejaVuSansMono-64" x="2347.998047"/>
   </g>
  </g>
  <g id="text_21">
   <!-- Source: Project Dialog,Github -->
   <g style="fill: #808080" transform="translate(86.4 547.2) scale(0.1 -0.1)">
    <defs>
     <path id="DejaVuSansMono-53" d="M 3163 4506 
L 3163 3866 
Q 2875 4050 2586 4144 
Q 2297 4238 2003 4238 
Q 1556 4238 1297 4030 
Q 1038 3822 1038 3469 
Q 1038 3159 1208 2996 
Q 1378 2834 1844 2725 
L 2175 2650 
Q 2831 2497 3131 2169 
Q 3431 1841 3431 1275 
Q 3431 609 3018 259 
Q 2606 -91 1819 -91 
Q 1491 -91 1159 -20 
Q 828 50 494 191 
L 494 863 
Q 853 634 1173 528 
Q 1494 422 1819 422 
Q 2297 422 2562 636 
Q 2828 850 2828 1234 
Q 2828 1584 2645 1768 
Q 2463 1953 2009 2053 
L 1672 2131 
Q 1022 2278 728 2575 
Q 434 2872 434 3372 
Q 434 3997 854 4373 
Q 1275 4750 1972 4750 
Q 2241 4750 2537 4689 
Q 2834 4628 3163 4506 
z
" transform="scale(0.015625)"/>
     <path id="DejaVuSansMono-75" d="M 609 1325 
L 609 3494 
L 1184 3494 
L 1184 1325 
Q 1184 853 1351 631 
Q 1519 409 1869 409 
Q 2275 409 2490 695 
Q 2706 981 2706 1516 
L 2706 3494 
L 3284 3494 
L 3284 0 
L 2706 0 
L 2706 525 
Q 2553 222 2289 65 
Q 2025 -91 1672 -91 
Q 1134 -91 871 261 
Q 609 613 609 1325 
z
" transform="scale(0.015625)"/>
     <path id="DejaVuSansMono-3a" d="M 1528 3322 
L 2316 3322 
L 2316 2375 
L 1528 2375 
L 1528 3322 
z
M 1528 953 
L 2316 953 
L 2316 0 
L 1528 0 
L 1528 953 
z
" transform="scale(0.015625)"/>
     <path id="DejaVuSansMono-50" d="M 1247 4147 
L 1247 2394 
L 1978 2394 
Q 2416 2394 2661 2625 
Q 2906 2856 2906 3272 
Q 2906 3688 2662 3917 
Q 2419 4147 1978 4147 
L 1247 4147 
z
M 616 4666 
L 1978 4666 
Q 2759 4666 3162 4311 
Q 3566 3956 3566 3272 
Q 3566 2581 3164 2228 
Q 2763 1875 1978 1875 
L 1247 1875 
L 1247 0 
L 616 0 
L 616 4666 
z
" transform="scale(0.015625)"/>
     <path id="DejaVuSansMono-6a" d="M 1875 -63 
L 1875 3053 
L 884 3053 
L 884 3500 
L 2450 3500 
L 2450 -63 
Q 2450 -672 2170 -1001 
Q 1891 -1331 1375 -1331 
L 581 -1331 
L 581 -844 
L 1313 -844 
Q 1594 -844 1734 -648 
Q 1875 -453 1875 -63 
z
M 1875 4863 
L 2450 4863 
L 2450 4134 
L 1875 4134 
L 1875 4863 
z
" transform="scale(0.015625)"/>
     <path id="DejaVuSansMono-74" d="M 1919 4494 
L 1919 3500 
L 3225 3500 
L 3225 3053 
L 1919 3053 
L 1919 1153 
Q 1919 766 2066 612 
Q 2213 459 2578 459 
L 3225 459 
L 3225 0 
L 2522 0 
Q 1875 0 1609 259 
Q 1344 519 1344 1153 
L 1344 3053 
L 409 3053 
L 409 3500 
L 1344 3500 
L 1344 4494 
L 1919 4494 
z
" transform="scale(0.015625)"/>
     <path id="DejaVuSansMono-44" d="M 1363 519 
Q 2159 519 2475 911 
Q 2791 1303 2791 2328 
Q 2791 3363 2477 3755 
Q 2163 4147 1363 4147 
L 1063 4147 
L 1063 519 
L 1363 519 
z
M 1375 4666 
Q 2444 4666 2950 4097 
Q 3456 3528 3456 2328 
Q 3456 1134 2950 567 
Q 2444 0 1375 0 
L 428 0 
L 428 4666 
L 1375 4666 
z
" transform="scale(0.015625)"/>
     <path id="DejaVuSansMono-67" d="M 2681 1778 
Q 2681 2425 2470 2761 
Q 2259 3097 1856 3097 
Q 1434 3097 1212 2761 
Q 991 2425 991 1778 
Q 991 1131 1214 792 
Q 1438 453 1863 453 
Q 2259 453 2470 793 
Q 2681 1134 2681 1778 
z
M 3256 225 
Q 3256 -563 2884 -969 
Q 2513 -1375 1791 -1375 
Q 1553 -1375 1293 -1331 
Q 1034 -1288 775 -1203 
L 775 -634 
Q 1081 -778 1331 -847 
Q 1581 -916 1791 -916 
Q 2256 -916 2468 -662 
Q 2681 -409 2681 141 
L 2681 166 
L 2681 556 
Q 2544 263 2306 119 
Q 2069 -25 1728 -25 
Q 1116 -25 750 465 
Q 384 956 384 1778 
Q 384 2603 750 3093 
Q 1116 3584 1728 3584 
Q 2066 3584 2300 3450 
Q 2534 3316 2681 3034 
L 2681 3488 
L 3256 3488 
L 3256 225 
z
" transform="scale(0.015625)"/>
     <path id="DejaVuSansMono-2c" d="M 1569 947 
L 2356 947 
L 2356 300 
L 1741 -897 
L 1259 -897 
L 1569 300 
L 1569 947 
z
" transform="scale(0.015625)"/>
     <path id="DejaVuSansMono-47" d="M 3450 384 
Q 3197 150 2880 29 
Q 2563 -91 2194 -91 
Q 1306 -91 812 545 
Q 319 1181 319 2328 
Q 319 3472 819 4111 
Q 1319 4750 2209 4750 
Q 2503 4750 2772 4667 
Q 3041 4584 3291 4416 
L 3291 3769 
Q 3038 4009 2772 4123 
Q 2506 4238 2209 4238 
Q 1594 4238 1286 3761 
Q 978 3284 978 2328 
Q 978 1356 1276 889 
Q 1575 422 2194 422 
Q 2403 422 2561 470 
Q 2719 519 2847 622 
L 2847 1875 
L 2169 1875 
L 2169 2394 
L 3450 2394 
L 3450 384 
z
" transform="scale(0.015625)"/>
     <path id="DejaVuSansMono-68" d="M 3284 2169 
L 3284 0 
L 2706 0 
L 2706 2169 
Q 2706 2641 2540 2862 
Q 2375 3084 2022 3084 
Q 1619 3084 1401 2798 
Q 1184 2513 1184 1978 
L 1184 0 
L 609 0 
L 609 4863 
L 1184 4863 
L 1184 2975 
Q 1338 3275 1600 3429 
Q 1863 3584 2222 3584 
Q 2756 3584 3020 3232 
Q 3284 2881 3284 2169 
z
" transform="scale(0.015625)"/>
     <path id="DejaVuSansMono-62" d="M 2869 1747 
Q 2869 2416 2656 2756 
Q 2444 3097 2028 3097 
Q 1609 3097 1393 2755 
Q 1178 2413 1178 1747 
Q 1178 1084 1393 740 
Q 1609 397 2028 397 
Q 2444 397 2656 737 
Q 2869 1078 2869 1747 
z
M 1178 3053 
Q 1316 3309 1558 3446 
Q 1800 3584 2119 3584 
Q 2750 3584 3112 3098 
Q 3475 2613 3475 1759 
Q 3475 894 3111 401 
Q 2747 -91 2113 -91 
Q 1800 -91 1561 45 
Q 1322 181 1178 441 
L 1178 0 
L 603 0 
L 603 4863 
L 1178 4863 
L 1178 3053 
z
" transform="scale(0.015625)"/>
    </defs>
    <use xlink:href="#DejaVuSansMono-53"/>
    <use xlink:href="#DejaVuSansMono-6f" x="60.205078"/>
    <use xlink:href="#DejaVuSansMono-75" x="120.410156"/>
    <use xlink:href="#DejaVuSansMono-72" x="180.615234"/>
    <use xlink:href="#DejaVuSansMono-63" x="240.820312"/>
    <use xlink:href="#DejaVuSansMono-65" x="301.025391"/>
    <use xlink:href="#DejaVuSansMono-3a" x="361.230469"/>
    <use xlink:href="#DejaVuSansMono-20" x="421.435547"/>
    <use xlink:href="#DejaVuSansMono-50" x="481.640625"/>
    <use xlink:href="#DejaVuSansMono-72" x="541.845703"/>
    <use xlink:href="#DejaVuSansMono-6f" x="602.050781"/>
    <use xlink:href="#DejaVuSansMono-6a" x="662.255859"/>
    <use xlink:href="#DejaVuSansMono-65" x="722.460938"/>
    <use xlink:href="#DejaVuSansMono-63" x="782.666016"/>
    <use xlink:href="#DejaVuSansMono-74" x="842.871094"/>
    <use xlink:href="#DejaVuSansMono-20" x="903.076172"/>
    <use xlink:href="#DejaVuSansMono-44" x="963.28125"/>
    <use xlink:href="#DejaVuSansMono-69" x="1023.486328"/>
    <use xlink:href="#DejaVuSansMono-61" x="1083.691406"/>
    <use xlink:href="#DejaVuSansMono-6c" x="1143.896484"/>
    <use xlink:href="#DejaVuSansMono-6f" x="1204.101562"/>
    <use xlink:href="#DejaVuSansMono-67" x="1264.306641"/>
    <use xlink:href="#DejaVuSansMono-2c" x="1324.511719"/>
    <use xlink:href="#DejaVuSansMono-47" x="1384.716797"/>
    <use xlink:href="#DejaVuSansMono-69" x="1444.921875"/>
    <use xlink:href="#DejaVuSansMono-74" x="1505.126953"/>
    <use xlink:href="#DejaVuSansMono-68" x="1565.332031"/>
    <use xlink:href="#DejaVuSansMono-75" x="1625.537109"/>
    <use xlink:href="#DejaVuSansMono-62" x="1685.742188"/>
   </g>
  </g>
  <g id="text_22">
   <!-- @lagom-QB; 2023 -->
   <g style="fill: #808080" transform="translate(86.4 564.48) scale(0.12 -0.12)">
    <defs>
     <path id="ArialMT-40" d="M 3628 509 
Q 3425 275 3173 133 
Q 2922 -9 2669 -9 
Q 2391 -9 2128 153 
Q 1866 316 1702 653 
Q 1538 991 1538 1394 
Q 1538 1891 1792 2389 
Q 2047 2888 2425 3138 
Q 2803 3388 3159 3388 
Q 3431 3388 3678 3245 
Q 3925 3103 4103 2813 
L 4209 3297 
L 4769 3297 
L 4319 1200 
Q 4225 763 4225 716 
Q 4225 631 4289 570 
Q 4353 509 4444 509 
Q 4609 509 4878 700 
Q 5234 950 5442 1370 
Q 5650 1791 5650 2238 
Q 5650 2759 5383 3212 
Q 5116 3666 4586 3937 
Q 4056 4209 3416 4209 
Q 2684 4209 2079 3867 
Q 1475 3525 1142 2886 
Q 809 2247 809 1516 
Q 809 750 1142 197 
Q 1475 -356 2104 -620 
Q 2734 -884 3500 -884 
Q 4319 -884 4872 -609 
Q 5425 -334 5700 59 
L 6266 59 
Q 6106 -269 5718 -609 
Q 5331 -950 4797 -1148 
Q 4263 -1347 3509 -1347 
Q 2816 -1347 2230 -1169 
Q 1644 -991 1231 -633 
Q 819 -275 609 191 
Q 347 781 347 1466 
Q 347 2228 659 2919 
Q 1041 3766 1742 4216 
Q 2444 4666 3444 4666 
Q 4219 4666 4836 4348 
Q 5453 4031 5809 3403 
Q 6113 2863 6113 2228 
Q 6113 1322 5475 619 
Q 4906 -13 4231 -13 
Q 4016 -13 3883 53 
Q 3750 119 3688 241 
Q 3647 319 3628 509 
z
M 2116 1356 
Q 2116 928 2319 690 
Q 2522 453 2784 453 
Q 2959 453 3153 558 
Q 3347 663 3523 869 
Q 3700 1075 3812 1392 
Q 3925 1709 3925 2028 
Q 3925 2453 3714 2687 
Q 3503 2922 3200 2922 
Q 3000 2922 2823 2820 
Q 2647 2719 2481 2494 
Q 2316 2269 2216 1947 
Q 2116 1625 2116 1356 
z
" transform="scale(0.015625)"/>
     <path id="ArialMT-6c" d="M 409 0 
L 409 4581 
L 972 4581 
L 972 0 
L 409 0 
z
" transform="scale(0.015625)"/>
     <path id="ArialMT-61" d="M 2588 409 
Q 2275 144 1986 34 
Q 1697 -75 1366 -75 
Q 819 -75 525 192 
Q 231 459 231 875 
Q 231 1119 342 1320 
Q 453 1522 633 1644 
Q 813 1766 1038 1828 
Q 1203 1872 1538 1913 
Q 2219 1994 2541 2106 
Q 2544 2222 2544 2253 
Q 2544 2597 2384 2738 
Q 2169 2928 1744 2928 
Q 1347 2928 1158 2789 
Q 969 2650 878 2297 
L 328 2372 
Q 403 2725 575 2942 
Q 747 3159 1072 3276 
Q 1397 3394 1825 3394 
Q 2250 3394 2515 3294 
Q 2781 3194 2906 3042 
Q 3031 2891 3081 2659 
Q 3109 2516 3109 2141 
L 3109 1391 
Q 3109 606 3145 398 
Q 3181 191 3288 0 
L 2700 0 
Q 2613 175 2588 409 
z
M 2541 1666 
Q 2234 1541 1622 1453 
Q 1275 1403 1131 1340 
Q 988 1278 909 1158 
Q 831 1038 831 891 
Q 831 666 1001 516 
Q 1172 366 1500 366 
Q 1825 366 2078 508 
Q 2331 650 2450 897 
Q 2541 1088 2541 1459 
L 2541 1666 
z
" transform="scale(0.015625)"/>
     <path id="ArialMT-67" d="M 319 -275 
L 866 -356 
Q 900 -609 1056 -725 
Q 1266 -881 1628 -881 
Q 2019 -881 2231 -725 
Q 2444 -569 2519 -288 
Q 2563 -116 2559 434 
Q 2191 0 1641 0 
Q 956 0 581 494 
Q 206 988 206 1678 
Q 206 2153 378 2554 
Q 550 2956 876 3175 
Q 1203 3394 1644 3394 
Q 2231 3394 2613 2919 
L 2613 3319 
L 3131 3319 
L 3131 450 
Q 3131 -325 2973 -648 
Q 2816 -972 2473 -1159 
Q 2131 -1347 1631 -1347 
Q 1038 -1347 672 -1080 
Q 306 -813 319 -275 
z
M 784 1719 
Q 784 1066 1043 766 
Q 1303 466 1694 466 
Q 2081 466 2343 764 
Q 2606 1063 2606 1700 
Q 2606 2309 2336 2618 
Q 2066 2928 1684 2928 
Q 1309 2928 1046 2623 
Q 784 2319 784 1719 
z
" transform="scale(0.015625)"/>
     <path id="ArialMT-6f" d="M 213 1659 
Q 213 2581 725 3025 
Q 1153 3394 1769 3394 
Q 2453 3394 2887 2945 
Q 3322 2497 3322 1706 
Q 3322 1066 3130 698 
Q 2938 331 2570 128 
Q 2203 -75 1769 -75 
Q 1072 -75 642 372 
Q 213 819 213 1659 
z
M 791 1659 
Q 791 1022 1069 705 
Q 1347 388 1769 388 
Q 2188 388 2466 706 
Q 2744 1025 2744 1678 
Q 2744 2294 2464 2611 
Q 2184 2928 1769 2928 
Q 1347 2928 1069 2612 
Q 791 2297 791 1659 
z
" transform="scale(0.015625)"/>
     <path id="ArialMT-6d" d="M 422 0 
L 422 3319 
L 925 3319 
L 925 2853 
Q 1081 3097 1340 3245 
Q 1600 3394 1931 3394 
Q 2300 3394 2536 3241 
Q 2772 3088 2869 2813 
Q 3263 3394 3894 3394 
Q 4388 3394 4653 3120 
Q 4919 2847 4919 2278 
L 4919 0 
L 4359 0 
L 4359 2091 
Q 4359 2428 4304 2576 
Q 4250 2725 4106 2815 
Q 3963 2906 3769 2906 
Q 3419 2906 3187 2673 
Q 2956 2441 2956 1928 
L 2956 0 
L 2394 0 
L 2394 2156 
Q 2394 2531 2256 2718 
Q 2119 2906 1806 2906 
Q 1569 2906 1367 2781 
Q 1166 2656 1075 2415 
Q 984 2175 984 1722 
L 984 0 
L 422 0 
z
" transform="scale(0.015625)"/>
     <path id="ArialMT-2d" d="M 203 1375 
L 203 1941 
L 1931 1941 
L 1931 1375 
L 203 1375 
z
" transform="scale(0.015625)"/>
     <path id="ArialMT-51" d="M 3966 491 
Q 4388 200 4744 66 
L 4566 -356 
Q 4072 -178 3581 206 
Q 3072 -78 2456 -78 
Q 1834 -78 1328 222 
Q 822 522 548 1065 
Q 275 1609 275 2291 
Q 275 2969 550 3525 
Q 825 4081 1333 4372 
Q 1841 4663 2469 4663 
Q 3103 4663 3612 4361 
Q 4122 4059 4389 3517 
Q 4656 2975 4656 2294 
Q 4656 1728 4484 1276 
Q 4313 825 3966 491 
z
M 2631 1266 
Q 3156 1119 3497 828 
Q 4031 1316 4031 2294 
Q 4031 2850 3842 3265 
Q 3653 3681 3289 3911 
Q 2925 4141 2472 4141 
Q 1794 4141 1347 3677 
Q 900 3213 900 2291 
Q 900 1397 1342 919 
Q 1784 441 2472 441 
Q 2797 441 3084 563 
Q 2800 747 2484 825 
L 2631 1266 
z
" transform="scale(0.015625)"/>
     <path id="ArialMT-3b" d="M 569 2678 
L 569 3319 
L 1209 3319 
L 1209 2678 
L 569 2678 
z
M 569 0 
L 569 641 
L 1209 641 
L 1209 0 
Q 1209 -353 1084 -570 
Q 959 -788 688 -906 
L 531 -666 
Q 709 -588 793 -436 
Q 878 -284 888 0 
L 569 0 
z
" transform="scale(0.015625)"/>
     <path id="ArialMT-32" d="M 3222 541 
L 3222 0 
L 194 0 
Q 188 203 259 391 
Q 375 700 629 1000 
Q 884 1300 1366 1694 
Q 2113 2306 2375 2664 
Q 2638 3022 2638 3341 
Q 2638 3675 2398 3904 
Q 2159 4134 1775 4134 
Q 1369 4134 1125 3890 
Q 881 3647 878 3216 
L 300 3275 
Q 359 3922 746 4261 
Q 1134 4600 1788 4600 
Q 2447 4600 2831 4234 
Q 3216 3869 3216 3328 
Q 3216 3053 3103 2787 
Q 2991 2522 2730 2228 
Q 2469 1934 1863 1422 
Q 1356 997 1212 845 
Q 1069 694 975 541 
L 3222 541 
z
" transform="scale(0.015625)"/>
     <path id="ArialMT-30" d="M 266 2259 
Q 266 3072 433 3567 
Q 600 4063 929 4331 
Q 1259 4600 1759 4600 
Q 2128 4600 2406 4451 
Q 2684 4303 2865 4023 
Q 3047 3744 3150 3342 
Q 3253 2941 3253 2259 
Q 3253 1453 3087 958 
Q 2922 463 2592 192 
Q 2263 -78 1759 -78 
Q 1097 -78 719 397 
Q 266 969 266 2259 
z
M 844 2259 
Q 844 1131 1108 757 
Q 1372 384 1759 384 
Q 2147 384 2411 759 
Q 2675 1134 2675 2259 
Q 2675 3391 2411 3762 
Q 2147 4134 1753 4134 
Q 1366 4134 1134 3806 
Q 844 3388 844 2259 
z
" transform="scale(0.015625)"/>
     <path id="ArialMT-33" d="M 269 1209 
L 831 1284 
Q 928 806 1161 595 
Q 1394 384 1728 384 
Q 2125 384 2398 659 
Q 2672 934 2672 1341 
Q 2672 1728 2419 1979 
Q 2166 2231 1775 2231 
Q 1616 2231 1378 2169 
L 1441 2663 
Q 1497 2656 1531 2656 
Q 1891 2656 2178 2843 
Q 2466 3031 2466 3422 
Q 2466 3731 2256 3934 
Q 2047 4138 1716 4138 
Q 1388 4138 1169 3931 
Q 950 3725 888 3313 
L 325 3413 
Q 428 3978 793 4289 
Q 1159 4600 1703 4600 
Q 2078 4600 2393 4439 
Q 2709 4278 2876 4000 
Q 3044 3722 3044 3409 
Q 3044 3113 2884 2869 
Q 2725 2625 2413 2481 
Q 2819 2388 3044 2092 
Q 3269 1797 3269 1353 
Q 3269 753 2831 336 
Q 2394 -81 1725 -81 
Q 1122 -81 723 278 
Q 325 638 269 1209 
z
" transform="scale(0.015625)"/>
    </defs>
    <use xlink:href="#ArialMT-40"/>
    <use xlink:href="#ArialMT-6c" x="101.513672"/>
    <use xlink:href="#ArialMT-61" x="123.730469"/>
    <use xlink:href="#ArialMT-67" x="179.345703"/>
    <use xlink:href="#ArialMT-6f" x="234.960938"/>
    <use xlink:href="#ArialMT-6d" x="290.576172"/>
    <use xlink:href="#ArialMT-2d" x="373.876953"/>
    <use xlink:href="#ArialMT-51" x="407.177734"/>
    <use xlink:href="#ArialMT-42" x="484.960938"/>
    <use xlink:href="#ArialMT-3b" x="551.660156"/>
    <use xlink:href="#ArialMT-20" x="579.443359"/>
    <use xlink:href="#ArialMT-32" x="607.226562"/>
    <use xlink:href="#ArialMT-30" x="662.841797"/>
    <use xlink:href="#ArialMT-32" x="718.457031"/>
    <use xlink:href="#ArialMT-33" x="774.072266"/>
   </g>
  </g>
 </g>
 <defs>
  <clipPath id="p6845b9c149">
   <rect x="120.96" y="57.6" width="656.64" height="460.8"/>
  </clipPath>
 </defs>
</svg>
