<?xml version="1.0" encoding="utf-8" standalone="no"?>
<!DOCTYPE svg PUBLIC "-//W3C//DTD SVG 1.1//EN"
  "http://www.w3.org/Graphics/SVG/1.1/DTD/svg11.dtd">
<svg xmlns:xlink="http://www.w3.org/1999/xlink" width="864pt" height="576pt" viewBox="0 0 864 576" xmlns="http://www.w3.org/2000/svg" version="1.1">
 <metadata>
  <rdf:RDF xmlns:dc="http://purl.org/dc/elements/1.1/" xmlns:cc="http://creativecommons.org/ns#" xmlns:rdf="http://www.w3.org/1999/02/22-rdf-syntax-ns#">
   <cc:Work>
    <dc:type rdf:resource="http://purl.org/dc/dcmitype/StillImage"/>
    <dc:date>2023-08-13T22:11:08.107700</dc:date>
    <dc:format>image/svg+xml</dc:format>
    <dc:creator>
     <cc:Agent>
      <dc:title>Matplotlib v3.7.1, https://matplotlib.org/</dc:title>
     </cc:Agent>
    </dc:creator>
   </cc:Work>
  </rdf:RDF>
 </metadata>
 <defs>
  <style type="text/css">*{stroke-linejoin: round; stroke-linecap: butt}</style>
 </defs>
 <g id="figure_1">
  <g id="patch_1">
   <path d="M 0 576 
L 864 576 
L 864 0 
L 0 0 
z
" style="fill: #ffffff"/>
  </g>
  <g id="axes_1">
   <g id="patch_2">
    <path d="M 120.96 518.4 
L 777.6 518.4 
L 777.6 57.6 
L 120.96 57.6 
z
" style="fill: #ffffff"/>
   </g>
   <g id="matplotlib.axis_1">
    <g id="xtick_1">
     <g id="line2d_1">
      <path d="M 250.730751 518.4 
L 250.730751 57.6 
" clip-path="url(#p8e19121be5)" style="fill: none; stroke: #808080; stroke-width: 0.4; stroke-linecap: square"/>
     </g>
     <g id="line2d_2"/>
     <g id="text_1">
      <!-- 100 -->
      <g transform="translate(239.894188 51.604375) scale(0.12 -0.12)">
       <defs>
        <path id="DejaVuSansMono-31" d="M 844 531 
L 1825 531 
L 1825 4097 
L 769 3859 
L 769 4434 
L 1819 4666 
L 2450 4666 
L 2450 531 
L 3419 531 
L 3419 0 
L 844 0 
L 844 531 
z
" transform="scale(0.015625)"/>
        <path id="DejaVuSansMono-30" d="M 1509 2344 
Q 1509 2516 1629 2641 
Q 1750 2766 1919 2766 
Q 2094 2766 2219 2641 
Q 2344 2516 2344 2344 
Q 2344 2169 2220 2047 
Q 2097 1925 1919 1925 
Q 1744 1925 1626 2044 
Q 1509 2163 1509 2344 
z
M 1925 4250 
Q 1484 4250 1267 3775 
Q 1050 3300 1050 2328 
Q 1050 1359 1267 884 
Q 1484 409 1925 409 
Q 2369 409 2586 884 
Q 2803 1359 2803 2328 
Q 2803 3300 2586 3775 
Q 2369 4250 1925 4250 
z
M 1925 4750 
Q 2672 4750 3055 4137 
Q 3438 3525 3438 2328 
Q 3438 1134 3055 521 
Q 2672 -91 1925 -91 
Q 1178 -91 797 521 
Q 416 1134 416 2328 
Q 416 3525 797 4137 
Q 1178 4750 1925 4750 
z
" transform="scale(0.015625)"/>
       </defs>
       <use xlink:href="#DejaVuSansMono-31"/>
       <use xlink:href="#DejaVuSansMono-30" x="60.205078"/>
       <use xlink:href="#DejaVuSansMono-30" x="120.410156"/>
      </g>
     </g>
    </g>
    <g id="xtick_2">
     <g id="line2d_3">
      <path d="M 250.730751 518.4 
L 250.730751 57.6 
" clip-path="url(#p8e19121be5)" style="fill: none; stroke: #808080; stroke-width: 0.4; stroke-linecap: square"/>
     </g>
     <g id="line2d_4"/>
     <g id="text_2">
      <!-- 100 -->
      <g transform="translate(239.894188 51.604375) scale(0.12 -0.12)">
       <use xlink:href="#DejaVuSansMono-31"/>
       <use xlink:href="#DejaVuSansMono-30" x="60.205078"/>
       <use xlink:href="#DejaVuSansMono-30" x="120.410156"/>
      </g>
     </g>
    </g>
    <g id="xtick_3">
     <g id="line2d_5">
      <path d="M 250.730751 518.4 
L 250.730751 57.6 
" clip-path="url(#p8e19121be5)" style="fill: none; stroke: #808080; stroke-width: 0.4; stroke-linecap: square"/>
     </g>
     <g id="line2d_6"/>
     <g id="text_3">
      <!-- 100 -->
      <g transform="translate(239.894188 51.604375) scale(0.12 -0.12)">
       <use xlink:href="#DejaVuSansMono-31"/>
       <use xlink:href="#DejaVuSansMono-30" x="60.205078"/>
       <use xlink:href="#DejaVuSansMono-30" x="120.410156"/>
      </g>
     </g>
    </g>
    <g id="xtick_4">
     <g id="line2d_7">
      <path d="M 250.730751 518.4 
L 250.730751 57.6 
" clip-path="url(#p8e19121be5)" style="fill: none; stroke: #808080; stroke-width: 0.4; stroke-linecap: square"/>
     </g>
     <g id="line2d_8"/>
     <g id="text_4">
      <!-- 100 -->
      <g transform="translate(239.894188 51.604375) scale(0.12 -0.12)">
       <use xlink:href="#DejaVuSansMono-31"/>
       <use xlink:href="#DejaVuSansMono-30" x="60.205078"/>
       <use xlink:href="#DejaVuSansMono-30" x="120.410156"/>
      </g>
     </g>
    </g>
    <g id="xtick_5">
     <g id="line2d_9">
      <path d="M 250.730751 518.4 
L 250.730751 57.6 
" clip-path="url(#p8e19121be5)" style="fill: none; stroke: #808080; stroke-width: 0.4; stroke-linecap: square"/>
     </g>
     <g id="line2d_10"/>
     <g id="text_5">
      <!-- 100 -->
      <g transform="translate(239.894188 51.604375) scale(0.12 -0.12)">
       <use xlink:href="#DejaVuSansMono-31"/>
       <use xlink:href="#DejaVuSansMono-30" x="60.205078"/>
       <use xlink:href="#DejaVuSansMono-30" x="120.410156"/>
      </g>
     </g>
    </g>
    <g id="xtick_6">
     <g id="line2d_11">
      <path d="M 250.730751 518.4 
L 250.730751 57.6 
" clip-path="url(#p8e19121be5)" style="fill: none; stroke: #808080; stroke-width: 0.4; stroke-linecap: square"/>
     </g>
     <g id="line2d_12"/>
     <g id="text_6">
      <!-- 100 -->
      <g transform="translate(239.894188 51.604375) scale(0.12 -0.12)">
       <use xlink:href="#DejaVuSansMono-31"/>
       <use xlink:href="#DejaVuSansMono-30" x="60.205078"/>
       <use xlink:href="#DejaVuSansMono-30" x="120.410156"/>
      </g>
     </g>
    </g>
    <g id="xtick_7">
     <g id="line2d_13">
      <path d="M 250.730751 518.4 
L 250.730751 57.6 
" clip-path="url(#p8e19121be5)" style="fill: none; stroke: #808080; stroke-width: 0.4; stroke-linecap: square"/>
     </g>
     <g id="line2d_14"/>
     <g id="text_7">
      <!-- 100 -->
      <g transform="translate(239.894188 51.604375) scale(0.12 -0.12)">
       <use xlink:href="#DejaVuSansMono-31"/>
       <use xlink:href="#DejaVuSansMono-30" x="60.205078"/>
       <use xlink:href="#DejaVuSansMono-30" x="120.410156"/>
      </g>
     </g>
    </g>
    <g id="xtick_8">
     <g id="line2d_15">
      <path d="M 640.043004 518.4 
L 640.043004 57.6 
" clip-path="url(#p8e19121be5)" style="fill: none; stroke: #808080; stroke-width: 0.4; stroke-linecap: square"/>
     </g>
     <g id="line2d_16"/>
     <g id="text_8">
      <!-- 400 -->
      <g transform="translate(629.206441 51.604375) scale(0.12 -0.12)">
       <defs>
        <path id="DejaVuSansMono-34" d="M 2297 4091 
L 825 1625 
L 2297 1625 
L 2297 4091 
z
M 2194 4666 
L 2925 4666 
L 2925 1625 
L 3547 1625 
L 3547 1113 
L 2925 1113 
L 2925 0 
L 2297 0 
L 2297 1113 
L 319 1113 
L 319 1709 
L 2194 4666 
z
" transform="scale(0.015625)"/>
       </defs>
       <use xlink:href="#DejaVuSansMono-34"/>
       <use xlink:href="#DejaVuSansMono-30" x="60.205078"/>
       <use xlink:href="#DejaVuSansMono-30" x="120.410156"/>
      </g>
     </g>
    </g>
    <g id="xtick_9">
     <g id="line2d_17">
      <path d="M 769.813755 518.4 
L 769.813755 57.6 
" clip-path="url(#p8e19121be5)" style="fill: none; stroke: #808080; stroke-width: 0.4; stroke-linecap: square"/>
     </g>
     <g id="line2d_18"/>
     <g id="text_9">
      <!-- 500 -->
      <g transform="translate(758.977192 51.604375) scale(0.12 -0.12)">
       <defs>
        <path id="DejaVuSansMono-35" d="M 647 4666 
L 3009 4666 
L 3009 4134 
L 1222 4134 
L 1222 2988 
Q 1356 3038 1492 3061 
Q 1628 3084 1766 3084 
Q 2491 3084 2916 2656 
Q 3341 2228 3341 1497 
Q 3341 759 2895 334 
Q 2450 -91 1678 -91 
Q 1306 -91 998 -41 
Q 691 9 447 109 
L 447 750 
Q 734 594 1025 517 
Q 1316 441 1619 441 
Q 2141 441 2423 716 
Q 2706 991 2706 1497 
Q 2706 1997 2414 2275 
Q 2122 2553 1600 2553 
Q 1347 2553 1106 2495 
Q 866 2438 647 2322 
L 647 4666 
z
" transform="scale(0.015625)"/>
       </defs>
       <use xlink:href="#DejaVuSansMono-35"/>
       <use xlink:href="#DejaVuSansMono-30" x="60.205078"/>
       <use xlink:href="#DejaVuSansMono-30" x="120.410156"/>
      </g>
     </g>
    </g>
   </g>
   <g id="patch_3">
    <path d="M 120.96 518.4 
L 216.990356 518.4 
L 216.990356 494.701714 
L 120.96 494.701714 
z
" clip-path="url(#p8e19121be5)" style="fill: #076fa2; opacity: 0.9"/>
   </g>
   <g id="patch_4">
    <path d="M 120.96 471.003429 
L 216.990356 471.003429 
L 216.990356 447.305143 
L 120.96 447.305143 
z
" clip-path="url(#p8e19121be5)" style="fill: #076fa2; opacity: 0.9"/>
   </g>
   <g id="patch_5">
    <path d="M 120.96 423.606857 
L 222.181186 423.606857 
L 222.181186 399.908571 
L 120.96 399.908571 
z
" clip-path="url(#p8e19121be5)" style="fill: #076fa2; opacity: 0.9"/>
   </g>
   <g id="patch_6">
    <path d="M 120.96 376.210286 
L 228.669723 376.210286 
L 228.669723 352.512 
L 120.96 352.512 
z
" clip-path="url(#p8e19121be5)" style="fill: #076fa2; opacity: 0.9"/>
   </g>
   <g id="patch_7">
    <path d="M 120.96 328.813714 
L 229.967431 328.813714 
L 229.967431 305.115429 
L 120.96 305.115429 
z
" clip-path="url(#p8e19121be5)" style="fill: #076fa2; opacity: 0.9"/>
   </g>
   <g id="patch_8">
    <path d="M 120.96 281.417143 
L 231.265138 281.417143 
L 231.265138 257.718857 
L 120.96 257.718857 
z
" clip-path="url(#p8e19121be5)" style="fill: #076fa2; opacity: 0.9"/>
   </g>
   <g id="patch_9">
    <path d="M 120.96 234.020571 
L 248.135336 234.020571 
L 248.135336 210.322286 
L 120.96 210.322286 
z
" clip-path="url(#p8e19121be5)" style="fill: #076fa2; opacity: 0.9"/>
   </g>
   <g id="patch_10">
    <path d="M 120.96 186.624 
L 284.471146 186.624 
L 284.471146 162.925714 
L 120.96 162.925714 
z
" clip-path="url(#p8e19121be5)" style="fill: #076fa2; opacity: 0.9"/>
   </g>
   <g id="patch_11">
    <path d="M 120.96 139.227429 
L 620.577391 139.227429 
L 620.577391 115.529143 
L 120.96 115.529143 
z
" clip-path="url(#p8e19121be5)" style="fill: #076fa2; opacity: 0.9"/>
   </g>
   <g id="patch_12">
    <path d="M 120.96 91.830857 
L 717.905455 91.830857 
L 717.905455 68.132571 
L 120.96 68.132571 
z
" clip-path="url(#p8e19121be5)" style="fill: #076fa2; opacity: 0.9"/>
   </g>
   <g id="patch_13">
    <path d="M 120.96 518.4 
L 120.96 57.6 
" style="fill: none; opacity: 0.9; stroke: #808080; stroke-width: 1.4; stroke-linejoin: miter; stroke-linecap: round"/>
   </g>
   <g id="text_10">
    <path d="M 230.243056 499.828661 
L 236.916181 499.828661 
L 236.916181 500.826161 
L 234.180556 500.826161 
L 234.180556 508.577411 
L 232.991806 508.577411 
L 232.991806 500.826161 
L 230.243056 500.826161 
L 230.243056 499.828661 
z
M 237.99454 499.828661 
L 239.185165 499.828661 
L 239.185165 503.415536 
L 242.425165 503.415536 
L 242.425165 499.828661 
L 243.613915 499.828661 
L 243.613915 508.577411 
L 242.425165 508.577411 
L 242.425165 504.411161 
L 239.185165 504.411161 
L 239.185165 508.577411 
L 237.99454 508.577411 
L 237.99454 499.828661 
z
M 249.71915 504.212411 
Q 249.71915 502.284911 249.323525 501.458036 
Q 248.9279 500.631161 248.026025 500.631161 
Q 247.129775 500.631161 246.73415 501.458036 
Q 246.338525 502.284911 246.338525 504.212411 
Q 246.338525 506.134286 246.73415 506.961161 
Q 247.129775 507.786161 248.026025 507.786161 
Q 248.9279 507.786161 249.323525 506.963036 
Q 249.71915 506.139911 249.71915 504.212411 
z
M 250.95665 504.212411 
Q 250.95665 506.498036 250.2329 507.623036 
Q 249.50915 508.748036 248.026025 508.748036 
Q 246.5429 508.748036 245.8229 507.628661 
Q 245.1029 506.509286 245.1029 504.212411 
Q 245.1029 501.921161 245.82665 500.796161 
Q 246.5504 499.671161 248.026025 499.671161 
Q 249.50915 499.671161 250.2329 500.796161 
Q 250.95665 501.921161 250.95665 504.212411 
z
M 252.501884 505.219286 
L 252.501884 499.828661 
L 253.692509 499.828661 
L 253.692509 505.759286 
Q 253.692509 506.396786 253.726259 506.670536 
Q 253.761884 506.942411 253.850009 507.088661 
Q 254.037509 507.435536 254.391884 507.611786 
Q 254.746259 507.786161 255.250634 507.786161 
Q 255.760634 507.786161 256.111259 507.611786 
Q 256.463759 507.435536 256.656884 507.088661 
Q 256.745009 506.942411 256.778759 506.674286 
Q 256.814384 506.404286 256.814384 505.770536 
L 256.814384 499.828661 
L 257.999384 499.828661 
L 257.999384 505.219286 
Q 257.999384 506.561786 257.832509 507.128036 
Q 257.665634 507.692411 257.255009 508.061786 
Q 256.868759 508.406786 256.370009 508.577411 
Q 255.871259 508.748036 255.250634 508.748036 
Q 254.635634 508.748036 254.136884 508.577411 
Q 253.640009 508.406786 253.246259 508.061786 
Q 252.843134 507.698036 252.672509 507.122411 
Q 252.501884 506.544911 252.501884 505.219286 
z
M 265.334618 507.857411 
Q 264.860243 508.296161 264.265868 508.523036 
Q 263.671493 508.748036 262.979618 508.748036 
Q 261.314618 508.748036 260.388368 507.555536 
Q 259.463993 506.363036 259.463993 504.212411 
Q 259.463993 502.067411 260.401493 500.869286 
Q 261.338993 499.671161 263.007743 499.671161 
Q 263.558993 499.671161 264.063368 499.826786 
Q 264.567743 499.982411 265.036493 500.297411 
L 265.036493 501.510536 
Q 264.562118 501.060536 264.063368 500.846786 
Q 263.564618 500.631161 263.007743 500.631161 
Q 261.854618 500.631161 261.277118 501.525536 
Q 260.699618 502.419911 260.699618 504.212411 
Q 260.699618 506.034911 261.258368 506.910536 
Q 261.818993 507.786161 262.979618 507.786161 
Q 263.371493 507.786161 263.667743 507.696161 
Q 263.963993 507.604286 264.203993 507.411161 
L 264.203993 505.061786 
L 262.932743 505.061786 
L 262.932743 504.088661 
L 265.334618 504.088661 
L 265.334618 507.857411 
z
M 266.892978 499.828661 
L 268.083603 499.828661 
L 268.083603 503.415536 
L 271.323603 503.415536 
L 271.323603 499.828661 
L 272.512353 499.828661 
L 272.512353 508.577411 
L 271.323603 508.577411 
L 271.323603 504.411161 
L 268.083603 504.411161 
L 268.083603 508.577411 
L 266.892978 508.577411 
L 266.892978 499.828661 
z
M 273.590712 499.828661 
L 280.263837 499.828661 
L 280.263837 500.826161 
L 277.528212 500.826161 
L 277.528212 508.577411 
L 276.339462 508.577411 
L 276.339462 500.826161 
L 273.590712 500.826161 
L 273.590712 499.828661 
z
" style="fill: #076fa2; stroke: #ffffff; stroke-width: 2"/>
    <path d="M 230.243056 499.828661 
L 236.916181 499.828661 
L 236.916181 500.826161 
L 234.180556 500.826161 
L 234.180556 508.577411 
L 232.991806 508.577411 
L 232.991806 500.826161 
L 230.243056 500.826161 
L 230.243056 499.828661 
z
M 237.99454 499.828661 
L 239.185165 499.828661 
L 239.185165 503.415536 
L 242.425165 503.415536 
L 242.425165 499.828661 
L 243.613915 499.828661 
L 243.613915 508.577411 
L 242.425165 508.577411 
L 242.425165 504.411161 
L 239.185165 504.411161 
L 239.185165 508.577411 
L 237.99454 508.577411 
L 237.99454 499.828661 
z
M 249.71915 504.212411 
Q 249.71915 502.284911 249.323525 501.458036 
Q 248.9279 500.631161 248.026025 500.631161 
Q 247.129775 500.631161 246.73415 501.458036 
Q 246.338525 502.284911 246.338525 504.212411 
Q 246.338525 506.134286 246.73415 506.961161 
Q 247.129775 507.786161 248.026025 507.786161 
Q 248.9279 507.786161 249.323525 506.963036 
Q 249.71915 506.139911 249.71915 504.212411 
z
M 250.95665 504.212411 
Q 250.95665 506.498036 250.2329 507.623036 
Q 249.50915 508.748036 248.026025 508.748036 
Q 246.5429 508.748036 245.8229 507.628661 
Q 245.1029 506.509286 245.1029 504.212411 
Q 245.1029 501.921161 245.82665 500.796161 
Q 246.5504 499.671161 248.026025 499.671161 
Q 249.50915 499.671161 250.2329 500.796161 
Q 250.95665 501.921161 250.95665 504.212411 
z
M 252.501884 505.219286 
L 252.501884 499.828661 
L 253.692509 499.828661 
L 253.692509 505.759286 
Q 253.692509 506.396786 253.726259 506.670536 
Q 253.761884 506.942411 253.850009 507.088661 
Q 254.037509 507.435536 254.391884 507.611786 
Q 254.746259 507.786161 255.250634 507.786161 
Q 255.760634 507.786161 256.111259 507.611786 
Q 256.463759 507.435536 256.656884 507.088661 
Q 256.745009 506.942411 256.778759 506.674286 
Q 256.814384 506.404286 256.814384 505.770536 
L 256.814384 499.828661 
L 257.999384 499.828661 
L 257.999384 505.219286 
Q 257.999384 506.561786 257.832509 507.128036 
Q 257.665634 507.692411 257.255009 508.061786 
Q 256.868759 508.406786 256.370009 508.577411 
Q 255.871259 508.748036 255.250634 508.748036 
Q 254.635634 508.748036 254.136884 508.577411 
Q 253.640009 508.406786 253.246259 508.061786 
Q 252.843134 507.698036 252.672509 507.122411 
Q 252.501884 506.544911 252.501884 505.219286 
z
M 265.334618 507.857411 
Q 264.860243 508.296161 264.265868 508.523036 
Q 263.671493 508.748036 262.979618 508.748036 
Q 261.314618 508.748036 260.388368 507.555536 
Q 259.463993 506.363036 259.463993 504.212411 
Q 259.463993 502.067411 260.401493 500.869286 
Q 261.338993 499.671161 263.007743 499.671161 
Q 263.558993 499.671161 264.063368 499.826786 
Q 264.567743 499.982411 265.036493 500.297411 
L 265.036493 501.510536 
Q 264.562118 501.060536 264.063368 500.846786 
Q 263.564618 500.631161 263.007743 500.631161 
Q 261.854618 500.631161 261.277118 501.525536 
Q 260.699618 502.419911 260.699618 504.212411 
Q 260.699618 506.034911 261.258368 506.910536 
Q 261.818993 507.786161 262.979618 507.786161 
Q 263.371493 507.786161 263.667743 507.696161 
Q 263.963993 507.604286 264.203993 507.411161 
L 264.203993 505.061786 
L 262.932743 505.061786 
L 262.932743 504.088661 
L 265.334618 504.088661 
L 265.334618 507.857411 
z
M 266.892978 499.828661 
L 268.083603 499.828661 
L 268.083603 503.415536 
L 271.323603 503.415536 
L 271.323603 499.828661 
L 272.512353 499.828661 
L 272.512353 508.577411 
L 271.323603 508.577411 
L 271.323603 504.411161 
L 268.083603 504.411161 
L 268.083603 508.577411 
L 266.892978 508.577411 
L 266.892978 499.828661 
z
M 273.590712 499.828661 
L 280.263837 499.828661 
L 280.263837 500.826161 
L 277.528212 500.826161 
L 277.528212 508.577411 
L 276.339462 508.577411 
L 276.339462 500.826161 
L 273.590712 500.826161 
L 273.590712 499.828661 
z
" style="fill: #076fa2"/>
   </g>
   <g id="text_11">
    <path d="M 236.254306 460.869589 
Q 235.804306 461.109589 235.328056 461.229589 
Q 234.853681 461.351464 234.321181 461.351464 
Q 232.639306 461.351464 231.709306 460.162714 
Q 230.781181 458.972089 230.781181 456.815839 
Q 230.781181 454.670839 231.714931 453.472714 
Q 232.650556 452.274589 234.321181 452.274589 
Q 234.853681 452.274589 235.328056 452.394589 
Q 235.804306 452.514589 236.254306 452.754589 
L 236.254306 453.967714 
Q 235.821181 453.609589 235.322431 453.422089 
Q 234.825556 453.234589 234.321181 453.234589 
Q 233.166181 453.234589 232.592431 454.125214 
Q 232.018681 455.015839 232.018681 456.815839 
Q 232.018681 458.608339 232.592431 459.498964 
Q 233.166181 460.389589 234.321181 460.389589 
Q 234.836806 460.389589 235.331806 460.202089 
Q 235.826806 460.014589 236.254306 459.656464 
L 236.254306 460.869589 
z
M 242.49454 456.815839 
Q 242.49454 454.888339 242.098915 454.061464 
Q 241.70329 453.234589 240.801415 453.234589 
Q 239.905165 453.234589 239.50954 454.061464 
Q 239.113915 454.888339 239.113915 456.815839 
Q 239.113915 458.737714 239.50954 459.564589 
Q 239.905165 460.389589 240.801415 460.389589 
Q 241.70329 460.389589 242.098915 459.566464 
Q 242.49454 458.743339 242.49454 456.815839 
z
M 243.73204 456.815839 
Q 243.73204 459.101464 243.00829 460.226464 
Q 242.28454 461.351464 240.801415 461.351464 
Q 239.31829 461.351464 238.59829 460.232089 
Q 237.87829 459.112714 237.87829 456.815839 
Q 237.87829 454.524589 238.60204 453.399589 
Q 239.32579 452.274589 240.801415 452.274589 
Q 242.28454 452.274589 243.00829 453.399589 
Q 243.73204 454.524589 243.73204 456.815839 
z
M 245.277275 457.822714 
L 245.277275 452.432089 
L 246.4679 452.432089 
L 246.4679 458.362714 
Q 246.4679 459.000214 246.50165 459.273964 
Q 246.537275 459.545839 246.6254 459.692089 
Q 246.8129 460.038964 247.167275 460.215214 
Q 247.52165 460.389589 248.026025 460.389589 
Q 248.536025 460.389589 248.88665 460.215214 
Q 249.23915 460.038964 249.432275 459.692089 
Q 249.5204 459.545839 249.55415 459.277714 
Q 249.589775 459.007714 249.589775 458.373964 
L 249.589775 452.432089 
L 250.774775 452.432089 
L 250.774775 457.822714 
Q 250.774775 459.165214 250.6079 459.731464 
Q 250.441025 460.295839 250.0304 460.665214 
Q 249.64415 461.010214 249.1454 461.180839 
Q 248.64665 461.351464 248.026025 461.351464 
Q 247.411025 461.351464 246.912275 461.180839 
Q 246.4154 461.010214 246.02165 460.665214 
Q 245.618525 460.301464 245.4479 459.725839 
Q 245.277275 459.148339 245.277275 457.822714 
z
M 252.901259 452.432089 
L 254.090009 452.432089 
L 254.090009 460.185214 
L 258.314384 460.185214 
L 258.314384 461.180839 
L 252.901259 461.180839 
L 252.901259 452.432089 
z
M 261.421493 460.207714 
Q 262.913993 460.207714 263.506493 459.472714 
Q 264.098993 458.737714 264.098993 456.815839 
Q 264.098993 454.875214 263.510243 454.140214 
Q 262.921493 453.405214 261.421493 453.405214 
L 260.858993 453.405214 
L 260.858993 460.207714 
L 261.421493 460.207714 
z
M 261.443993 452.432089 
Q 263.448368 452.432089 264.397118 453.498964 
Q 265.345868 454.565839 265.345868 456.815839 
Q 265.345868 459.054589 264.397118 460.117714 
Q 263.448368 461.180839 261.443993 461.180839 
L 259.668368 461.180839 
L 259.668368 452.432089 
L 261.443993 452.432089 
z
" style="fill: #076fa2; stroke: #ffffff; stroke-width: 2"/>
    <path d="M 236.254306 460.869589 
Q 235.804306 461.109589 235.328056 461.229589 
Q 234.853681 461.351464 234.321181 461.351464 
Q 232.639306 461.351464 231.709306 460.162714 
Q 230.781181 458.972089 230.781181 456.815839 
Q 230.781181 454.670839 231.714931 453.472714 
Q 232.650556 452.274589 234.321181 452.274589 
Q 234.853681 452.274589 235.328056 452.394589 
Q 235.804306 452.514589 236.254306 452.754589 
L 236.254306 453.967714 
Q 235.821181 453.609589 235.322431 453.422089 
Q 234.825556 453.234589 234.321181 453.234589 
Q 233.166181 453.234589 232.592431 454.125214 
Q 232.018681 455.015839 232.018681 456.815839 
Q 232.018681 458.608339 232.592431 459.498964 
Q 233.166181 460.389589 234.321181 460.389589 
Q 234.836806 460.389589 235.331806 460.202089 
Q 235.826806 460.014589 236.254306 459.656464 
L 236.254306 460.869589 
z
M 242.49454 456.815839 
Q 242.49454 454.888339 242.098915 454.061464 
Q 241.70329 453.234589 240.801415 453.234589 
Q 239.905165 453.234589 239.50954 454.061464 
Q 239.113915 454.888339 239.113915 456.815839 
Q 239.113915 458.737714 239.50954 459.564589 
Q 239.905165 460.389589 240.801415 460.389589 
Q 241.70329 460.389589 242.098915 459.566464 
Q 242.49454 458.743339 242.49454 456.815839 
z
M 243.73204 456.815839 
Q 243.73204 459.101464 243.00829 460.226464 
Q 242.28454 461.351464 240.801415 461.351464 
Q 239.31829 461.351464 238.59829 460.232089 
Q 237.87829 459.112714 237.87829 456.815839 
Q 237.87829 454.524589 238.60204 453.399589 
Q 239.32579 452.274589 240.801415 452.274589 
Q 242.28454 452.274589 243.00829 453.399589 
Q 243.73204 454.524589 243.73204 456.815839 
z
M 245.277275 457.822714 
L 245.277275 452.432089 
L 246.4679 452.432089 
L 246.4679 458.362714 
Q 246.4679 459.000214 246.50165 459.273964 
Q 246.537275 459.545839 246.6254 459.692089 
Q 246.8129 460.038964 247.167275 460.215214 
Q 247.52165 460.389589 248.026025 460.389589 
Q 248.536025 460.389589 248.88665 460.215214 
Q 249.23915 460.038964 249.432275 459.692089 
Q 249.5204 459.545839 249.55415 459.277714 
Q 249.589775 459.007714 249.589775 458.373964 
L 249.589775 452.432089 
L 250.774775 452.432089 
L 250.774775 457.822714 
Q 250.774775 459.165214 250.6079 459.731464 
Q 250.441025 460.295839 250.0304 460.665214 
Q 249.64415 461.010214 249.1454 461.180839 
Q 248.64665 461.351464 248.026025 461.351464 
Q 247.411025 461.351464 246.912275 461.180839 
Q 246.4154 461.010214 246.02165 460.665214 
Q 245.618525 460.301464 245.4479 459.725839 
Q 245.277275 459.148339 245.277275 457.822714 
z
M 252.901259 452.432089 
L 254.090009 452.432089 
L 254.090009 460.185214 
L 258.314384 460.185214 
L 258.314384 461.180839 
L 252.901259 461.180839 
L 252.901259 452.432089 
z
M 261.421493 460.207714 
Q 262.913993 460.207714 263.506493 459.472714 
Q 264.098993 458.737714 264.098993 456.815839 
Q 264.098993 454.875214 263.510243 454.140214 
Q 262.921493 453.405214 261.421493 453.405214 
L 260.858993 453.405214 
L 260.858993 460.207714 
L 261.421493 460.207714 
z
M 261.443993 452.432089 
Q 263.448368 452.432089 264.397118 453.498964 
Q 265.345868 454.565839 265.345868 456.815839 
Q 265.345868 459.054589 264.397118 460.117714 
Q 263.448368 461.180839 261.443993 461.180839 
L 259.668368 461.180839 
L 259.668368 452.432089 
L 261.443993 452.432089 
z
" style="fill: #076fa2"/>
   </g>
   <g id="text_12">
    <path d="M 235.158261 405.035518 
L 236.313261 405.035518 
L 237.151386 412.138018 
L 238.147011 407.439268 
L 239.382636 407.439268 
L 240.391386 412.149268 
L 241.229511 405.035518 
L 242.382636 405.035518 
L 241.075761 413.784268 
L 239.956386 413.784268 
L 238.767636 408.586768 
L 237.584511 413.784268 
L 236.465136 413.784268 
L 235.158261 405.035518 
z
M 247.68537 409.419268 
Q 247.68537 407.491768 247.289745 406.664893 
Q 246.89412 405.838018 245.992245 405.838018 
Q 245.095995 405.838018 244.70037 406.664893 
Q 244.304745 407.491768 244.304745 409.419268 
Q 244.304745 411.341143 244.70037 412.168018 
Q 245.095995 412.993018 245.992245 412.993018 
Q 246.89412 412.993018 247.289745 412.169893 
Q 247.68537 411.346768 247.68537 409.419268 
z
M 248.92287 409.419268 
Q 248.92287 411.704893 248.19912 412.829893 
Q 247.47537 413.954893 245.992245 413.954893 
Q 244.50912 413.954893 243.78912 412.835518 
Q 243.06912 411.716143 243.06912 409.419268 
Q 243.06912 407.128018 243.79287 406.003018 
Q 244.51662 404.878018 245.992245 404.878018 
Q 247.47537 404.878018 248.19912 406.003018 
Q 248.92287 407.128018 248.92287 409.419268 
z
M 250.468105 410.426143 
L 250.468105 405.035518 
L 251.65873 405.035518 
L 251.65873 410.966143 
Q 251.65873 411.603643 251.69248 411.877393 
Q 251.728105 412.149268 251.81623 412.295518 
Q 252.00373 412.642393 252.358105 412.818643 
Q 252.71248 412.993018 253.216855 412.993018 
Q 253.726855 412.993018 254.07748 412.818643 
Q 254.42998 412.642393 254.623105 412.295518 
Q 254.71123 412.149268 254.74498 411.881143 
Q 254.780605 411.611143 254.780605 410.977393 
L 254.780605 405.035518 
L 255.965605 405.035518 
L 255.965605 410.426143 
Q 255.965605 411.768643 255.79873 412.334893 
Q 255.631855 412.899268 255.22123 413.268643 
Q 254.83498 413.613643 254.33623 413.784268 
Q 253.83748 413.954893 253.216855 413.954893 
Q 252.601855 413.954893 252.103105 413.784268 
Q 251.60623 413.613643 251.21248 413.268643 
Q 250.809355 412.904893 250.63873 412.329268 
Q 250.468105 411.751768 250.468105 410.426143 
z
M 258.092089 405.035518 
L 259.280839 405.035518 
L 259.280839 412.788643 
L 263.505214 412.788643 
L 263.505214 413.784268 
L 258.092089 413.784268 
L 258.092089 405.035518 
z
M 266.612323 412.811143 
Q 268.104823 412.811143 268.697323 412.076143 
Q 269.289823 411.341143 269.289823 409.419268 
Q 269.289823 407.478643 268.701073 406.743643 
Q 268.112323 406.008643 266.612323 406.008643 
L 266.049823 406.008643 
L 266.049823 412.811143 
L 266.612323 412.811143 
z
M 266.634823 405.035518 
Q 268.639198 405.035518 269.587948 406.102393 
Q 270.536698 407.169268 270.536698 409.419268 
Q 270.536698 411.658018 269.587948 412.721143 
Q 268.639198 413.784268 266.634823 413.784268 
L 264.859198 413.784268 
L 264.859198 405.035518 
L 266.634823 405.035518 
z
" style="fill: #076fa2; stroke: #ffffff; stroke-width: 2"/>
    <path d="M 235.158261 405.035518 
L 236.313261 405.035518 
L 237.151386 412.138018 
L 238.147011 407.439268 
L 239.382636 407.439268 
L 240.391386 412.149268 
L 241.229511 405.035518 
L 242.382636 405.035518 
L 241.075761 413.784268 
L 239.956386 413.784268 
L 238.767636 408.586768 
L 237.584511 413.784268 
L 236.465136 413.784268 
L 235.158261 405.035518 
z
M 247.68537 409.419268 
Q 247.68537 407.491768 247.289745 406.664893 
Q 246.89412 405.838018 245.992245 405.838018 
Q 245.095995 405.838018 244.70037 406.664893 
Q 244.304745 407.491768 244.304745 409.419268 
Q 244.304745 411.341143 244.70037 412.168018 
Q 245.095995 412.993018 245.992245 412.993018 
Q 246.89412 412.993018 247.289745 412.169893 
Q 247.68537 411.346768 247.68537 409.419268 
z
M 248.92287 409.419268 
Q 248.92287 411.704893 248.19912 412.829893 
Q 247.47537 413.954893 245.992245 413.954893 
Q 244.50912 413.954893 243.78912 412.835518 
Q 243.06912 411.716143 243.06912 409.419268 
Q 243.06912 407.128018 243.79287 406.003018 
Q 244.51662 404.878018 245.992245 404.878018 
Q 247.47537 404.878018 248.19912 406.003018 
Q 248.92287 407.128018 248.92287 409.419268 
z
M 250.468105 410.426143 
L 250.468105 405.035518 
L 251.65873 405.035518 
L 251.65873 410.966143 
Q 251.65873 411.603643 251.69248 411.877393 
Q 251.728105 412.149268 251.81623 412.295518 
Q 252.00373 412.642393 252.358105 412.818643 
Q 252.71248 412.993018 253.216855 412.993018 
Q 253.726855 412.993018 254.07748 412.818643 
Q 254.42998 412.642393 254.623105 412.295518 
Q 254.71123 412.149268 254.74498 411.881143 
Q 254.780605 411.611143 254.780605 410.977393 
L 254.780605 405.035518 
L 255.965605 405.035518 
L 255.965605 410.426143 
Q 255.965605 411.768643 255.79873 412.334893 
Q 255.631855 412.899268 255.22123 413.268643 
Q 254.83498 413.613643 254.33623 413.784268 
Q 253.83748 413.954893 253.216855 413.954893 
Q 252.601855 413.954893 252.103105 413.784268 
Q 251.60623 413.613643 251.21248 413.268643 
Q 250.809355 412.904893 250.63873 412.329268 
Q 250.468105 411.751768 250.468105 410.426143 
z
M 258.092089 405.035518 
L 259.280839 405.035518 
L 259.280839 412.788643 
L 263.505214 412.788643 
L 263.505214 413.784268 
L 258.092089 413.784268 
L 258.092089 405.035518 
z
M 266.612323 412.811143 
Q 268.104823 412.811143 268.697323 412.076143 
Q 269.289823 411.341143 269.289823 409.419268 
Q 269.289823 407.478643 268.701073 406.743643 
Q 268.112323 406.008643 266.612323 406.008643 
L 266.049823 406.008643 
L 266.049823 412.811143 
L 266.612323 412.811143 
z
M 266.634823 405.035518 
Q 268.639198 405.035518 269.587948 406.102393 
Q 270.536698 407.169268 270.536698 409.419268 
Q 270.536698 411.658018 269.587948 412.721143 
Q 268.639198 413.784268 266.634823 413.784268 
L 264.859198 413.784268 
L 264.859198 405.035518 
L 266.634823 405.035518 
z
" style="fill: #076fa2"/>
   </g>
   <g id="text_13">
    <path d="M 241.646798 357.638946 
L 242.801798 357.638946 
L 243.639923 364.741446 
L 244.635548 360.042696 
L 245.871173 360.042696 
L 246.879923 364.752696 
L 247.718048 357.638946 
L 248.871173 357.638946 
L 247.564298 366.387696 
L 246.444923 366.387696 
L 245.256173 361.190196 
L 244.073048 366.387696 
L 242.953673 366.387696 
L 241.646798 357.638946 
z
M 250.026408 357.638946 
L 255.216408 357.638946 
L 255.216408 358.636446 
L 251.209533 358.636446 
L 251.209533 361.225821 
L 255.042033 361.225821 
L 255.042033 362.221446 
L 251.209533 362.221446 
L 251.209533 365.392071 
L 255.328908 365.392071 
L 255.328908 366.387696 
L 250.026408 366.387696 
L 250.026408 357.638946 
z
M 256.909767 357.638946 
L 258.409767 357.638946 
L 261.362892 364.840821 
L 261.362892 357.638946 
L 262.506642 357.638946 
L 262.506642 366.387696 
L 261.006642 366.387696 
L 258.053517 359.185821 
L 258.053517 366.387696 
L 256.909767 366.387696 
L 256.909767 357.638946 
z
M 263.596252 357.638946 
L 270.269377 357.638946 
L 270.269377 358.636446 
L 267.533752 358.636446 
L 267.533752 366.387696 
L 266.345002 366.387696 
L 266.345002 358.636446 
L 263.596252 358.636446 
L 263.596252 357.638946 
z
" style="fill: #076fa2; stroke: #ffffff; stroke-width: 2"/>
    <path d="M 241.646798 357.638946 
L 242.801798 357.638946 
L 243.639923 364.741446 
L 244.635548 360.042696 
L 245.871173 360.042696 
L 246.879923 364.752696 
L 247.718048 357.638946 
L 248.871173 357.638946 
L 247.564298 366.387696 
L 246.444923 366.387696 
L 245.256173 361.190196 
L 244.073048 366.387696 
L 242.953673 366.387696 
L 241.646798 357.638946 
z
M 250.026408 357.638946 
L 255.216408 357.638946 
L 255.216408 358.636446 
L 251.209533 358.636446 
L 251.209533 361.225821 
L 255.042033 361.225821 
L 255.042033 362.221446 
L 251.209533 362.221446 
L 251.209533 365.392071 
L 255.328908 365.392071 
L 255.328908 366.387696 
L 250.026408 366.387696 
L 250.026408 357.638946 
z
M 256.909767 357.638946 
L 258.409767 357.638946 
L 261.362892 364.840821 
L 261.362892 357.638946 
L 262.506642 357.638946 
L 262.506642 366.387696 
L 261.006642 366.387696 
L 258.053517 359.185821 
L 258.053517 366.387696 
L 256.909767 366.387696 
L 256.909767 357.638946 
z
M 263.596252 357.638946 
L 270.269377 357.638946 
L 270.269377 358.636446 
L 267.533752 358.636446 
L 267.533752 366.387696 
L 266.345002 366.387696 
L 266.345002 358.636446 
L 263.596252 358.636446 
L 263.596252 357.638946 
z
" style="fill: #076fa2"/>
   </g>
   <g id="text_14">
    <path d="M 243.747006 310.242375 
L 244.937631 310.242375 
L 244.937631 314.133 
L 248.633256 310.242375 
L 250.022631 310.242375 
L 246.617631 313.818 
L 250.122006 318.991125 
L 248.693256 318.991125 
L 245.839506 314.607375 
L 244.937631 315.56925 
L 244.937631 318.991125 
L 243.747006 318.991125 
L 243.747006 310.242375 
z
M 250.982865 310.242375 
L 252.482865 310.242375 
L 255.43599 317.44425 
L 255.43599 310.242375 
L 256.57974 310.242375 
L 256.57974 318.991125 
L 255.07974 318.991125 
L 252.126615 311.78925 
L 252.126615 318.991125 
L 250.982865 318.991125 
L 250.982865 310.242375 
z
M 262.696225 314.626125 
Q 262.696225 312.698625 262.3006 311.87175 
Q 261.904975 311.044875 261.0031 311.044875 
Q 260.10685 311.044875 259.711225 311.87175 
Q 259.3156 312.698625 259.3156 314.626125 
Q 259.3156 316.548 259.711225 317.374875 
Q 260.10685 318.199875 261.0031 318.199875 
Q 261.904975 318.199875 262.3006 317.37675 
Q 262.696225 316.553625 262.696225 314.626125 
z
M 263.933725 314.626125 
Q 263.933725 316.91175 263.209975 318.03675 
Q 262.486225 319.16175 261.0031 319.16175 
Q 259.519975 319.16175 258.799975 318.042375 
Q 258.079975 316.923 258.079975 314.626125 
Q 258.079975 312.334875 258.803725 311.209875 
Q 259.527475 310.084875 261.0031 310.084875 
Q 262.486225 310.084875 263.209975 311.209875 
Q 263.933725 312.334875 263.933725 314.626125 
z
M 264.618334 310.242375 
L 265.773334 310.242375 
L 266.611459 317.344875 
L 267.607084 312.646125 
L 268.842709 312.646125 
L 269.851459 317.356125 
L 270.689584 310.242375 
L 271.842709 310.242375 
L 270.535834 318.991125 
L 269.416459 318.991125 
L 268.227709 313.793625 
L 267.044584 318.991125 
L 265.925209 318.991125 
L 264.618334 310.242375 
z
" style="fill: #076fa2; stroke: #ffffff; stroke-width: 2"/>
    <path d="M 243.747006 310.242375 
L 244.937631 310.242375 
L 244.937631 314.133 
L 248.633256 310.242375 
L 250.022631 310.242375 
L 246.617631 313.818 
L 250.122006 318.991125 
L 248.693256 318.991125 
L 245.839506 314.607375 
L 244.937631 315.56925 
L 244.937631 318.991125 
L 243.747006 318.991125 
L 243.747006 310.242375 
z
M 250.982865 310.242375 
L 252.482865 310.242375 
L 255.43599 317.44425 
L 255.43599 310.242375 
L 256.57974 310.242375 
L 256.57974 318.991125 
L 255.07974 318.991125 
L 252.126615 311.78925 
L 252.126615 318.991125 
L 250.982865 318.991125 
L 250.982865 310.242375 
z
M 262.696225 314.626125 
Q 262.696225 312.698625 262.3006 311.87175 
Q 261.904975 311.044875 261.0031 311.044875 
Q 260.10685 311.044875 259.711225 311.87175 
Q 259.3156 312.698625 259.3156 314.626125 
Q 259.3156 316.548 259.711225 317.374875 
Q 260.10685 318.199875 261.0031 318.199875 
Q 261.904975 318.199875 262.3006 317.37675 
Q 262.696225 316.553625 262.696225 314.626125 
z
M 263.933725 314.626125 
Q 263.933725 316.91175 263.209975 318.03675 
Q 262.486225 319.16175 261.0031 319.16175 
Q 259.519975 319.16175 258.799975 318.042375 
Q 258.079975 316.923 258.079975 314.626125 
Q 258.079975 312.334875 258.803725 311.209875 
Q 259.527475 310.084875 261.0031 310.084875 
Q 262.486225 310.084875 263.209975 311.209875 
Q 263.933725 312.334875 263.933725 314.626125 
z
M 264.618334 310.242375 
L 265.773334 310.242375 
L 266.611459 317.344875 
L 267.607084 312.646125 
L 268.842709 312.646125 
L 269.851459 317.356125 
L 270.689584 310.242375 
L 271.842709 310.242375 
L 270.535834 318.991125 
L 269.416459 318.991125 
L 268.227709 313.793625 
L 267.044584 318.991125 
L 265.925209 318.991125 
L 264.618334 310.242375 
z
" style="fill: #076fa2"/>
   </g>
   <g id="text_15">
    <path d="M 245.502213 262.845804 
L 246.690963 262.845804 
L 246.690963 270.598929 
L 250.915338 270.598929 
L 250.915338 271.594554 
L 245.502213 271.594554 
L 245.502213 262.845804 
z
M 252.644323 262.845804 
L 257.502448 262.845804 
L 257.502448 263.843304 
L 255.668698 263.843304 
L 255.668698 270.598929 
L 257.502448 270.598929 
L 257.502448 271.594554 
L 252.644323 271.594554 
L 252.644323 270.598929 
L 254.478073 270.598929 
L 254.478073 263.843304 
L 252.644323 263.843304 
L 252.644323 262.845804 
z
M 259.493932 262.845804 
L 260.684557 262.845804 
L 260.684557 266.736429 
L 264.380182 262.845804 
L 265.769557 262.845804 
L 262.364557 266.421429 
L 265.868932 271.594554 
L 264.440182 271.594554 
L 261.586432 267.210804 
L 260.684557 268.172679 
L 260.684557 271.594554 
L 259.493932 271.594554 
L 259.493932 262.845804 
z
M 267.071042 262.845804 
L 272.261042 262.845804 
L 272.261042 263.843304 
L 268.254167 263.843304 
L 268.254167 266.432679 
L 272.086667 266.432679 
L 272.086667 267.428304 
L 268.254167 267.428304 
L 268.254167 270.598929 
L 272.373542 270.598929 
L 272.373542 271.594554 
L 267.071042 271.594554 
L 267.071042 262.845804 
z
" style="fill: #076fa2; stroke: #ffffff; stroke-width: 2"/>
    <path d="M 245.502213 262.845804 
L 246.690963 262.845804 
L 246.690963 270.598929 
L 250.915338 270.598929 
L 250.915338 271.594554 
L 245.502213 271.594554 
L 245.502213 262.845804 
z
M 252.644323 262.845804 
L 257.502448 262.845804 
L 257.502448 263.843304 
L 255.668698 263.843304 
L 255.668698 270.598929 
L 257.502448 270.598929 
L 257.502448 271.594554 
L 252.644323 271.594554 
L 252.644323 270.598929 
L 254.478073 270.598929 
L 254.478073 263.843304 
L 252.644323 263.843304 
L 252.644323 262.845804 
z
M 259.493932 262.845804 
L 260.684557 262.845804 
L 260.684557 266.736429 
L 264.380182 262.845804 
L 265.769557 262.845804 
L 262.364557 266.421429 
L 265.868932 271.594554 
L 264.440182 271.594554 
L 261.586432 267.210804 
L 260.684557 268.172679 
L 260.684557 271.594554 
L 259.493932 271.594554 
L 259.493932 262.845804 
z
M 267.071042 262.845804 
L 272.261042 262.845804 
L 272.261042 263.843304 
L 268.254167 263.843304 
L 268.254167 266.432679 
L 272.086667 266.432679 
L 272.086667 267.428304 
L 268.254167 267.428304 
L 268.254167 270.598929 
L 272.373542 270.598929 
L 272.373542 271.594554 
L 267.071042 271.594554 
L 267.071042 262.845804 
z
" style="fill: #076fa2"/>
   </g>
   <g id="text_16">
    <path d="M 266.414911 219.832982 
Q 266.414911 217.905482 266.019286 217.078607 
Q 265.623661 216.251732 264.721786 216.251732 
Q 263.825536 216.251732 263.429911 217.078607 
Q 263.034286 217.905482 263.034286 219.832982 
Q 263.034286 221.754857 263.429911 222.581732 
Q 263.825536 223.406732 264.721786 223.406732 
Q 265.623661 223.406732 266.019286 222.583607 
Q 266.414911 221.760482 266.414911 219.832982 
z
M 267.652411 219.832982 
Q 267.652411 222.118607 266.928661 223.243607 
Q 266.204911 224.368607 264.721786 224.368607 
Q 263.238661 224.368607 262.518661 223.249232 
Q 261.798661 222.129857 261.798661 219.832982 
Q 261.798661 217.541732 262.522411 216.416732 
Q 263.246161 215.291732 264.721786 215.291732 
Q 266.204911 215.291732 266.928661 216.416732 
Q 267.652411 217.541732 267.652411 219.832982 
z
M 269.15077 215.449232 
L 270.65077 215.449232 
L 273.603895 222.651107 
L 273.603895 215.449232 
L 274.747645 215.449232 
L 274.747645 224.197982 
L 273.247645 224.197982 
L 270.29452 216.996107 
L 270.29452 224.197982 
L 269.15077 224.197982 
L 269.15077 215.449232 
z
M 276.71663 215.449232 
L 281.90663 215.449232 
L 281.90663 216.446732 
L 277.899755 216.446732 
L 277.899755 219.036107 
L 281.732255 219.036107 
L 281.732255 220.031732 
L 277.899755 220.031732 
L 277.899755 223.202357 
L 282.01913 223.202357 
L 282.01913 224.197982 
L 276.71663 224.197982 
L 276.71663 215.449232 
z
" style="fill: #076fa2; stroke: #ffffff; stroke-width: 2"/>
    <path d="M 266.414911 219.832982 
Q 266.414911 217.905482 266.019286 217.078607 
Q 265.623661 216.251732 264.721786 216.251732 
Q 263.825536 216.251732 263.429911 217.078607 
Q 263.034286 217.905482 263.034286 219.832982 
Q 263.034286 221.754857 263.429911 222.581732 
Q 263.825536 223.406732 264.721786 223.406732 
Q 265.623661 223.406732 266.019286 222.583607 
Q 266.414911 221.760482 266.414911 219.832982 
z
M 267.652411 219.832982 
Q 267.652411 222.118607 266.928661 223.243607 
Q 266.204911 224.368607 264.721786 224.368607 
Q 263.238661 224.368607 262.518661 223.249232 
Q 261.798661 222.129857 261.798661 219.832982 
Q 261.798661 217.541732 262.522411 216.416732 
Q 263.246161 215.291732 264.721786 215.291732 
Q 266.204911 215.291732 266.928661 216.416732 
Q 267.652411 217.541732 267.652411 219.832982 
z
M 269.15077 215.449232 
L 270.65077 215.449232 
L 273.603895 222.651107 
L 273.603895 215.449232 
L 274.747645 215.449232 
L 274.747645 224.197982 
L 273.247645 224.197982 
L 270.29452 216.996107 
L 270.29452 224.197982 
L 269.15077 224.197982 
L 269.15077 215.449232 
z
M 276.71663 215.449232 
L 281.90663 215.449232 
L 281.90663 216.446732 
L 277.899755 216.446732 
L 277.899755 219.036107 
L 281.732255 219.036107 
L 281.732255 220.031732 
L 277.899755 220.031732 
L 277.899755 223.202357 
L 282.01913 223.202357 
L 282.01913 224.197982 
L 276.71663 224.197982 
L 276.71663 215.449232 
z
" style="fill: #076fa2"/>
   </g>
   <g id="text_17">
    <path d="M 298.708221 168.052661 
L 299.896971 168.052661 
L 299.896971 175.805786 
L 304.121346 175.805786 
L 304.121346 176.801411 
L 298.708221 176.801411 
L 298.708221 168.052661 
z
M 305.850331 168.052661 
L 310.708456 168.052661 
L 310.708456 169.050161 
L 308.874706 169.050161 
L 308.874706 175.805786 
L 310.708456 175.805786 
L 310.708456 176.801411 
L 305.850331 176.801411 
L 305.850331 175.805786 
L 307.684081 175.805786 
L 307.684081 169.050161 
L 305.850331 169.050161 
L 305.850331 168.052661 
z
M 312.173065 168.052661 
L 318.84619 168.052661 
L 318.84619 169.050161 
L 316.110565 169.050161 
L 316.110565 176.801411 
L 314.921815 176.801411 
L 314.921815 169.050161 
L 312.173065 169.050161 
L 312.173065 168.052661 
z
M 319.397674 168.052661 
L 326.070799 168.052661 
L 326.070799 169.050161 
L 323.335174 169.050161 
L 323.335174 176.801411 
L 322.146424 176.801411 
L 322.146424 169.050161 
L 319.397674 169.050161 
L 319.397674 168.052661 
z
M 327.606659 168.052661 
L 328.795409 168.052661 
L 328.795409 175.805786 
L 333.019784 175.805786 
L 333.019784 176.801411 
L 327.606659 176.801411 
L 327.606659 168.052661 
z
M 334.726268 168.052661 
L 339.916268 168.052661 
L 339.916268 169.050161 
L 335.909393 169.050161 
L 335.909393 171.639536 
L 339.741893 171.639536 
L 339.741893 172.635161 
L 335.909393 172.635161 
L 335.909393 175.805786 
L 340.028768 175.805786 
L 340.028768 176.801411 
L 334.726268 176.801411 
L 334.726268 168.052661 
z
" style="fill: #076fa2; stroke: #ffffff; stroke-width: 2"/>
    <path d="M 298.708221 168.052661 
L 299.896971 168.052661 
L 299.896971 175.805786 
L 304.121346 175.805786 
L 304.121346 176.801411 
L 298.708221 176.801411 
L 298.708221 168.052661 
z
M 305.850331 168.052661 
L 310.708456 168.052661 
L 310.708456 169.050161 
L 308.874706 169.050161 
L 308.874706 175.805786 
L 310.708456 175.805786 
L 310.708456 176.801411 
L 305.850331 176.801411 
L 305.850331 175.805786 
L 307.684081 175.805786 
L 307.684081 169.050161 
L 305.850331 169.050161 
L 305.850331 168.052661 
z
M 312.173065 168.052661 
L 318.84619 168.052661 
L 318.84619 169.050161 
L 316.110565 169.050161 
L 316.110565 176.801411 
L 314.921815 176.801411 
L 314.921815 169.050161 
L 312.173065 169.050161 
L 312.173065 168.052661 
z
M 319.397674 168.052661 
L 326.070799 168.052661 
L 326.070799 169.050161 
L 323.335174 169.050161 
L 323.335174 176.801411 
L 322.146424 176.801411 
L 322.146424 169.050161 
L 319.397674 169.050161 
L 319.397674 168.052661 
z
M 327.606659 168.052661 
L 328.795409 168.052661 
L 328.795409 175.805786 
L 333.019784 175.805786 
L 333.019784 176.801411 
L 327.606659 176.801411 
L 327.606659 168.052661 
z
M 334.726268 168.052661 
L 339.916268 168.052661 
L 339.916268 169.050161 
L 335.909393 169.050161 
L 335.909393 171.639536 
L 339.741893 171.639536 
L 339.741893 172.635161 
L 335.909393 172.635161 
L 335.909393 175.805786 
L 340.028768 175.805786 
L 340.028768 176.801411 
L 334.726268 176.801411 
L 334.726268 168.052661 
z
" style="fill: #076fa2"/>
   </g>
   <g id="text_18">
    <path d="M 637.163841 121.700464 
L 635.915091 126.176089 
L 638.412591 126.176089 
L 637.163841 121.700464 
z
M 636.449466 120.656089 
L 637.883841 120.656089 
L 640.563216 129.404839 
L 639.336966 129.404839 
L 638.693841 127.124839 
L 635.628216 127.124839 
L 634.996341 129.404839 
L 633.771966 129.404839 
L 636.449466 120.656089 
z
M 642.039076 120.656089 
L 643.227826 120.656089 
L 643.227826 128.409214 
L 647.452201 128.409214 
L 647.452201 129.404839 
L 642.039076 129.404839 
L 642.039076 120.656089 
z
M 649.181185 120.656089 
L 654.03931 120.656089 
L 654.03931 121.653589 
L 652.20556 121.653589 
L 652.20556 128.409214 
L 654.03931 128.409214 
L 654.03931 129.404839 
L 649.181185 129.404839 
L 649.181185 128.409214 
L 651.014935 128.409214 
L 651.014935 121.653589 
L 649.181185 121.653589 
L 649.181185 120.656089 
z
M 661.51517 129.093589 
Q 661.06517 129.333589 660.58892 129.453589 
Q 660.114545 129.575464 659.582045 129.575464 
Q 657.90017 129.575464 656.97017 128.386714 
Q 656.042045 127.196089 656.042045 125.039839 
Q 656.042045 122.894839 656.975795 121.696714 
Q 657.91142 120.498589 659.582045 120.498589 
Q 660.114545 120.498589 660.58892 120.618589 
Q 661.06517 120.738589 661.51517 120.978589 
L 661.51517 122.191714 
Q 661.082045 121.833589 660.583295 121.646089 
Q 660.08642 121.458589 659.582045 121.458589 
Q 658.427045 121.458589 657.853295 122.349214 
Q 657.279545 123.239839 657.279545 125.039839 
Q 657.279545 126.832339 657.853295 127.722964 
Q 658.427045 128.613589 659.582045 128.613589 
Q 660.09767 128.613589 660.59267 128.426089 
Q 661.08767 128.238589 661.51517 127.880464 
L 661.51517 129.093589 
z
M 663.607904 120.656089 
L 668.797904 120.656089 
L 668.797904 121.653589 
L 664.791029 121.653589 
L 664.791029 124.242964 
L 668.623529 124.242964 
L 668.623529 125.238589 
L 664.791029 125.238589 
L 664.791029 128.409214 
L 668.910404 128.409214 
L 668.910404 129.404839 
L 663.607904 129.404839 
L 663.607904 120.656089 
z
" style="fill: #076fa2; stroke: #ffffff; stroke-width: 2"/>
    <path d="M 637.163841 121.700464 
L 635.915091 126.176089 
L 638.412591 126.176089 
L 637.163841 121.700464 
z
M 636.449466 120.656089 
L 637.883841 120.656089 
L 640.563216 129.404839 
L 639.336966 129.404839 
L 638.693841 127.124839 
L 635.628216 127.124839 
L 634.996341 129.404839 
L 633.771966 129.404839 
L 636.449466 120.656089 
z
M 642.039076 120.656089 
L 643.227826 120.656089 
L 643.227826 128.409214 
L 647.452201 128.409214 
L 647.452201 129.404839 
L 642.039076 129.404839 
L 642.039076 120.656089 
z
M 649.181185 120.656089 
L 654.03931 120.656089 
L 654.03931 121.653589 
L 652.20556 121.653589 
L 652.20556 128.409214 
L 654.03931 128.409214 
L 654.03931 129.404839 
L 649.181185 129.404839 
L 649.181185 128.409214 
L 651.014935 128.409214 
L 651.014935 121.653589 
L 649.181185 121.653589 
L 649.181185 120.656089 
z
M 661.51517 129.093589 
Q 661.06517 129.333589 660.58892 129.453589 
Q 660.114545 129.575464 659.582045 129.575464 
Q 657.90017 129.575464 656.97017 128.386714 
Q 656.042045 127.196089 656.042045 125.039839 
Q 656.042045 122.894839 656.975795 121.696714 
Q 657.91142 120.498589 659.582045 120.498589 
Q 660.114545 120.498589 660.58892 120.618589 
Q 661.06517 120.738589 661.51517 120.978589 
L 661.51517 122.191714 
Q 661.082045 121.833589 660.583295 121.646089 
Q 660.08642 121.458589 659.582045 121.458589 
Q 658.427045 121.458589 657.853295 122.349214 
Q 657.279545 123.239839 657.279545 125.039839 
Q 657.279545 126.832339 657.853295 127.722964 
Q 658.427045 128.613589 659.582045 128.613589 
Q 660.09767 128.613589 660.59267 128.426089 
Q 661.08767 128.238589 661.51517 127.880464 
L 661.51517 129.093589 
z
M 663.607904 120.656089 
L 668.797904 120.656089 
L 668.797904 121.653589 
L 664.791029 121.653589 
L 664.791029 124.242964 
L 668.623529 124.242964 
L 668.623529 125.238589 
L 664.791029 125.238589 
L 664.791029 128.409214 
L 668.910404 128.409214 
L 668.910404 129.404839 
L 663.607904 129.404839 
L 663.607904 120.656089 
z
" style="fill: #076fa2"/>
   </g>
   <g id="text_19">
    <path d="M 736.813155 73.559518 
L 736.813155 74.759518 
Q 736.273155 74.414518 735.73128 74.238268 
Q 735.189405 74.062018 734.638155 74.062018 
Q 733.80003 74.062018 733.314405 74.452018 
Q 732.82878 74.842018 732.82878 75.503893 
Q 732.82878 76.085143 733.14753 76.390768 
Q 733.46628 76.694518 734.34003 76.898893 
L 734.960655 77.039518 
Q 736.190655 77.326393 736.753155 77.941393 
Q 737.315655 78.556393 737.315655 79.617643 
Q 737.315655 80.866393 736.54128 81.522643 
Q 735.76878 82.178893 734.293155 82.178893 
Q 733.678155 82.178893 733.055655 82.045768 
Q 732.43503 81.914518 731.80878 81.650143 
L 731.80878 80.390143 
Q 732.481905 80.819518 733.081905 81.018268 
Q 733.68378 81.217018 734.293155 81.217018 
Q 735.189405 81.217018 735.68628 80.815768 
Q 736.18503 80.414518 736.18503 79.694518 
Q 736.18503 79.038268 735.841905 78.693268 
Q 735.500655 78.346393 734.649405 78.158893 
L 734.01753 78.012643 
Q 732.79878 77.737018 732.24753 77.180143 
Q 731.69628 76.623268 731.69628 75.685768 
Q 731.69628 74.513893 732.48378 73.808893 
Q 733.273155 73.102018 734.58003 73.102018 
Q 735.084405 73.102018 735.639405 73.216393 
Q 736.19628 73.330768 736.813155 73.559518 
z
M 741.716514 74.303893 
L 740.467764 78.779518 
L 742.965264 78.779518 
L 741.716514 74.303893 
z
M 741.002139 73.259518 
L 742.436514 73.259518 
L 745.115889 82.008268 
L 743.889639 82.008268 
L 743.246514 79.728268 
L 740.180889 79.728268 
L 739.549014 82.008268 
L 738.324639 82.008268 
L 741.002139 73.259518 
z
M 746.509248 73.259518 
L 751.367373 73.259518 
L 751.367373 74.257018 
L 749.533623 74.257018 
L 749.533623 81.012643 
L 751.367373 81.012643 
L 751.367373 82.008268 
L 746.509248 82.008268 
L 746.509248 81.012643 
L 748.342998 81.012643 
L 748.342998 74.257018 
L 746.509248 74.257018 
L 746.509248 73.259518 
z
M 755.111983 81.035143 
Q 756.604483 81.035143 757.196983 80.300143 
Q 757.789483 79.565143 757.789483 77.643268 
Q 757.789483 75.702643 757.200733 74.967643 
Q 756.611983 74.232643 755.111983 74.232643 
L 754.549483 74.232643 
L 754.549483 81.035143 
L 755.111983 81.035143 
z
M 755.134483 73.259518 
Q 757.138858 73.259518 758.087608 74.326393 
Q 759.036358 75.393268 759.036358 77.643268 
Q 759.036358 79.882018 758.087608 80.945143 
Q 757.138858 82.008268 755.134483 82.008268 
L 753.358858 82.008268 
L 753.358858 73.259518 
L 755.134483 73.259518 
z
" style="fill: #076fa2; stroke: #ffffff; stroke-width: 2"/>
    <path d="M 736.813155 73.559518 
L 736.813155 74.759518 
Q 736.273155 74.414518 735.73128 74.238268 
Q 735.189405 74.062018 734.638155 74.062018 
Q 733.80003 74.062018 733.314405 74.452018 
Q 732.82878 74.842018 732.82878 75.503893 
Q 732.82878 76.085143 733.14753 76.390768 
Q 733.46628 76.694518 734.34003 76.898893 
L 734.960655 77.039518 
Q 736.190655 77.326393 736.753155 77.941393 
Q 737.315655 78.556393 737.315655 79.617643 
Q 737.315655 80.866393 736.54128 81.522643 
Q 735.76878 82.178893 734.293155 82.178893 
Q 733.678155 82.178893 733.055655 82.045768 
Q 732.43503 81.914518 731.80878 81.650143 
L 731.80878 80.390143 
Q 732.481905 80.819518 733.081905 81.018268 
Q 733.68378 81.217018 734.293155 81.217018 
Q 735.189405 81.217018 735.68628 80.815768 
Q 736.18503 80.414518 736.18503 79.694518 
Q 736.18503 79.038268 735.841905 78.693268 
Q 735.500655 78.346393 734.649405 78.158893 
L 734.01753 78.012643 
Q 732.79878 77.737018 732.24753 77.180143 
Q 731.69628 76.623268 731.69628 75.685768 
Q 731.69628 74.513893 732.48378 73.808893 
Q 733.273155 73.102018 734.58003 73.102018 
Q 735.084405 73.102018 735.639405 73.216393 
Q 736.19628 73.330768 736.813155 73.559518 
z
M 741.716514 74.303893 
L 740.467764 78.779518 
L 742.965264 78.779518 
L 741.716514 74.303893 
z
M 741.002139 73.259518 
L 742.436514 73.259518 
L 745.115889 82.008268 
L 743.889639 82.008268 
L 743.246514 79.728268 
L 740.180889 79.728268 
L 739.549014 82.008268 
L 738.324639 82.008268 
L 741.002139 73.259518 
z
M 746.509248 73.259518 
L 751.367373 73.259518 
L 751.367373 74.257018 
L 749.533623 74.257018 
L 749.533623 81.012643 
L 751.367373 81.012643 
L 751.367373 82.008268 
L 746.509248 82.008268 
L 746.509248 81.012643 
L 748.342998 81.012643 
L 748.342998 74.257018 
L 746.509248 74.257018 
L 746.509248 73.259518 
z
M 755.111983 81.035143 
Q 756.604483 81.035143 757.196983 80.300143 
Q 757.789483 79.565143 757.789483 77.643268 
Q 757.789483 75.702643 757.200733 74.967643 
Q 756.611983 74.232643 755.111983 74.232643 
L 754.549483 74.232643 
L 754.549483 81.035143 
L 755.111983 81.035143 
z
M 755.134483 73.259518 
Q 757.138858 73.259518 758.087608 74.326393 
Q 759.036358 75.393268 759.036358 77.643268 
Q 759.036358 79.882018 758.087608 80.945143 
Q 757.138858 82.008268 755.134483 82.008268 
L 753.358858 82.008268 
L 753.358858 73.259518 
L 755.134483 73.259518 
z
" style="fill: #076fa2"/>
   </g>
  </g>
  <g id="text_20">
   <!-- Alice in Wonderland -->
   <g transform="translate(86.4 23.04) scale(0.22 -0.22)">
    <defs>
     <path id="DejaVuSansMono-Bold-41" d="M 1925 3822 
L 1491 1913 
L 2363 1913 
L 1925 3822 
z
M 1363 4666 
L 2491 4666 
L 3750 0 
L 2828 0 
L 2541 1153 
L 1306 1153 
L 1025 0 
L 103 0 
L 1363 4666 
z
" transform="scale(0.015625)"/>
     <path id="DejaVuSansMono-Bold-6c" d="M 1209 1459 
L 1209 4159 
L 281 4159 
L 281 4863 
L 2125 4863 
L 2125 1459 
Q 2125 1047 2253 875 
Q 2381 703 2688 703 
L 3419 703 
L 3419 0 
L 2431 0 
Q 1778 0 1493 337 
Q 1209 675 1209 1459 
z
" transform="scale(0.015625)"/>
     <path id="DejaVuSansMono-Bold-69" d="M 691 3500 
L 2503 3500 
L 2503 703 
L 3641 703 
L 3641 0 
L 447 0 
L 447 703 
L 1588 703 
L 1588 2797 
L 691 2797 
L 691 3500 
z
M 1588 5203 
L 2503 5203 
L 2503 4134 
L 1588 4134 
L 1588 5203 
z
" transform="scale(0.015625)"/>
     <path id="DejaVuSansMono-Bold-63" d="M 3316 178 
Q 3084 44 2818 -23 
Q 2553 -91 2247 -91 
Q 1438 -91 981 396 
Q 525 884 525 1747 
Q 525 2613 984 3102 
Q 1444 3591 2253 3591 
Q 2534 3591 2795 3525 
Q 3056 3459 3316 3322 
L 3316 2484 
Q 3116 2656 2877 2748 
Q 2638 2841 2381 2841 
Q 1934 2841 1693 2556 
Q 1453 2272 1453 1747 
Q 1453 1222 1693 940 
Q 1934 659 2381 659 
Q 2647 659 2878 748 
Q 3109 838 3316 1019 
L 3316 178 
z
" transform="scale(0.015625)"/>
     <path id="DejaVuSansMono-Bold-65" d="M 3444 172 
Q 3125 41 2794 -25 
Q 2463 -91 2094 -91 
Q 1216 -91 752 379 
Q 288 850 288 1734 
Q 288 2591 734 3087 
Q 1181 3584 1953 3584 
Q 2731 3584 3161 3123 
Q 3591 2663 3591 1825 
L 3591 1453 
L 1219 1453 
Q 1222 1041 1462 837 
Q 1703 634 2181 634 
Q 2497 634 2803 725 
Q 3109 816 3444 1013 
L 3444 172 
z
M 2669 2141 
Q 2663 2503 2483 2689 
Q 2303 2875 1953 2875 
Q 1638 2875 1450 2683 
Q 1263 2491 1228 2138 
L 2669 2141 
z
" transform="scale(0.015625)"/>
     <path id="DejaVuSansMono-Bold-20" transform="scale(0.015625)"/>
     <path id="DejaVuSansMono-Bold-6e" d="M 3347 2272 
L 3347 0 
L 2438 0 
L 2438 2131 
Q 2438 2513 2330 2677 
Q 2222 2841 1978 2841 
Q 1731 2841 1589 2619 
Q 1447 2397 1447 2003 
L 1447 0 
L 538 0 
L 538 3500 
L 1447 3500 
L 1447 2975 
Q 1544 3266 1778 3425 
Q 2013 3584 2344 3584 
Q 2841 3584 3094 3254 
Q 3347 2925 3347 2272 
z
" transform="scale(0.015625)"/>
     <path id="DejaVuSansMono-Bold-57" d="M 0 4666 
L 806 4666 
L 1141 1241 
L 1544 3456 
L 2309 3456 
L 2778 1241 
L 3041 4666 
L 3853 4666 
L 3316 0 
L 2456 0 
L 1925 2450 
L 1428 0 
L 575 0 
L 0 4666 
z
" transform="scale(0.015625)"/>
     <path id="DejaVuSansMono-Bold-6f" d="M 1925 2841 
Q 1597 2841 1409 2552 
Q 1222 2263 1222 1747 
Q 1222 1231 1409 942 
Q 1597 653 1925 653 
Q 2256 653 2443 942 
Q 2631 1231 2631 1747 
Q 2631 2263 2443 2552 
Q 2256 2841 1925 2841 
z
M 306 1747 
Q 306 2594 745 3089 
Q 1184 3584 1925 3584 
Q 2669 3584 3108 3089 
Q 3547 2594 3547 1747 
Q 3547 900 3108 404 
Q 2669 -91 1925 -91 
Q 1184 -91 745 404 
Q 306 900 306 1747 
z
" transform="scale(0.015625)"/>
     <path id="DejaVuSansMono-Bold-64" d="M 2472 3003 
L 2472 4863 
L 3384 4863 
L 3384 0 
L 2472 0 
L 2472 519 
Q 2325 216 2092 62 
Q 1859 -91 1544 -91 
Q 944 -91 612 390 
Q 281 872 281 1747 
Q 281 2634 617 3109 
Q 953 3584 1575 3584 
Q 1856 3584 2079 3439 
Q 2303 3294 2472 3003 
z
M 1197 1741 
Q 1197 1234 1365 946 
Q 1534 659 1831 659 
Q 2128 659 2300 946 
Q 2472 1234 2472 1741 
Q 2472 2247 2300 2534 
Q 2128 2822 1831 2822 
Q 1534 2822 1365 2534 
Q 1197 2247 1197 1741 
z
" transform="scale(0.015625)"/>
     <path id="DejaVuSansMono-Bold-72" d="M 3597 2534 
Q 3447 2672 3245 2740 
Q 3044 2809 2803 2809 
Q 2513 2809 2295 2707 
Q 2078 2606 1959 2413 
Q 1884 2294 1854 2125 
Q 1825 1956 1825 1613 
L 1825 0 
L 909 0 
L 909 3500 
L 1825 3500 
L 1825 2956 
Q 1959 3256 2237 3420 
Q 2516 3584 2888 3584 
Q 3075 3584 3254 3539 
Q 3434 3494 3597 3406 
L 3597 2534 
z
" transform="scale(0.015625)"/>
     <path id="DejaVuSansMono-Bold-61" d="M 2188 1644 
Q 1675 1644 1472 1512 
Q 1269 1381 1269 1063 
Q 1269 825 1409 684 
Q 1550 544 1791 544 
Q 2153 544 2353 817 
Q 2553 1091 2553 1581 
L 2553 1644 
L 2188 1644 
z
M 3463 1997 
L 3463 0 
L 2553 0 
L 2553 391 
Q 2388 159 2128 34 
Q 1869 -91 1556 -91 
Q 959 -91 626 225 
Q 294 541 294 1106 
Q 294 1719 691 2011 
Q 1088 2303 1919 2303 
L 2553 2303 
L 2553 2456 
Q 2553 2678 2392 2792 
Q 2231 2906 1919 2906 
Q 1591 2906 1283 2823 
Q 975 2741 641 2559 
L 641 3341 
Q 944 3466 1256 3525 
Q 1569 3584 1919 3584 
Q 2772 3584 3117 3237 
Q 3463 2891 3463 1997 
z
" transform="scale(0.015625)"/>
    </defs>
    <use xlink:href="#DejaVuSansMono-Bold-41"/>
    <use xlink:href="#DejaVuSansMono-Bold-6c" x="60.205078"/>
    <use xlink:href="#DejaVuSansMono-Bold-69" x="120.410156"/>
    <use xlink:href="#DejaVuSansMono-Bold-63" x="180.615234"/>
    <use xlink:href="#DejaVuSansMono-Bold-65" x="240.820312"/>
    <use xlink:href="#DejaVuSansMono-Bold-20" x="301.025391"/>
    <use xlink:href="#DejaVuSansMono-Bold-69" x="361.230469"/>
    <use xlink:href="#DejaVuSansMono-Bold-6e" x="421.435547"/>
    <use xlink:href="#DejaVuSansMono-Bold-20" x="481.640625"/>
    <use xlink:href="#DejaVuSansMono-Bold-57" x="541.845703"/>
    <use xlink:href="#DejaVuSansMono-Bold-6f" x="602.050781"/>
    <use xlink:href="#DejaVuSansMono-Bold-6e" x="662.255859"/>
    <use xlink:href="#DejaVuSansMono-Bold-64" x="722.460938"/>
    <use xlink:href="#DejaVuSansMono-Bold-65" x="782.666016"/>
    <use xlink:href="#DejaVuSansMono-Bold-72" x="842.871094"/>
    <use xlink:href="#DejaVuSansMono-Bold-6c" x="903.076172"/>
    <use xlink:href="#DejaVuSansMono-Bold-61" x="963.28125"/>
    <use xlink:href="#DejaVuSansMono-Bold-6e" x="1023.486328"/>
    <use xlink:href="#DejaVuSansMono-Bold-64" x="1083.691406"/>
   </g>
  </g>
  <g id="text_21">
   <!-- Top 20 Words in Alice in Wonderland -->
   <g transform="translate(86.4 37.44) scale(0.16 -0.16)">
    <defs>
     <path id="DejaVuSansMono-54" d="M 147 4666 
L 3706 4666 
L 3706 4134 
L 2247 4134 
L 2247 0 
L 1613 0 
L 1613 4134 
L 147 4134 
L 147 4666 
z
" transform="scale(0.015625)"/>
     <path id="DejaVuSansMono-6f" d="M 1925 3097 
Q 1488 3097 1263 2756 
Q 1038 2416 1038 1747 
Q 1038 1081 1263 739 
Q 1488 397 1925 397 
Q 2366 397 2591 739 
Q 2816 1081 2816 1747 
Q 2816 2416 2591 2756 
Q 2366 3097 1925 3097 
z
M 1925 3584 
Q 2653 3584 3039 3112 
Q 3425 2641 3425 1747 
Q 3425 850 3040 379 
Q 2656 -91 1925 -91 
Q 1197 -91 812 379 
Q 428 850 428 1747 
Q 428 2641 812 3112 
Q 1197 3584 1925 3584 
z
" transform="scale(0.015625)"/>
     <path id="DejaVuSansMono-70" d="M 1172 441 
L 1172 -1331 
L 594 -1331 
L 594 3500 
L 1172 3500 
L 1172 3053 
Q 1316 3313 1555 3448 
Q 1794 3584 2106 3584 
Q 2741 3584 3102 3093 
Q 3463 2603 3463 1734 
Q 3463 881 3100 395 
Q 2738 -91 2106 -91 
Q 1788 -91 1548 45 
Q 1309 181 1172 441 
z
M 2859 1747 
Q 2859 2416 2648 2756 
Q 2438 3097 2022 3097 
Q 1603 3097 1387 2755 
Q 1172 2413 1172 1747 
Q 1172 1084 1387 740 
Q 1603 397 2022 397 
Q 2438 397 2648 737 
Q 2859 1078 2859 1747 
z
" transform="scale(0.015625)"/>
     <path id="DejaVuSansMono-20" transform="scale(0.015625)"/>
     <path id="DejaVuSansMono-32" d="M 1166 531 
L 3309 531 
L 3309 0 
L 475 0 
L 475 531 
Q 1059 1147 1496 1619 
Q 1934 2091 2100 2284 
Q 2413 2666 2522 2902 
Q 2631 3138 2631 3384 
Q 2631 3775 2401 3997 
Q 2172 4219 1772 4219 
Q 1488 4219 1175 4116 
Q 863 4013 513 3803 
L 513 4441 
Q 834 4594 1145 4672 
Q 1456 4750 1759 4750 
Q 2444 4750 2861 4386 
Q 3278 4022 3278 3431 
Q 3278 3131 3139 2831 
Q 3000 2531 2688 2169 
Q 2513 1966 2180 1606 
Q 1847 1247 1166 531 
z
" transform="scale(0.015625)"/>
     <path id="DejaVuSansMono-57" d="M 0 4666 
L 616 4666 
L 1063 878 
L 1594 3384 
L 2253 3384 
L 2791 872 
L 3238 4666 
L 3853 4666 
L 3156 0 
L 2559 0 
L 1925 2772 
L 1294 0 
L 697 0 
L 0 4666 
z
" transform="scale(0.015625)"/>
     <path id="DejaVuSansMono-72" d="M 3609 2778 
Q 3425 2922 3234 2987 
Q 3044 3053 2816 3053 
Q 2278 3053 1993 2715 
Q 1709 2378 1709 1741 
L 1709 0 
L 1131 0 
L 1131 3500 
L 1709 3500 
L 1709 2816 
Q 1853 3188 2151 3386 
Q 2450 3584 2859 3584 
Q 3072 3584 3256 3531 
Q 3441 3478 3609 3366 
L 3609 2778 
z
" transform="scale(0.015625)"/>
     <path id="DejaVuSansMono-64" d="M 2681 3053 
L 2681 4863 
L 3256 4863 
L 3256 0 
L 2681 0 
L 2681 441 
Q 2538 181 2298 45 
Q 2059 -91 1747 -91 
Q 1113 -91 748 401 
Q 384 894 384 1759 
Q 384 2613 750 3098 
Q 1116 3584 1747 3584 
Q 2063 3584 2303 3448 
Q 2544 3313 2681 3053 
z
M 991 1747 
Q 991 1078 1203 737 
Q 1416 397 1831 397 
Q 2247 397 2464 740 
Q 2681 1084 2681 1747 
Q 2681 2413 2464 2755 
Q 2247 3097 1831 3097 
Q 1416 3097 1203 2756 
Q 991 2416 991 1747 
z
" transform="scale(0.015625)"/>
     <path id="DejaVuSansMono-73" d="M 3041 3378 
L 3041 2816 
Q 2794 2959 2544 3031 
Q 2294 3103 2034 3103 
Q 1644 3103 1451 2976 
Q 1259 2850 1259 2591 
Q 1259 2356 1403 2240 
Q 1547 2125 2119 2016 
L 2350 1972 
Q 2778 1891 2998 1647 
Q 3219 1403 3219 1013 
Q 3219 494 2850 201 
Q 2481 -91 1825 -91 
Q 1566 -91 1281 -36 
Q 997 19 666 128 
L 666 722 
Q 988 556 1281 473 
Q 1575 391 1838 391 
Q 2219 391 2428 545 
Q 2638 700 2638 978 
Q 2638 1378 1872 1531 
L 1847 1538 
L 1631 1581 
Q 1134 1678 906 1908 
Q 678 2138 678 2534 
Q 678 3038 1018 3311 
Q 1359 3584 1991 3584 
Q 2272 3584 2531 3532 
Q 2791 3481 3041 3378 
z
" transform="scale(0.015625)"/>
     <path id="DejaVuSansMono-69" d="M 800 3500 
L 2272 3500 
L 2272 447 
L 3413 447 
L 3413 0 
L 556 0 
L 556 447 
L 1697 447 
L 1697 3053 
L 800 3053 
L 800 3500 
z
M 1697 4863 
L 2272 4863 
L 2272 4134 
L 1697 4134 
L 1697 4863 
z
" transform="scale(0.015625)"/>
     <path id="DejaVuSansMono-6e" d="M 3284 2169 
L 3284 0 
L 2706 0 
L 2706 2169 
Q 2706 2641 2540 2862 
Q 2375 3084 2022 3084 
Q 1619 3084 1401 2798 
Q 1184 2513 1184 1978 
L 1184 0 
L 609 0 
L 609 3500 
L 1184 3500 
L 1184 2975 
Q 1338 3275 1600 3429 
Q 1863 3584 2222 3584 
Q 2756 3584 3020 3232 
Q 3284 2881 3284 2169 
z
" transform="scale(0.015625)"/>
     <path id="DejaVuSansMono-41" d="M 1925 4109 
L 1259 1722 
L 2591 1722 
L 1925 4109 
z
M 1544 4666 
L 2309 4666 
L 3738 0 
L 3084 0 
L 2741 1216 
L 1106 1216 
L 769 0 
L 116 0 
L 1544 4666 
z
" transform="scale(0.015625)"/>
     <path id="DejaVuSansMono-6c" d="M 1997 1269 
Q 1997 881 2139 684 
Q 2281 488 2559 488 
L 3231 488 
L 3231 0 
L 2503 0 
Q 1988 0 1705 331 
Q 1422 663 1422 1269 
L 1422 4447 
L 500 4447 
L 500 4897 
L 1997 4897 
L 1997 1269 
z
" transform="scale(0.015625)"/>
     <path id="DejaVuSansMono-63" d="M 3316 178 
Q 3084 44 2839 -23 
Q 2594 -91 2338 -91 
Q 1525 -91 1067 396 
Q 609 884 609 1747 
Q 609 2609 1067 3096 
Q 1525 3584 2338 3584 
Q 2591 3584 2831 3518 
Q 3072 3453 3316 3316 
L 3316 2713 
Q 3088 2916 2858 3006 
Q 2628 3097 2338 3097 
Q 1797 3097 1506 2747 
Q 1216 2397 1216 1747 
Q 1216 1100 1508 748 
Q 1800 397 2338 397 
Q 2638 397 2875 489 
Q 3113 581 3316 775 
L 3316 178 
z
" transform="scale(0.015625)"/>
     <path id="DejaVuSansMono-65" d="M 3475 1894 
L 3475 1613 
L 984 1613 
L 984 1594 
Q 984 1022 1282 709 
Q 1581 397 2125 397 
Q 2400 397 2700 484 
Q 3000 572 3341 750 
L 3341 178 
Q 3013 44 2708 -23 
Q 2403 -91 2119 -91 
Q 1303 -91 843 398 
Q 384 888 384 1747 
Q 384 2584 834 3084 
Q 1284 3584 2034 3584 
Q 2703 3584 3089 3131 
Q 3475 2678 3475 1894 
z
M 2900 2063 
Q 2888 2569 2661 2833 
Q 2434 3097 2009 3097 
Q 1594 3097 1325 2822 
Q 1056 2547 1006 2059 
L 2900 2063 
z
" transform="scale(0.015625)"/>
     <path id="DejaVuSansMono-61" d="M 2194 1759 
L 2003 1759 
Q 1500 1759 1245 1582 
Q 991 1406 991 1056 
Q 991 741 1181 566 
Q 1372 391 1709 391 
Q 2184 391 2456 720 
Q 2728 1050 2731 1631 
L 2731 1759 
L 2194 1759 
z
M 3309 1997 
L 3309 0 
L 2731 0 
L 2731 519 
Q 2547 206 2267 57 
Q 1988 -91 1588 -91 
Q 1053 -91 734 211 
Q 416 513 416 1019 
Q 416 1603 808 1906 
Q 1200 2209 1959 2209 
L 2731 2209 
L 2731 2300 
Q 2728 2719 2518 2908 
Q 2309 3097 1850 3097 
Q 1556 3097 1256 3012 
Q 956 2928 672 2766 
L 672 3341 
Q 991 3463 1283 3523 
Q 1575 3584 1850 3584 
Q 2284 3584 2592 3456 
Q 2900 3328 3091 3072 
Q 3209 2916 3259 2686 
Q 3309 2456 3309 1997 
z
" transform="scale(0.015625)"/>
    </defs>
    <use xlink:href="#DejaVuSansMono-54"/>
    <use xlink:href="#DejaVuSansMono-6f" x="60.205078"/>
    <use xlink:href="#DejaVuSansMono-70" x="120.410156"/>
    <use xlink:href="#DejaVuSansMono-20" x="180.615234"/>
    <use xlink:href="#DejaVuSansMono-32" x="240.820312"/>
    <use xlink:href="#DejaVuSansMono-30" x="301.025391"/>
    <use xlink:href="#DejaVuSansMono-20" x="361.230469"/>
    <use xlink:href="#DejaVuSansMono-57" x="421.435547"/>
    <use xlink:href="#DejaVuSansMono-6f" x="481.640625"/>
    <use xlink:href="#DejaVuSansMono-72" x="541.845703"/>
    <use xlink:href="#DejaVuSansMono-64" x="602.050781"/>
    <use xlink:href="#DejaVuSansMono-73" x="662.255859"/>
    <use xlink:href="#DejaVuSansMono-20" x="722.460938"/>
    <use xlink:href="#DejaVuSansMono-69" x="782.666016"/>
    <use xlink:href="#DejaVuSansMono-6e" x="842.871094"/>
    <use xlink:href="#DejaVuSansMono-20" x="903.076172"/>
    <use xlink:href="#DejaVuSansMono-41" x="963.28125"/>
    <use xlink:href="#DejaVuSansMono-6c" x="1023.486328"/>
    <use xlink:href="#DejaVuSansMono-69" x="1083.691406"/>
    <use xlink:href="#DejaVuSansMono-63" x="1143.896484"/>
    <use xlink:href="#DejaVuSansMono-65" x="1204.101562"/>
    <use xlink:href="#DejaVuSansMono-20" x="1264.306641"/>
    <use xlink:href="#DejaVuSansMono-69" x="1324.511719"/>
    <use xlink:href="#DejaVuSansMono-6e" x="1384.716797"/>
    <use xlink:href="#DejaVuSansMono-20" x="1444.921875"/>
    <use xlink:href="#DejaVuSansMono-57" x="1505.126953"/>
    <use xlink:href="#DejaVuSansMono-6f" x="1565.332031"/>
    <use xlink:href="#DejaVuSansMono-6e" x="1625.537109"/>
    <use xlink:href="#DejaVuSansMono-64" x="1685.742188"/>
    <use xlink:href="#DejaVuSansMono-65" x="1745.947266"/>
    <use xlink:href="#DejaVuSansMono-72" x="1806.152344"/>
    <use xlink:href="#DejaVuSansMono-6c" x="1866.357422"/>
    <use xlink:href="#DejaVuSansMono-61" x="1926.5625"/>
    <use xlink:href="#DejaVuSansMono-6e" x="1986.767578"/>
    <use xlink:href="#DejaVuSansMono-64" x="2046.972656"/>
   </g>
  </g>
  <g id="text_22">
   <!-- Source: Project Dialog,Github -->
   <g style="fill: #808080" transform="translate(86.4 547.2) scale(0.1 -0.1)">
    <defs>
     <path id="DejaVuSansMono-53" d="M 3163 4506 
L 3163 3866 
Q 2875 4050 2586 4144 
Q 2297 4238 2003 4238 
Q 1556 4238 1297 4030 
Q 1038 3822 1038 3469 
Q 1038 3159 1208 2996 
Q 1378 2834 1844 2725 
L 2175 2650 
Q 2831 2497 3131 2169 
Q 3431 1841 3431 1275 
Q 3431 609 3018 259 
Q 2606 -91 1819 -91 
Q 1491 -91 1159 -20 
Q 828 50 494 191 
L 494 863 
Q 853 634 1173 528 
Q 1494 422 1819 422 
Q 2297 422 2562 636 
Q 2828 850 2828 1234 
Q 2828 1584 2645 1768 
Q 2463 1953 2009 2053 
L 1672 2131 
Q 1022 2278 728 2575 
Q 434 2872 434 3372 
Q 434 3997 854 4373 
Q 1275 4750 1972 4750 
Q 2241 4750 2537 4689 
Q 2834 4628 3163 4506 
z
" transform="scale(0.015625)"/>
     <path id="DejaVuSansMono-75" d="M 609 1325 
L 609 3494 
L 1184 3494 
L 1184 1325 
Q 1184 853 1351 631 
Q 1519 409 1869 409 
Q 2275 409 2490 695 
Q 2706 981 2706 1516 
L 2706 3494 
L 3284 3494 
L 3284 0 
L 2706 0 
L 2706 525 
Q 2553 222 2289 65 
Q 2025 -91 1672 -91 
Q 1134 -91 871 261 
Q 609 613 609 1325 
z
" transform="scale(0.015625)"/>
     <path id="DejaVuSansMono-3a" d="M 1528 3322 
L 2316 3322 
L 2316 2375 
L 1528 2375 
L 1528 3322 
z
M 1528 953 
L 2316 953 
L 2316 0 
L 1528 0 
L 1528 953 
z
" transform="scale(0.015625)"/>
     <path id="DejaVuSansMono-50" d="M 1247 4147 
L 1247 2394 
L 1978 2394 
Q 2416 2394 2661 2625 
Q 2906 2856 2906 3272 
Q 2906 3688 2662 3917 
Q 2419 4147 1978 4147 
L 1247 4147 
z
M 616 4666 
L 1978 4666 
Q 2759 4666 3162 4311 
Q 3566 3956 3566 3272 
Q 3566 2581 3164 2228 
Q 2763 1875 1978 1875 
L 1247 1875 
L 1247 0 
L 616 0 
L 616 4666 
z
" transform="scale(0.015625)"/>
     <path id="DejaVuSansMono-6a" d="M 1875 -63 
L 1875 3053 
L 884 3053 
L 884 3500 
L 2450 3500 
L 2450 -63 
Q 2450 -672 2170 -1001 
Q 1891 -1331 1375 -1331 
L 581 -1331 
L 581 -844 
L 1313 -844 
Q 1594 -844 1734 -648 
Q 1875 -453 1875 -63 
z
M 1875 4863 
L 2450 4863 
L 2450 4134 
L 1875 4134 
L 1875 4863 
z
" transform="scale(0.015625)"/>
     <path id="DejaVuSansMono-74" d="M 1919 4494 
L 1919 3500 
L 3225 3500 
L 3225 3053 
L 1919 3053 
L 1919 1153 
Q 1919 766 2066 612 
Q 2213 459 2578 459 
L 3225 459 
L 3225 0 
L 2522 0 
Q 1875 0 1609 259 
Q 1344 519 1344 1153 
L 1344 3053 
L 409 3053 
L 409 3500 
L 1344 3500 
L 1344 4494 
L 1919 4494 
z
" transform="scale(0.015625)"/>
     <path id="DejaVuSansMono-44" d="M 1363 519 
Q 2159 519 2475 911 
Q 2791 1303 2791 2328 
Q 2791 3363 2477 3755 
Q 2163 4147 1363 4147 
L 1063 4147 
L 1063 519 
L 1363 519 
z
M 1375 4666 
Q 2444 4666 2950 4097 
Q 3456 3528 3456 2328 
Q 3456 1134 2950 567 
Q 2444 0 1375 0 
L 428 0 
L 428 4666 
L 1375 4666 
z
" transform="scale(0.015625)"/>
     <path id="DejaVuSansMono-67" d="M 2681 1778 
Q 2681 2425 2470 2761 
Q 2259 3097 1856 3097 
Q 1434 3097 1212 2761 
Q 991 2425 991 1778 
Q 991 1131 1214 792 
Q 1438 453 1863 453 
Q 2259 453 2470 793 
Q 2681 1134 2681 1778 
z
M 3256 225 
Q 3256 -563 2884 -969 
Q 2513 -1375 1791 -1375 
Q 1553 -1375 1293 -1331 
Q 1034 -1288 775 -1203 
L 775 -634 
Q 1081 -778 1331 -847 
Q 1581 -916 1791 -916 
Q 2256 -916 2468 -662 
Q 2681 -409 2681 141 
L 2681 166 
L 2681 556 
Q 2544 263 2306 119 
Q 2069 -25 1728 -25 
Q 1116 -25 750 465 
Q 384 956 384 1778 
Q 384 2603 750 3093 
Q 1116 3584 1728 3584 
Q 2066 3584 2300 3450 
Q 2534 3316 2681 3034 
L 2681 3488 
L 3256 3488 
L 3256 225 
z
" transform="scale(0.015625)"/>
     <path id="DejaVuSansMono-2c" d="M 1569 947 
L 2356 947 
L 2356 300 
L 1741 -897 
L 1259 -897 
L 1569 300 
L 1569 947 
z
" transform="scale(0.015625)"/>
     <path id="DejaVuSansMono-47" d="M 3450 384 
Q 3197 150 2880 29 
Q 2563 -91 2194 -91 
Q 1306 -91 812 545 
Q 319 1181 319 2328 
Q 319 3472 819 4111 
Q 1319 4750 2209 4750 
Q 2503 4750 2772 4667 
Q 3041 4584 3291 4416 
L 3291 3769 
Q 3038 4009 2772 4123 
Q 2506 4238 2209 4238 
Q 1594 4238 1286 3761 
Q 978 3284 978 2328 
Q 978 1356 1276 889 
Q 1575 422 2194 422 
Q 2403 422 2561 470 
Q 2719 519 2847 622 
L 2847 1875 
L 2169 1875 
L 2169 2394 
L 3450 2394 
L 3450 384 
z
" transform="scale(0.015625)"/>
     <path id="DejaVuSansMono-68" d="M 3284 2169 
L 3284 0 
L 2706 0 
L 2706 2169 
Q 2706 2641 2540 2862 
Q 2375 3084 2022 3084 
Q 1619 3084 1401 2798 
Q 1184 2513 1184 1978 
L 1184 0 
L 609 0 
L 609 4863 
L 1184 4863 
L 1184 2975 
Q 1338 3275 1600 3429 
Q 1863 3584 2222 3584 
Q 2756 3584 3020 3232 
Q 3284 2881 3284 2169 
z
" transform="scale(0.015625)"/>
     <path id="DejaVuSansMono-62" d="M 2869 1747 
Q 2869 2416 2656 2756 
Q 2444 3097 2028 3097 
Q 1609 3097 1393 2755 
Q 1178 2413 1178 1747 
Q 1178 1084 1393 740 
Q 1609 397 2028 397 
Q 2444 397 2656 737 
Q 2869 1078 2869 1747 
z
M 1178 3053 
Q 1316 3309 1558 3446 
Q 1800 3584 2119 3584 
Q 2750 3584 3112 3098 
Q 3475 2613 3475 1759 
Q 3475 894 3111 401 
Q 2747 -91 2113 -91 
Q 1800 -91 1561 45 
Q 1322 181 1178 441 
L 1178 0 
L 603 0 
L 603 4863 
L 1178 4863 
L 1178 3053 
z
" transform="scale(0.015625)"/>
    </defs>
    <use xlink:href="#DejaVuSansMono-53"/>
    <use xlink:href="#DejaVuSansMono-6f" x="60.205078"/>
    <use xlink:href="#DejaVuSansMono-75" x="120.410156"/>
    <use xlink:href="#DejaVuSansMono-72" x="180.615234"/>
    <use xlink:href="#DejaVuSansMono-63" x="240.820312"/>
    <use xlink:href="#DejaVuSansMono-65" x="301.025391"/>
    <use xlink:href="#DejaVuSansMono-3a" x="361.230469"/>
    <use xlink:href="#DejaVuSansMono-20" x="421.435547"/>
    <use xlink:href="#DejaVuSansMono-50" x="481.640625"/>
    <use xlink:href="#DejaVuSansMono-72" x="541.845703"/>
    <use xlink:href="#DejaVuSansMono-6f" x="602.050781"/>
    <use xlink:href="#DejaVuSansMono-6a" x="662.255859"/>
    <use xlink:href="#DejaVuSansMono-65" x="722.460938"/>
    <use xlink:href="#DejaVuSansMono-63" x="782.666016"/>
    <use xlink:href="#DejaVuSansMono-74" x="842.871094"/>
    <use xlink:href="#DejaVuSansMono-20" x="903.076172"/>
    <use xlink:href="#DejaVuSansMono-44" x="963.28125"/>
    <use xlink:href="#DejaVuSansMono-69" x="1023.486328"/>
    <use xlink:href="#DejaVuSansMono-61" x="1083.691406"/>
    <use xlink:href="#DejaVuSansMono-6c" x="1143.896484"/>
    <use xlink:href="#DejaVuSansMono-6f" x="1204.101562"/>
    <use xlink:href="#DejaVuSansMono-67" x="1264.306641"/>
    <use xlink:href="#DejaVuSansMono-2c" x="1324.511719"/>
    <use xlink:href="#DejaVuSansMono-47" x="1384.716797"/>
    <use xlink:href="#DejaVuSansMono-69" x="1444.921875"/>
    <use xlink:href="#DejaVuSansMono-74" x="1505.126953"/>
    <use xlink:href="#DejaVuSansMono-68" x="1565.332031"/>
    <use xlink:href="#DejaVuSansMono-75" x="1625.537109"/>
    <use xlink:href="#DejaVuSansMono-62" x="1685.742188"/>
   </g>
  </g>
  <g id="text_23">
   <!-- @lagom-QB; 2023 -->
   <g style="fill: #808080" transform="translate(86.4 564.48) scale(0.12 -0.12)">
    <defs>
     <path id="ArialMT-40" d="M 3628 509 
Q 3425 275 3173 133 
Q 2922 -9 2669 -9 
Q 2391 -9 2128 153 
Q 1866 316 1702 653 
Q 1538 991 1538 1394 
Q 1538 1891 1792 2389 
Q 2047 2888 2425 3138 
Q 2803 3388 3159 3388 
Q 3431 3388 3678 3245 
Q 3925 3103 4103 2813 
L 4209 3297 
L 4769 3297 
L 4319 1200 
Q 4225 763 4225 716 
Q 4225 631 4289 570 
Q 4353 509 4444 509 
Q 4609 509 4878 700 
Q 5234 950 5442 1370 
Q 5650 1791 5650 2238 
Q 5650 2759 5383 3212 
Q 5116 3666 4586 3937 
Q 4056 4209 3416 4209 
Q 2684 4209 2079 3867 
Q 1475 3525 1142 2886 
Q 809 2247 809 1516 
Q 809 750 1142 197 
Q 1475 -356 2104 -620 
Q 2734 -884 3500 -884 
Q 4319 -884 4872 -609 
Q 5425 -334 5700 59 
L 6266 59 
Q 6106 -269 5718 -609 
Q 5331 -950 4797 -1148 
Q 4263 -1347 3509 -1347 
Q 2816 -1347 2230 -1169 
Q 1644 -991 1231 -633 
Q 819 -275 609 191 
Q 347 781 347 1466 
Q 347 2228 659 2919 
Q 1041 3766 1742 4216 
Q 2444 4666 3444 4666 
Q 4219 4666 4836 4348 
Q 5453 4031 5809 3403 
Q 6113 2863 6113 2228 
Q 6113 1322 5475 619 
Q 4906 -13 4231 -13 
Q 4016 -13 3883 53 
Q 3750 119 3688 241 
Q 3647 319 3628 509 
z
M 2116 1356 
Q 2116 928 2319 690 
Q 2522 453 2784 453 
Q 2959 453 3153 558 
Q 3347 663 3523 869 
Q 3700 1075 3812 1392 
Q 3925 1709 3925 2028 
Q 3925 2453 3714 2687 
Q 3503 2922 3200 2922 
Q 3000 2922 2823 2820 
Q 2647 2719 2481 2494 
Q 2316 2269 2216 1947 
Q 2116 1625 2116 1356 
z
" transform="scale(0.015625)"/>
     <path id="ArialMT-6c" d="M 409 0 
L 409 4581 
L 972 4581 
L 972 0 
L 409 0 
z
" transform="scale(0.015625)"/>
     <path id="ArialMT-61" d="M 2588 409 
Q 2275 144 1986 34 
Q 1697 -75 1366 -75 
Q 819 -75 525 192 
Q 231 459 231 875 
Q 231 1119 342 1320 
Q 453 1522 633 1644 
Q 813 1766 1038 1828 
Q 1203 1872 1538 1913 
Q 2219 1994 2541 2106 
Q 2544 2222 2544 2253 
Q 2544 2597 2384 2738 
Q 2169 2928 1744 2928 
Q 1347 2928 1158 2789 
Q 969 2650 878 2297 
L 328 2372 
Q 403 2725 575 2942 
Q 747 3159 1072 3276 
Q 1397 3394 1825 3394 
Q 2250 3394 2515 3294 
Q 2781 3194 2906 3042 
Q 3031 2891 3081 2659 
Q 3109 2516 3109 2141 
L 3109 1391 
Q 3109 606 3145 398 
Q 3181 191 3288 0 
L 2700 0 
Q 2613 175 2588 409 
z
M 2541 1666 
Q 2234 1541 1622 1453 
Q 1275 1403 1131 1340 
Q 988 1278 909 1158 
Q 831 1038 831 891 
Q 831 666 1001 516 
Q 1172 366 1500 366 
Q 1825 366 2078 508 
Q 2331 650 2450 897 
Q 2541 1088 2541 1459 
L 2541 1666 
z
" transform="scale(0.015625)"/>
     <path id="ArialMT-67" d="M 319 -275 
L 866 -356 
Q 900 -609 1056 -725 
Q 1266 -881 1628 -881 
Q 2019 -881 2231 -725 
Q 2444 -569 2519 -288 
Q 2563 -116 2559 434 
Q 2191 0 1641 0 
Q 956 0 581 494 
Q 206 988 206 1678 
Q 206 2153 378 2554 
Q 550 2956 876 3175 
Q 1203 3394 1644 3394 
Q 2231 3394 2613 2919 
L 2613 3319 
L 3131 3319 
L 3131 450 
Q 3131 -325 2973 -648 
Q 2816 -972 2473 -1159 
Q 2131 -1347 1631 -1347 
Q 1038 -1347 672 -1080 
Q 306 -813 319 -275 
z
M 784 1719 
Q 784 1066 1043 766 
Q 1303 466 1694 466 
Q 2081 466 2343 764 
Q 2606 1063 2606 1700 
Q 2606 2309 2336 2618 
Q 2066 2928 1684 2928 
Q 1309 2928 1046 2623 
Q 784 2319 784 1719 
z
" transform="scale(0.015625)"/>
     <path id="ArialMT-6f" d="M 213 1659 
Q 213 2581 725 3025 
Q 1153 3394 1769 3394 
Q 2453 3394 2887 2945 
Q 3322 2497 3322 1706 
Q 3322 1066 3130 698 
Q 2938 331 2570 128 
Q 2203 -75 1769 -75 
Q 1072 -75 642 372 
Q 213 819 213 1659 
z
M 791 1659 
Q 791 1022 1069 705 
Q 1347 388 1769 388 
Q 2188 388 2466 706 
Q 2744 1025 2744 1678 
Q 2744 2294 2464 2611 
Q 2184 2928 1769 2928 
Q 1347 2928 1069 2612 
Q 791 2297 791 1659 
z
" transform="scale(0.015625)"/>
     <path id="ArialMT-6d" d="M 422 0 
L 422 3319 
L 925 3319 
L 925 2853 
Q 1081 3097 1340 3245 
Q 1600 3394 1931 3394 
Q 2300 3394 2536 3241 
Q 2772 3088 2869 2813 
Q 3263 3394 3894 3394 
Q 4388 3394 4653 3120 
Q 4919 2847 4919 2278 
L 4919 0 
L 4359 0 
L 4359 2091 
Q 4359 2428 4304 2576 
Q 4250 2725 4106 2815 
Q 3963 2906 3769 2906 
Q 3419 2906 3187 2673 
Q 2956 2441 2956 1928 
L 2956 0 
L 2394 0 
L 2394 2156 
Q 2394 2531 2256 2718 
Q 2119 2906 1806 2906 
Q 1569 2906 1367 2781 
Q 1166 2656 1075 2415 
Q 984 2175 984 1722 
L 984 0 
L 422 0 
z
" transform="scale(0.015625)"/>
     <path id="ArialMT-2d" d="M 203 1375 
L 203 1941 
L 1931 1941 
L 1931 1375 
L 203 1375 
z
" transform="scale(0.015625)"/>
     <path id="ArialMT-51" d="M 3966 491 
Q 4388 200 4744 66 
L 4566 -356 
Q 4072 -178 3581 206 
Q 3072 -78 2456 -78 
Q 1834 -78 1328 222 
Q 822 522 548 1065 
Q 275 1609 275 2291 
Q 275 2969 550 3525 
Q 825 4081 1333 4372 
Q 1841 4663 2469 4663 
Q 3103 4663 3612 4361 
Q 4122 4059 4389 3517 
Q 4656 2975 4656 2294 
Q 4656 1728 4484 1276 
Q 4313 825 3966 491 
z
M 2631 1266 
Q 3156 1119 3497 828 
Q 4031 1316 4031 2294 
Q 4031 2850 3842 3265 
Q 3653 3681 3289 3911 
Q 2925 4141 2472 4141 
Q 1794 4141 1347 3677 
Q 900 3213 900 2291 
Q 900 1397 1342 919 
Q 1784 441 2472 441 
Q 2797 441 3084 563 
Q 2800 747 2484 825 
L 2631 1266 
z
" transform="scale(0.015625)"/>
     <path id="ArialMT-42" d="M 469 0 
L 469 4581 
L 2188 4581 
Q 2713 4581 3030 4442 
Q 3347 4303 3526 4014 
Q 3706 3725 3706 3409 
Q 3706 3116 3547 2856 
Q 3388 2597 3066 2438 
Q 3481 2316 3704 2022 
Q 3928 1728 3928 1328 
Q 3928 1006 3792 729 
Q 3656 453 3456 303 
Q 3256 153 2954 76 
Q 2653 0 2216 0 
L 469 0 
z
M 1075 2656 
L 2066 2656 
Q 2469 2656 2644 2709 
Q 2875 2778 2992 2937 
Q 3109 3097 3109 3338 
Q 3109 3566 3000 3739 
Q 2891 3913 2687 3977 
Q 2484 4041 1991 4041 
L 1075 4041 
L 1075 2656 
z
M 1075 541 
L 2216 541 
Q 2509 541 2628 563 
Q 2838 600 2978 687 
Q 3119 775 3209 942 
Q 3300 1109 3300 1328 
Q 3300 1584 3169 1773 
Q 3038 1963 2805 2039 
Q 2572 2116 2134 2116 
L 1075 2116 
L 1075 541 
z
" transform="scale(0.015625)"/>
     <path id="ArialMT-3b" d="M 569 2678 
L 569 3319 
L 1209 3319 
L 1209 2678 
L 569 2678 
z
M 569 0 
L 569 641 
L 1209 641 
L 1209 0 
Q 1209 -353 1084 -570 
Q 959 -788 688 -906 
L 531 -666 
Q 709 -588 793 -436 
Q 878 -284 888 0 
L 569 0 
z
" transform="scale(0.015625)"/>
     <path id="ArialMT-20" transform="scale(0.015625)"/>
     <path id="ArialMT-32" d="M 3222 541 
L 3222 0 
L 194 0 
Q 188 203 259 391 
Q 375 700 629 1000 
Q 884 1300 1366 1694 
Q 2113 2306 2375 2664 
Q 2638 3022 2638 3341 
Q 2638 3675 2398 3904 
Q 2159 4134 1775 4134 
Q 1369 4134 1125 3890 
Q 881 3647 878 3216 
L 300 3275 
Q 359 3922 746 4261 
Q 1134 4600 1788 4600 
Q 2447 4600 2831 4234 
Q 3216 3869 3216 3328 
Q 3216 3053 3103 2787 
Q 2991 2522 2730 2228 
Q 2469 1934 1863 1422 
Q 1356 997 1212 845 
Q 1069 694 975 541 
L 3222 541 
z
" transform="scale(0.015625)"/>
     <path id="ArialMT-30" d="M 266 2259 
Q 266 3072 433 3567 
Q 600 4063 929 4331 
Q 1259 4600 1759 4600 
Q 2128 4600 2406 4451 
Q 2684 4303 2865 4023 
Q 3047 3744 3150 3342 
Q 3253 2941 3253 2259 
Q 3253 1453 3087 958 
Q 2922 463 2592 192 
Q 2263 -78 1759 -78 
Q 1097 -78 719 397 
Q 266 969 266 2259 
z
M 844 2259 
Q 844 1131 1108 757 
Q 1372 384 1759 384 
Q 2147 384 2411 759 
Q 2675 1134 2675 2259 
Q 2675 3391 2411 3762 
Q 2147 4134 1753 4134 
Q 1366 4134 1134 3806 
Q 844 3388 844 2259 
z
" transform="scale(0.015625)"/>
     <path id="ArialMT-33" d="M 269 1209 
L 831 1284 
Q 928 806 1161 595 
Q 1394 384 1728 384 
Q 2125 384 2398 659 
Q 2672 934 2672 1341 
Q 2672 1728 2419 1979 
Q 2166 2231 1775 2231 
Q 1616 2231 1378 2169 
L 1441 2663 
Q 1497 2656 1531 2656 
Q 1891 2656 2178 2843 
Q 2466 3031 2466 3422 
Q 2466 3731 2256 3934 
Q 2047 4138 1716 4138 
Q 1388 4138 1169 3931 
Q 950 3725 888 3313 
L 325 3413 
Q 428 3978 793 4289 
Q 1159 4600 1703 4600 
Q 2078 4600 2393 4439 
Q 2709 4278 2876 4000 
Q 3044 3722 3044 3409 
Q 3044 3113 2884 2869 
Q 2725 2625 2413 2481 
Q 2819 2388 3044 2092 
Q 3269 1797 3269 1353 
Q 3269 753 2831 336 
Q 2394 -81 1725 -81 
Q 1122 -81 723 278 
Q 325 638 269 1209 
z
" transform="scale(0.015625)"/>
    </defs>
    <use xlink:href="#ArialMT-40"/>
    <use xlink:href="#ArialMT-6c" x="101.513672"/>
    <use xlink:href="#ArialMT-61" x="123.730469"/>
    <use xlink:href="#ArialMT-67" x="179.345703"/>
    <use xlink:href="#ArialMT-6f" x="234.960938"/>
    <use xlink:href="#ArialMT-6d" x="290.576172"/>
    <use xlink:href="#ArialMT-2d" x="373.876953"/>
    <use xlink:href="#ArialMT-51" x="407.177734"/>
    <use xlink:href="#ArialMT-42" x="484.960938"/>
    <use xlink:href="#ArialMT-3b" x="551.660156"/>
    <use xlink:href="#ArialMT-20" x="579.443359"/>
    <use xlink:href="#ArialMT-32" x="607.226562"/>
    <use xlink:href="#ArialMT-30" x="662.841797"/>
    <use xlink:href="#ArialMT-32" x="718.457031"/>
    <use xlink:href="#ArialMT-33" x="774.072266"/>
   </g>
  </g>
 </g>
 <defs>
  <clipPath id="p8e19121be5">
   <rect x="120.96" y="57.6" width="656.64" height="460.8"/>
  </clipPath>
 </defs>
</svg>
